  0
SECTION
  2
HEADER
  9
$ANGBASE
  50
0.0
  9
$ANGDIR
  70
1
  9
$MEASUREMENT
  70
1
  0
ENDSEC
  0
SECTION
  2
TABLES
  0
TABLE
  2
LTYPE
  70
4
  0
LTYPE
  5
40F
  2
CONTINUOUS
  70
0
  3
Solid line
  72
65
  73
0
  40
0.0
  0
LTYPE
  5
410
  2
DASHDOT
 70
0
  3
Dash Dot ____ _ ____ _
 72
65
 73
4
 40
2.0
 49
1.25
 49
-0.25
 49
0.25
 49
-0.25
  0
LTYPE
  5
411
  2
DASHED
 70
0
  3
Dashed __ __ __ __ __
 72
65
 73
2
 40
0.75
 49
0.5
 49
-0.25
  0
LTYPE
  5
43B
  2
DOTTED
 70
0
  3
Dotted .  .  .  .
 72
65
 73
2
 40
0.2
 49
0.0
 49
-0.2
  0
ENDTAB
  0
TABLE
  2
STYLE
  70
4
  0
STYLE
  2
KICAD
  70
0
  40
0
  41
1
  42
1
  50
0
  71
0
  3
isocp.shx
  0
STYLE
  2
KICADB
  70
0
  40
0
  41
1
  42
1
  50
0
  71
0
  3
isocp.shx
  0
STYLE
  2
KICADI
  70
0
  40
0
  41
1
  42
1
  50
15
  71
0
  3
isocp.shx
  0
STYLE
  2
KICADBI
  70
0
  40
0
  41
1
  42
1
  50
15
  71
0
  3
isocp.shx
  0
ENDTAB
  0
TABLE
  2
LAYER
  70
1
  0
LAYER
  2
BLACK
  70
0
  62
7
  6
CONTINUOUS
  0
ENDTAB
  0
ENDSEC
  0
SECTION
  2
ENTITIES
0
LINE
8
BLACK
6
CONTINUOUS
10
133.4
20
-34.96
11
133.435
21
-34.9746
0
LINE
8
BLACK
6
CONTINUOUS
10
133.435
20
-34.9746
11
133.45
21
-35.01
0
LINE
8
BLACK
6
CONTINUOUS
10
133.45
20
-35.01
11
133.45
21
-39.21
0
LINE
8
BLACK
6
CONTINUOUS
10
133.45
20
-39.21
11
151.4
21
-39.21
0
LINE
8
BLACK
6
CONTINUOUS
10
151.4
20
-39.21
11
151.435
21
-39.2246
0
LINE
8
BLACK
6
CONTINUOUS
10
151.435
20
-39.2246
11
151.45
21
-39.26
0
LINE
8
BLACK
6
CONTINUOUS
10
151.45
20
-39.26
11
151.45
21
-50.25
0
LINE
8
BLACK
6
CONTINUOUS
10
151.45
20
-50.25
11
169.4
21
-50.26
0
LINE
8
BLACK
6
CONTINUOUS
10
169.4
20
-50.26
11
169.418
21
-50.2673
0
LINE
8
BLACK
6
CONTINUOUS
10
169.418
20
-50.2673
11
169.435
21
-50.2746
0
LINE
8
BLACK
6
CONTINUOUS
10
169.435
20
-50.2746
11
169.435
21
-50.2747
0
LINE
8
BLACK
6
CONTINUOUS
10
169.435
20
-50.2747
11
169.435
21
-50.2747
0
LINE
8
BLACK
6
CONTINUOUS
10
169.435
20
-50.2747
11
169.443
21
-50.2924
0
LINE
8
BLACK
6
CONTINUOUS
10
169.443
20
-50.2924
11
169.45
21
-50.31
0
LINE
8
BLACK
6
CONTINUOUS
10
169.45
20
-50.31
11
169.45
21
-84.3052
0
LINE
8
BLACK
6
CONTINUOUS
10
169.45
20
-84.3052
11
173.939
21
-107.25
0
LINE
8
BLACK
6
CONTINUOUS
10
173.939
20
-107.25
11
173.938
21
-107.255
0
LINE
8
BLACK
6
CONTINUOUS
10
173.938
20
-107.255
11
173.94
21
-107.26
0
LINE
8
BLACK
6
CONTINUOUS
10
173.94
20
-107.26
11
173.95
21
-124.26
0
LINE
8
BLACK
6
CONTINUOUS
10
173.95
20
-124.26
11
173.95
21
-124.26
0
LINE
8
BLACK
6
CONTINUOUS
10
173.95
20
-124.26
11
173.95
21
-124.26
0
LINE
8
BLACK
6
CONTINUOUS
10
173.95
20
-124.26
11
173.943
21
-124.277
0
LINE
8
BLACK
6
CONTINUOUS
10
173.943
20
-124.277
11
173.935
21
-124.295
0
LINE
8
BLACK
6
CONTINUOUS
10
173.935
20
-124.295
11
173.935
21
-124.295
0
LINE
8
BLACK
6
CONTINUOUS
10
173.935
20
-124.295
11
173.935
21
-124.295
0
LINE
8
BLACK
6
CONTINUOUS
10
173.935
20
-124.295
11
173.917
21
-124.303
0
LINE
8
BLACK
6
CONTINUOUS
10
173.917
20
-124.303
11
173.9
21
-124.31
0
LINE
8
BLACK
6
CONTINUOUS
10
173.9
20
-124.31
11
173.9
21
-124.31
0
LINE
8
BLACK
6
CONTINUOUS
10
173.9
20
-124.31
11
173.9
21
-124.31
0
LINE
8
BLACK
6
CONTINUOUS
10
173.9
20
-124.31
11
155.89
21
-124.31
0
LINE
8
BLACK
6
CONTINUOUS
10
155.89
20
-124.31
11
155.855
21
-124.295
0
LINE
8
BLACK
6
CONTINUOUS
10
155.855
20
-124.295
11
155.84
21
-124.26
0
LINE
8
BLACK
6
CONTINUOUS
10
155.84
20
-124.26
11
155.84
21
-121.76
0
LINE
8
BLACK
6
CONTINUOUS
10
155.84
20
-121.76
11
137.89
21
-121.76
0
LINE
8
BLACK
6
CONTINUOUS
10
137.89
20
-121.76
11
137.89
21
-121.76
0
LINE
8
BLACK
6
CONTINUOUS
10
137.89
20
-121.76
11
137.89
21
-121.76
0
LINE
8
BLACK
6
CONTINUOUS
10
137.89
20
-121.76
11
91.27
21
-121.75
0
LINE
8
BLACK
6
CONTINUOUS
10
91.27
20
-121.75
11
91.2526
21
-121.743
0
LINE
8
BLACK
6
CONTINUOUS
10
91.2526
20
-121.743
11
91.2346
21
-121.735
0
LINE
8
BLACK
6
CONTINUOUS
10
91.2346
20
-121.735
11
91.2346
21
-121.735
0
LINE
8
BLACK
6
CONTINUOUS
10
91.2346
20
-121.735
11
91.2346
21
-121.735
0
LINE
8
BLACK
6
CONTINUOUS
10
91.2346
20
-121.735
11
91.2272
21
-121.717
0
LINE
8
BLACK
6
CONTINUOUS
10
91.2272
20
-121.717
11
91.22
21
-121.7
0
LINE
8
BLACK
6
CONTINUOUS
10
91.22
20
-121.7
11
91.22
21
-100.858
0
LINE
8
BLACK
6
CONTINUOUS
10
91.22
20
-100.858
11
79.351
21
-86.0413
0
LINE
8
BLACK
6
CONTINUOUS
10
79.351
20
-86.0413
11
79.3463
21
-86.0253
0
LINE
8
BLACK
6
CONTINUOUS
10
79.3463
20
-86.0253
11
79.34
21
-86.01
0
LINE
8
BLACK
6
CONTINUOUS
10
79.34
20
-86.01
11
79.34
21
-52.01
0
LINE
8
BLACK
6
CONTINUOUS
10
79.34
20
-52.01
11
79.3546
21
-51.9746
0
LINE
8
BLACK
6
CONTINUOUS
10
79.3546
20
-51.9746
11
79.39
21
-51.96
0
LINE
8
BLACK
6
CONTINUOUS
10
79.39
20
-51.96
11
97.34
21
-51.96
0
LINE
8
BLACK
6
CONTINUOUS
10
97.34
20
-51.96
11
97.34
21
-39.26
0
LINE
8
BLACK
6
CONTINUOUS
10
97.34
20
-39.26
11
97.3473
21
-39.2424
0
LINE
8
BLACK
6
CONTINUOUS
10
97.3473
20
-39.2424
11
97.3546
21
-39.2247
0
LINE
8
BLACK
6
CONTINUOUS
10
97.3546
20
-39.2247
11
97.3546
21
-39.2247
0
LINE
8
BLACK
6
CONTINUOUS
10
97.3546
20
-39.2247
11
97.3546
21
-39.2246
0
LINE
8
BLACK
6
CONTINUOUS
10
97.3546
20
-39.2246
11
97.3724
21
-39.2173
0
LINE
8
BLACK
6
CONTINUOUS
10
97.3724
20
-39.2173
11
97.39
21
-39.21
0
LINE
8
BLACK
6
CONTINUOUS
10
97.39
20
-39.21
11
115.34
21
-39.2
0
LINE
8
BLACK
6
CONTINUOUS
10
115.34
20
-39.2
11
115.34
21
-35.01
0
LINE
8
BLACK
6
CONTINUOUS
10
115.34
20
-35.01
11
115.355
21
-34.9746
0
LINE
8
BLACK
6
CONTINUOUS
10
115.355
20
-34.9746
11
115.39
21
-34.96
0
LINE
8
BLACK
6
CONTINUOUS
10
115.39
20
-34.96
11
133.4
21
-34.96
0
LINE
8
BLACK
6
CONTINUOUS
10
115.44
20
-35.06
11
115.44
21
-39.25
0
LINE
8
BLACK
6
CONTINUOUS
10
115.44
20
-39.25
11
115.433
21
-39.2676
0
LINE
8
BLACK
6
CONTINUOUS
10
115.433
20
-39.2676
11
115.425
21
-39.2853
0
LINE
8
BLACK
6
CONTINUOUS
10
115.425
20
-39.2853
11
115.425
21
-39.2853
0
LINE
8
BLACK
6
CONTINUOUS
10
115.425
20
-39.2853
11
115.425
21
-39.2854
0
LINE
8
BLACK
6
CONTINUOUS
10
115.425
20
-39.2854
11
115.408
21
-39.2927
0
LINE
8
BLACK
6
CONTINUOUS
10
115.408
20
-39.2927
11
115.39
21
-39.3
0
LINE
8
BLACK
6
CONTINUOUS
10
115.39
20
-39.3
11
97.44
21
-39.31
0
LINE
8
BLACK
6
CONTINUOUS
10
97.44
20
-39.31
11
97.44
21
-52.01
0
LINE
8
BLACK
6
CONTINUOUS
10
97.44
20
-52.01
11
97.4254
21
-52.0454
0
LINE
8
BLACK
6
CONTINUOUS
10
97.4254
20
-52.0454
11
97.39
21
-52.06
0
LINE
8
BLACK
6
CONTINUOUS
10
97.39
20
-52.06
11
79.44
21
-52.06
0
LINE
8
BLACK
6
CONTINUOUS
10
79.44
20
-52.06
11
79.44
21
-85.9924
0
LINE
8
BLACK
6
CONTINUOUS
10
79.44
20
-85.9924
11
91.309
21
-100.809
0
LINE
8
BLACK
6
CONTINUOUS
10
91.309
20
-100.809
11
91.3137
21
-100.825
0
LINE
8
BLACK
6
CONTINUOUS
10
91.3137
20
-100.825
11
91.32
21
-100.84
0
LINE
8
BLACK
6
CONTINUOUS
10
91.32
20
-100.84
11
91.32
21
-121.65
0
LINE
8
BLACK
6
CONTINUOUS
10
91.32
20
-121.65
11
137.89
21
-121.66
0
LINE
8
BLACK
6
CONTINUOUS
10
137.89
20
-121.66
11
155.89
21
-121.66
0
LINE
8
BLACK
6
CONTINUOUS
10
155.89
20
-121.66
11
155.925
21
-121.675
0
LINE
8
BLACK
6
CONTINUOUS
10
155.925
20
-121.675
11
155.94
21
-121.71
0
LINE
8
BLACK
6
CONTINUOUS
10
155.94
20
-121.71
11
155.94
21
-124.21
0
LINE
8
BLACK
6
CONTINUOUS
10
155.94
20
-124.21
11
173.85
21
-124.21
0
LINE
8
BLACK
6
CONTINUOUS
10
173.85
20
-124.21
11
173.84
21
-107.265
0
LINE
8
BLACK
6
CONTINUOUS
10
173.84
20
-107.265
11
169.351
21
-84.3196
0
LINE
8
BLACK
6
CONTINUOUS
10
169.351
20
-84.3196
11
169.352
21
-84.3147
0
LINE
8
BLACK
6
CONTINUOUS
10
169.352
20
-84.3147
11
169.35
21
-84.31
0
LINE
8
BLACK
6
CONTINUOUS
10
169.35
20
-84.31
11
169.35
21
-50.36
0
LINE
8
BLACK
6
CONTINUOUS
10
169.35
20
-50.36
11
151.4
21
-50.35
0
LINE
8
BLACK
6
CONTINUOUS
10
151.4
20
-50.35
11
151.382
21
-50.3427
0
LINE
8
BLACK
6
CONTINUOUS
10
151.382
20
-50.3427
11
151.365
21
-50.3354
0
LINE
8
BLACK
6
CONTINUOUS
10
151.365
20
-50.3354
11
151.365
21
-50.3353
0
LINE
8
BLACK
6
CONTINUOUS
10
151.365
20
-50.3353
11
151.365
21
-50.3353
0
LINE
8
BLACK
6
CONTINUOUS
10
151.365
20
-50.3353
11
151.357
21
-50.3176
0
LINE
8
BLACK
6
CONTINUOUS
10
151.357
20
-50.3176
11
151.35
21
-50.3
0
LINE
8
BLACK
6
CONTINUOUS
10
151.35
20
-50.3
11
151.35
21
-39.31
0
LINE
8
BLACK
6
CONTINUOUS
10
151.35
20
-39.31
11
133.4
21
-39.31
0
LINE
8
BLACK
6
CONTINUOUS
10
133.4
20
-39.31
11
133.365
21
-39.2954
0
LINE
8
BLACK
6
CONTINUOUS
10
133.365
20
-39.2954
11
133.35
21
-39.26
0
LINE
8
BLACK
6
CONTINUOUS
10
133.35
20
-39.26
11
133.35
21
-35.06
0
LINE
8
BLACK
6
CONTINUOUS
10
133.35
20
-35.06
11
115.44
21
-35.06
  0
ENDSEC
  0
EOF
