  0
SECTION
  2
HEADER
  9
$ANGBASE
  50
0.0
  9
$ANGDIR
  70
1
  9
$MEASUREMENT
  70
1
  0
ENDSEC
  0
SECTION
  2
TABLES
  0
TABLE
  2
LTYPE
  70
4
  0
LTYPE
  5
40F
  2
CONTINUOUS
  70
0
  3
Solid line
  72
65
  73
0
  40
0.0
  0
LTYPE
  5
410
  2
DASHDOT
 70
0
  3
Dash Dot ____ _ ____ _
 72
65
 73
4
 40
2.0
 49
1.25
 49
-0.25
 49
0.25
 49
-0.25
  0
LTYPE
  5
411
  2
DASHED
 70
0
  3
Dashed __ __ __ __ __
 72
65
 73
2
 40
0.75
 49
0.5
 49
-0.25
  0
LTYPE
  5
43B
  2
DOTTED
 70
0
  3
Dotted .  .  .  .
 72
65
 73
2
 40
0.2
 49
0.0
 49
-0.2
  0
ENDTAB
  0
TABLE
  2
STYLE
  70
4
  0
STYLE
  2
KICAD
  70
0
  40
0
  41
1
  42
1
  50
0
  71
0
  3
isocp.shx
  0
STYLE
  2
KICADB
  70
0
  40
0
  41
1
  42
1
  50
0
  71
0
  3
isocp.shx
  0
STYLE
  2
KICADI
  70
0
  40
0
  41
1
  42
1
  50
15
  71
0
  3
isocp.shx
  0
STYLE
  2
KICADBI
  70
0
  40
0
  41
1
  42
1
  50
15
  71
0
  3
isocp.shx
  0
ENDTAB
  0
TABLE
  2
LAYER
  70
1
  0
LAYER
  2
BLACK
  70
0
  62
7
  6
CONTINUOUS
  0
ENDTAB
  0
ENDSEC
  0
SECTION
  2
ENTITIES
0
LINE
8
BLACK
6
CONTINUOUS
10
135.04
20
-121.403
11
133.94
21
-121.403
0
LINE
8
BLACK
6
CONTINUOUS
10
133.94
20
-121.403
11
133.94
21
-120.803
0
LINE
8
BLACK
6
CONTINUOUS
10
133.94
20
-120.803
11
135.04
21
-120.803
0
LINE
8
BLACK
6
CONTINUOUS
10
135.04
20
-120.803
11
135.04
21
-121.403
0
LINE
8
BLACK
6
CONTINUOUS
10
127.79
20
-121.403
11
126.79
21
-121.403
0
LINE
8
BLACK
6
CONTINUOUS
10
126.79
20
-121.403
11
126.79
21
-120.803
0
LINE
8
BLACK
6
CONTINUOUS
10
126.79
20
-120.803
11
127.79
21
-120.803
0
LINE
8
BLACK
6
CONTINUOUS
10
127.79
20
-120.803
11
127.79
21
-121.403
0
LINE
8
BLACK
6
CONTINUOUS
10
134.99
20
-119.117
11
133.99
21
-119.117
0
LINE
8
BLACK
6
CONTINUOUS
10
133.99
20
-119.117
11
133.99
21
-118.517
0
LINE
8
BLACK
6
CONTINUOUS
10
133.99
20
-118.517
11
134.99
21
-118.517
0
LINE
8
BLACK
6
CONTINUOUS
10
134.99
20
-118.517
11
134.99
21
-119.117
0
LINE
8
BLACK
6
CONTINUOUS
10
127.84
20
-119.117
11
126.74
21
-119.117
0
LINE
8
BLACK
6
CONTINUOUS
10
126.74
20
-119.117
11
126.74
21
-118.517
0
LINE
8
BLACK
6
CONTINUOUS
10
126.74
20
-118.517
11
127.84
21
-118.517
0
LINE
8
BLACK
6
CONTINUOUS
10
127.84
20
-118.517
11
127.84
21
-119.117
0
LINE
8
BLACK
6
CONTINUOUS
10
133.39
20
-118.61
11
132.79
21
-118.61
0
LINE
8
BLACK
6
CONTINUOUS
10
132.79
20
-118.61
11
132.79
21
-117.61
0
LINE
8
BLACK
6
CONTINUOUS
10
132.79
20
-117.61
11
133.39
21
-117.61
0
LINE
8
BLACK
6
CONTINUOUS
10
133.39
20
-117.61
11
133.39
21
-118.61
0
LINE
8
BLACK
6
CONTINUOUS
10
131.89
20
-118.61
11
131.29
21
-118.61
0
LINE
8
BLACK
6
CONTINUOUS
10
131.29
20
-118.61
11
131.29
21
-117.61
0
LINE
8
BLACK
6
CONTINUOUS
10
131.29
20
-117.61
11
131.89
21
-117.61
0
LINE
8
BLACK
6
CONTINUOUS
10
131.89
20
-117.61
11
131.89
21
-118.61
0
LINE
8
BLACK
6
CONTINUOUS
10
128.99
20
-118.61
11
128.39
21
-118.61
0
LINE
8
BLACK
6
CONTINUOUS
10
128.39
20
-118.61
11
128.39
21
-117.61
0
LINE
8
BLACK
6
CONTINUOUS
10
128.39
20
-117.61
11
128.99
21
-117.61
0
LINE
8
BLACK
6
CONTINUOUS
10
128.99
20
-117.61
11
128.99
21
-118.61
0
LINE
8
BLACK
6
CONTINUOUS
10
147.14
20
-100.23
11
146.14
21
-100.23
0
LINE
8
BLACK
6
CONTINUOUS
10
146.14
20
-100.23
11
146.14
21
-99.53
0
LINE
8
BLACK
6
CONTINUOUS
10
146.14
20
-99.53
11
147.14
21
-99.53
0
LINE
8
BLACK
6
CONTINUOUS
10
147.14
20
-99.53
11
147.14
21
-100.23
0
LINE
8
BLACK
6
CONTINUOUS
10
141.14
20
-100.23
11
140.14
21
-100.23
0
LINE
8
BLACK
6
CONTINUOUS
10
140.14
20
-100.23
11
140.14
21
-99.53
0
LINE
8
BLACK
6
CONTINUOUS
10
140.14
20
-99.53
11
141.14
21
-99.53
0
LINE
8
BLACK
6
CONTINUOUS
10
141.14
20
-99.53
11
141.14
21
-100.23
0
LINE
8
BLACK
6
CONTINUOUS
10
147.14
20
-96.53
11
146.14
21
-96.53
0
LINE
8
BLACK
6
CONTINUOUS
10
146.14
20
-96.53
11
146.14
21
-95.83
0
LINE
8
BLACK
6
CONTINUOUS
10
146.14
20
-95.83
11
147.14
21
-95.83
0
LINE
8
BLACK
6
CONTINUOUS
10
147.14
20
-95.83
11
147.14
21
-96.53
0
LINE
8
BLACK
6
CONTINUOUS
10
141.14
20
-96.53
11
140.14
21
-96.53
0
LINE
8
BLACK
6
CONTINUOUS
10
140.14
20
-96.53
11
140.14
21
-95.83
0
LINE
8
BLACK
6
CONTINUOUS
10
140.14
20
-95.83
11
141.14
21
-95.83
0
LINE
8
BLACK
6
CONTINUOUS
10
141.14
20
-95.83
11
141.14
21
-96.53
  0
ENDSEC
  0
EOF
