G04 #@! TF.GenerationSoftware,KiCad,Pcbnew,7.0.1*
G04 #@! TF.CreationDate,2024-05-26T16:47:26-04:00*
G04 #@! TF.ProjectId,30,33302e6b-6963-4616-945f-706362585858,rev?*
G04 #@! TF.SameCoordinates,Original*
G04 #@! TF.FileFunction,Soldermask,Bot*
G04 #@! TF.FilePolarity,Negative*
%FSLAX46Y46*%
G04 Gerber Fmt 4.6, Leading zero omitted, Abs format (unit mm)*
G04 Created by KiCad (PCBNEW 7.0.1) date 2024-05-26 16:47:26*
%MOMM*%
%LPD*%
G01*
G04 APERTURE LIST*
G04 Aperture macros list*
%AMRoundRect*
0 Rectangle with rounded corners*
0 $1 Rounding radius*
0 $2 $3 $4 $5 $6 $7 $8 $9 X,Y pos of 4 corners*
0 Add a 4 corners polygon primitive as box body*
4,1,4,$2,$3,$4,$5,$6,$7,$8,$9,$2,$3,0*
0 Add four circle primitives for the rounded corners*
1,1,$1+$1,$2,$3*
1,1,$1+$1,$4,$5*
1,1,$1+$1,$6,$7*
1,1,$1+$1,$8,$9*
0 Add four rect primitives between the rounded corners*
20,1,$1+$1,$2,$3,$4,$5,0*
20,1,$1+$1,$4,$5,$6,$7,0*
20,1,$1+$1,$6,$7,$8,$9,0*
20,1,$1+$1,$8,$9,$2,$3,0*%
G04 Aperture macros list end*
%ADD10O,3.290000X1.500000*%
%ADD11O,1.500000X3.290000*%
%ADD12C,3.050000*%
%ADD13RoundRect,0.250000X-0.506347X-1.339492X1.351584X-0.473124X0.506347X1.339492X-1.351584X0.473124X0*%
%ADD14C,4.000000*%
%ADD15C,1.750000*%
%ADD16RoundRect,0.250000X-1.351584X-0.473124X0.506347X-1.339492X1.351584X0.473124X-0.506347X1.339492X0*%
%ADD17RoundRect,0.225000X0.434955X-0.045437X0.244776X0.362401X-0.434955X0.045437X-0.244776X-0.362401X0*%
%ADD18RoundRect,0.225000X0.244776X-0.362401X0.434955X0.045437X-0.244776X0.362401X-0.434955X-0.045437X0*%
G04 APERTURE END LIST*
D10*
X113659000Y-34798000D03*
X113659000Y-37338000D03*
X113659000Y-39878000D03*
X113659000Y-42418000D03*
X113659000Y-44958000D03*
X113659000Y-47498000D03*
X113659000Y-50038000D03*
X113659000Y-52578000D03*
X113659000Y-55118000D03*
D11*
X117094000Y-56013000D03*
X119634000Y-56013000D03*
X122174000Y-56013000D03*
X124714000Y-56013000D03*
X127254000Y-56013000D03*
D10*
X130689000Y-55118000D03*
X130689000Y-52578000D03*
X130689000Y-50038000D03*
X130689000Y-47498000D03*
X130689000Y-44958000D03*
X130689000Y-42418000D03*
X130689000Y-39878000D03*
X130689000Y-37338000D03*
X130689000Y-34798000D03*
D12*
X185214903Y-103195514D03*
X189896507Y-98209866D03*
D13*
X182246745Y-104579589D03*
X192889135Y-96814381D03*
D14*
X189741386Y-103887360D03*
D15*
X185137342Y-106034261D03*
X194345430Y-101740459D03*
D12*
X169962459Y-115562683D03*
X174644063Y-110577035D03*
D13*
X166994301Y-116946758D03*
X177636691Y-109181550D03*
D14*
X174488942Y-116254529D03*
D15*
X169884898Y-118401430D03*
X179092986Y-114107628D03*
D12*
X67439305Y-112340022D03*
X74267810Y-112721626D03*
D16*
X64471147Y-110955947D03*
X77260438Y-114117111D03*
D14*
X69818887Y-116252219D03*
D15*
X65214843Y-114105318D03*
X74422931Y-118399120D03*
D12*
X52186861Y-99972853D03*
X59015366Y-100354457D03*
D16*
X49218703Y-98588778D03*
X62007994Y-101749942D03*
D14*
X54566443Y-103885050D03*
D15*
X49962399Y-101738149D03*
X59170487Y-106031951D03*
D12*
X196732760Y-71550462D03*
X201414364Y-66564814D03*
D13*
X193764602Y-72934537D03*
X204406992Y-65169329D03*
D14*
X201259243Y-72242308D03*
D15*
X196655199Y-74389209D03*
X205863287Y-70095407D03*
D12*
X177454877Y-75285049D03*
X182136481Y-70299401D03*
D13*
X174486719Y-76669124D03*
X185129109Y-68903916D03*
D14*
X181981360Y-75976895D03*
D15*
X177377316Y-78123796D03*
X186585404Y-73829994D03*
D12*
X162202433Y-87652218D03*
X166884037Y-82666570D03*
D13*
X159234275Y-89036293D03*
X169876665Y-81271085D03*
D14*
X166728916Y-88344064D03*
D15*
X162124872Y-90490965D03*
X171332960Y-86197163D03*
D12*
X75199331Y-84429557D03*
X82027836Y-84811161D03*
D16*
X72231173Y-83045482D03*
X85020464Y-86206646D03*
D14*
X77578913Y-88341754D03*
D15*
X72974869Y-86194853D03*
X82182957Y-90488655D03*
D12*
X59946887Y-72062388D03*
X66775392Y-72443992D03*
D16*
X56978729Y-70678313D03*
X69768020Y-73839477D03*
D14*
X62326469Y-75974585D03*
D15*
X57722425Y-73827684D03*
X66930513Y-78121486D03*
D12*
X40669004Y-68327801D03*
X47497509Y-68709405D03*
D16*
X37700846Y-66943726D03*
X50490137Y-70104890D03*
D14*
X43048586Y-72239998D03*
D15*
X38444542Y-70093097D03*
X47652630Y-74386899D03*
D12*
X209972484Y-54867003D03*
X214654088Y-49881355D03*
D13*
X207004326Y-56251078D03*
X217646716Y-48485870D03*
D14*
X214498967Y-55558849D03*
D15*
X209894923Y-57705750D03*
X219103011Y-53411948D03*
D12*
X188681882Y-54285299D03*
X193363486Y-49299651D03*
D13*
X185713724Y-55669374D03*
X196356114Y-47904166D03*
D14*
X193208365Y-54977145D03*
D15*
X188604321Y-57124046D03*
X197812409Y-52830244D03*
D12*
X169403999Y-58019886D03*
X174085603Y-53034238D03*
D13*
X166435841Y-59403961D03*
X177078231Y-51638753D03*
D14*
X173930482Y-58711732D03*
D15*
X169326438Y-60858633D03*
X178534526Y-56564831D03*
D12*
X154151555Y-70387055D03*
X158833159Y-65401407D03*
D13*
X151183397Y-71771130D03*
X161825787Y-64005922D03*
D14*
X158678038Y-71078901D03*
D15*
X154073994Y-73225802D03*
X163282082Y-68932000D03*
D12*
X138899111Y-82754224D03*
X143580715Y-77768576D03*
D13*
X135930953Y-84138299D03*
X146573343Y-76373091D03*
D14*
X143425594Y-83446070D03*
D15*
X138821550Y-85592971D03*
X148029638Y-81299169D03*
D12*
X98502653Y-79531563D03*
X105331158Y-79913167D03*
D16*
X95534495Y-78147488D03*
X108323786Y-81308652D03*
D14*
X100882235Y-83443760D03*
D15*
X96278191Y-81296859D03*
X105486279Y-85590661D03*
D12*
X83250209Y-67164394D03*
X90078714Y-67545998D03*
D16*
X80282051Y-65780319D03*
X93071342Y-68941483D03*
D14*
X85629791Y-71076591D03*
D15*
X81025747Y-68929690D03*
X90233835Y-73223492D03*
D12*
X67997765Y-54797225D03*
X74826270Y-55178829D03*
D16*
X65029607Y-53413150D03*
X77818898Y-56574314D03*
D14*
X70377347Y-58709422D03*
D15*
X65773303Y-56562521D03*
X74981391Y-60856323D03*
D12*
X48719882Y-51062638D03*
X55548387Y-51444242D03*
D16*
X45751724Y-49678563D03*
X58541015Y-52839727D03*
D14*
X51099464Y-54974835D03*
D15*
X46495420Y-52827934D03*
X55703508Y-57121736D03*
D12*
X27429280Y-51644342D03*
X34257785Y-52025946D03*
D16*
X24461122Y-50260267D03*
X37250413Y-53421431D03*
D14*
X29808862Y-55556539D03*
D15*
X25204818Y-53409638D03*
X34412906Y-57703440D03*
D12*
X201921606Y-37601839D03*
X206603210Y-32616191D03*
D13*
X198953448Y-38985914D03*
X209595838Y-31220706D03*
D14*
X206448089Y-38293685D03*
D15*
X201844045Y-40440586D03*
X211052133Y-36146784D03*
D12*
X180631004Y-37020136D03*
X185312608Y-32034488D03*
D13*
X177662846Y-38404211D03*
X188305236Y-30639003D03*
D14*
X185157487Y-37711982D03*
D15*
X180553443Y-39858883D03*
X189761531Y-35565081D03*
D12*
X161353121Y-40754723D03*
X166034725Y-35769075D03*
D13*
X158384963Y-42138798D03*
X169027353Y-34373590D03*
D14*
X165879604Y-41446569D03*
D15*
X161275560Y-43593470D03*
X170483648Y-39299668D03*
D12*
X146100677Y-53121891D03*
X150782281Y-48136243D03*
D13*
X143132519Y-54505966D03*
X153774909Y-46740758D03*
D14*
X150627160Y-53813737D03*
D15*
X146023116Y-55960638D03*
X155231204Y-51666836D03*
D12*
X130848233Y-65489060D03*
X135529837Y-60503412D03*
D13*
X127880075Y-66873135D03*
X138522465Y-59107927D03*
D14*
X135374716Y-66180906D03*
D15*
X130770672Y-68327807D03*
X139978760Y-64034005D03*
D12*
X106553531Y-62266399D03*
X113382036Y-62648003D03*
D16*
X103585373Y-60882324D03*
X116374664Y-64043488D03*
D14*
X108933113Y-66178596D03*
D15*
X104329069Y-64031695D03*
X113537157Y-68325497D03*
D12*
X91301087Y-49899230D03*
X98129592Y-50280834D03*
D16*
X88332929Y-48515155D03*
X101122220Y-51676319D03*
D14*
X93680669Y-53811427D03*
D15*
X89076625Y-51664526D03*
X98284713Y-55958328D03*
D12*
X76048643Y-37532062D03*
X82877148Y-37913666D03*
D16*
X73080485Y-36147987D03*
X85869776Y-39309151D03*
D14*
X78428225Y-41444259D03*
D15*
X73824181Y-39297358D03*
X83032269Y-43591160D03*
D12*
X56770760Y-33797475D03*
X63599265Y-34179079D03*
D16*
X53802602Y-32413400D03*
X66591893Y-35574564D03*
D14*
X59150342Y-37709672D03*
D15*
X54546298Y-35562771D03*
X63754386Y-39856573D03*
D12*
X35480158Y-34379178D03*
X42308663Y-34760782D03*
D16*
X32512000Y-32995103D03*
X45301291Y-36156267D03*
D14*
X37859740Y-38291375D03*
D15*
X33255696Y-36144474D03*
X42463784Y-40438276D03*
D17*
X196599252Y-106573799D03*
X195204612Y-103582983D03*
X181373645Y-118998518D03*
X179979005Y-116007702D03*
D18*
X72142271Y-123290010D03*
X73536911Y-120299194D03*
X56916664Y-110865290D03*
X58311304Y-107874474D03*
D17*
X208090273Y-74871197D03*
X206695633Y-71880381D03*
X188892899Y-78778435D03*
X187498259Y-75787619D03*
X173559946Y-90972952D03*
X172165306Y-87982136D03*
D18*
X79955970Y-95264444D03*
X81350610Y-92273628D03*
X64623017Y-83069927D03*
X66017657Y-80079111D03*
X45425643Y-79162688D03*
X46820283Y-76171872D03*
D17*
X221383670Y-58302838D03*
X219989030Y-55312022D03*
X200146740Y-57836235D03*
X198752100Y-54845419D03*
X180842021Y-61513272D03*
X179447381Y-58522456D03*
X165616413Y-73937991D03*
X164221773Y-70947175D03*
X150283461Y-86132508D03*
X148888821Y-83141692D03*
D18*
X103232455Y-90424000D03*
X104627095Y-87433184D03*
X87899503Y-78229483D03*
X89294143Y-75238667D03*
X72673895Y-65804764D03*
X74068535Y-62813948D03*
X53422426Y-62013532D03*
X54817066Y-59022716D03*
X32078996Y-62708524D03*
X33473636Y-59717708D03*
D17*
X213332792Y-41037675D03*
X211938152Y-38046859D03*
X192042612Y-40456877D03*
X190647972Y-37466061D03*
X172791143Y-44248109D03*
X171396503Y-41257293D03*
X157458190Y-56442626D03*
X156063550Y-53451810D03*
X140837943Y-65876529D03*
X142232583Y-68867345D03*
D18*
X111283333Y-73158837D03*
X112677973Y-70168021D03*
X96057726Y-60734117D03*
X97452366Y-57743301D03*
X80724773Y-48539600D03*
X82119413Y-45548784D03*
X61473304Y-44748369D03*
X62867944Y-41757553D03*
X40183124Y-45329166D03*
X41577764Y-42338350D03*
M02*
