M48
; DRILL file {KiCad 7.0.1} date Sun May 26 16:47:28 2024
; FORMAT={-:-/ absolute / metric / decimal}
; #@! TF.CreationDate,2024-05-26T16:47:28-04:00
; #@! TF.GenerationSoftware,Kicad,Pcbnew,7.0.1
; #@! TF.FileFunction,NonPlated,1,2,NPTH
FMAT,2
METRIC
; #@! TA.AperFunction,NonPlated,NPTH,ComponentDrill
T1C1.750
; #@! TA.AperFunction,NonPlated,NPTH,ComponentDrill
T2C3.050
; #@! TA.AperFunction,NonPlated,NPTH,ComponentDrill
T3C4.000
%
G90
G05
T1
X25.205Y-53.41
X33.256Y-36.144
X34.413Y-57.703
X38.445Y-70.093
X42.464Y-40.438
X46.495Y-52.828
X47.653Y-74.387
X49.962Y-101.738
X54.546Y-35.563
X55.704Y-57.122
X57.722Y-73.828
X59.17Y-106.032
X63.754Y-39.857
X65.215Y-114.105
X65.773Y-56.563
X66.931Y-78.121
X72.975Y-86.195
X73.824Y-39.297
X74.423Y-118.399
X74.981Y-60.856
X81.026Y-68.93
X82.183Y-90.489
X83.032Y-43.591
X89.077Y-51.665
X90.234Y-73.223
X96.278Y-81.297
X98.285Y-55.958
X104.329Y-64.032
X105.486Y-85.591
X113.537Y-68.325
X130.771Y-68.328
X138.822Y-85.593
X139.979Y-64.034
X146.023Y-55.961
X148.03Y-81.299
X154.074Y-73.226
X155.231Y-51.667
X161.276Y-43.593
X162.125Y-90.491
X163.282Y-68.932
X169.326Y-60.859
X169.885Y-118.401
X170.484Y-39.3
X171.333Y-86.197
X177.377Y-78.124
X178.535Y-56.565
X179.093Y-114.108
X180.553Y-39.859
X185.137Y-106.034
X186.585Y-73.83
X188.604Y-57.124
X189.762Y-35.565
X194.345Y-101.74
X196.655Y-74.389
X197.812Y-52.83
X201.844Y-40.441
X205.863Y-70.095
X209.895Y-57.706
X211.052Y-36.147
X219.103Y-53.412
T2
X27.429Y-51.644
X34.258Y-52.026
X35.48Y-34.379
X40.669Y-68.328
X42.309Y-34.761
X47.498Y-68.709
X48.72Y-51.063
X52.187Y-99.973
X55.548Y-51.444
X56.771Y-33.797
X59.015Y-100.354
X59.947Y-72.062
X63.599Y-34.179
X66.775Y-72.444
X67.439Y-112.34
X67.998Y-54.797
X74.268Y-112.722
X74.826Y-55.179
X75.199Y-84.43
X76.049Y-37.532
X82.028Y-84.811
X82.877Y-37.914
X83.25Y-67.164
X90.079Y-67.546
X91.301Y-49.899
X98.13Y-50.281
X98.503Y-79.532
X105.331Y-79.913
X106.554Y-62.266
X113.382Y-62.648
X130.848Y-65.489
X135.53Y-60.503
X138.899Y-82.754
X143.581Y-77.769
X146.101Y-53.122
X150.782Y-48.136
X154.152Y-70.387
X158.833Y-65.401
X161.353Y-40.755
X162.202Y-87.652
X166.035Y-35.769
X166.884Y-82.667
X169.404Y-58.02
X169.962Y-115.563
X174.086Y-53.034
X174.644Y-110.577
X177.455Y-75.285
X180.631Y-37.02
X182.136Y-70.299
X185.215Y-103.196
X185.313Y-32.034
X188.682Y-54.285
X189.897Y-98.21
X193.363Y-49.3
X196.733Y-71.55
X201.414Y-66.565
X201.922Y-37.602
X206.603Y-32.616
X209.972Y-54.867
X214.654Y-49.881
T3
X29.809Y-55.557
X37.86Y-38.291
X43.049Y-72.24
X51.099Y-54.975
X54.566Y-103.885
X59.15Y-37.71
X62.326Y-75.975
X69.819Y-116.252
X70.377Y-58.709
X77.579Y-88.342
X78.428Y-41.444
X85.63Y-71.077
X93.681Y-53.811
X100.882Y-83.444
X108.933Y-66.179
X135.375Y-66.181
X143.426Y-83.446
X150.627Y-53.814
X158.678Y-71.079
X165.88Y-41.447
X166.729Y-88.344
X173.93Y-58.712
X174.489Y-116.255
X181.981Y-75.977
X185.157Y-37.712
X189.741Y-103.887
X193.208Y-54.977
X201.259Y-72.242
X206.448Y-38.294
X214.499Y-55.559
T0
M30
