M48
; DRILL file {KiCad 7.0.1} date Sun May 26 16:47:28 2024
; FORMAT={-:-/ absolute / metric / decimal}
; #@! TF.CreationDate,2024-05-26T16:47:28-04:00
; #@! TF.GenerationSoftware,Kicad,Pcbnew,7.0.1
; #@! TF.FileFunction,Plated,1,2,PTH
FMAT,2
METRIC
; #@! TA.AperFunction,Plated,PTH,ViaDrill
T1C0.400
; #@! TA.AperFunction,Plated,PTH,ComponentDrill
T2C1.000
%
G90
G05
T1
X35.931Y-66.469
X44.089Y-48.973
X51.023Y-94.806
X52.14Y-31.708
X55.113Y-69.808
X58.674Y-110.744
X63.164Y-52.543
X67.322Y-104.929
X70.231Y-82.463
X71.107Y-35.508
X78.496Y-64.737
X85.42Y-47.278
X86.44Y-47.703
X89.539Y-86.491
X93.845Y-77.5
X98.806Y-65.024
X101.896Y-60.235
X119.126Y-61.722
X125.365Y-60.007
X125.984Y-58.674
X131.84Y-61.79
X133.13Y-60.044
X141.178Y-55.487
X149.229Y-72.753
X149.261Y-74.94
X152.654Y-83.82
X154.192Y-85.109
X155.348Y-85.874
X156.634Y-42.955
X159.258Y-80.518
X164.685Y-60.22
X172.736Y-77.486
X175.939Y-39.278
X179.189Y-99.139
X183.99Y-56.543
X187.198Y-99.822
X192.148Y-74.039
X200.091Y-41.188
X206.209Y-54.31
T2
X114.554Y-34.798
X114.554Y-37.338
X114.554Y-39.878
X114.554Y-42.418
X114.554Y-44.958
X114.554Y-47.498
X114.554Y-50.038
X114.554Y-52.578
X114.554Y-55.118
X117.094Y-55.118
X119.634Y-55.118
X122.174Y-55.118
X124.714Y-55.118
X127.254Y-55.118
X129.794Y-34.798
X129.794Y-37.338
X129.794Y-39.878
X129.794Y-42.418
X129.794Y-44.958
X129.794Y-47.498
X129.794Y-50.038
X129.794Y-52.578
X129.794Y-55.118
T0
M30
