  0
SECTION
  2
HEADER
  9
$ANGBASE
  50
0.0
  9
$ANGDIR
  70
1
  9
$MEASUREMENT
  70
0
  0
ENDSEC
  0
SECTION
  2
TABLES
  0
TABLE
  2
LTYPE
  70
4
  0
LTYPE
  5
40F
  2
CONTINUOUS
  70
0
  3
Solid line
  72
65
  73
0
  40
0.0
  0
LTYPE
  5
410
  2
DASHDOT
 70
0
  3
Dash Dot ____ _ ____ _
 72
65
 73
4
 40
2.0
 49
1.25
 49
-0.25
 49
0.25
 49
-0.25
  0
LTYPE
  5
411
  2
DASHED
 70
0
  3
Dashed __ __ __ __ __
 72
65
 73
2
 40
0.75
 49
0.5
 49
-0.25
  0
LTYPE
  5
43B
  2
DOTTED
 70
0
  3
Dotted .  .  .  .
 72
65
 73
2
 40
0.2
 49
0.0
 49
-0.2
  0
ENDTAB
  0
TABLE
  2
STYLE
  70
4
  0
STYLE
  2
KICAD
  70
0
  40
0
  41
1
  42
1
  50
0
  71
0
  3
isocp.shx
  0
STYLE
  2
KICADB
  70
0
  40
0
  41
1
  42
1
  50
0
  71
0
  3
isocp.shx
  0
STYLE
  2
KICADI
  70
0
  40
0
  41
1
  42
1
  50
15
  71
0
  3
isocp.shx
  0
STYLE
  2
KICADBI
  70
0
  40
0
  41
1
  42
1
  50
15
  71
0
  3
isocp.shx
  0
ENDTAB
  0
TABLE
  2
LAYER
  70
1
  0
LAYER
  2
BLACK
  70
0
  62
7
  6
CONTINUOUS
  0
ENDTAB
  0
ENDSEC
  0
SECTION
  2
ENTITIES
0
LINE
8
BLACK
6
CONTINUOUS
10
4.4859
20
-5.82093
11
4.51364
21
-5.83103
0
LINE
8
BLACK
6
CONTINUOUS
10
4.51364
20
-5.83103
11
4.5166
21
-5.83282
0
LINE
8
BLACK
6
CONTINUOUS
10
4.5166
20
-5.83282
11
4.51864
21
-5.83561
0
LINE
8
BLACK
6
CONTINUOUS
10
4.51864
20
-5.83561
11
4.51946
21
-5.83896
0
LINE
8
BLACK
6
CONTINUOUS
10
4.51946
20
-5.83896
11
4.51894
21
-5.84238
0
LINE
8
BLACK
6
CONTINUOUS
10
4.51894
20
-5.84238
11
4.51288
21
-5.85903
0
LINE
8
BLACK
6
CONTINUOUS
10
4.51288
20
-5.85903
11
4.51109
21
-5.86198
0
LINE
8
BLACK
6
CONTINUOUS
10
4.51109
20
-5.86198
11
4.5083
21
-5.86403
0
LINE
8
BLACK
6
CONTINUOUS
10
4.5083
20
-5.86403
11
4.50494
21
-5.86485
0
LINE
8
BLACK
6
CONTINUOUS
10
4.50494
20
-5.86485
11
4.50153
21
-5.86432
0
LINE
8
BLACK
6
CONTINUOUS
10
4.50153
20
-5.86432
11
4.47378
21
-5.85422
0
LINE
8
BLACK
6
CONTINUOUS
10
4.47378
20
-5.85422
11
4.47082
21
-5.85243
0
LINE
8
BLACK
6
CONTINUOUS
10
4.47082
20
-5.85243
11
4.46878
21
-5.84964
0
LINE
8
BLACK
6
CONTINUOUS
10
4.46878
20
-5.84964
11
4.46796
21
-5.84629
0
LINE
8
BLACK
6
CONTINUOUS
10
4.46796
20
-5.84629
11
4.46848
21
-5.84287
0
LINE
8
BLACK
6
CONTINUOUS
10
4.46848
20
-5.84287
11
4.47454
21
-5.82622
0
LINE
8
BLACK
6
CONTINUOUS
10
4.47454
20
-5.82622
11
4.47634
21
-5.82327
0
LINE
8
BLACK
6
CONTINUOUS
10
4.47634
20
-5.82327
11
4.47912
21
-5.82122
0
LINE
8
BLACK
6
CONTINUOUS
10
4.47912
20
-5.82122
11
4.48248
21
-5.8204
0
LINE
8
BLACK
6
CONTINUOUS
10
4.48248
20
-5.8204
11
4.4859
21
-5.82093
0
LINE
8
BLACK
6
CONTINUOUS
10
7.03229
20
-5.75045
11
7.03508
21
-5.75249
0
LINE
8
BLACK
6
CONTINUOUS
10
7.03508
20
-5.75249
11
7.03687
21
-5.75545
0
LINE
8
BLACK
6
CONTINUOUS
10
7.03687
20
-5.75545
11
7.04293
21
-5.7721
0
LINE
8
BLACK
6
CONTINUOUS
10
7.04293
20
-5.7721
11
7.04346
21
-5.77551
0
LINE
8
BLACK
6
CONTINUOUS
10
7.04346
20
-5.77551
11
7.04263
21
-5.77887
0
LINE
8
BLACK
6
CONTINUOUS
10
7.04263
20
-5.77887
11
7.04059
21
-5.78166
0
LINE
8
BLACK
6
CONTINUOUS
10
7.04059
20
-5.78166
11
7.03764
21
-5.78345
0
LINE
8
BLACK
6
CONTINUOUS
10
7.03764
20
-5.78345
11
7.00989
21
-5.79355
0
LINE
8
BLACK
6
CONTINUOUS
10
7.00989
20
-5.79355
11
7.00647
21
-5.79407
0
LINE
8
BLACK
6
CONTINUOUS
10
7.00647
20
-5.79407
11
7.00312
21
-5.79325
0
LINE
8
BLACK
6
CONTINUOUS
10
7.00312
20
-5.79325
11
7.00033
21
-5.79121
0
LINE
8
BLACK
6
CONTINUOUS
10
7.00033
20
-5.79121
11
6.99854
21
-5.78825
0
LINE
8
BLACK
6
CONTINUOUS
10
6.99854
20
-5.78825
11
6.99248
21
-5.77161
0
LINE
8
BLACK
6
CONTINUOUS
10
6.99248
20
-5.77161
11
6.99195
21
-5.76819
0
LINE
8
BLACK
6
CONTINUOUS
10
6.99195
20
-5.76819
11
6.99277
21
-5.76483
0
LINE
8
BLACK
6
CONTINUOUS
10
6.99277
20
-5.76483
11
6.99482
21
-5.76205
0
LINE
8
BLACK
6
CONTINUOUS
10
6.99482
20
-5.76205
11
6.99777
21
-5.76025
0
LINE
8
BLACK
6
CONTINUOUS
10
6.99777
20
-5.76025
11
7.02552
21
-5.75015
0
LINE
8
BLACK
6
CONTINUOUS
10
7.02552
20
-5.75015
11
7.02893
21
-5.74963
0
LINE
8
BLACK
6
CONTINUOUS
10
7.02893
20
-5.74963
11
7.03229
21
-5.75045
0
LINE
8
BLACK
6
CONTINUOUS
10
4.53033
20
-5.69884
11
4.55808
21
-5.70894
0
LINE
8
BLACK
6
CONTINUOUS
10
4.55808
20
-5.70894
11
4.56104
21
-5.71073
0
LINE
8
BLACK
6
CONTINUOUS
10
4.56104
20
-5.71073
11
4.56308
21
-5.71352
0
LINE
8
BLACK
6
CONTINUOUS
10
4.56308
20
-5.71352
11
4.5639
21
-5.71688
0
LINE
8
BLACK
6
CONTINUOUS
10
4.5639
20
-5.71688
11
4.56337
21
-5.72029
0
LINE
8
BLACK
6
CONTINUOUS
10
4.56337
20
-5.72029
11
4.55732
21
-5.73694
0
LINE
8
BLACK
6
CONTINUOUS
10
4.55732
20
-5.73694
11
4.55552
21
-5.7399
0
LINE
8
BLACK
6
CONTINUOUS
10
4.55552
20
-5.7399
11
4.55273
21
-5.74194
0
LINE
8
BLACK
6
CONTINUOUS
10
4.55273
20
-5.74194
11
4.54938
21
-5.74276
0
LINE
8
BLACK
6
CONTINUOUS
10
4.54938
20
-5.74276
11
4.54596
21
-5.74224
0
LINE
8
BLACK
6
CONTINUOUS
10
4.54596
20
-5.74224
11
4.51821
21
-5.73214
0
LINE
8
BLACK
6
CONTINUOUS
10
4.51821
20
-5.73214
11
4.51526
21
-5.73034
0
LINE
8
BLACK
6
CONTINUOUS
10
4.51526
20
-5.73034
11
4.51322
21
-5.72756
0
LINE
8
BLACK
6
CONTINUOUS
10
4.51322
20
-5.72756
11
4.51239
21
-5.7242
0
LINE
8
BLACK
6
CONTINUOUS
10
4.51239
20
-5.7242
11
4.51292
21
-5.72078
0
LINE
8
BLACK
6
CONTINUOUS
10
4.51292
20
-5.72078
11
4.51898
21
-5.70414
0
LINE
8
BLACK
6
CONTINUOUS
10
4.51898
20
-5.70414
11
4.52077
21
-5.70118
0
LINE
8
BLACK
6
CONTINUOUS
10
4.52077
20
-5.70118
11
4.52356
21
-5.69914
0
LINE
8
BLACK
6
CONTINUOUS
10
4.52356
20
-5.69914
11
4.52692
21
-5.69832
0
LINE
8
BLACK
6
CONTINUOUS
10
4.52692
20
-5.69832
11
4.53033
21
-5.69884
0
LINE
8
BLACK
6
CONTINUOUS
10
6.98786
20
-5.62836
11
6.99064
21
-5.63041
0
LINE
8
BLACK
6
CONTINUOUS
10
6.99064
20
-5.63041
11
6.99244
21
-5.63336
0
LINE
8
BLACK
6
CONTINUOUS
10
6.99244
20
-5.63336
11
6.99849
21
-5.65001
0
LINE
8
BLACK
6
CONTINUOUS
10
6.99849
20
-5.65001
11
6.99902
21
-5.65343
0
LINE
8
BLACK
6
CONTINUOUS
10
6.99902
20
-5.65343
11
6.9982
21
-5.65678
0
LINE
8
BLACK
6
CONTINUOUS
10
6.9982
20
-5.65678
11
6.99616
21
-5.65957
0
LINE
8
BLACK
6
CONTINUOUS
10
6.99616
20
-5.65957
11
6.9932
21
-5.66136
0
LINE
8
BLACK
6
CONTINUOUS
10
6.9932
20
-5.66136
11
6.96545
21
-5.67146
0
LINE
8
BLACK
6
CONTINUOUS
10
6.96545
20
-5.67146
11
6.96204
21
-5.67199
0
LINE
8
BLACK
6
CONTINUOUS
10
6.96204
20
-5.67199
11
6.95868
21
-5.67117
0
LINE
8
BLACK
6
CONTINUOUS
10
6.95868
20
-5.67117
11
6.95589
21
-5.66912
0
LINE
8
BLACK
6
CONTINUOUS
10
6.95589
20
-5.66912
11
6.9541
21
-5.66617
0
LINE
8
BLACK
6
CONTINUOUS
10
6.9541
20
-5.66617
11
6.94804
21
-5.64952
0
LINE
8
BLACK
6
CONTINUOUS
10
6.94804
20
-5.64952
11
6.94751
21
-5.6461
0
LINE
8
BLACK
6
CONTINUOUS
10
6.94751
20
-5.6461
11
6.94834
21
-5.64275
0
LINE
8
BLACK
6
CONTINUOUS
10
6.94834
20
-5.64275
11
6.95038
21
-5.63996
0
LINE
8
BLACK
6
CONTINUOUS
10
6.95038
20
-5.63996
11
6.95333
21
-5.63817
0
LINE
8
BLACK
6
CONTINUOUS
10
6.95333
20
-5.63817
11
6.98108
21
-5.62807
0
LINE
8
BLACK
6
CONTINUOUS
10
6.98108
20
-5.62807
11
6.9845
21
-5.62754
0
LINE
8
BLACK
6
CONTINUOUS
10
6.9845
20
-5.62754
11
6.98786
21
-5.62836
0
LINE
8
BLACK
6
CONTINUOUS
10
3.85431
20
-5.48421
11
3.88206
21
-5.49431
0
LINE
8
BLACK
6
CONTINUOUS
10
3.88206
20
-5.49431
11
3.88501
21
-5.4961
0
LINE
8
BLACK
6
CONTINUOUS
10
3.88501
20
-5.4961
11
3.88706
21
-5.49889
0
LINE
8
BLACK
6
CONTINUOUS
10
3.88706
20
-5.49889
11
3.88788
21
-5.50225
0
LINE
8
BLACK
6
CONTINUOUS
10
3.88788
20
-5.50225
11
3.88735
21
-5.50566
0
LINE
8
BLACK
6
CONTINUOUS
10
3.88735
20
-5.50566
11
3.88129
21
-5.52231
0
LINE
8
BLACK
6
CONTINUOUS
10
3.88129
20
-5.52231
11
3.8795
21
-5.52527
0
LINE
8
BLACK
6
CONTINUOUS
10
3.8795
20
-5.52527
11
3.87671
21
-5.52731
0
LINE
8
BLACK
6
CONTINUOUS
10
3.87671
20
-5.52731
11
3.87335
21
-5.52813
0
LINE
8
BLACK
6
CONTINUOUS
10
3.87335
20
-5.52813
11
3.86994
21
-5.52761
0
LINE
8
BLACK
6
CONTINUOUS
10
3.86994
20
-5.52761
11
3.84219
21
-5.51751
0
LINE
8
BLACK
6
CONTINUOUS
10
3.84219
20
-5.51751
11
3.83924
21
-5.51571
0
LINE
8
BLACK
6
CONTINUOUS
10
3.83924
20
-5.51571
11
3.83719
21
-5.51293
0
LINE
8
BLACK
6
CONTINUOUS
10
3.83719
20
-5.51293
11
3.83637
21
-5.50957
0
LINE
8
BLACK
6
CONTINUOUS
10
3.83637
20
-5.50957
11
3.8369
21
-5.50615
0
LINE
8
BLACK
6
CONTINUOUS
10
3.8369
20
-5.50615
11
3.84296
21
-5.48951
0
LINE
8
BLACK
6
CONTINUOUS
10
3.84296
20
-5.48951
11
3.84475
21
-5.48655
0
LINE
8
BLACK
6
CONTINUOUS
10
3.84475
20
-5.48655
11
3.84754
21
-5.48451
0
LINE
8
BLACK
6
CONTINUOUS
10
3.84754
20
-5.48451
11
3.85089
21
-5.48369
0
LINE
8
BLACK
6
CONTINUOUS
10
3.85089
20
-5.48369
11
3.85431
21
-5.48421
0
LINE
8
BLACK
6
CONTINUOUS
10
7.66388
20
-5.41373
11
7.66667
21
-5.41578
0
LINE
8
BLACK
6
CONTINUOUS
10
7.66667
20
-5.41578
11
7.66846
21
-5.41873
0
LINE
8
BLACK
6
CONTINUOUS
10
7.66846
20
-5.41873
11
7.67452
21
-5.43538
0
LINE
8
BLACK
6
CONTINUOUS
10
7.67452
20
-5.43538
11
7.67504
21
-5.4388
0
LINE
8
BLACK
6
CONTINUOUS
10
7.67504
20
-5.4388
11
7.67422
21
-5.44215
0
LINE
8
BLACK
6
CONTINUOUS
10
7.67422
20
-5.44215
11
7.67218
21
-5.44494
0
LINE
8
BLACK
6
CONTINUOUS
10
7.67218
20
-5.44494
11
7.66922
21
-5.44673
0
LINE
8
BLACK
6
CONTINUOUS
10
7.66922
20
-5.44673
11
7.64148
21
-5.45683
0
LINE
8
BLACK
6
CONTINUOUS
10
7.64148
20
-5.45683
11
7.63806
21
-5.45736
0
LINE
8
BLACK
6
CONTINUOUS
10
7.63806
20
-5.45736
11
7.6347
21
-5.45654
0
LINE
8
BLACK
6
CONTINUOUS
10
7.6347
20
-5.45654
11
7.63192
21
-5.45449
0
LINE
8
BLACK
6
CONTINUOUS
10
7.63192
20
-5.45449
11
7.63012
21
-5.45154
0
LINE
8
BLACK
6
CONTINUOUS
10
7.63012
20
-5.45154
11
7.62406
21
-5.43489
0
LINE
8
BLACK
6
CONTINUOUS
10
7.62406
20
-5.43489
11
7.62354
21
-5.43147
0
LINE
8
BLACK
6
CONTINUOUS
10
7.62354
20
-5.43147
11
7.62436
21
-5.42812
0
LINE
8
BLACK
6
CONTINUOUS
10
7.62436
20
-5.42812
11
7.6264
21
-5.42533
0
LINE
8
BLACK
6
CONTINUOUS
10
7.6264
20
-5.42533
11
7.62936
21
-5.42354
0
LINE
8
BLACK
6
CONTINUOUS
10
7.62936
20
-5.42354
11
7.6571
21
-5.41344
0
LINE
8
BLACK
6
CONTINUOUS
10
7.6571
20
-5.41344
11
7.66052
21
-5.41291
0
LINE
8
BLACK
6
CONTINUOUS
10
7.66052
20
-5.41291
11
7.66388
21
-5.41373
0
LINE
8
BLACK
6
CONTINUOUS
10
3.89875
20
-5.36213
11
3.92649
21
-5.37222
0
LINE
8
BLACK
6
CONTINUOUS
10
3.92649
20
-5.37222
11
3.92945
21
-5.37402
0
LINE
8
BLACK
6
CONTINUOUS
10
3.92945
20
-5.37402
11
3.93149
21
-5.37681
0
LINE
8
BLACK
6
CONTINUOUS
10
3.93149
20
-5.37681
11
3.93231
21
-5.38016
0
LINE
8
BLACK
6
CONTINUOUS
10
3.93231
20
-5.38016
11
3.93179
21
-5.38358
0
LINE
8
BLACK
6
CONTINUOUS
10
3.93179
20
-5.38358
11
3.92573
21
-5.40023
0
LINE
8
BLACK
6
CONTINUOUS
10
3.92573
20
-5.40023
11
3.92393
21
-5.40318
0
LINE
8
BLACK
6
CONTINUOUS
10
3.92393
20
-5.40318
11
3.92115
21
-5.40523
0
LINE
8
BLACK
6
CONTINUOUS
10
3.92115
20
-5.40523
11
3.91779
21
-5.40605
0
LINE
8
BLACK
6
CONTINUOUS
10
3.91779
20
-5.40605
11
3.91437
21
-5.40552
0
LINE
8
BLACK
6
CONTINUOUS
10
3.91437
20
-5.40552
11
3.88663
21
-5.39542
0
LINE
8
BLACK
6
CONTINUOUS
10
3.88663
20
-5.39542
11
3.88367
21
-5.39363
0
LINE
8
BLACK
6
CONTINUOUS
10
3.88367
20
-5.39363
11
3.88163
21
-5.39084
0
LINE
8
BLACK
6
CONTINUOUS
10
3.88163
20
-5.39084
11
3.88081
21
-5.38748
0
LINE
8
BLACK
6
CONTINUOUS
10
3.88081
20
-5.38748
11
3.88133
21
-5.38407
0
LINE
8
BLACK
6
CONTINUOUS
10
3.88133
20
-5.38407
11
3.88739
21
-5.36742
0
LINE
8
BLACK
6
CONTINUOUS
10
3.88739
20
-5.36742
11
3.88919
21
-5.36447
0
LINE
8
BLACK
6
CONTINUOUS
10
3.88919
20
-5.36447
11
3.89197
21
-5.36242
0
LINE
8
BLACK
6
CONTINUOUS
10
3.89197
20
-5.36242
11
3.89533
21
-5.3616
0
LINE
8
BLACK
6
CONTINUOUS
10
3.89533
20
-5.3616
11
3.89875
21
-5.36213
0
LINE
8
BLACK
6
CONTINUOUS
10
7.61944
20
-5.29165
11
7.62223
21
-5.29369
0
LINE
8
BLACK
6
CONTINUOUS
10
7.62223
20
-5.29369
11
7.62402
21
-5.29665
0
LINE
8
BLACK
6
CONTINUOUS
10
7.62402
20
-5.29665
11
7.63008
21
-5.31329
0
LINE
8
BLACK
6
CONTINUOUS
10
7.63008
20
-5.31329
11
7.63061
21
-5.31671
0
LINE
8
BLACK
6
CONTINUOUS
10
7.63061
20
-5.31671
11
7.62979
21
-5.32007
0
LINE
8
BLACK
6
CONTINUOUS
10
7.62979
20
-5.32007
11
7.62774
21
-5.32285
0
LINE
8
BLACK
6
CONTINUOUS
10
7.62774
20
-5.32285
11
7.62479
21
-5.32465
0
LINE
8
BLACK
6
CONTINUOUS
10
7.62479
20
-5.32465
11
7.59704
21
-5.33475
0
LINE
8
BLACK
6
CONTINUOUS
10
7.59704
20
-5.33475
11
7.59362
21
-5.33527
0
LINE
8
BLACK
6
CONTINUOUS
10
7.59362
20
-5.33527
11
7.59027
21
-5.33445
0
LINE
8
BLACK
6
CONTINUOUS
10
7.59027
20
-5.33445
11
7.58748
21
-5.33241
0
LINE
8
BLACK
6
CONTINUOUS
10
7.58748
20
-5.33241
11
7.58569
21
-5.32945
0
LINE
8
BLACK
6
CONTINUOUS
10
7.58569
20
-5.32945
11
7.57963
21
-5.3128
0
LINE
8
BLACK
6
CONTINUOUS
10
7.57963
20
-5.3128
11
7.5791
21
-5.30939
0
LINE
8
BLACK
6
CONTINUOUS
10
7.5791
20
-5.30939
11
7.57992
21
-5.30603
0
LINE
8
BLACK
6
CONTINUOUS
10
7.57992
20
-5.30603
11
7.58197
21
-5.30324
0
LINE
8
BLACK
6
CONTINUOUS
10
7.58197
20
-5.30324
11
7.58492
21
-5.30145
0
LINE
8
BLACK
6
CONTINUOUS
10
7.58492
20
-5.30145
11
7.61267
21
-5.29135
0
LINE
8
BLACK
6
CONTINUOUS
10
7.61267
20
-5.29135
11
7.61609
21
-5.29083
0
LINE
8
BLACK
6
CONTINUOUS
10
7.61609
20
-5.29083
11
7.61944
21
-5.29165
0
LINE
8
BLACK
6
CONTINUOUS
10
4.85736
20
-4.28235
11
4.8851
21
-4.29245
0
LINE
8
BLACK
6
CONTINUOUS
10
4.8851
20
-4.29245
11
4.88806
21
-4.29424
0
LINE
8
BLACK
6
CONTINUOUS
10
4.88806
20
-4.29424
11
4.8901
21
-4.29703
0
LINE
8
BLACK
6
CONTINUOUS
10
4.8901
20
-4.29703
11
4.89092
21
-4.30039
0
LINE
8
BLACK
6
CONTINUOUS
10
4.89092
20
-4.30039
11
4.8904
21
-4.3038
0
LINE
8
BLACK
6
CONTINUOUS
10
4.8904
20
-4.3038
11
4.88434
21
-4.32045
0
LINE
8
BLACK
6
CONTINUOUS
10
4.88434
20
-4.32045
11
4.88255
21
-4.32341
0
LINE
8
BLACK
6
CONTINUOUS
10
4.88255
20
-4.32341
11
4.87976
21
-4.32545
0
LINE
8
BLACK
6
CONTINUOUS
10
4.87976
20
-4.32545
11
4.8764
21
-4.32627
0
LINE
8
BLACK
6
CONTINUOUS
10
4.8764
20
-4.32627
11
4.87299
21
-4.32575
0
LINE
8
BLACK
6
CONTINUOUS
10
4.87299
20
-4.32575
11
4.84524
21
-4.31565
0
LINE
8
BLACK
6
CONTINUOUS
10
4.84524
20
-4.31565
11
4.84228
21
-4.31386
0
LINE
8
BLACK
6
CONTINUOUS
10
4.84228
20
-4.31386
11
4.84024
21
-4.31107
0
LINE
8
BLACK
6
CONTINUOUS
10
4.84024
20
-4.31107
11
4.83942
21
-4.30771
0
LINE
8
BLACK
6
CONTINUOUS
10
4.83942
20
-4.30771
11
4.83994
21
-4.30429
0
LINE
8
BLACK
6
CONTINUOUS
10
4.83994
20
-4.30429
11
4.846
21
-4.28765
0
LINE
8
BLACK
6
CONTINUOUS
10
4.846
20
-4.28765
11
4.8478
21
-4.28469
0
LINE
8
BLACK
6
CONTINUOUS
10
4.8478
20
-4.28469
11
4.85058
21
-4.28265
0
LINE
8
BLACK
6
CONTINUOUS
10
4.85058
20
-4.28265
11
4.85394
21
-4.28183
0
LINE
8
BLACK
6
CONTINUOUS
10
4.85394
20
-4.28183
11
4.85736
21
-4.28235
0
LINE
8
BLACK
6
CONTINUOUS
10
4.11132
20
-4.2601
11
4.13906
21
-4.2702
0
LINE
8
BLACK
6
CONTINUOUS
10
4.13906
20
-4.2702
11
4.14202
21
-4.27199
0
LINE
8
BLACK
6
CONTINUOUS
10
4.14202
20
-4.27199
11
4.14406
21
-4.27478
0
LINE
8
BLACK
6
CONTINUOUS
10
4.14406
20
-4.27478
11
4.14488
21
-4.27814
0
LINE
8
BLACK
6
CONTINUOUS
10
4.14488
20
-4.27814
11
4.14436
21
-4.28155
0
LINE
8
BLACK
6
CONTINUOUS
10
4.14436
20
-4.28155
11
4.1383
21
-4.2982
0
LINE
8
BLACK
6
CONTINUOUS
10
4.1383
20
-4.2982
11
4.1365
21
-4.30116
0
LINE
8
BLACK
6
CONTINUOUS
10
4.1365
20
-4.30116
11
4.13372
21
-4.3032
0
LINE
8
BLACK
6
CONTINUOUS
10
4.13372
20
-4.3032
11
4.13036
21
-4.30402
0
LINE
8
BLACK
6
CONTINUOUS
10
4.13036
20
-4.30402
11
4.12694
21
-4.3035
0
LINE
8
BLACK
6
CONTINUOUS
10
4.12694
20
-4.3035
11
4.0992
21
-4.2934
0
LINE
8
BLACK
6
CONTINUOUS
10
4.0992
20
-4.2934
11
4.09624
21
-4.2916
0
LINE
8
BLACK
6
CONTINUOUS
10
4.09624
20
-4.2916
11
4.0942
21
-4.28882
0
LINE
8
BLACK
6
CONTINUOUS
10
4.0942
20
-4.28882
11
4.09338
21
-4.28546
0
LINE
8
BLACK
6
CONTINUOUS
10
4.09338
20
-4.28546
11
4.0939
21
-4.28204
0
LINE
8
BLACK
6
CONTINUOUS
10
4.0939
20
-4.28204
11
4.09996
21
-4.26539
0
LINE
8
BLACK
6
CONTINUOUS
10
4.09996
20
-4.26539
11
4.10175
21
-4.26244
0
LINE
8
BLACK
6
CONTINUOUS
10
4.10175
20
-4.26244
11
4.10454
21
-4.2604
0
LINE
8
BLACK
6
CONTINUOUS
10
4.10454
20
-4.2604
11
4.1079
21
-4.25957
0
LINE
8
BLACK
6
CONTINUOUS
10
4.1079
20
-4.25957
11
4.11132
21
-4.2601
0
LINE
8
BLACK
6
CONTINUOUS
10
6.66083
20
-4.21187
11
6.66362
21
-4.21392
0
LINE
8
BLACK
6
CONTINUOUS
10
6.66362
20
-4.21392
11
6.66541
21
-4.21687
0
LINE
8
BLACK
6
CONTINUOUS
10
6.66541
20
-4.21687
11
6.67147
21
-4.23352
0
LINE
8
BLACK
6
CONTINUOUS
10
6.67147
20
-4.23352
11
6.672
21
-4.23694
0
LINE
8
BLACK
6
CONTINUOUS
10
6.672
20
-4.23694
11
6.67117
21
-4.24029
0
LINE
8
BLACK
6
CONTINUOUS
10
6.67117
20
-4.24029
11
6.66913
21
-4.24308
0
LINE
8
BLACK
6
CONTINUOUS
10
6.66913
20
-4.24308
11
6.66618
21
-4.24487
0
LINE
8
BLACK
6
CONTINUOUS
10
6.66618
20
-4.24487
11
6.63843
21
-4.25497
0
LINE
8
BLACK
6
CONTINUOUS
10
6.63843
20
-4.25497
11
6.63501
21
-4.2555
0
LINE
8
BLACK
6
CONTINUOUS
10
6.63501
20
-4.2555
11
6.63166
21
-4.25468
0
LINE
8
BLACK
6
CONTINUOUS
10
6.63166
20
-4.25468
11
6.62887
21
-4.25263
0
LINE
8
BLACK
6
CONTINUOUS
10
6.62887
20
-4.25263
11
6.62708
21
-4.24968
0
LINE
8
BLACK
6
CONTINUOUS
10
6.62708
20
-4.24968
11
6.62102
21
-4.23303
0
LINE
8
BLACK
6
CONTINUOUS
10
6.62102
20
-4.23303
11
6.62049
21
-4.22961
0
LINE
8
BLACK
6
CONTINUOUS
10
6.62049
20
-4.22961
11
6.62131
21
-4.22626
0
LINE
8
BLACK
6
CONTINUOUS
10
6.62131
20
-4.22626
11
6.62336
21
-4.22347
0
LINE
8
BLACK
6
CONTINUOUS
10
6.62336
20
-4.22347
11
6.62631
21
-4.22168
0
LINE
8
BLACK
6
CONTINUOUS
10
6.62631
20
-4.22168
11
6.65406
21
-4.21158
0
LINE
8
BLACK
6
CONTINUOUS
10
6.65406
20
-4.21158
11
6.65747
21
-4.21105
0
LINE
8
BLACK
6
CONTINUOUS
10
6.65747
20
-4.21105
11
6.66083
21
-4.21187
0
LINE
8
BLACK
6
CONTINUOUS
10
7.40687
20
-4.18962
11
7.40966
21
-4.19167
0
LINE
8
BLACK
6
CONTINUOUS
10
7.40966
20
-4.19167
11
7.41145
21
-4.19462
0
LINE
8
BLACK
6
CONTINUOUS
10
7.41145
20
-4.19462
11
7.41751
21
-4.21127
0
LINE
8
BLACK
6
CONTINUOUS
10
7.41751
20
-4.21127
11
7.41804
21
-4.21469
0
LINE
8
BLACK
6
CONTINUOUS
10
7.41804
20
-4.21469
11
7.41722
21
-4.21804
0
LINE
8
BLACK
6
CONTINUOUS
10
7.41722
20
-4.21804
11
7.41517
21
-4.22083
0
LINE
8
BLACK
6
CONTINUOUS
10
7.41517
20
-4.22083
11
7.41222
21
-4.22262
0
LINE
8
BLACK
6
CONTINUOUS
10
7.41222
20
-4.22262
11
7.38447
21
-4.23272
0
LINE
8
BLACK
6
CONTINUOUS
10
7.38447
20
-4.23272
11
7.38106
21
-4.23325
0
LINE
8
BLACK
6
CONTINUOUS
10
7.38106
20
-4.23325
11
7.3777
21
-4.23243
0
LINE
8
BLACK
6
CONTINUOUS
10
7.3777
20
-4.23243
11
7.37491
21
-4.23038
0
LINE
8
BLACK
6
CONTINUOUS
10
7.37491
20
-4.23038
11
7.37312
21
-4.22743
0
LINE
8
BLACK
6
CONTINUOUS
10
7.37312
20
-4.22743
11
7.36706
21
-4.21078
0
LINE
8
BLACK
6
CONTINUOUS
10
7.36706
20
-4.21078
11
7.36653
21
-4.20736
0
LINE
8
BLACK
6
CONTINUOUS
10
7.36653
20
-4.20736
11
7.36735
21
-4.20401
0
LINE
8
BLACK
6
CONTINUOUS
10
7.36735
20
-4.20401
11
7.3694
21
-4.20122
0
LINE
8
BLACK
6
CONTINUOUS
10
7.3694
20
-4.20122
11
7.37235
21
-4.19943
0
LINE
8
BLACK
6
CONTINUOUS
10
7.37235
20
-4.19943
11
7.4001
21
-4.18933
0
LINE
8
BLACK
6
CONTINUOUS
10
7.4001
20
-4.18933
11
7.40352
21
-4.1888
0
LINE
8
BLACK
6
CONTINUOUS
10
7.40352
20
-4.1888
11
7.40687
21
-4.18962
0
LINE
8
BLACK
6
CONTINUOUS
10
4.90179
20
-4.16027
11
4.92954
21
-4.17037
0
LINE
8
BLACK
6
CONTINUOUS
10
4.92954
20
-4.17037
11
4.9325
21
-4.17216
0
LINE
8
BLACK
6
CONTINUOUS
10
4.9325
20
-4.17216
11
4.93454
21
-4.17495
0
LINE
8
BLACK
6
CONTINUOUS
10
4.93454
20
-4.17495
11
4.93536
21
-4.1783
0
LINE
8
BLACK
6
CONTINUOUS
10
4.93536
20
-4.1783
11
4.93483
21
-4.18172
0
LINE
8
BLACK
6
CONTINUOUS
10
4.93483
20
-4.18172
11
4.92878
21
-4.19837
0
LINE
8
BLACK
6
CONTINUOUS
10
4.92878
20
-4.19837
11
4.92698
21
-4.20132
0
LINE
8
BLACK
6
CONTINUOUS
10
4.92698
20
-4.20132
11
4.92419
21
-4.20337
0
LINE
8
BLACK
6
CONTINUOUS
10
4.92419
20
-4.20337
11
4.92084
21
-4.20419
0
LINE
8
BLACK
6
CONTINUOUS
10
4.92084
20
-4.20419
11
4.91742
21
-4.20366
0
LINE
8
BLACK
6
CONTINUOUS
10
4.91742
20
-4.20366
11
4.88967
21
-4.19356
0
LINE
8
BLACK
6
CONTINUOUS
10
4.88967
20
-4.19356
11
4.88672
21
-4.19177
0
LINE
8
BLACK
6
CONTINUOUS
10
4.88672
20
-4.19177
11
4.88468
21
-4.18898
0
LINE
8
BLACK
6
CONTINUOUS
10
4.88468
20
-4.18898
11
4.88385
21
-4.18562
0
LINE
8
BLACK
6
CONTINUOUS
10
4.88385
20
-4.18562
11
4.88438
21
-4.18221
0
LINE
8
BLACK
6
CONTINUOUS
10
4.88438
20
-4.18221
11
4.89044
21
-4.16556
0
LINE
8
BLACK
6
CONTINUOUS
10
4.89044
20
-4.16556
11
4.89223
21
-4.16261
0
LINE
8
BLACK
6
CONTINUOUS
10
4.89223
20
-4.16261
11
4.89502
21
-4.16056
0
LINE
8
BLACK
6
CONTINUOUS
10
4.89502
20
-4.16056
11
4.89838
21
-4.15974
0
LINE
8
BLACK
6
CONTINUOUS
10
4.89838
20
-4.15974
11
4.90179
21
-4.16027
0
LINE
8
BLACK
6
CONTINUOUS
10
4.15575
20
-4.13801
11
4.1835
21
-4.14811
0
LINE
8
BLACK
6
CONTINUOUS
10
4.1835
20
-4.14811
11
4.18645
21
-4.14991
0
LINE
8
BLACK
6
CONTINUOUS
10
4.18645
20
-4.14991
11
4.1885
21
-4.15269
0
LINE
8
BLACK
6
CONTINUOUS
10
4.1885
20
-4.15269
11
4.18932
21
-4.15605
0
LINE
8
BLACK
6
CONTINUOUS
10
4.18932
20
-4.15605
11
4.18879
21
-4.15947
0
LINE
8
BLACK
6
CONTINUOUS
10
4.18879
20
-4.15947
11
4.18273
21
-4.17612
0
LINE
8
BLACK
6
CONTINUOUS
10
4.18273
20
-4.17612
11
4.18094
21
-4.17907
0
LINE
8
BLACK
6
CONTINUOUS
10
4.18094
20
-4.17907
11
4.17815
21
-4.18111
0
LINE
8
BLACK
6
CONTINUOUS
10
4.17815
20
-4.18111
11
4.17479
21
-4.18194
0
LINE
8
BLACK
6
CONTINUOUS
10
4.17479
20
-4.18194
11
4.17138
21
-4.18141
0
LINE
8
BLACK
6
CONTINUOUS
10
4.17138
20
-4.18141
11
4.14363
21
-4.17131
0
LINE
8
BLACK
6
CONTINUOUS
10
4.14363
20
-4.17131
11
4.14068
21
-4.16952
0
LINE
8
BLACK
6
CONTINUOUS
10
4.14068
20
-4.16952
11
4.13863
21
-4.16673
0
LINE
8
BLACK
6
CONTINUOUS
10
4.13863
20
-4.16673
11
4.13781
21
-4.16337
0
LINE
8
BLACK
6
CONTINUOUS
10
4.13781
20
-4.16337
11
4.13834
21
-4.15996
0
LINE
8
BLACK
6
CONTINUOUS
10
4.13834
20
-4.15996
11
4.1444
21
-4.14331
0
LINE
8
BLACK
6
CONTINUOUS
10
4.1444
20
-4.14331
11
4.14619
21
-4.14035
0
LINE
8
BLACK
6
CONTINUOUS
10
4.14619
20
-4.14035
11
4.14898
21
-4.13831
0
LINE
8
BLACK
6
CONTINUOUS
10
4.14898
20
-4.13831
11
4.15233
21
-4.13749
0
LINE
8
BLACK
6
CONTINUOUS
10
4.15233
20
-4.13749
11
4.15575
21
-4.13801
0
LINE
8
BLACK
6
CONTINUOUS
10
6.61639
20
-4.08979
11
6.61918
21
-4.09183
0
LINE
8
BLACK
6
CONTINUOUS
10
6.61918
20
-4.09183
11
6.62098
21
-4.09479
0
LINE
8
BLACK
6
CONTINUOUS
10
6.62098
20
-4.09479
11
6.62703
21
-4.11143
0
LINE
8
BLACK
6
CONTINUOUS
10
6.62703
20
-4.11143
11
6.62756
21
-4.11485
0
LINE
8
BLACK
6
CONTINUOUS
10
6.62756
20
-4.11485
11
6.62674
21
-4.11821
0
LINE
8
BLACK
6
CONTINUOUS
10
6.62674
20
-4.11821
11
6.6247
21
-4.121
0
LINE
8
BLACK
6
CONTINUOUS
10
6.6247
20
-4.121
11
6.62174
21
-4.12279
0
LINE
8
BLACK
6
CONTINUOUS
10
6.62174
20
-4.12279
11
6.59399
21
-4.13289
0
LINE
8
BLACK
6
CONTINUOUS
10
6.59399
20
-4.13289
11
6.59058
21
-4.13341
0
LINE
8
BLACK
6
CONTINUOUS
10
6.59058
20
-4.13341
11
6.58722
21
-4.13259
0
LINE
8
BLACK
6
CONTINUOUS
10
6.58722
20
-4.13259
11
6.58443
21
-4.13055
0
LINE
8
BLACK
6
CONTINUOUS
10
6.58443
20
-4.13055
11
6.58264
21
-4.12759
0
LINE
8
BLACK
6
CONTINUOUS
10
6.58264
20
-4.12759
11
6.57658
21
-4.11094
0
LINE
8
BLACK
6
CONTINUOUS
10
6.57658
20
-4.11094
11
6.57605
21
-4.10753
0
LINE
8
BLACK
6
CONTINUOUS
10
6.57605
20
-4.10753
11
6.57688
21
-4.10417
0
LINE
8
BLACK
6
CONTINUOUS
10
6.57688
20
-4.10417
11
6.57892
21
-4.10138
0
LINE
8
BLACK
6
CONTINUOUS
10
6.57892
20
-4.10138
11
6.58187
21
-4.09959
0
LINE
8
BLACK
6
CONTINUOUS
10
6.58187
20
-4.09959
11
6.60962
21
-4.08949
0
LINE
8
BLACK
6
CONTINUOUS
10
6.60962
20
-4.08949
11
6.61304
21
-4.08897
0
LINE
8
BLACK
6
CONTINUOUS
10
6.61304
20
-4.08897
11
6.61639
21
-4.08979
0
LINE
8
BLACK
6
CONTINUOUS
10
7.36244
20
-4.06754
11
7.36523
21
-4.06958
0
LINE
8
BLACK
6
CONTINUOUS
10
7.36523
20
-4.06958
11
7.36702
21
-4.07253
0
LINE
8
BLACK
6
CONTINUOUS
10
7.36702
20
-4.07253
11
7.37308
21
-4.08918
0
LINE
8
BLACK
6
CONTINUOUS
10
7.37308
20
-4.08918
11
7.3736
21
-4.0926
0
LINE
8
BLACK
6
CONTINUOUS
10
7.3736
20
-4.0926
11
7.37278
21
-4.09596
0
LINE
8
BLACK
6
CONTINUOUS
10
7.37278
20
-4.09596
11
7.37074
21
-4.09874
0
LINE
8
BLACK
6
CONTINUOUS
10
7.37074
20
-4.09874
11
7.36778
21
-4.10054
0
LINE
8
BLACK
6
CONTINUOUS
10
7.36778
20
-4.10054
11
7.34004
21
-4.11064
0
LINE
8
BLACK
6
CONTINUOUS
10
7.34004
20
-4.11064
11
7.33662
21
-4.11116
0
LINE
8
BLACK
6
CONTINUOUS
10
7.33662
20
-4.11116
11
7.33326
21
-4.11034
0
LINE
8
BLACK
6
CONTINUOUS
10
7.33326
20
-4.11034
11
7.33048
21
-4.1083
0
LINE
8
BLACK
6
CONTINUOUS
10
7.33048
20
-4.1083
11
7.32868
21
-4.10534
0
LINE
8
BLACK
6
CONTINUOUS
10
7.32868
20
-4.10534
11
7.32262
21
-4.08869
0
LINE
8
BLACK
6
CONTINUOUS
10
7.32262
20
-4.08869
11
7.3221
21
-4.08528
0
LINE
8
BLACK
6
CONTINUOUS
10
7.3221
20
-4.08528
11
7.32292
21
-4.08192
0
LINE
8
BLACK
6
CONTINUOUS
10
7.32292
20
-4.08192
11
7.32496
21
-4.07913
0
LINE
8
BLACK
6
CONTINUOUS
10
7.32496
20
-4.07913
11
7.32792
21
-4.07734
0
LINE
8
BLACK
6
CONTINUOUS
10
7.32792
20
-4.07734
11
7.35566
21
-4.06724
0
LINE
8
BLACK
6
CONTINUOUS
10
7.35566
20
-4.06724
11
7.35908
21
-4.06671
0
LINE
8
BLACK
6
CONTINUOUS
10
7.35908
20
-4.06671
11
7.36244
21
-4.06754
0
LINE
8
BLACK
6
CONTINUOUS
10
3.50262
20
-3.86049
11
3.53037
21
-3.87059
0
LINE
8
BLACK
6
CONTINUOUS
10
3.53037
20
-3.87059
11
3.53332
21
-3.87238
0
LINE
8
BLACK
6
CONTINUOUS
10
3.53332
20
-3.87238
11
3.53536
21
-3.87517
0
LINE
8
BLACK
6
CONTINUOUS
10
3.53536
20
-3.87517
11
3.53619
21
-3.87853
0
LINE
8
BLACK
6
CONTINUOUS
10
3.53619
20
-3.87853
11
3.53566
21
-3.88194
0
LINE
8
BLACK
6
CONTINUOUS
10
3.53566
20
-3.88194
11
3.5296
21
-3.89859
0
LINE
8
BLACK
6
CONTINUOUS
10
3.5296
20
-3.89859
11
3.52781
21
-3.90155
0
LINE
8
BLACK
6
CONTINUOUS
10
3.52781
20
-3.90155
11
3.52502
21
-3.90359
0
LINE
8
BLACK
6
CONTINUOUS
10
3.52502
20
-3.90359
11
3.52166
21
-3.90441
0
LINE
8
BLACK
6
CONTINUOUS
10
3.52166
20
-3.90441
11
3.51825
21
-3.90389
0
LINE
8
BLACK
6
CONTINUOUS
10
3.51825
20
-3.90389
11
3.4905
21
-3.89379
0
LINE
8
BLACK
6
CONTINUOUS
10
3.4905
20
-3.89379
11
3.48755
21
-3.892
0
LINE
8
BLACK
6
CONTINUOUS
10
3.48755
20
-3.892
11
3.4855
21
-3.88921
0
LINE
8
BLACK
6
CONTINUOUS
10
3.4855
20
-3.88921
11
3.48468
21
-3.88585
0
LINE
8
BLACK
6
CONTINUOUS
10
3.48468
20
-3.88585
11
3.48521
21
-3.88243
0
LINE
8
BLACK
6
CONTINUOUS
10
3.48521
20
-3.88243
11
3.49127
21
-3.86579
0
LINE
8
BLACK
6
CONTINUOUS
10
3.49127
20
-3.86579
11
3.49306
21
-3.86283
0
LINE
8
BLACK
6
CONTINUOUS
10
3.49306
20
-3.86283
11
3.49585
21
-3.86079
0
LINE
8
BLACK
6
CONTINUOUS
10
3.49585
20
-3.86079
11
3.4992
21
-3.85997
0
LINE
8
BLACK
6
CONTINUOUS
10
3.4992
20
-3.85997
11
3.50262
21
-3.86049
0
LINE
8
BLACK
6
CONTINUOUS
10
8.01557
20
-3.79001
11
8.01836
21
-3.79206
0
LINE
8
BLACK
6
CONTINUOUS
10
8.01836
20
-3.79206
11
8.02015
21
-3.79501
0
LINE
8
BLACK
6
CONTINUOUS
10
8.02015
20
-3.79501
11
8.02621
21
-3.81166
0
LINE
8
BLACK
6
CONTINUOUS
10
8.02621
20
-3.81166
11
8.02674
21
-3.81508
0
LINE
8
BLACK
6
CONTINUOUS
10
8.02674
20
-3.81508
11
8.02591
21
-3.81843
0
LINE
8
BLACK
6
CONTINUOUS
10
8.02591
20
-3.81843
11
8.02387
21
-3.82122
0
LINE
8
BLACK
6
CONTINUOUS
10
8.02387
20
-3.82122
11
8.02091
21
-3.82301
0
LINE
8
BLACK
6
CONTINUOUS
10
8.02091
20
-3.82301
11
7.99317
21
-3.83311
0
LINE
8
BLACK
6
CONTINUOUS
10
7.99317
20
-3.83311
11
7.98975
21
-3.83364
0
LINE
8
BLACK
6
CONTINUOUS
10
7.98975
20
-3.83364
11
7.98639
21
-3.83282
0
LINE
8
BLACK
6
CONTINUOUS
10
7.98639
20
-3.83282
11
7.98361
21
-3.83077
0
LINE
8
BLACK
6
CONTINUOUS
10
7.98361
20
-3.83077
11
7.98181
21
-3.82782
0
LINE
8
BLACK
6
CONTINUOUS
10
7.98181
20
-3.82782
11
7.97575
21
-3.81117
0
LINE
8
BLACK
6
CONTINUOUS
10
7.97575
20
-3.81117
11
7.97523
21
-3.80775
0
LINE
8
BLACK
6
CONTINUOUS
10
7.97523
20
-3.80775
11
7.97605
21
-3.8044
0
LINE
8
BLACK
6
CONTINUOUS
10
7.97605
20
-3.8044
11
7.97809
21
-3.80161
0
LINE
8
BLACK
6
CONTINUOUS
10
7.97809
20
-3.80161
11
7.98105
21
-3.79982
0
LINE
8
BLACK
6
CONTINUOUS
10
7.98105
20
-3.79982
11
8.0088
21
-3.78972
0
LINE
8
BLACK
6
CONTINUOUS
10
8.0088
20
-3.78972
11
8.01221
21
-3.78919
0
LINE
8
BLACK
6
CONTINUOUS
10
8.01221
20
-3.78919
11
8.01557
21
-3.79001
0
LINE
8
BLACK
6
CONTINUOUS
10
2.77947
20
-3.77535
11
2.80721
21
-3.78545
0
LINE
8
BLACK
6
CONTINUOUS
10
2.80721
20
-3.78545
11
2.81017
21
-3.78724
0
LINE
8
BLACK
6
CONTINUOUS
10
2.81017
20
-3.78724
11
2.81221
21
-3.79003
0
LINE
8
BLACK
6
CONTINUOUS
10
2.81221
20
-3.79003
11
2.81303
21
-3.79338
0
LINE
8
BLACK
6
CONTINUOUS
10
2.81303
20
-3.79338
11
2.81251
21
-3.7968
0
LINE
8
BLACK
6
CONTINUOUS
10
2.81251
20
-3.7968
11
2.80645
21
-3.81345
0
LINE
8
BLACK
6
CONTINUOUS
10
2.80645
20
-3.81345
11
2.80466
21
-3.8164
0
LINE
8
BLACK
6
CONTINUOUS
10
2.80466
20
-3.8164
11
2.80187
21
-3.81845
0
LINE
8
BLACK
6
CONTINUOUS
10
2.80187
20
-3.81845
11
2.79851
21
-3.81927
0
LINE
8
BLACK
6
CONTINUOUS
10
2.79851
20
-3.81927
11
2.7951
21
-3.81874
0
LINE
8
BLACK
6
CONTINUOUS
10
2.7951
20
-3.81874
11
2.76735
21
-3.80864
0
LINE
8
BLACK
6
CONTINUOUS
10
2.76735
20
-3.80864
11
2.76439
21
-3.80685
0
LINE
8
BLACK
6
CONTINUOUS
10
2.76439
20
-3.80685
11
2.76235
21
-3.80406
0
LINE
8
BLACK
6
CONTINUOUS
10
2.76235
20
-3.80406
11
2.76153
21
-3.80071
0
LINE
8
BLACK
6
CONTINUOUS
10
2.76153
20
-3.80071
11
2.76205
21
-3.79729
0
LINE
8
BLACK
6
CONTINUOUS
10
2.76205
20
-3.79729
11
2.76811
21
-3.78064
0
LINE
8
BLACK
6
CONTINUOUS
10
2.76811
20
-3.78064
11
2.76991
21
-3.77769
0
LINE
8
BLACK
6
CONTINUOUS
10
2.76991
20
-3.77769
11
2.77269
21
-3.77564
0
LINE
8
BLACK
6
CONTINUOUS
10
2.77269
20
-3.77564
11
2.77605
21
-3.77482
0
LINE
8
BLACK
6
CONTINUOUS
10
2.77605
20
-3.77482
11
2.77947
21
-3.77535
0
LINE
8
BLACK
6
CONTINUOUS
10
3.54705
20
-3.73841
11
3.5748
21
-3.7485
0
LINE
8
BLACK
6
CONTINUOUS
10
3.5748
20
-3.7485
11
3.57776
21
-3.7503
0
LINE
8
BLACK
6
CONTINUOUS
10
3.57776
20
-3.7503
11
3.5798
21
-3.75309
0
LINE
8
BLACK
6
CONTINUOUS
10
3.5798
20
-3.75309
11
3.58062
21
-3.75644
0
LINE
8
BLACK
6
CONTINUOUS
10
3.58062
20
-3.75644
11
3.5801
21
-3.75986
0
LINE
8
BLACK
6
CONTINUOUS
10
3.5801
20
-3.75986
11
3.57404
21
-3.77651
0
LINE
8
BLACK
6
CONTINUOUS
10
3.57404
20
-3.77651
11
3.57224
21
-3.77946
0
LINE
8
BLACK
6
CONTINUOUS
10
3.57224
20
-3.77946
11
3.56946
21
-3.78151
0
LINE
8
BLACK
6
CONTINUOUS
10
3.56946
20
-3.78151
11
3.5661
21
-3.78233
0
LINE
8
BLACK
6
CONTINUOUS
10
3.5661
20
-3.78233
11
3.56268
21
-3.7818
0
LINE
8
BLACK
6
CONTINUOUS
10
3.56268
20
-3.7818
11
3.53494
21
-3.7717
0
LINE
8
BLACK
6
CONTINUOUS
10
3.53494
20
-3.7717
11
3.53198
21
-3.76991
0
LINE
8
BLACK
6
CONTINUOUS
10
3.53198
20
-3.76991
11
3.52994
21
-3.76712
0
LINE
8
BLACK
6
CONTINUOUS
10
3.52994
20
-3.76712
11
3.52912
21
-3.76376
0
LINE
8
BLACK
6
CONTINUOUS
10
3.52912
20
-3.76376
11
3.52964
21
-3.76035
0
LINE
8
BLACK
6
CONTINUOUS
10
3.52964
20
-3.76035
11
3.5357
21
-3.7437
0
LINE
8
BLACK
6
CONTINUOUS
10
3.5357
20
-3.7437
11
3.53749
21
-3.74075
0
LINE
8
BLACK
6
CONTINUOUS
10
3.53749
20
-3.74075
11
3.54028
21
-3.7387
0
LINE
8
BLACK
6
CONTINUOUS
10
3.54028
20
-3.7387
11
3.54364
21
-3.73788
0
LINE
8
BLACK
6
CONTINUOUS
10
3.54364
20
-3.73788
11
3.54705
21
-3.73841
0
LINE
8
BLACK
6
CONTINUOUS
10
8.73872
20
-3.70487
11
8.74151
21
-3.70691
0
LINE
8
BLACK
6
CONTINUOUS
10
8.74151
20
-3.70691
11
8.7433
21
-3.70987
0
LINE
8
BLACK
6
CONTINUOUS
10
8.7433
20
-3.70987
11
8.74936
21
-3.72652
0
LINE
8
BLACK
6
CONTINUOUS
10
8.74936
20
-3.72652
11
8.74989
21
-3.72993
0
LINE
8
BLACK
6
CONTINUOUS
10
8.74989
20
-3.72993
11
8.74907
21
-3.73329
0
LINE
8
BLACK
6
CONTINUOUS
10
8.74907
20
-3.73329
11
8.74702
21
-3.73608
0
LINE
8
BLACK
6
CONTINUOUS
10
8.74702
20
-3.73608
11
8.74407
21
-3.73787
0
LINE
8
BLACK
6
CONTINUOUS
10
8.74407
20
-3.73787
11
8.71632
21
-3.74797
0
LINE
8
BLACK
6
CONTINUOUS
10
8.71632
20
-3.74797
11
8.7129
21
-3.74849
0
LINE
8
BLACK
6
CONTINUOUS
10
8.7129
20
-3.74849
11
8.70955
21
-3.74767
0
LINE
8
BLACK
6
CONTINUOUS
10
8.70955
20
-3.74767
11
8.70676
21
-3.74563
0
LINE
8
BLACK
6
CONTINUOUS
10
8.70676
20
-3.74563
11
8.70497
21
-3.74267
0
LINE
8
BLACK
6
CONTINUOUS
10
8.70497
20
-3.74267
11
8.69891
21
-3.72603
0
LINE
8
BLACK
6
CONTINUOUS
10
8.69891
20
-3.72603
11
8.69838
21
-3.72261
0
LINE
8
BLACK
6
CONTINUOUS
10
8.69838
20
-3.72261
11
8.6992
21
-3.71925
0
LINE
8
BLACK
6
CONTINUOUS
10
8.6992
20
-3.71925
11
8.70125
21
-3.71647
0
LINE
8
BLACK
6
CONTINUOUS
10
8.70125
20
-3.71647
11
8.7042
21
-3.71467
0
LINE
8
BLACK
6
CONTINUOUS
10
8.7042
20
-3.71467
11
8.73195
21
-3.70457
0
LINE
8
BLACK
6
CONTINUOUS
10
8.73195
20
-3.70457
11
8.73536
21
-3.70405
0
LINE
8
BLACK
6
CONTINUOUS
10
8.73536
20
-3.70405
11
8.73872
21
-3.70487
0
LINE
8
BLACK
6
CONTINUOUS
10
7.97113
20
-3.66793
11
7.97392
21
-3.66997
0
LINE
8
BLACK
6
CONTINUOUS
10
7.97392
20
-3.66997
11
7.97571
21
-3.67293
0
LINE
8
BLACK
6
CONTINUOUS
10
7.97571
20
-3.67293
11
7.98177
21
-3.68957
0
LINE
8
BLACK
6
CONTINUOUS
10
7.98177
20
-3.68957
11
7.9823
21
-3.69299
0
LINE
8
BLACK
6
CONTINUOUS
10
7.9823
20
-3.69299
11
7.98148
21
-3.69635
0
LINE
8
BLACK
6
CONTINUOUS
10
7.98148
20
-3.69635
11
7.97943
21
-3.69914
0
LINE
8
BLACK
6
CONTINUOUS
10
7.97943
20
-3.69914
11
7.97648
21
-3.70093
0
LINE
8
BLACK
6
CONTINUOUS
10
7.97648
20
-3.70093
11
7.94873
21
-3.71103
0
LINE
8
BLACK
6
CONTINUOUS
10
7.94873
20
-3.71103
11
7.94532
21
-3.71155
0
LINE
8
BLACK
6
CONTINUOUS
10
7.94532
20
-3.71155
11
7.94196
21
-3.71073
0
LINE
8
BLACK
6
CONTINUOUS
10
7.94196
20
-3.71073
11
7.93917
21
-3.70869
0
LINE
8
BLACK
6
CONTINUOUS
10
7.93917
20
-3.70869
11
7.93738
21
-3.70573
0
LINE
8
BLACK
6
CONTINUOUS
10
7.93738
20
-3.70573
11
7.93132
21
-3.68908
0
LINE
8
BLACK
6
CONTINUOUS
10
7.93132
20
-3.68908
11
7.93079
21
-3.68567
0
LINE
8
BLACK
6
CONTINUOUS
10
7.93079
20
-3.68567
11
7.93162
21
-3.68231
0
LINE
8
BLACK
6
CONTINUOUS
10
7.93162
20
-3.68231
11
7.93366
21
-3.67952
0
LINE
8
BLACK
6
CONTINUOUS
10
7.93366
20
-3.67952
11
7.93661
21
-3.67773
0
LINE
8
BLACK
6
CONTINUOUS
10
7.93661
20
-3.67773
11
7.96436
21
-3.66763
0
LINE
8
BLACK
6
CONTINUOUS
10
7.96436
20
-3.66763
11
7.96778
21
-3.66711
0
LINE
8
BLACK
6
CONTINUOUS
10
7.96778
20
-3.66711
11
7.97113
21
-3.66793
0
LINE
8
BLACK
6
CONTINUOUS
10
5.08627
20
-3.65342
11
5.11402
21
-3.66352
0
LINE
8
BLACK
6
CONTINUOUS
10
5.11402
20
-3.66352
11
5.11697
21
-3.66532
0
LINE
8
BLACK
6
CONTINUOUS
10
5.11697
20
-3.66532
11
5.11901
21
-3.6681
0
LINE
8
BLACK
6
CONTINUOUS
10
5.11901
20
-3.6681
11
5.11984
21
-3.67146
0
LINE
8
BLACK
6
CONTINUOUS
10
5.11984
20
-3.67146
11
5.11931
21
-3.67488
0
LINE
8
BLACK
6
CONTINUOUS
10
5.11931
20
-3.67488
11
5.11325
21
-3.69152
0
LINE
8
BLACK
6
CONTINUOUS
10
5.11325
20
-3.69152
11
5.11146
21
-3.69448
0
LINE
8
BLACK
6
CONTINUOUS
10
5.11146
20
-3.69448
11
5.10867
21
-3.69652
0
LINE
8
BLACK
6
CONTINUOUS
10
5.10867
20
-3.69652
11
5.10531
21
-3.69735
0
LINE
8
BLACK
6
CONTINUOUS
10
5.10531
20
-3.69735
11
5.1019
21
-3.69682
0
LINE
8
BLACK
6
CONTINUOUS
10
5.1019
20
-3.69682
11
5.07415
21
-3.68672
0
LINE
8
BLACK
6
CONTINUOUS
10
5.07415
20
-3.68672
11
5.0712
21
-3.68493
0
LINE
8
BLACK
6
CONTINUOUS
10
5.0712
20
-3.68493
11
5.06915
21
-3.68214
0
LINE
8
BLACK
6
CONTINUOUS
10
5.06915
20
-3.68214
11
5.06833
21
-3.67878
0
LINE
8
BLACK
6
CONTINUOUS
10
5.06833
20
-3.67878
11
5.06886
21
-3.67537
0
LINE
8
BLACK
6
CONTINUOUS
10
5.06886
20
-3.67537
11
5.07492
21
-3.65872
0
LINE
8
BLACK
6
CONTINUOUS
10
5.07492
20
-3.65872
11
5.07671
21
-3.65576
0
LINE
8
BLACK
6
CONTINUOUS
10
5.07671
20
-3.65576
11
5.0795
21
-3.65372
0
LINE
8
BLACK
6
CONTINUOUS
10
5.0795
20
-3.65372
11
5.08285
21
-3.6529
0
LINE
8
BLACK
6
CONTINUOUS
10
5.08285
20
-3.6529
11
5.08627
21
-3.65342
0
LINE
8
BLACK
6
CONTINUOUS
10
2.8239
20
-3.65326
11
2.85165
21
-3.66336
0
LINE
8
BLACK
6
CONTINUOUS
10
2.85165
20
-3.66336
11
2.8546
21
-3.66515
0
LINE
8
BLACK
6
CONTINUOUS
10
2.8546
20
-3.66515
11
2.85665
21
-3.66794
0
LINE
8
BLACK
6
CONTINUOUS
10
2.85665
20
-3.66794
11
2.85747
21
-3.6713
0
LINE
8
BLACK
6
CONTINUOUS
10
2.85747
20
-3.6713
11
2.85694
21
-3.67471
0
LINE
8
BLACK
6
CONTINUOUS
10
2.85694
20
-3.67471
11
2.85088
21
-3.69136
0
LINE
8
BLACK
6
CONTINUOUS
10
2.85088
20
-3.69136
11
2.84909
21
-3.69432
0
LINE
8
BLACK
6
CONTINUOUS
10
2.84909
20
-3.69432
11
2.8463
21
-3.69636
0
LINE
8
BLACK
6
CONTINUOUS
10
2.8463
20
-3.69636
11
2.84295
21
-3.69718
0
LINE
8
BLACK
6
CONTINUOUS
10
2.84295
20
-3.69718
11
2.83953
21
-3.69666
0
LINE
8
BLACK
6
CONTINUOUS
10
2.83953
20
-3.69666
11
2.81178
21
-3.68656
0
LINE
8
BLACK
6
CONTINUOUS
10
2.81178
20
-3.68656
11
2.80883
21
-3.68476
0
LINE
8
BLACK
6
CONTINUOUS
10
2.80883
20
-3.68476
11
2.80679
21
-3.68198
0
LINE
8
BLACK
6
CONTINUOUS
10
2.80679
20
-3.68198
11
2.80596
21
-3.67862
0
LINE
8
BLACK
6
CONTINUOUS
10
2.80596
20
-3.67862
11
2.80649
21
-3.6752
0
LINE
8
BLACK
6
CONTINUOUS
10
2.80649
20
-3.6752
11
2.81255
21
-3.65856
0
LINE
8
BLACK
6
CONTINUOUS
10
2.81255
20
-3.65856
11
2.81434
21
-3.6556
0
LINE
8
BLACK
6
CONTINUOUS
10
2.81434
20
-3.6556
11
2.81713
21
-3.65356
0
LINE
8
BLACK
6
CONTINUOUS
10
2.81713
20
-3.65356
11
2.82049
21
-3.65274
0
LINE
8
BLACK
6
CONTINUOUS
10
2.82049
20
-3.65274
11
2.8239
21
-3.65326
0
LINE
8
BLACK
6
CONTINUOUS
10
4.34023
20
-3.63117
11
4.36797
21
-3.64127
0
LINE
8
BLACK
6
CONTINUOUS
10
4.36797
20
-3.64127
11
4.37093
21
-3.64306
0
LINE
8
BLACK
6
CONTINUOUS
10
4.37093
20
-3.64306
11
4.37297
21
-3.64585
0
LINE
8
BLACK
6
CONTINUOUS
10
4.37297
20
-3.64585
11
4.37379
21
-3.64921
0
LINE
8
BLACK
6
CONTINUOUS
10
4.37379
20
-3.64921
11
4.37327
21
-3.65263
0
LINE
8
BLACK
6
CONTINUOUS
10
4.37327
20
-3.65263
11
4.36721
21
-3.66927
0
LINE
8
BLACK
6
CONTINUOUS
10
4.36721
20
-3.66927
11
4.36541
21
-3.67223
0
LINE
8
BLACK
6
CONTINUOUS
10
4.36541
20
-3.67223
11
4.36263
21
-3.67427
0
LINE
8
BLACK
6
CONTINUOUS
10
4.36263
20
-3.67427
11
4.35927
21
-3.67509
0
LINE
8
BLACK
6
CONTINUOUS
10
4.35927
20
-3.67509
11
4.35585
21
-3.67457
0
LINE
8
BLACK
6
CONTINUOUS
10
4.35585
20
-3.67457
11
4.32811
21
-3.66447
0
LINE
8
BLACK
6
CONTINUOUS
10
4.32811
20
-3.66447
11
4.32515
21
-3.66268
0
LINE
8
BLACK
6
CONTINUOUS
10
4.32515
20
-3.66268
11
4.32311
21
-3.65989
0
LINE
8
BLACK
6
CONTINUOUS
10
4.32311
20
-3.65989
11
4.32229
21
-3.65653
0
LINE
8
BLACK
6
CONTINUOUS
10
4.32229
20
-3.65653
11
4.32281
21
-3.65311
0
LINE
8
BLACK
6
CONTINUOUS
10
4.32281
20
-3.65311
11
4.32887
21
-3.63647
0
LINE
8
BLACK
6
CONTINUOUS
10
4.32887
20
-3.63647
11
4.33067
21
-3.63351
0
LINE
8
BLACK
6
CONTINUOUS
10
4.33067
20
-3.63351
11
4.33345
21
-3.63147
0
LINE
8
BLACK
6
CONTINUOUS
10
4.33345
20
-3.63147
11
4.33681
21
-3.63065
0
LINE
8
BLACK
6
CONTINUOUS
10
4.33681
20
-3.63065
11
4.34023
21
-3.63117
0
LINE
8
BLACK
6
CONTINUOUS
10
6.43192
20
-3.58295
11
6.43471
21
-3.58499
0
LINE
8
BLACK
6
CONTINUOUS
10
6.43471
20
-3.58499
11
6.4365
21
-3.58794
0
LINE
8
BLACK
6
CONTINUOUS
10
6.4365
20
-3.58794
11
6.44256
21
-3.60459
0
LINE
8
BLACK
6
CONTINUOUS
10
6.44256
20
-3.60459
11
6.44309
21
-3.60801
0
LINE
8
BLACK
6
CONTINUOUS
10
6.44309
20
-3.60801
11
6.44226
21
-3.61137
0
LINE
8
BLACK
6
CONTINUOUS
10
6.44226
20
-3.61137
11
6.44022
21
-3.61415
0
LINE
8
BLACK
6
CONTINUOUS
10
6.44022
20
-3.61415
11
6.43726
21
-3.61595
0
LINE
8
BLACK
6
CONTINUOUS
10
6.43726
20
-3.61595
11
6.40952
21
-3.62605
0
LINE
8
BLACK
6
CONTINUOUS
10
6.40952
20
-3.62605
11
6.4061
21
-3.62657
0
LINE
8
BLACK
6
CONTINUOUS
10
6.4061
20
-3.62657
11
6.40274
21
-3.62575
0
LINE
8
BLACK
6
CONTINUOUS
10
6.40274
20
-3.62575
11
6.39996
21
-3.62371
0
LINE
8
BLACK
6
CONTINUOUS
10
6.39996
20
-3.62371
11
6.39816
21
-3.62075
0
LINE
8
BLACK
6
CONTINUOUS
10
6.39816
20
-3.62075
11
6.3921
21
-3.6041
0
LINE
8
BLACK
6
CONTINUOUS
10
6.3921
20
-3.6041
11
6.39158
21
-3.60069
0
LINE
8
BLACK
6
CONTINUOUS
10
6.39158
20
-3.60069
11
6.3924
21
-3.59733
0
LINE
8
BLACK
6
CONTINUOUS
10
6.3924
20
-3.59733
11
6.39444
21
-3.59454
0
LINE
8
BLACK
6
CONTINUOUS
10
6.39444
20
-3.59454
11
6.3974
21
-3.59275
0
LINE
8
BLACK
6
CONTINUOUS
10
6.3974
20
-3.59275
11
6.42515
21
-3.58265
0
LINE
8
BLACK
6
CONTINUOUS
10
6.42515
20
-3.58265
11
6.42856
21
-3.58212
0
LINE
8
BLACK
6
CONTINUOUS
10
6.42856
20
-3.58212
11
6.43192
21
-3.58295
0
LINE
8
BLACK
6
CONTINUOUS
10
8.69429
20
-3.58278
11
8.69707
21
-3.58483
0
LINE
8
BLACK
6
CONTINUOUS
10
8.69707
20
-3.58483
11
8.69887
21
-3.58778
0
LINE
8
BLACK
6
CONTINUOUS
10
8.69887
20
-3.58778
11
8.70493
21
-3.60443
0
LINE
8
BLACK
6
CONTINUOUS
10
8.70493
20
-3.60443
11
8.70545
21
-3.60785
0
LINE
8
BLACK
6
CONTINUOUS
10
8.70545
20
-3.60785
11
8.70463
21
-3.6112
0
LINE
8
BLACK
6
CONTINUOUS
10
8.70463
20
-3.6112
11
8.70259
21
-3.61399
0
LINE
8
BLACK
6
CONTINUOUS
10
8.70259
20
-3.61399
11
8.69963
21
-3.61578
0
LINE
8
BLACK
6
CONTINUOUS
10
8.69963
20
-3.61578
11
8.67188
21
-3.62588
0
LINE
8
BLACK
6
CONTINUOUS
10
8.67188
20
-3.62588
11
8.66847
21
-3.62641
0
LINE
8
BLACK
6
CONTINUOUS
10
8.66847
20
-3.62641
11
8.66511
21
-3.62559
0
LINE
8
BLACK
6
CONTINUOUS
10
8.66511
20
-3.62559
11
8.66232
21
-3.62354
0
LINE
8
BLACK
6
CONTINUOUS
10
8.66232
20
-3.62354
11
8.66053
21
-3.62059
0
LINE
8
BLACK
6
CONTINUOUS
10
8.66053
20
-3.62059
11
8.65447
21
-3.60394
0
LINE
8
BLACK
6
CONTINUOUS
10
8.65447
20
-3.60394
11
8.65395
21
-3.60052
0
LINE
8
BLACK
6
CONTINUOUS
10
8.65395
20
-3.60052
11
8.65477
21
-3.59717
0
LINE
8
BLACK
6
CONTINUOUS
10
8.65477
20
-3.59717
11
8.65681
21
-3.59438
0
LINE
8
BLACK
6
CONTINUOUS
10
8.65681
20
-3.59438
11
8.65977
21
-3.59259
0
LINE
8
BLACK
6
CONTINUOUS
10
8.65977
20
-3.59259
11
8.68751
21
-3.58249
0
LINE
8
BLACK
6
CONTINUOUS
10
8.68751
20
-3.58249
11
8.69093
21
-3.58196
0
LINE
8
BLACK
6
CONTINUOUS
10
8.69093
20
-3.58196
11
8.69429
21
-3.58278
0
LINE
8
BLACK
6
CONTINUOUS
10
7.17796
20
-3.56069
11
7.18075
21
-3.56274
0
LINE
8
BLACK
6
CONTINUOUS
10
7.18075
20
-3.56274
11
7.18254
21
-3.56569
0
LINE
8
BLACK
6
CONTINUOUS
10
7.18254
20
-3.56569
11
7.1886
21
-3.58234
0
LINE
8
BLACK
6
CONTINUOUS
10
7.1886
20
-3.58234
11
7.18913
21
-3.58576
0
LINE
8
BLACK
6
CONTINUOUS
10
7.18913
20
-3.58576
11
7.18831
21
-3.58911
0
LINE
8
BLACK
6
CONTINUOUS
10
7.18831
20
-3.58911
11
7.18626
21
-3.5919
0
LINE
8
BLACK
6
CONTINUOUS
10
7.18626
20
-3.5919
11
7.18331
21
-3.59369
0
LINE
8
BLACK
6
CONTINUOUS
10
7.18331
20
-3.59369
11
7.15556
21
-3.60379
0
LINE
8
BLACK
6
CONTINUOUS
10
7.15556
20
-3.60379
11
7.15214
21
-3.60432
0
LINE
8
BLACK
6
CONTINUOUS
10
7.15214
20
-3.60432
11
7.14879
21
-3.6035
0
LINE
8
BLACK
6
CONTINUOUS
10
7.14879
20
-3.6035
11
7.146
21
-3.60145
0
LINE
8
BLACK
6
CONTINUOUS
10
7.146
20
-3.60145
11
7.14421
21
-3.5985
0
LINE
8
BLACK
6
CONTINUOUS
10
7.14421
20
-3.5985
11
7.13815
21
-3.58185
0
LINE
8
BLACK
6
CONTINUOUS
10
7.13815
20
-3.58185
11
7.13762
21
-3.57844
0
LINE
8
BLACK
6
CONTINUOUS
10
7.13762
20
-3.57844
11
7.13844
21
-3.57508
0
LINE
8
BLACK
6
CONTINUOUS
10
7.13844
20
-3.57508
11
7.14049
21
-3.57229
0
LINE
8
BLACK
6
CONTINUOUS
10
7.14049
20
-3.57229
11
7.14344
21
-3.5705
0
LINE
8
BLACK
6
CONTINUOUS
10
7.14344
20
-3.5705
11
7.17119
21
-3.5604
0
LINE
8
BLACK
6
CONTINUOUS
10
7.17119
20
-3.5604
11
7.1746
21
-3.55987
0
LINE
8
BLACK
6
CONTINUOUS
10
7.1746
20
-3.55987
11
7.17796
21
-3.56069
0
LINE
8
BLACK
6
CONTINUOUS
10
5.1307
20
-3.53134
11
5.15845
21
-3.54144
0
LINE
8
BLACK
6
CONTINUOUS
10
5.15845
20
-3.54144
11
5.16141
21
-3.54323
0
LINE
8
BLACK
6
CONTINUOUS
10
5.16141
20
-3.54323
11
5.16345
21
-3.54602
0
LINE
8
BLACK
6
CONTINUOUS
10
5.16345
20
-3.54602
11
5.16427
21
-3.54937
0
LINE
8
BLACK
6
CONTINUOUS
10
5.16427
20
-3.54937
11
5.16375
21
-3.55279
0
LINE
8
BLACK
6
CONTINUOUS
10
5.16375
20
-3.55279
11
5.15769
21
-3.56944
0
LINE
8
BLACK
6
CONTINUOUS
10
5.15769
20
-3.56944
11
5.15589
21
-3.57239
0
LINE
8
BLACK
6
CONTINUOUS
10
5.15589
20
-3.57239
11
5.15311
21
-3.57444
0
LINE
8
BLACK
6
CONTINUOUS
10
5.15311
20
-3.57444
11
5.14975
21
-3.57526
0
LINE
8
BLACK
6
CONTINUOUS
10
5.14975
20
-3.57526
11
5.14633
21
-3.57473
0
LINE
8
BLACK
6
CONTINUOUS
10
5.14633
20
-3.57473
11
5.11859
21
-3.56463
0
LINE
8
BLACK
6
CONTINUOUS
10
5.11859
20
-3.56463
11
5.11563
21
-3.56284
0
LINE
8
BLACK
6
CONTINUOUS
10
5.11563
20
-3.56284
11
5.11359
21
-3.56005
0
LINE
8
BLACK
6
CONTINUOUS
10
5.11359
20
-3.56005
11
5.11277
21
-3.5567
0
LINE
8
BLACK
6
CONTINUOUS
10
5.11277
20
-3.5567
11
5.11329
21
-3.55328
0
LINE
8
BLACK
6
CONTINUOUS
10
5.11329
20
-3.55328
11
5.11935
21
-3.53663
0
LINE
8
BLACK
6
CONTINUOUS
10
5.11935
20
-3.53663
11
5.12114
21
-3.53368
0
LINE
8
BLACK
6
CONTINUOUS
10
5.12114
20
-3.53368
11
5.12393
21
-3.53163
0
LINE
8
BLACK
6
CONTINUOUS
10
5.12393
20
-3.53163
11
5.12729
21
-3.53081
0
LINE
8
BLACK
6
CONTINUOUS
10
5.12729
20
-3.53081
11
5.1307
21
-3.53134
0
LINE
8
BLACK
6
CONTINUOUS
10
4.38466
20
-3.50909
11
4.41241
21
-3.51919
0
LINE
8
BLACK
6
CONTINUOUS
10
4.41241
20
-3.51919
11
4.41536
21
-3.52098
0
LINE
8
BLACK
6
CONTINUOUS
10
4.41536
20
-3.52098
11
4.41741
21
-3.52377
0
LINE
8
BLACK
6
CONTINUOUS
10
4.41741
20
-3.52377
11
4.41823
21
-3.52712
0
LINE
8
BLACK
6
CONTINUOUS
10
4.41823
20
-3.52712
11
4.4177
21
-3.53054
0
LINE
8
BLACK
6
CONTINUOUS
10
4.4177
20
-3.53054
11
4.41164
21
-3.54719
0
LINE
8
BLACK
6
CONTINUOUS
10
4.41164
20
-3.54719
11
4.40985
21
-3.55014
0
LINE
8
BLACK
6
CONTINUOUS
10
4.40985
20
-3.55014
11
4.40706
21
-3.55219
0
LINE
8
BLACK
6
CONTINUOUS
10
4.40706
20
-3.55219
11
4.40371
21
-3.55301
0
LINE
8
BLACK
6
CONTINUOUS
10
4.40371
20
-3.55301
11
4.40029
21
-3.55248
0
LINE
8
BLACK
6
CONTINUOUS
10
4.40029
20
-3.55248
11
4.37254
21
-3.54238
0
LINE
8
BLACK
6
CONTINUOUS
10
4.37254
20
-3.54238
11
4.36959
21
-3.54059
0
LINE
8
BLACK
6
CONTINUOUS
10
4.36959
20
-3.54059
11
4.36754
21
-3.5378
0
LINE
8
BLACK
6
CONTINUOUS
10
4.36754
20
-3.5378
11
4.36672
21
-3.53444
0
LINE
8
BLACK
6
CONTINUOUS
10
4.36672
20
-3.53444
11
4.36725
21
-3.53103
0
LINE
8
BLACK
6
CONTINUOUS
10
4.36725
20
-3.53103
11
4.37331
21
-3.51438
0
LINE
8
BLACK
6
CONTINUOUS
10
4.37331
20
-3.51438
11
4.3751
21
-3.51143
0
LINE
8
BLACK
6
CONTINUOUS
10
4.3751
20
-3.51143
11
4.37789
21
-3.50938
0
LINE
8
BLACK
6
CONTINUOUS
10
4.37789
20
-3.50938
11
4.38125
21
-3.50856
0
LINE
8
BLACK
6
CONTINUOUS
10
4.38125
20
-3.50856
11
4.38466
21
-3.50909
0
LINE
8
BLACK
6
CONTINUOUS
10
6.38748
20
-3.46086
11
6.39027
21
-3.4629
0
LINE
8
BLACK
6
CONTINUOUS
10
6.39027
20
-3.4629
11
6.39206
21
-3.46586
0
LINE
8
BLACK
6
CONTINUOUS
10
6.39206
20
-3.46586
11
6.39812
21
-3.48251
0
LINE
8
BLACK
6
CONTINUOUS
10
6.39812
20
-3.48251
11
6.39865
21
-3.48592
0
LINE
8
BLACK
6
CONTINUOUS
10
6.39865
20
-3.48592
11
6.39783
21
-3.48928
0
LINE
8
BLACK
6
CONTINUOUS
10
6.39783
20
-3.48928
11
6.39578
21
-3.49207
0
LINE
8
BLACK
6
CONTINUOUS
10
6.39578
20
-3.49207
11
6.39283
21
-3.49386
0
LINE
8
BLACK
6
CONTINUOUS
10
6.39283
20
-3.49386
11
6.36508
21
-3.50396
0
LINE
8
BLACK
6
CONTINUOUS
10
6.36508
20
-3.50396
11
6.36167
21
-3.50449
0
LINE
8
BLACK
6
CONTINUOUS
10
6.36167
20
-3.50449
11
6.35831
21
-3.50366
0
LINE
8
BLACK
6
CONTINUOUS
10
6.35831
20
-3.50366
11
6.35552
21
-3.50162
0
LINE
8
BLACK
6
CONTINUOUS
10
6.35552
20
-3.50162
11
6.35373
21
-3.49866
0
LINE
8
BLACK
6
CONTINUOUS
10
6.35373
20
-3.49866
11
6.34767
21
-3.48202
0
LINE
8
BLACK
6
CONTINUOUS
10
6.34767
20
-3.48202
11
6.34714
21
-3.4786
0
LINE
8
BLACK
6
CONTINUOUS
10
6.34714
20
-3.4786
11
6.34796
21
-3.47524
0
LINE
8
BLACK
6
CONTINUOUS
10
6.34796
20
-3.47524
11
6.35001
21
-3.47246
0
LINE
8
BLACK
6
CONTINUOUS
10
6.35001
20
-3.47246
11
6.35296
21
-3.47066
0
LINE
8
BLACK
6
CONTINUOUS
10
6.35296
20
-3.47066
11
6.38071
21
-3.46056
0
LINE
8
BLACK
6
CONTINUOUS
10
6.38071
20
-3.46056
11
6.38413
21
-3.46004
0
LINE
8
BLACK
6
CONTINUOUS
10
6.38413
20
-3.46004
11
6.38748
21
-3.46086
0
LINE
8
BLACK
6
CONTINUOUS
10
7.13353
20
-3.43861
11
7.13631
21
-3.44065
0
LINE
8
BLACK
6
CONTINUOUS
10
7.13631
20
-3.44065
11
7.13811
21
-3.44361
0
LINE
8
BLACK
6
CONTINUOUS
10
7.13811
20
-3.44361
11
7.14417
21
-3.46025
0
LINE
8
BLACK
6
CONTINUOUS
10
7.14417
20
-3.46025
11
7.14469
21
-3.46367
0
LINE
8
BLACK
6
CONTINUOUS
10
7.14469
20
-3.46367
11
7.14387
21
-3.46703
0
LINE
8
BLACK
6
CONTINUOUS
10
7.14387
20
-3.46703
11
7.14183
21
-3.46982
0
LINE
8
BLACK
6
CONTINUOUS
10
7.14183
20
-3.46982
11
7.13887
21
-3.47161
0
LINE
8
BLACK
6
CONTINUOUS
10
7.13887
20
-3.47161
11
7.11113
21
-3.48171
0
LINE
8
BLACK
6
CONTINUOUS
10
7.11113
20
-3.48171
11
7.10771
21
-3.48223
0
LINE
8
BLACK
6
CONTINUOUS
10
7.10771
20
-3.48223
11
7.10435
21
-3.48141
0
LINE
8
BLACK
6
CONTINUOUS
10
7.10435
20
-3.48141
11
7.10156
21
-3.47937
0
LINE
8
BLACK
6
CONTINUOUS
10
7.10156
20
-3.47937
11
7.09977
21
-3.47641
0
LINE
8
BLACK
6
CONTINUOUS
10
7.09977
20
-3.47641
11
7.09371
21
-3.45977
0
LINE
8
BLACK
6
CONTINUOUS
10
7.09371
20
-3.45977
11
7.09319
21
-3.45635
0
LINE
8
BLACK
6
CONTINUOUS
10
7.09319
20
-3.45635
11
7.09401
21
-3.45299
0
LINE
8
BLACK
6
CONTINUOUS
10
7.09401
20
-3.45299
11
7.09605
21
-3.4502
0
LINE
8
BLACK
6
CONTINUOUS
10
7.09605
20
-3.4502
11
7.09901
21
-3.44841
0
LINE
8
BLACK
6
CONTINUOUS
10
7.09901
20
-3.44841
11
7.12675
21
-3.43831
0
LINE
8
BLACK
6
CONTINUOUS
10
7.12675
20
-3.43831
11
7.13017
21
-3.43779
0
LINE
8
BLACK
6
CONTINUOUS
10
7.13017
20
-3.43779
11
7.13353
21
-3.43861
0
LINE
8
BLACK
6
CONTINUOUS
10
2.17077
20
-3.37574
11
2.19852
21
-3.38584
0
LINE
8
BLACK
6
CONTINUOUS
10
2.19852
20
-3.38584
11
2.20147
21
-3.38763
0
LINE
8
BLACK
6
CONTINUOUS
10
2.20147
20
-3.38763
11
2.20352
21
-3.39042
0
LINE
8
BLACK
6
CONTINUOUS
10
2.20352
20
-3.39042
11
2.20434
21
-3.39378
0
LINE
8
BLACK
6
CONTINUOUS
10
2.20434
20
-3.39378
11
2.20381
21
-3.39719
0
LINE
8
BLACK
6
CONTINUOUS
10
2.20381
20
-3.39719
11
2.19775
21
-3.41384
0
LINE
8
BLACK
6
CONTINUOUS
10
2.19775
20
-3.41384
11
2.19596
21
-3.41679
0
LINE
8
BLACK
6
CONTINUOUS
10
2.19596
20
-3.41679
11
2.19317
21
-3.41884
0
LINE
8
BLACK
6
CONTINUOUS
10
2.19317
20
-3.41884
11
2.18982
21
-3.41966
0
LINE
8
BLACK
6
CONTINUOUS
10
2.18982
20
-3.41966
11
2.1864
21
-3.41913
0
LINE
8
BLACK
6
CONTINUOUS
10
2.1864
20
-3.41913
11
2.15865
21
-3.40904
0
LINE
8
BLACK
6
CONTINUOUS
10
2.15865
20
-3.40904
11
2.1557
21
-3.40724
0
LINE
8
BLACK
6
CONTINUOUS
10
2.1557
20
-3.40724
11
2.15365
21
-3.40445
0
LINE
8
BLACK
6
CONTINUOUS
10
2.15365
20
-3.40445
11
2.15283
21
-3.4011
0
LINE
8
BLACK
6
CONTINUOUS
10
2.15283
20
-3.4011
11
2.15336
21
-3.39768
0
LINE
8
BLACK
6
CONTINUOUS
10
2.15336
20
-3.39768
11
2.15942
21
-3.38103
0
LINE
8
BLACK
6
CONTINUOUS
10
2.15942
20
-3.38103
11
2.16121
21
-3.37808
0
LINE
8
BLACK
6
CONTINUOUS
10
2.16121
20
-3.37808
11
2.164
21
-3.37603
0
LINE
8
BLACK
6
CONTINUOUS
10
2.164
20
-3.37603
11
2.16736
21
-3.37521
0
LINE
8
BLACK
6
CONTINUOUS
10
2.16736
20
-3.37521
11
2.17077
21
-3.37574
0
LINE
8
BLACK
6
CONTINUOUS
10
9.34742
20
-3.30526
11
9.3502
21
-3.3073
0
LINE
8
BLACK
6
CONTINUOUS
10
9.3502
20
-3.3073
11
9.352
21
-3.31026
0
LINE
8
BLACK
6
CONTINUOUS
10
9.352
20
-3.31026
11
9.35806
21
-3.32691
0
LINE
8
BLACK
6
CONTINUOUS
10
9.35806
20
-3.32691
11
9.35858
21
-3.33032
0
LINE
8
BLACK
6
CONTINUOUS
10
9.35858
20
-3.33032
11
9.35776
21
-3.33368
0
LINE
8
BLACK
6
CONTINUOUS
10
9.35776
20
-3.33368
11
9.35572
21
-3.33647
0
LINE
8
BLACK
6
CONTINUOUS
10
9.35572
20
-3.33647
11
9.35276
21
-3.33826
0
LINE
8
BLACK
6
CONTINUOUS
10
9.35276
20
-3.33826
11
9.32502
21
-3.34836
0
LINE
8
BLACK
6
CONTINUOUS
10
9.32502
20
-3.34836
11
9.3216
21
-3.34889
0
LINE
8
BLACK
6
CONTINUOUS
10
9.3216
20
-3.34889
11
9.31824
21
-3.34806
0
LINE
8
BLACK
6
CONTINUOUS
10
9.31824
20
-3.34806
11
9.31546
21
-3.34602
0
LINE
8
BLACK
6
CONTINUOUS
10
9.31546
20
-3.34602
11
9.31366
21
-3.34307
0
LINE
8
BLACK
6
CONTINUOUS
10
9.31366
20
-3.34307
11
9.3076
21
-3.32642
0
LINE
8
BLACK
6
CONTINUOUS
10
9.3076
20
-3.32642
11
9.30708
21
-3.323
0
LINE
8
BLACK
6
CONTINUOUS
10
9.30708
20
-3.323
11
9.3079
21
-3.31964
0
LINE
8
BLACK
6
CONTINUOUS
10
9.3079
20
-3.31964
11
9.30994
21
-3.31686
0
LINE
8
BLACK
6
CONTINUOUS
10
9.30994
20
-3.31686
11
9.3129
21
-3.31506
0
LINE
8
BLACK
6
CONTINUOUS
10
9.3129
20
-3.31506
11
9.34064
21
-3.30497
0
LINE
8
BLACK
6
CONTINUOUS
10
9.34064
20
-3.30497
11
9.34406
21
-3.30444
0
LINE
8
BLACK
6
CONTINUOUS
10
9.34406
20
-3.30444
11
9.34742
21
-3.30526
0
LINE
8
BLACK
6
CONTINUOUS
10
2.21521
20
-3.25365
11
2.24295
21
-3.26375
0
LINE
8
BLACK
6
CONTINUOUS
10
2.24295
20
-3.26375
11
2.24591
21
-3.26555
0
LINE
8
BLACK
6
CONTINUOUS
10
2.24591
20
-3.26555
11
2.24795
21
-3.26833
0
LINE
8
BLACK
6
CONTINUOUS
10
2.24795
20
-3.26833
11
2.24877
21
-3.27169
0
LINE
8
BLACK
6
CONTINUOUS
10
2.24877
20
-3.27169
11
2.24825
21
-3.27511
0
LINE
8
BLACK
6
CONTINUOUS
10
2.24825
20
-3.27511
11
2.24219
21
-3.29175
0
LINE
8
BLACK
6
CONTINUOUS
10
2.24219
20
-3.29175
11
2.2404
21
-3.29471
0
LINE
8
BLACK
6
CONTINUOUS
10
2.2404
20
-3.29471
11
2.23761
21
-3.29675
0
LINE
8
BLACK
6
CONTINUOUS
10
2.23761
20
-3.29675
11
2.23425
21
-3.29757
0
LINE
8
BLACK
6
CONTINUOUS
10
2.23425
20
-3.29757
11
2.23083
21
-3.29705
0
LINE
8
BLACK
6
CONTINUOUS
10
2.23083
20
-3.29705
11
2.20309
21
-3.28695
0
LINE
8
BLACK
6
CONTINUOUS
10
2.20309
20
-3.28695
11
2.20013
21
-3.28516
0
LINE
8
BLACK
6
CONTINUOUS
10
2.20013
20
-3.28516
11
2.19809
21
-3.28237
0
LINE
8
BLACK
6
CONTINUOUS
10
2.19809
20
-3.28237
11
2.19727
21
-3.27901
0
LINE
8
BLACK
6
CONTINUOUS
10
2.19727
20
-3.27901
11
2.19779
21
-3.2756
0
LINE
8
BLACK
6
CONTINUOUS
10
2.19779
20
-3.2756
11
2.20385
21
-3.25895
0
LINE
8
BLACK
6
CONTINUOUS
10
2.20385
20
-3.25895
11
2.20565
21
-3.25599
0
LINE
8
BLACK
6
CONTINUOUS
10
2.20565
20
-3.25599
11
2.20843
21
-3.25395
0
LINE
8
BLACK
6
CONTINUOUS
10
2.20843
20
-3.25395
11
2.21179
21
-3.25313
0
LINE
8
BLACK
6
CONTINUOUS
10
2.21179
20
-3.25313
11
2.21521
21
-3.25365
0
LINE
8
BLACK
6
CONTINUOUS
10
3.73153
20
-3.23156
11
3.75928
21
-3.24166
0
LINE
8
BLACK
6
CONTINUOUS
10
3.75928
20
-3.24166
11
3.76223
21
-3.24346
0
LINE
8
BLACK
6
CONTINUOUS
10
3.76223
20
-3.24346
11
3.76428
21
-3.24624
0
LINE
8
BLACK
6
CONTINUOUS
10
3.76428
20
-3.24624
11
3.7651
21
-3.2496
0
LINE
8
BLACK
6
CONTINUOUS
10
3.7651
20
-3.2496
11
3.76457
21
-3.25302
0
LINE
8
BLACK
6
CONTINUOUS
10
3.76457
20
-3.25302
11
3.75851
21
-3.26966
0
LINE
8
BLACK
6
CONTINUOUS
10
3.75851
20
-3.26966
11
3.75672
21
-3.27262
0
LINE
8
BLACK
6
CONTINUOUS
10
3.75672
20
-3.27262
11
3.75393
21
-3.27466
0
LINE
8
BLACK
6
CONTINUOUS
10
3.75393
20
-3.27466
11
3.75057
21
-3.27548
0
LINE
8
BLACK
6
CONTINUOUS
10
3.75057
20
-3.27548
11
3.74716
21
-3.27496
0
LINE
8
BLACK
6
CONTINUOUS
10
3.74716
20
-3.27496
11
3.71941
21
-3.26486
0
LINE
8
BLACK
6
CONTINUOUS
10
3.71941
20
-3.26486
11
3.71646
21
-3.26307
0
LINE
8
BLACK
6
CONTINUOUS
10
3.71646
20
-3.26307
11
3.71441
21
-3.26028
0
LINE
8
BLACK
6
CONTINUOUS
10
3.71441
20
-3.26028
11
3.71359
21
-3.25692
0
LINE
8
BLACK
6
CONTINUOUS
10
3.71359
20
-3.25692
11
3.71412
21
-3.25351
0
LINE
8
BLACK
6
CONTINUOUS
10
3.71412
20
-3.25351
11
3.72018
21
-3.23686
0
LINE
8
BLACK
6
CONTINUOUS
10
3.72018
20
-3.23686
11
3.72197
21
-3.2339
0
LINE
8
BLACK
6
CONTINUOUS
10
3.72197
20
-3.2339
11
3.72476
21
-3.23186
0
LINE
8
BLACK
6
CONTINUOUS
10
3.72476
20
-3.23186
11
3.72811
21
-3.23104
0
LINE
8
BLACK
6
CONTINUOUS
10
3.72811
20
-3.23104
11
3.73153
21
-3.23156
0
LINE
8
BLACK
6
CONTINUOUS
10
9.30298
20
-3.18317
11
9.30577
21
-3.18522
0
LINE
8
BLACK
6
CONTINUOUS
10
9.30577
20
-3.18522
11
9.30756
21
-3.18817
0
LINE
8
BLACK
6
CONTINUOUS
10
9.30756
20
-3.18817
11
9.31362
21
-3.20482
0
LINE
8
BLACK
6
CONTINUOUS
10
9.31362
20
-3.20482
11
9.31415
21
-3.20824
0
LINE
8
BLACK
6
CONTINUOUS
10
9.31415
20
-3.20824
11
9.31333
21
-3.21159
0
LINE
8
BLACK
6
CONTINUOUS
10
9.31333
20
-3.21159
11
9.31128
21
-3.21438
0
LINE
8
BLACK
6
CONTINUOUS
10
9.31128
20
-3.21438
11
9.30833
21
-3.21618
0
LINE
8
BLACK
6
CONTINUOUS
10
9.30833
20
-3.21618
11
9.28058
21
-3.22627
0
LINE
8
BLACK
6
CONTINUOUS
10
9.28058
20
-3.22627
11
9.27716
21
-3.2268
0
LINE
8
BLACK
6
CONTINUOUS
10
9.27716
20
-3.2268
11
9.27381
21
-3.22598
0
LINE
8
BLACK
6
CONTINUOUS
10
9.27381
20
-3.22598
11
9.27102
21
-3.22393
0
LINE
8
BLACK
6
CONTINUOUS
10
9.27102
20
-3.22393
11
9.26923
21
-3.22098
0
LINE
8
BLACK
6
CONTINUOUS
10
9.26923
20
-3.22098
11
9.26317
21
-3.20433
0
LINE
8
BLACK
6
CONTINUOUS
10
9.26317
20
-3.20433
11
9.26264
21
-3.20092
0
LINE
8
BLACK
6
CONTINUOUS
10
9.26264
20
-3.20092
11
9.26346
21
-3.19756
0
LINE
8
BLACK
6
CONTINUOUS
10
9.26346
20
-3.19756
11
9.26551
21
-3.19477
0
LINE
8
BLACK
6
CONTINUOUS
10
9.26551
20
-3.19477
11
9.26846
21
-3.19298
0
LINE
8
BLACK
6
CONTINUOUS
10
9.26846
20
-3.19298
11
9.29621
21
-3.18288
0
LINE
8
BLACK
6
CONTINUOUS
10
9.29621
20
-3.18288
11
9.29962
21
-3.18235
0
LINE
8
BLACK
6
CONTINUOUS
10
9.29962
20
-3.18235
11
9.30298
21
-3.18317
0
LINE
8
BLACK
6
CONTINUOUS
10
7.78666
20
-3.16109
11
7.78945
21
-3.16313
0
LINE
8
BLACK
6
CONTINUOUS
10
7.78945
20
-3.16313
11
7.79124
21
-3.16608
0
LINE
8
BLACK
6
CONTINUOUS
10
7.79124
20
-3.16608
11
7.7973
21
-3.18273
0
LINE
8
BLACK
6
CONTINUOUS
10
7.7973
20
-3.18273
11
7.79782
21
-3.18615
0
LINE
8
BLACK
6
CONTINUOUS
10
7.79782
20
-3.18615
11
7.797
21
-3.18951
0
LINE
8
BLACK
6
CONTINUOUS
10
7.797
20
-3.18951
11
7.79496
21
-3.19229
0
LINE
8
BLACK
6
CONTINUOUS
10
7.79496
20
-3.19229
11
7.792
21
-3.19409
0
LINE
8
BLACK
6
CONTINUOUS
10
7.792
20
-3.19409
11
7.76426
21
-3.20419
0
LINE
8
BLACK
6
CONTINUOUS
10
7.76426
20
-3.20419
11
7.76084
21
-3.20471
0
LINE
8
BLACK
6
CONTINUOUS
10
7.76084
20
-3.20471
11
7.75748
21
-3.20389
0
LINE
8
BLACK
6
CONTINUOUS
10
7.75748
20
-3.20389
11
7.7547
21
-3.20185
0
LINE
8
BLACK
6
CONTINUOUS
10
7.7547
20
-3.20185
11
7.7529
21
-3.19889
0
LINE
8
BLACK
6
CONTINUOUS
10
7.7529
20
-3.19889
11
7.74684
21
-3.18224
0
LINE
8
BLACK
6
CONTINUOUS
10
7.74684
20
-3.18224
11
7.74632
21
-3.17883
0
LINE
8
BLACK
6
CONTINUOUS
10
7.74632
20
-3.17883
11
7.74714
21
-3.17547
0
LINE
8
BLACK
6
CONTINUOUS
10
7.74714
20
-3.17547
11
7.74918
21
-3.17268
0
LINE
8
BLACK
6
CONTINUOUS
10
7.74918
20
-3.17268
11
7.75214
21
-3.17089
0
LINE
8
BLACK
6
CONTINUOUS
10
7.75214
20
-3.17089
11
7.77989
21
-3.16079
0
LINE
8
BLACK
6
CONTINUOUS
10
7.77989
20
-3.16079
11
7.7833
21
-3.16026
0
LINE
8
BLACK
6
CONTINUOUS
10
7.7833
20
-3.16026
11
7.78666
21
-3.16109
0
LINE
8
BLACK
6
CONTINUOUS
10
3.00838
20
-3.14642
11
3.03613
21
-3.15652
0
LINE
8
BLACK
6
CONTINUOUS
10
3.03613
20
-3.15652
11
3.03908
21
-3.15831
0
LINE
8
BLACK
6
CONTINUOUS
10
3.03908
20
-3.15831
11
3.04112
21
-3.1611
0
LINE
8
BLACK
6
CONTINUOUS
10
3.04112
20
-3.1611
11
3.04195
21
-3.16446
0
LINE
8
BLACK
6
CONTINUOUS
10
3.04195
20
-3.16446
11
3.04142
21
-3.16787
0
LINE
8
BLACK
6
CONTINUOUS
10
3.04142
20
-3.16787
11
3.03536
21
-3.18452
0
LINE
8
BLACK
6
CONTINUOUS
10
3.03536
20
-3.18452
11
3.03357
21
-3.18748
0
LINE
8
BLACK
6
CONTINUOUS
10
3.03357
20
-3.18748
11
3.03078
21
-3.18952
0
LINE
8
BLACK
6
CONTINUOUS
10
3.03078
20
-3.18952
11
3.02742
21
-3.19034
0
LINE
8
BLACK
6
CONTINUOUS
10
3.02742
20
-3.19034
11
3.02401
21
-3.18981
0
LINE
8
BLACK
6
CONTINUOUS
10
3.02401
20
-3.18981
11
2.99626
21
-3.17972
0
LINE
8
BLACK
6
CONTINUOUS
10
2.99626
20
-3.17972
11
2.9933
21
-3.17792
0
LINE
8
BLACK
6
CONTINUOUS
10
2.9933
20
-3.17792
11
2.99126
21
-3.17514
0
LINE
8
BLACK
6
CONTINUOUS
10
2.99126
20
-3.17514
11
2.99044
21
-3.17178
0
LINE
8
BLACK
6
CONTINUOUS
10
2.99044
20
-3.17178
11
2.99097
21
-3.16836
0
LINE
8
BLACK
6
CONTINUOUS
10
2.99097
20
-3.16836
11
2.99702
21
-3.15171
0
LINE
8
BLACK
6
CONTINUOUS
10
2.99702
20
-3.15171
11
2.99882
21
-3.14876
0
LINE
8
BLACK
6
CONTINUOUS
10
2.99882
20
-3.14876
11
3.00161
21
-3.14672
0
LINE
8
BLACK
6
CONTINUOUS
10
3.00161
20
-3.14672
11
3.00496
21
-3.14589
0
LINE
8
BLACK
6
CONTINUOUS
10
3.00496
20
-3.14589
11
3.00838
21
-3.14642
0
LINE
8
BLACK
6
CONTINUOUS
10
3.77597
20
-3.10948
11
3.80371
21
-3.11958
0
LINE
8
BLACK
6
CONTINUOUS
10
3.80371
20
-3.11958
11
3.80667
21
-3.12137
0
LINE
8
BLACK
6
CONTINUOUS
10
3.80667
20
-3.12137
11
3.80871
21
-3.12416
0
LINE
8
BLACK
6
CONTINUOUS
10
3.80871
20
-3.12416
11
3.80953
21
-3.12751
0
LINE
8
BLACK
6
CONTINUOUS
10
3.80953
20
-3.12751
11
3.80901
21
-3.13093
0
LINE
8
BLACK
6
CONTINUOUS
10
3.80901
20
-3.13093
11
3.80295
21
-3.14758
0
LINE
8
BLACK
6
CONTINUOUS
10
3.80295
20
-3.14758
11
3.80115
21
-3.15053
0
LINE
8
BLACK
6
CONTINUOUS
10
3.80115
20
-3.15053
11
3.79837
21
-3.15258
0
LINE
8
BLACK
6
CONTINUOUS
10
3.79837
20
-3.15258
11
3.79501
21
-3.1534
0
LINE
8
BLACK
6
CONTINUOUS
10
3.79501
20
-3.1534
11
3.79159
21
-3.15287
0
LINE
8
BLACK
6
CONTINUOUS
10
3.79159
20
-3.15287
11
3.76385
21
-3.14277
0
LINE
8
BLACK
6
CONTINUOUS
10
3.76385
20
-3.14277
11
3.76089
21
-3.14098
0
LINE
8
BLACK
6
CONTINUOUS
10
3.76089
20
-3.14098
11
3.75885
21
-3.13819
0
LINE
8
BLACK
6
CONTINUOUS
10
3.75885
20
-3.13819
11
3.75803
21
-3.13484
0
LINE
8
BLACK
6
CONTINUOUS
10
3.75803
20
-3.13484
11
3.75855
21
-3.13142
0
LINE
8
BLACK
6
CONTINUOUS
10
3.75855
20
-3.13142
11
3.76461
21
-3.11477
0
LINE
8
BLACK
6
CONTINUOUS
10
3.76461
20
-3.11477
11
3.76641
21
-3.11182
0
LINE
8
BLACK
6
CONTINUOUS
10
3.76641
20
-3.11182
11
3.76919
21
-3.10977
0
LINE
8
BLACK
6
CONTINUOUS
10
3.76919
20
-3.10977
11
3.77255
21
-3.10895
0
LINE
8
BLACK
6
CONTINUOUS
10
3.77255
20
-3.10895
11
3.77597
21
-3.10948
0
LINE
8
BLACK
6
CONTINUOUS
10
8.50981
20
-3.07594
11
8.5126
21
-3.07798
0
LINE
8
BLACK
6
CONTINUOUS
10
8.5126
20
-3.07798
11
8.51439
21
-3.08094
0
LINE
8
BLACK
6
CONTINUOUS
10
8.51439
20
-3.08094
11
8.52045
21
-3.09759
0
LINE
8
BLACK
6
CONTINUOUS
10
8.52045
20
-3.09759
11
8.52098
21
-3.101
0
LINE
8
BLACK
6
CONTINUOUS
10
8.52098
20
-3.101
11
8.52015
21
-3.10436
0
LINE
8
BLACK
6
CONTINUOUS
10
8.52015
20
-3.10436
11
8.51811
21
-3.10715
0
LINE
8
BLACK
6
CONTINUOUS
10
8.51811
20
-3.10715
11
8.51516
21
-3.10894
0
LINE
8
BLACK
6
CONTINUOUS
10
8.51516
20
-3.10894
11
8.48741
21
-3.11904
0
LINE
8
BLACK
6
CONTINUOUS
10
8.48741
20
-3.11904
11
8.48399
21
-3.11957
0
LINE
8
BLACK
6
CONTINUOUS
10
8.48399
20
-3.11957
11
8.48064
21
-3.11875
0
LINE
8
BLACK
6
CONTINUOUS
10
8.48064
20
-3.11875
11
8.47785
21
-3.1167
0
LINE
8
BLACK
6
CONTINUOUS
10
8.47785
20
-3.1167
11
8.47605
21
-3.11375
0
LINE
8
BLACK
6
CONTINUOUS
10
8.47605
20
-3.11375
11
8.47
21
-3.0971
0
LINE
8
BLACK
6
CONTINUOUS
10
8.47
20
-3.0971
11
8.46947
21
-3.09368
0
LINE
8
BLACK
6
CONTINUOUS
10
8.46947
20
-3.09368
11
8.47029
21
-3.09032
0
LINE
8
BLACK
6
CONTINUOUS
10
8.47029
20
-3.09032
11
8.47233
21
-3.08754
0
LINE
8
BLACK
6
CONTINUOUS
10
8.47233
20
-3.08754
11
8.47529
21
-3.08574
0
LINE
8
BLACK
6
CONTINUOUS
10
8.47529
20
-3.08574
11
8.50304
21
-3.07565
0
LINE
8
BLACK
6
CONTINUOUS
10
8.50304
20
-3.07565
11
8.50645
21
-3.07512
0
LINE
8
BLACK
6
CONTINUOUS
10
8.50645
20
-3.07512
11
8.50981
21
-3.07594
0
LINE
8
BLACK
6
CONTINUOUS
10
7.74222
20
-3.039
11
7.74501
21
-3.04104
0
LINE
8
BLACK
6
CONTINUOUS
10
7.74501
20
-3.04104
11
7.7468
21
-3.044
0
LINE
8
BLACK
6
CONTINUOUS
10
7.7468
20
-3.044
11
7.75286
21
-3.06065
0
LINE
8
BLACK
6
CONTINUOUS
10
7.75286
20
-3.06065
11
7.75339
21
-3.06406
0
LINE
8
BLACK
6
CONTINUOUS
10
7.75339
20
-3.06406
11
7.75257
21
-3.06742
0
LINE
8
BLACK
6
CONTINUOUS
10
7.75257
20
-3.06742
11
7.75052
21
-3.07021
0
LINE
8
BLACK
6
CONTINUOUS
10
7.75052
20
-3.07021
11
7.74757
21
-3.072
0
LINE
8
BLACK
6
CONTINUOUS
10
7.74757
20
-3.072
11
7.71982
21
-3.0821
0
LINE
8
BLACK
6
CONTINUOUS
10
7.71982
20
-3.0821
11
7.71641
21
-3.08262
0
LINE
8
BLACK
6
CONTINUOUS
10
7.71641
20
-3.08262
11
7.71305
21
-3.0818
0
LINE
8
BLACK
6
CONTINUOUS
10
7.71305
20
-3.0818
11
7.71026
21
-3.07976
0
LINE
8
BLACK
6
CONTINUOUS
10
7.71026
20
-3.07976
11
7.70847
21
-3.0768
0
LINE
8
BLACK
6
CONTINUOUS
10
7.70847
20
-3.0768
11
7.70241
21
-3.06016
0
LINE
8
BLACK
6
CONTINUOUS
10
7.70241
20
-3.06016
11
7.70188
21
-3.05674
0
LINE
8
BLACK
6
CONTINUOUS
10
7.70188
20
-3.05674
11
7.7027
21
-3.05338
0
LINE
8
BLACK
6
CONTINUOUS
10
7.7027
20
-3.05338
11
7.70475
21
-3.0506
0
LINE
8
BLACK
6
CONTINUOUS
10
7.70475
20
-3.0506
11
7.7077
21
-3.0488
0
LINE
8
BLACK
6
CONTINUOUS
10
7.7077
20
-3.0488
11
7.73545
21
-3.0387
0
LINE
8
BLACK
6
CONTINUOUS
10
7.73545
20
-3.0387
11
7.73887
21
-3.03818
0
LINE
8
BLACK
6
CONTINUOUS
10
7.73887
20
-3.03818
11
7.74222
21
-3.039
0
LINE
8
BLACK
6
CONTINUOUS
10
3.05281
20
-3.02433
11
3.08056
21
-3.03443
0
LINE
8
BLACK
6
CONTINUOUS
10
3.08056
20
-3.03443
11
3.08352
21
-3.03623
0
LINE
8
BLACK
6
CONTINUOUS
10
3.08352
20
-3.03623
11
3.08556
21
-3.03901
0
LINE
8
BLACK
6
CONTINUOUS
10
3.08556
20
-3.03901
11
3.08638
21
-3.04237
0
LINE
8
BLACK
6
CONTINUOUS
10
3.08638
20
-3.04237
11
3.08586
21
-3.04579
0
LINE
8
BLACK
6
CONTINUOUS
10
3.08586
20
-3.04579
11
3.0798
21
-3.06243
0
LINE
8
BLACK
6
CONTINUOUS
10
3.0798
20
-3.06243
11
3.078
21
-3.06539
0
LINE
8
BLACK
6
CONTINUOUS
10
3.078
20
-3.06539
11
3.07522
21
-3.06743
0
LINE
8
BLACK
6
CONTINUOUS
10
3.07522
20
-3.06743
11
3.07186
21
-3.06825
0
LINE
8
BLACK
6
CONTINUOUS
10
3.07186
20
-3.06825
11
3.06844
21
-3.06773
0
LINE
8
BLACK
6
CONTINUOUS
10
3.06844
20
-3.06773
11
3.0407
21
-3.05763
0
LINE
8
BLACK
6
CONTINUOUS
10
3.0407
20
-3.05763
11
3.03774
21
-3.05584
0
LINE
8
BLACK
6
CONTINUOUS
10
3.03774
20
-3.05584
11
3.0357
21
-3.05305
0
LINE
8
BLACK
6
CONTINUOUS
10
3.0357
20
-3.05305
11
3.03488
21
-3.04969
0
LINE
8
BLACK
6
CONTINUOUS
10
3.03488
20
-3.04969
11
3.0354
21
-3.04628
0
LINE
8
BLACK
6
CONTINUOUS
10
3.0354
20
-3.04628
11
3.04146
21
-3.02963
0
LINE
8
BLACK
6
CONTINUOUS
10
3.04146
20
-3.02963
11
3.04325
21
-3.02667
0
LINE
8
BLACK
6
CONTINUOUS
10
3.04325
20
-3.02667
11
3.04604
21
-3.02463
0
LINE
8
BLACK
6
CONTINUOUS
10
3.04604
20
-3.02463
11
3.0494
21
-3.02381
0
LINE
8
BLACK
6
CONTINUOUS
10
3.0494
20
-3.02381
11
3.05281
21
-3.02433
0
LINE
8
BLACK
6
CONTINUOUS
10
4.56914
20
-3.00224
11
4.59688
21
-3.01234
0
LINE
8
BLACK
6
CONTINUOUS
10
4.59688
20
-3.01234
11
4.59984
21
-3.01414
0
LINE
8
BLACK
6
CONTINUOUS
10
4.59984
20
-3.01414
11
4.60188
21
-3.01692
0
LINE
8
BLACK
6
CONTINUOUS
10
4.60188
20
-3.01692
11
4.6027
21
-3.02028
0
LINE
8
BLACK
6
CONTINUOUS
10
4.6027
20
-3.02028
11
4.60218
21
-3.0237
0
LINE
8
BLACK
6
CONTINUOUS
10
4.60218
20
-3.0237
11
4.59612
21
-3.04035
0
LINE
8
BLACK
6
CONTINUOUS
10
4.59612
20
-3.04035
11
4.59433
21
-3.0433
0
LINE
8
BLACK
6
CONTINUOUS
10
4.59433
20
-3.0433
11
4.59154
21
-3.04534
0
LINE
8
BLACK
6
CONTINUOUS
10
4.59154
20
-3.04534
11
4.58818
21
-3.04617
0
LINE
8
BLACK
6
CONTINUOUS
10
4.58818
20
-3.04617
11
4.58477
21
-3.04564
0
LINE
8
BLACK
6
CONTINUOUS
10
4.58477
20
-3.04564
11
4.55702
21
-3.03554
0
LINE
8
BLACK
6
CONTINUOUS
10
4.55702
20
-3.03554
11
4.55406
21
-3.03375
0
LINE
8
BLACK
6
CONTINUOUS
10
4.55406
20
-3.03375
11
4.55202
21
-3.03096
0
LINE
8
BLACK
6
CONTINUOUS
10
4.55202
20
-3.03096
11
4.5512
21
-3.0276
0
LINE
8
BLACK
6
CONTINUOUS
10
4.5512
20
-3.0276
11
4.55172
21
-3.02419
0
LINE
8
BLACK
6
CONTINUOUS
10
4.55172
20
-3.02419
11
4.55778
21
-3.00754
0
LINE
8
BLACK
6
CONTINUOUS
10
4.55778
20
-3.00754
11
4.55958
21
-3.00458
0
LINE
8
BLACK
6
CONTINUOUS
10
4.55958
20
-3.00458
11
4.56236
21
-3.00254
0
LINE
8
BLACK
6
CONTINUOUS
10
4.56236
20
-3.00254
11
4.56572
21
-3.00172
0
LINE
8
BLACK
6
CONTINUOUS
10
4.56572
20
-3.00172
11
4.56914
21
-3.00224
0
LINE
8
BLACK
6
CONTINUOUS
10
8.46537
20
-2.95386
11
8.46816
21
-2.9559
0
LINE
8
BLACK
6
CONTINUOUS
10
8.46816
20
-2.9559
11
8.46995
21
-2.95885
0
LINE
8
BLACK
6
CONTINUOUS
10
8.46995
20
-2.95885
11
8.47601
21
-2.9755
0
LINE
8
BLACK
6
CONTINUOUS
10
8.47601
20
-2.9755
11
8.47654
21
-2.97892
0
LINE
8
BLACK
6
CONTINUOUS
10
8.47654
20
-2.97892
11
8.47572
21
-2.98228
0
LINE
8
BLACK
6
CONTINUOUS
10
8.47572
20
-2.98228
11
8.47367
21
-2.98506
0
LINE
8
BLACK
6
CONTINUOUS
10
8.47367
20
-2.98506
11
8.47072
21
-2.98686
0
LINE
8
BLACK
6
CONTINUOUS
10
8.47072
20
-2.98686
11
8.44297
21
-2.99695
0
LINE
8
BLACK
6
CONTINUOUS
10
8.44297
20
-2.99695
11
8.43956
21
-2.99748
0
LINE
8
BLACK
6
CONTINUOUS
10
8.43956
20
-2.99748
11
8.4362
21
-2.99666
0
LINE
8
BLACK
6
CONTINUOUS
10
8.4362
20
-2.99666
11
8.43341
21
-2.99462
0
LINE
8
BLACK
6
CONTINUOUS
10
8.43341
20
-2.99462
11
8.43162
21
-2.99166
0
LINE
8
BLACK
6
CONTINUOUS
10
8.43162
20
-2.99166
11
8.42556
21
-2.97501
0
LINE
8
BLACK
6
CONTINUOUS
10
8.42556
20
-2.97501
11
8.42503
21
-2.9716
0
LINE
8
BLACK
6
CONTINUOUS
10
8.42503
20
-2.9716
11
8.42586
21
-2.96824
0
LINE
8
BLACK
6
CONTINUOUS
10
8.42586
20
-2.96824
11
8.4279
21
-2.96545
0
LINE
8
BLACK
6
CONTINUOUS
10
8.4279
20
-2.96545
11
8.43085
21
-2.96366
0
LINE
8
BLACK
6
CONTINUOUS
10
8.43085
20
-2.96366
11
8.4586
21
-2.95356
0
LINE
8
BLACK
6
CONTINUOUS
10
8.4586
20
-2.95356
11
8.46202
21
-2.95303
0
LINE
8
BLACK
6
CONTINUOUS
10
8.46202
20
-2.95303
11
8.46537
21
-2.95386
0
LINE
8
BLACK
6
CONTINUOUS
10
6.94905
20
-2.93177
11
6.95184
21
-2.93381
0
LINE
8
BLACK
6
CONTINUOUS
10
6.95184
20
-2.93381
11
6.95363
21
-2.93676
0
LINE
8
BLACK
6
CONTINUOUS
10
6.95363
20
-2.93676
11
6.95969
21
-2.95341
0
LINE
8
BLACK
6
CONTINUOUS
10
6.95969
20
-2.95341
11
6.96022
21
-2.95683
0
LINE
8
BLACK
6
CONTINUOUS
10
6.96022
20
-2.95683
11
6.9594
21
-2.96019
0
LINE
8
BLACK
6
CONTINUOUS
10
6.9594
20
-2.96019
11
6.95735
21
-2.96297
0
LINE
8
BLACK
6
CONTINUOUS
10
6.95735
20
-2.96297
11
6.9544
21
-2.96477
0
LINE
8
BLACK
6
CONTINUOUS
10
6.9544
20
-2.96477
11
6.92665
21
-2.97487
0
LINE
8
BLACK
6
CONTINUOUS
10
6.92665
20
-2.97487
11
6.92323
21
-2.97539
0
LINE
8
BLACK
6
CONTINUOUS
10
6.92323
20
-2.97539
11
6.91988
21
-2.97457
0
LINE
8
BLACK
6
CONTINUOUS
10
6.91988
20
-2.97457
11
6.91709
21
-2.97253
0
LINE
8
BLACK
6
CONTINUOUS
10
6.91709
20
-2.97253
11
6.9153
21
-2.96957
0
LINE
8
BLACK
6
CONTINUOUS
10
6.9153
20
-2.96957
11
6.90924
21
-2.95292
0
LINE
8
BLACK
6
CONTINUOUS
10
6.90924
20
-2.95292
11
6.90871
21
-2.94951
0
LINE
8
BLACK
6
CONTINUOUS
10
6.90871
20
-2.94951
11
6.90953
21
-2.94615
0
LINE
8
BLACK
6
CONTINUOUS
10
6.90953
20
-2.94615
11
6.91158
21
-2.94336
0
LINE
8
BLACK
6
CONTINUOUS
10
6.91158
20
-2.94336
11
6.91453
21
-2.94157
0
LINE
8
BLACK
6
CONTINUOUS
10
6.91453
20
-2.94157
11
6.94228
21
-2.93147
0
LINE
8
BLACK
6
CONTINUOUS
10
6.94228
20
-2.93147
11
6.94569
21
-2.93094
0
LINE
8
BLACK
6
CONTINUOUS
10
6.94569
20
-2.93094
11
6.94905
21
-2.93177
0
LINE
8
BLACK
6
CONTINUOUS
10
4.61357
20
-2.88016
11
4.64132
21
-2.89026
0
LINE
8
BLACK
6
CONTINUOUS
10
4.64132
20
-2.89026
11
4.64427
21
-2.89205
0
LINE
8
BLACK
6
CONTINUOUS
10
4.64427
20
-2.89205
11
4.64632
21
-2.89484
0
LINE
8
BLACK
6
CONTINUOUS
10
4.64632
20
-2.89484
11
4.64714
21
-2.89819
0
LINE
8
BLACK
6
CONTINUOUS
10
4.64714
20
-2.89819
11
4.64661
21
-2.90161
0
LINE
8
BLACK
6
CONTINUOUS
10
4.64661
20
-2.90161
11
4.64055
21
-2.91826
0
LINE
8
BLACK
6
CONTINUOUS
10
4.64055
20
-2.91826
11
4.63876
21
-2.92121
0
LINE
8
BLACK
6
CONTINUOUS
10
4.63876
20
-2.92121
11
4.63597
21
-2.92326
0
LINE
8
BLACK
6
CONTINUOUS
10
4.63597
20
-2.92326
11
4.63262
21
-2.92408
0
LINE
8
BLACK
6
CONTINUOUS
10
4.63262
20
-2.92408
11
4.6292
21
-2.92355
0
LINE
8
BLACK
6
CONTINUOUS
10
4.6292
20
-2.92355
11
4.60145
21
-2.91345
0
LINE
8
BLACK
6
CONTINUOUS
10
4.60145
20
-2.91345
11
4.5985
21
-2.91166
0
LINE
8
BLACK
6
CONTINUOUS
10
4.5985
20
-2.91166
11
4.59646
21
-2.90887
0
LINE
8
BLACK
6
CONTINUOUS
10
4.59646
20
-2.90887
11
4.59563
21
-2.90552
0
LINE
8
BLACK
6
CONTINUOUS
10
4.59563
20
-2.90552
11
4.59616
21
-2.9021
0
LINE
8
BLACK
6
CONTINUOUS
10
4.59616
20
-2.9021
11
4.60222
21
-2.88545
0
LINE
8
BLACK
6
CONTINUOUS
10
4.60222
20
-2.88545
11
4.60401
21
-2.8825
0
LINE
8
BLACK
6
CONTINUOUS
10
4.60401
20
-2.8825
11
4.6068
21
-2.88045
0
LINE
8
BLACK
6
CONTINUOUS
10
4.6068
20
-2.88045
11
4.61016
21
-2.87963
0
LINE
8
BLACK
6
CONTINUOUS
10
4.61016
20
-2.87963
11
4.61357
21
-2.88016
0
LINE
8
BLACK
6
CONTINUOUS
10
6.90462
20
-2.80968
11
6.9074
21
-2.81172
0
LINE
8
BLACK
6
CONTINUOUS
10
6.9074
20
-2.81172
11
6.9092
21
-2.81468
0
LINE
8
BLACK
6
CONTINUOUS
10
6.9092
20
-2.81468
11
6.91526
21
-2.83133
0
LINE
8
BLACK
6
CONTINUOUS
10
6.91526
20
-2.83133
11
6.91578
21
-2.83474
0
LINE
8
BLACK
6
CONTINUOUS
10
6.91578
20
-2.83474
11
6.91496
21
-2.8381
0
LINE
8
BLACK
6
CONTINUOUS
10
6.91496
20
-2.8381
11
6.91292
21
-2.84089
0
LINE
8
BLACK
6
CONTINUOUS
10
6.91292
20
-2.84089
11
6.90996
21
-2.84268
0
LINE
8
BLACK
6
CONTINUOUS
10
6.90996
20
-2.84268
11
6.88221
21
-2.85278
0
LINE
8
BLACK
6
CONTINUOUS
10
6.88221
20
-2.85278
11
6.8788
21
-2.85331
0
LINE
8
BLACK
6
CONTINUOUS
10
6.8788
20
-2.85331
11
6.87544
21
-2.85248
0
LINE
8
BLACK
6
CONTINUOUS
10
6.87544
20
-2.85248
11
6.87265
21
-2.85044
0
LINE
8
BLACK
6
CONTINUOUS
10
6.87265
20
-2.85044
11
6.87086
21
-2.84749
0
LINE
8
BLACK
6
CONTINUOUS
10
6.87086
20
-2.84749
11
6.8648
21
-2.83084
0
LINE
8
BLACK
6
CONTINUOUS
10
6.8648
20
-2.83084
11
6.86428
21
-2.82742
0
LINE
8
BLACK
6
CONTINUOUS
10
6.86428
20
-2.82742
11
6.8651
21
-2.82406
0
LINE
8
BLACK
6
CONTINUOUS
10
6.8651
20
-2.82406
11
6.86714
21
-2.82128
0
LINE
8
BLACK
6
CONTINUOUS
10
6.86714
20
-2.82128
11
6.8701
21
-2.81948
0
LINE
8
BLACK
6
CONTINUOUS
10
6.8701
20
-2.81948
11
6.89784
21
-2.80938
0
LINE
8
BLACK
6
CONTINUOUS
10
6.89784
20
-2.80938
11
6.90126
21
-2.80886
0
LINE
8
BLACK
6
CONTINUOUS
10
6.90126
20
-2.80886
11
6.90462
21
-2.80968
0
LINE
8
BLACK
6
CONTINUOUS
10
2.39968
20
-2.74681
11
2.42743
21
-2.75691
0
LINE
8
BLACK
6
CONTINUOUS
10
2.42743
20
-2.75691
11
2.43038
21
-2.7587
0
LINE
8
BLACK
6
CONTINUOUS
10
2.43038
20
-2.7587
11
2.43243
21
-2.76149
0
LINE
8
BLACK
6
CONTINUOUS
10
2.43243
20
-2.76149
11
2.43325
21
-2.76485
0
LINE
8
BLACK
6
CONTINUOUS
10
2.43325
20
-2.76485
11
2.43272
21
-2.76826
0
LINE
8
BLACK
6
CONTINUOUS
10
2.43272
20
-2.76826
11
2.42666
21
-2.78491
0
LINE
8
BLACK
6
CONTINUOUS
10
2.42666
20
-2.78491
11
2.42487
21
-2.78787
0
LINE
8
BLACK
6
CONTINUOUS
10
2.42487
20
-2.78787
11
2.42208
21
-2.78991
0
LINE
8
BLACK
6
CONTINUOUS
10
2.42208
20
-2.78991
11
2.41873
21
-2.79073
0
LINE
8
BLACK
6
CONTINUOUS
10
2.41873
20
-2.79073
11
2.41531
21
-2.79021
0
LINE
8
BLACK
6
CONTINUOUS
10
2.41531
20
-2.79021
11
2.38756
21
-2.78011
0
LINE
8
BLACK
6
CONTINUOUS
10
2.38756
20
-2.78011
11
2.38461
21
-2.77831
0
LINE
8
BLACK
6
CONTINUOUS
10
2.38461
20
-2.77831
11
2.38256
21
-2.77553
0
LINE
8
BLACK
6
CONTINUOUS
10
2.38256
20
-2.77553
11
2.38174
21
-2.77217
0
LINE
8
BLACK
6
CONTINUOUS
10
2.38174
20
-2.77217
11
2.38227
21
-2.76875
0
LINE
8
BLACK
6
CONTINUOUS
10
2.38227
20
-2.76875
11
2.38833
21
-2.75211
0
LINE
8
BLACK
6
CONTINUOUS
10
2.38833
20
-2.75211
11
2.39012
21
-2.74915
0
LINE
8
BLACK
6
CONTINUOUS
10
2.39012
20
-2.74915
11
2.39291
21
-2.74711
0
LINE
8
BLACK
6
CONTINUOUS
10
2.39291
20
-2.74711
11
2.39627
21
-2.74629
0
LINE
8
BLACK
6
CONTINUOUS
10
2.39627
20
-2.74629
11
2.39968
21
-2.74681
0
LINE
8
BLACK
6
CONTINUOUS
10
9.11851
20
-2.67633
11
9.12129
21
-2.67838
0
LINE
8
BLACK
6
CONTINUOUS
10
9.12129
20
-2.67838
11
9.12309
21
-2.68133
0
LINE
8
BLACK
6
CONTINUOUS
10
9.12309
20
-2.68133
11
9.12915
21
-2.69798
0
LINE
8
BLACK
6
CONTINUOUS
10
9.12915
20
-2.69798
11
9.12967
21
-2.7014
0
LINE
8
BLACK
6
CONTINUOUS
10
9.12967
20
-2.7014
11
9.12885
21
-2.70475
0
LINE
8
BLACK
6
CONTINUOUS
10
9.12885
20
-2.70475
11
9.12681
21
-2.70754
0
LINE
8
BLACK
6
CONTINUOUS
10
9.12681
20
-2.70754
11
9.12385
21
-2.70933
0
LINE
8
BLACK
6
CONTINUOUS
10
9.12385
20
-2.70933
11
9.0961
21
-2.71943
0
LINE
8
BLACK
6
CONTINUOUS
10
9.0961
20
-2.71943
11
9.09269
21
-2.71996
0
LINE
8
BLACK
6
CONTINUOUS
10
9.09269
20
-2.71996
11
9.08933
21
-2.71914
0
LINE
8
BLACK
6
CONTINUOUS
10
9.08933
20
-2.71914
11
9.08654
21
-2.71709
0
LINE
8
BLACK
6
CONTINUOUS
10
9.08654
20
-2.71709
11
9.08475
21
-2.71414
0
LINE
8
BLACK
6
CONTINUOUS
10
9.08475
20
-2.71414
11
9.07869
21
-2.69749
0
LINE
8
BLACK
6
CONTINUOUS
10
9.07869
20
-2.69749
11
9.07817
21
-2.69407
0
LINE
8
BLACK
6
CONTINUOUS
10
9.07817
20
-2.69407
11
9.07899
21
-2.69072
0
LINE
8
BLACK
6
CONTINUOUS
10
9.07899
20
-2.69072
11
9.08103
21
-2.68793
0
LINE
8
BLACK
6
CONTINUOUS
10
9.08103
20
-2.68793
11
9.08399
21
-2.68614
0
LINE
8
BLACK
6
CONTINUOUS
10
9.08399
20
-2.68614
11
9.11173
21
-2.67604
0
LINE
8
BLACK
6
CONTINUOUS
10
9.11173
20
-2.67604
11
9.11515
21
-2.67551
0
LINE
8
BLACK
6
CONTINUOUS
10
9.11515
20
-2.67551
11
9.11851
21
-2.67633
0
LINE
8
BLACK
6
CONTINUOUS
10
2.44412
20
-2.62472
11
2.47186
21
-2.63482
0
LINE
8
BLACK
6
CONTINUOUS
10
2.47186
20
-2.63482
11
2.47482
21
-2.63662
0
LINE
8
BLACK
6
CONTINUOUS
10
2.47482
20
-2.63662
11
2.47686
21
-2.6394
0
LINE
8
BLACK
6
CONTINUOUS
10
2.47686
20
-2.6394
11
2.47768
21
-2.64276
0
LINE
8
BLACK
6
CONTINUOUS
10
2.47768
20
-2.64276
11
2.47716
21
-2.64618
0
LINE
8
BLACK
6
CONTINUOUS
10
2.47716
20
-2.64618
11
2.4711
21
-2.66283
0
LINE
8
BLACK
6
CONTINUOUS
10
2.4711
20
-2.66283
11
2.46931
21
-2.66578
0
LINE
8
BLACK
6
CONTINUOUS
10
2.46931
20
-2.66578
11
2.46652
21
-2.66782
0
LINE
8
BLACK
6
CONTINUOUS
10
2.46652
20
-2.66782
11
2.46316
21
-2.66865
0
LINE
8
BLACK
6
CONTINUOUS
10
2.46316
20
-2.66865
11
2.45975
21
-2.66812
0
LINE
8
BLACK
6
CONTINUOUS
10
2.45975
20
-2.66812
11
2.432
21
-2.65802
0
LINE
8
BLACK
6
CONTINUOUS
10
2.432
20
-2.65802
11
2.42904
21
-2.65623
0
LINE
8
BLACK
6
CONTINUOUS
10
2.42904
20
-2.65623
11
2.427
21
-2.65344
0
LINE
8
BLACK
6
CONTINUOUS
10
2.427
20
-2.65344
11
2.42618
21
-2.65008
0
LINE
8
BLACK
6
CONTINUOUS
10
2.42618
20
-2.65008
11
2.4267
21
-2.64667
0
LINE
8
BLACK
6
CONTINUOUS
10
2.4267
20
-2.64667
11
2.43276
21
-2.63002
0
LINE
8
BLACK
6
CONTINUOUS
10
2.43276
20
-2.63002
11
2.43456
21
-2.62706
0
LINE
8
BLACK
6
CONTINUOUS
10
2.43456
20
-2.62706
11
2.43734
21
-2.62502
0
LINE
8
BLACK
6
CONTINUOUS
10
2.43734
20
-2.62502
11
2.4407
21
-2.6242
0
LINE
8
BLACK
6
CONTINUOUS
10
2.4407
20
-2.6242
11
2.44412
21
-2.62472
0
LINE
8
BLACK
6
CONTINUOUS
10
3.96044
20
-2.60264
11
3.98819
21
-2.61273
0
LINE
8
BLACK
6
CONTINUOUS
10
3.98819
20
-2.61273
11
3.99114
21
-2.61453
0
LINE
8
BLACK
6
CONTINUOUS
10
3.99114
20
-2.61453
11
3.99319
21
-2.61732
0
LINE
8
BLACK
6
CONTINUOUS
10
3.99319
20
-2.61732
11
3.99401
21
-2.62067
0
LINE
8
BLACK
6
CONTINUOUS
10
3.99401
20
-2.62067
11
3.99348
21
-2.62409
0
LINE
8
BLACK
6
CONTINUOUS
10
3.99348
20
-2.62409
11
3.98742
21
-2.64074
0
LINE
8
BLACK
6
CONTINUOUS
10
3.98742
20
-2.64074
11
3.98563
21
-2.64369
0
LINE
8
BLACK
6
CONTINUOUS
10
3.98563
20
-2.64369
11
3.98284
21
-2.64574
0
LINE
8
BLACK
6
CONTINUOUS
10
3.98284
20
-2.64574
11
3.97949
21
-2.64656
0
LINE
8
BLACK
6
CONTINUOUS
10
3.97949
20
-2.64656
11
3.97607
21
-2.64603
0
LINE
8
BLACK
6
CONTINUOUS
10
3.97607
20
-2.64603
11
3.94832
21
-2.63593
0
LINE
8
BLACK
6
CONTINUOUS
10
3.94832
20
-2.63593
11
3.94537
21
-2.63414
0
LINE
8
BLACK
6
CONTINUOUS
10
3.94537
20
-2.63414
11
3.94332
21
-2.63135
0
LINE
8
BLACK
6
CONTINUOUS
10
3.94332
20
-2.63135
11
3.9425
21
-2.62799
0
LINE
8
BLACK
6
CONTINUOUS
10
3.9425
20
-2.62799
11
3.94303
21
-2.62458
0
LINE
8
BLACK
6
CONTINUOUS
10
3.94303
20
-2.62458
11
3.94909
21
-2.60793
0
LINE
8
BLACK
6
CONTINUOUS
10
3.94909
20
-2.60793
11
3.95088
21
-2.60498
0
LINE
8
BLACK
6
CONTINUOUS
10
3.95088
20
-2.60498
11
3.95367
21
-2.60293
0
LINE
8
BLACK
6
CONTINUOUS
10
3.95367
20
-2.60293
11
3.95703
21
-2.60211
0
LINE
8
BLACK
6
CONTINUOUS
10
3.95703
20
-2.60211
11
3.96044
21
-2.60264
0
LINE
8
BLACK
6
CONTINUOUS
10
9.07407
20
-2.55425
11
9.07686
21
-2.55629
0
LINE
8
BLACK
6
CONTINUOUS
10
9.07686
20
-2.55629
11
9.07865
21
-2.55925
0
LINE
8
BLACK
6
CONTINUOUS
10
9.07865
20
-2.55925
11
9.08471
21
-2.57589
0
LINE
8
BLACK
6
CONTINUOUS
10
9.08471
20
-2.57589
11
9.08524
21
-2.57931
0
LINE
8
BLACK
6
CONTINUOUS
10
9.08524
20
-2.57931
11
9.08441
21
-2.58267
0
LINE
8
BLACK
6
CONTINUOUS
10
9.08441
20
-2.58267
11
9.08237
21
-2.58545
0
LINE
8
BLACK
6
CONTINUOUS
10
9.08237
20
-2.58545
11
9.07942
21
-2.58725
0
LINE
8
BLACK
6
CONTINUOUS
10
9.07942
20
-2.58725
11
9.05167
21
-2.59735
0
LINE
8
BLACK
6
CONTINUOUS
10
9.05167
20
-2.59735
11
9.04825
21
-2.59787
0
LINE
8
BLACK
6
CONTINUOUS
10
9.04825
20
-2.59787
11
9.0449
21
-2.59705
0
LINE
8
BLACK
6
CONTINUOUS
10
9.0449
20
-2.59705
11
9.04211
21
-2.59501
0
LINE
8
BLACK
6
CONTINUOUS
10
9.04211
20
-2.59501
11
9.04032
21
-2.59205
0
LINE
8
BLACK
6
CONTINUOUS
10
9.04032
20
-2.59205
11
9.03426
21
-2.5754
0
LINE
8
BLACK
6
CONTINUOUS
10
9.03426
20
-2.5754
11
9.03373
21
-2.57199
0
LINE
8
BLACK
6
CONTINUOUS
10
9.03373
20
-2.57199
11
9.03455
21
-2.56863
0
LINE
8
BLACK
6
CONTINUOUS
10
9.03455
20
-2.56863
11
9.0366
21
-2.56584
0
LINE
8
BLACK
6
CONTINUOUS
10
9.0366
20
-2.56584
11
9.03955
21
-2.56405
0
LINE
8
BLACK
6
CONTINUOUS
10
9.03955
20
-2.56405
11
9.0673
21
-2.55395
0
LINE
8
BLACK
6
CONTINUOUS
10
9.0673
20
-2.55395
11
9.07071
21
-2.55343
0
LINE
8
BLACK
6
CONTINUOUS
10
9.07071
20
-2.55343
11
9.07407
21
-2.55425
0
LINE
8
BLACK
6
CONTINUOUS
10
7.55775
20
-2.53216
11
7.56053
21
-2.5342
0
LINE
8
BLACK
6
CONTINUOUS
10
7.56053
20
-2.5342
11
7.56233
21
-2.53716
0
LINE
8
BLACK
6
CONTINUOUS
10
7.56233
20
-2.53716
11
7.56839
21
-2.5538
0
LINE
8
BLACK
6
CONTINUOUS
10
7.56839
20
-2.5538
11
7.56891
21
-2.55722
0
LINE
8
BLACK
6
CONTINUOUS
10
7.56891
20
-2.55722
11
7.56809
21
-2.56058
0
LINE
8
BLACK
6
CONTINUOUS
10
7.56809
20
-2.56058
11
7.56605
21
-2.56337
0
LINE
8
BLACK
6
CONTINUOUS
10
7.56605
20
-2.56337
11
7.56309
21
-2.56516
0
LINE
8
BLACK
6
CONTINUOUS
10
7.56309
20
-2.56516
11
7.53535
21
-2.57526
0
LINE
8
BLACK
6
CONTINUOUS
10
7.53535
20
-2.57526
11
7.53193
21
-2.57578
0
LINE
8
BLACK
6
CONTINUOUS
10
7.53193
20
-2.57578
11
7.52857
21
-2.57496
0
LINE
8
BLACK
6
CONTINUOUS
10
7.52857
20
-2.57496
11
7.52579
21
-2.57292
0
LINE
8
BLACK
6
CONTINUOUS
10
7.52579
20
-2.57292
11
7.52399
21
-2.56996
0
LINE
8
BLACK
6
CONTINUOUS
10
7.52399
20
-2.56996
11
7.51793
21
-2.55331
0
LINE
8
BLACK
6
CONTINUOUS
10
7.51793
20
-2.55331
11
7.51741
21
-2.5499
0
LINE
8
BLACK
6
CONTINUOUS
10
7.51741
20
-2.5499
11
7.51823
21
-2.54654
0
LINE
8
BLACK
6
CONTINUOUS
10
7.51823
20
-2.54654
11
7.52027
21
-2.54375
0
LINE
8
BLACK
6
CONTINUOUS
10
7.52027
20
-2.54375
11
7.52323
21
-2.54196
0
LINE
8
BLACK
6
CONTINUOUS
10
7.52323
20
-2.54196
11
7.55097
21
-2.53186
0
LINE
8
BLACK
6
CONTINUOUS
10
7.55097
20
-2.53186
11
7.55439
21
-2.53134
0
LINE
8
BLACK
6
CONTINUOUS
10
7.55439
20
-2.53134
11
7.55775
21
-2.53216
0
LINE
8
BLACK
6
CONTINUOUS
10
3.23729
20
-2.51749
11
3.26504
21
-2.52759
0
LINE
8
BLACK
6
CONTINUOUS
10
3.26504
20
-2.52759
11
3.26799
21
-2.52938
0
LINE
8
BLACK
6
CONTINUOUS
10
3.26799
20
-2.52938
11
3.27003
21
-2.53217
0
LINE
8
BLACK
6
CONTINUOUS
10
3.27003
20
-2.53217
11
3.27086
21
-2.53553
0
LINE
8
BLACK
6
CONTINUOUS
10
3.27086
20
-2.53553
11
3.27033
21
-2.53894
0
LINE
8
BLACK
6
CONTINUOUS
10
3.27033
20
-2.53894
11
3.26427
21
-2.55559
0
LINE
8
BLACK
6
CONTINUOUS
10
3.26427
20
-2.55559
11
3.26248
21
-2.55855
0
LINE
8
BLACK
6
CONTINUOUS
10
3.26248
20
-2.55855
11
3.25969
21
-2.56059
0
LINE
8
BLACK
6
CONTINUOUS
10
3.25969
20
-2.56059
11
3.25633
21
-2.56141
0
LINE
8
BLACK
6
CONTINUOUS
10
3.25633
20
-2.56141
11
3.25292
21
-2.56089
0
LINE
8
BLACK
6
CONTINUOUS
10
3.25292
20
-2.56089
11
3.22517
21
-2.55079
0
LINE
8
BLACK
6
CONTINUOUS
10
3.22517
20
-2.55079
11
3.22222
21
-2.54899
0
LINE
8
BLACK
6
CONTINUOUS
10
3.22222
20
-2.54899
11
3.22017
21
-2.54621
0
LINE
8
BLACK
6
CONTINUOUS
10
3.22017
20
-2.54621
11
3.21935
21
-2.54285
0
LINE
8
BLACK
6
CONTINUOUS
10
3.21935
20
-2.54285
11
3.21988
21
-2.53943
0
LINE
8
BLACK
6
CONTINUOUS
10
3.21988
20
-2.53943
11
3.22594
21
-2.52279
0
LINE
8
BLACK
6
CONTINUOUS
10
3.22594
20
-2.52279
11
3.22773
21
-2.51983
0
LINE
8
BLACK
6
CONTINUOUS
10
3.22773
20
-2.51983
11
3.23052
21
-2.51779
0
LINE
8
BLACK
6
CONTINUOUS
10
3.23052
20
-2.51779
11
3.23387
21
-2.51697
0
LINE
8
BLACK
6
CONTINUOUS
10
3.23387
20
-2.51697
11
3.23729
21
-2.51749
0
LINE
8
BLACK
6
CONTINUOUS
10
4.00488
20
-2.48055
11
4.03262
21
-2.49065
0
LINE
8
BLACK
6
CONTINUOUS
10
4.03262
20
-2.49065
11
4.03558
21
-2.49244
0
LINE
8
BLACK
6
CONTINUOUS
10
4.03558
20
-2.49244
11
4.03762
21
-2.49523
0
LINE
8
BLACK
6
CONTINUOUS
10
4.03762
20
-2.49523
11
4.03844
21
-2.49859
0
LINE
8
BLACK
6
CONTINUOUS
10
4.03844
20
-2.49859
11
4.03792
21
-2.502
0
LINE
8
BLACK
6
CONTINUOUS
10
4.03792
20
-2.502
11
4.03186
21
-2.51865
0
LINE
8
BLACK
6
CONTINUOUS
10
4.03186
20
-2.51865
11
4.03007
21
-2.52161
0
LINE
8
BLACK
6
CONTINUOUS
10
4.03007
20
-2.52161
11
4.02728
21
-2.52365
0
LINE
8
BLACK
6
CONTINUOUS
10
4.02728
20
-2.52365
11
4.02392
21
-2.52447
0
LINE
8
BLACK
6
CONTINUOUS
10
4.02392
20
-2.52447
11
4.0205
21
-2.52394
0
LINE
8
BLACK
6
CONTINUOUS
10
4.0205
20
-2.52394
11
3.99276
21
-2.51385
0
LINE
8
BLACK
6
CONTINUOUS
10
3.99276
20
-2.51385
11
3.9898
21
-2.51205
0
LINE
8
BLACK
6
CONTINUOUS
10
3.9898
20
-2.51205
11
3.98776
21
-2.50927
0
LINE
8
BLACK
6
CONTINUOUS
10
3.98776
20
-2.50927
11
3.98694
21
-2.50591
0
LINE
8
BLACK
6
CONTINUOUS
10
3.98694
20
-2.50591
11
3.98746
21
-2.50249
0
LINE
8
BLACK
6
CONTINUOUS
10
3.98746
20
-2.50249
11
3.99352
21
-2.48584
0
LINE
8
BLACK
6
CONTINUOUS
10
3.99352
20
-2.48584
11
3.99532
21
-2.48289
0
LINE
8
BLACK
6
CONTINUOUS
10
3.99532
20
-2.48289
11
3.9981
21
-2.48085
0
LINE
8
BLACK
6
CONTINUOUS
10
3.9981
20
-2.48085
11
4.00146
21
-2.48002
0
LINE
8
BLACK
6
CONTINUOUS
10
4.00146
20
-2.48002
11
4.00488
21
-2.48055
0
LINE
8
BLACK
6
CONTINUOUS
10
8.2809
20
-2.44701
11
8.28369
21
-2.44906
0
LINE
8
BLACK
6
CONTINUOUS
10
8.28369
20
-2.44906
11
8.28548
21
-2.45201
0
LINE
8
BLACK
6
CONTINUOUS
10
8.28548
20
-2.45201
11
8.29154
21
-2.46866
0
LINE
8
BLACK
6
CONTINUOUS
10
8.29154
20
-2.46866
11
8.29206
21
-2.47208
0
LINE
8
BLACK
6
CONTINUOUS
10
8.29206
20
-2.47208
11
8.29124
21
-2.47543
0
LINE
8
BLACK
6
CONTINUOUS
10
8.29124
20
-2.47543
11
8.2892
21
-2.47822
0
LINE
8
BLACK
6
CONTINUOUS
10
8.2892
20
-2.47822
11
8.28624
21
-2.48001
0
LINE
8
BLACK
6
CONTINUOUS
10
8.28624
20
-2.48001
11
8.2585
21
-2.49011
0
LINE
8
BLACK
6
CONTINUOUS
10
8.2585
20
-2.49011
11
8.25508
21
-2.49064
0
LINE
8
BLACK
6
CONTINUOUS
10
8.25508
20
-2.49064
11
8.25172
21
-2.48982
0
LINE
8
BLACK
6
CONTINUOUS
10
8.25172
20
-2.48982
11
8.24894
21
-2.48777
0
LINE
8
BLACK
6
CONTINUOUS
10
8.24894
20
-2.48777
11
8.24714
21
-2.48482
0
LINE
8
BLACK
6
CONTINUOUS
10
8.24714
20
-2.48482
11
8.24108
21
-2.46817
0
LINE
8
BLACK
6
CONTINUOUS
10
8.24108
20
-2.46817
11
8.24056
21
-2.46475
0
LINE
8
BLACK
6
CONTINUOUS
10
8.24056
20
-2.46475
11
8.24138
21
-2.4614
0
LINE
8
BLACK
6
CONTINUOUS
10
8.24138
20
-2.4614
11
8.24342
21
-2.45861
0
LINE
8
BLACK
6
CONTINUOUS
10
8.24342
20
-2.45861
11
8.24638
21
-2.45682
0
LINE
8
BLACK
6
CONTINUOUS
10
8.24638
20
-2.45682
11
8.27413
21
-2.44672
0
LINE
8
BLACK
6
CONTINUOUS
10
8.27413
20
-2.44672
11
8.27754
21
-2.44619
0
LINE
8
BLACK
6
CONTINUOUS
10
8.27754
20
-2.44619
11
8.2809
21
-2.44701
0
LINE
8
BLACK
6
CONTINUOUS
10
7.51331
20
-2.41007
11
7.5161
21
-2.41212
0
LINE
8
BLACK
6
CONTINUOUS
10
7.5161
20
-2.41212
11
7.51789
21
-2.41507
0
LINE
8
BLACK
6
CONTINUOUS
10
7.51789
20
-2.41507
11
7.52395
21
-2.43172
0
LINE
8
BLACK
6
CONTINUOUS
10
7.52395
20
-2.43172
11
7.52448
21
-2.43513
0
LINE
8
BLACK
6
CONTINUOUS
10
7.52448
20
-2.43513
11
7.52366
21
-2.43849
0
LINE
8
BLACK
6
CONTINUOUS
10
7.52366
20
-2.43849
11
7.52161
21
-2.44128
0
LINE
8
BLACK
6
CONTINUOUS
10
7.52161
20
-2.44128
11
7.51866
21
-2.44307
0
LINE
8
BLACK
6
CONTINUOUS
10
7.51866
20
-2.44307
11
7.49091
21
-2.45317
0
LINE
8
BLACK
6
CONTINUOUS
10
7.49091
20
-2.45317
11
7.48749
21
-2.4537
0
LINE
8
BLACK
6
CONTINUOUS
10
7.48749
20
-2.4537
11
7.48414
21
-2.45288
0
LINE
8
BLACK
6
CONTINUOUS
10
7.48414
20
-2.45288
11
7.48135
21
-2.45083
0
LINE
8
BLACK
6
CONTINUOUS
10
7.48135
20
-2.45083
11
7.47956
21
-2.44788
0
LINE
8
BLACK
6
CONTINUOUS
10
7.47956
20
-2.44788
11
7.4735
21
-2.43123
0
LINE
8
BLACK
6
CONTINUOUS
10
7.4735
20
-2.43123
11
7.47297
21
-2.42781
0
LINE
8
BLACK
6
CONTINUOUS
10
7.47297
20
-2.42781
11
7.47379
21
-2.42446
0
LINE
8
BLACK
6
CONTINUOUS
10
7.47379
20
-2.42446
11
7.47584
21
-2.42167
0
LINE
8
BLACK
6
CONTINUOUS
10
7.47584
20
-2.42167
11
7.47879
21
-2.41987
0
LINE
8
BLACK
6
CONTINUOUS
10
7.47879
20
-2.41987
11
7.50654
21
-2.40978
0
LINE
8
BLACK
6
CONTINUOUS
10
7.50654
20
-2.40978
11
7.50995
21
-2.40925
0
LINE
8
BLACK
6
CONTINUOUS
10
7.50995
20
-2.40925
11
7.51331
21
-2.41007
0
LINE
8
BLACK
6
CONTINUOUS
10
3.28173
20
-2.39541
11
3.30947
21
-2.4055
0
LINE
8
BLACK
6
CONTINUOUS
10
3.30947
20
-2.4055
11
3.31243
21
-2.4073
0
LINE
8
BLACK
6
CONTINUOUS
10
3.31243
20
-2.4073
11
3.31447
21
-2.41008
0
LINE
8
BLACK
6
CONTINUOUS
10
3.31447
20
-2.41008
11
3.31529
21
-2.41344
0
LINE
8
BLACK
6
CONTINUOUS
10
3.31529
20
-2.41344
11
3.31477
21
-2.41686
0
LINE
8
BLACK
6
CONTINUOUS
10
3.31477
20
-2.41686
11
3.30871
21
-2.43351
0
LINE
8
BLACK
6
CONTINUOUS
10
3.30871
20
-2.43351
11
3.30691
21
-2.43646
0
LINE
8
BLACK
6
CONTINUOUS
10
3.30691
20
-2.43646
11
3.30413
21
-2.4385
0
LINE
8
BLACK
6
CONTINUOUS
10
3.30413
20
-2.4385
11
3.30077
21
-2.43933
0
LINE
8
BLACK
6
CONTINUOUS
10
3.30077
20
-2.43933
11
3.29735
21
-2.4388
0
LINE
8
BLACK
6
CONTINUOUS
10
3.29735
20
-2.4388
11
3.26961
21
-2.4287
0
LINE
8
BLACK
6
CONTINUOUS
10
3.26961
20
-2.4287
11
3.26665
21
-2.42691
0
LINE
8
BLACK
6
CONTINUOUS
10
3.26665
20
-2.42691
11
3.26461
21
-2.42412
0
LINE
8
BLACK
6
CONTINUOUS
10
3.26461
20
-2.42412
11
3.26379
21
-2.42076
0
LINE
8
BLACK
6
CONTINUOUS
10
3.26379
20
-2.42076
11
3.26431
21
-2.41735
0
LINE
8
BLACK
6
CONTINUOUS
10
3.26431
20
-2.41735
11
3.27037
21
-2.4007
0
LINE
8
BLACK
6
CONTINUOUS
10
3.27037
20
-2.4007
11
3.27216
21
-2.39774
0
LINE
8
BLACK
6
CONTINUOUS
10
3.27216
20
-2.39774
11
3.27495
21
-2.3957
0
LINE
8
BLACK
6
CONTINUOUS
10
3.27495
20
-2.3957
11
3.27831
21
-2.39488
0
LINE
8
BLACK
6
CONTINUOUS
10
3.27831
20
-2.39488
11
3.28173
21
-2.39541
0
LINE
8
BLACK
6
CONTINUOUS
10
8.23646
20
-2.32493
11
8.23925
21
-2.32697
0
LINE
8
BLACK
6
CONTINUOUS
10
8.23925
20
-2.32697
11
8.24104
21
-2.32993
0
LINE
8
BLACK
6
CONTINUOUS
10
8.24104
20
-2.32993
11
8.2471
21
-2.34657
0
LINE
8
BLACK
6
CONTINUOUS
10
8.2471
20
-2.34657
11
8.24763
21
-2.34999
0
LINE
8
BLACK
6
CONTINUOUS
10
8.24763
20
-2.34999
11
8.24681
21
-2.35335
0
LINE
8
BLACK
6
CONTINUOUS
10
8.24681
20
-2.35335
11
8.24476
21
-2.35613
0
LINE
8
BLACK
6
CONTINUOUS
10
8.24476
20
-2.35613
11
8.24181
21
-2.35793
0
LINE
8
BLACK
6
CONTINUOUS
10
8.24181
20
-2.35793
11
8.21406
21
-2.36803
0
LINE
8
BLACK
6
CONTINUOUS
10
8.21406
20
-2.36803
11
8.21065
21
-2.36855
0
LINE
8
BLACK
6
CONTINUOUS
10
8.21065
20
-2.36855
11
8.20729
21
-2.36773
0
LINE
8
BLACK
6
CONTINUOUS
10
8.20729
20
-2.36773
11
8.2045
21
-2.36569
0
LINE
8
BLACK
6
CONTINUOUS
10
8.2045
20
-2.36569
11
8.20271
21
-2.36273
0
LINE
8
BLACK
6
CONTINUOUS
10
8.20271
20
-2.36273
11
8.19665
21
-2.34608
0
LINE
8
BLACK
6
CONTINUOUS
10
8.19665
20
-2.34608
11
8.19612
21
-2.34267
0
LINE
8
BLACK
6
CONTINUOUS
10
8.19612
20
-2.34267
11
8.19694
21
-2.33931
0
LINE
8
BLACK
6
CONTINUOUS
10
8.19694
20
-2.33931
11
8.19899
21
-2.33652
0
LINE
8
BLACK
6
CONTINUOUS
10
8.19899
20
-2.33652
11
8.20194
21
-2.33473
0
LINE
8
BLACK
6
CONTINUOUS
10
8.20194
20
-2.33473
11
8.22969
21
-2.32463
0
LINE
8
BLACK
6
CONTINUOUS
10
8.22969
20
-2.32463
11
8.23311
21
-2.32411
0
LINE
8
BLACK
6
CONTINUOUS
10
8.23311
20
-2.32411
11
8.23646
21
-2.32493
  0
ENDSEC
  0
EOF
