  0
SECTION
  2
HEADER
  9
$ANGBASE
  50
0.0
  9
$ANGDIR
  70
1
  9
$MEASUREMENT
  70
0
  0
ENDSEC
  0
SECTION
  2
TABLES
  0
TABLE
  2
LTYPE
  70
4
  0
LTYPE
  5
40F
  2
CONTINUOUS
  70
0
  3
Solid line
  72
65
  73
0
  40
0.0
  0
LTYPE
  5
410
  2
DASHDOT
 70
0
  3
Dash Dot ____ _ ____ _
 72
65
 73
4
 40
2.0
 49
1.25
 49
-0.25
 49
0.25
 49
-0.25
  0
LTYPE
  5
411
  2
DASHED
 70
0
  3
Dashed __ __ __ __ __
 72
65
 73
2
 40
0.75
 49
0.5
 49
-0.25
  0
LTYPE
  5
43B
  2
DOTTED
 70
0
  3
Dotted .  .  .  .
 72
65
 73
2
 40
0.2
 49
0.0
 49
-0.2
  0
ENDTAB
  0
TABLE
  2
STYLE
  70
4
  0
STYLE
  2
KICAD
  70
0
  40
0
  41
1
  42
1
  50
0
  71
0
  3
isocp.shx
  0
STYLE
  2
KICADB
  70
0
  40
0
  41
1
  42
1
  50
0
  71
0
  3
isocp.shx
  0
STYLE
  2
KICADI
  70
0
  40
0
  41
1
  42
1
  50
15
  71
0
  3
isocp.shx
  0
STYLE
  2
KICADBI
  70
0
  40
0
  41
1
  42
1
  50
15
  71
0
  3
isocp.shx
  0
ENDTAB
  0
TABLE
  2
LAYER
  70
1
  0
LAYER
  2
BLACK
  70
0
  62
7
  6
CONTINUOUS
  0
ENDTAB
  0
ENDSEC
  0
SECTION
  2
ENTITIES
0
LINE
8
BLACK
6
CONTINUOUS
10
3.03099
20
-1.7891
11
3.03099
21
-1.7891
0
LINE
8
BLACK
6
CONTINUOUS
10
3.03099
20
-1.7891
11
3.69528
21
-2.03094
0
LINE
8
BLACK
6
CONTINUOUS
10
3.69528
20
-2.03094
11
3.75169
21
-1.87531
0
LINE
8
BLACK
6
CONTINUOUS
10
3.75169
20
-1.87531
11
3.75169
21
-1.87531
0
LINE
8
BLACK
6
CONTINUOUS
10
3.75169
20
-1.87531
11
3.75169
21
-1.87531
0
LINE
8
BLACK
6
CONTINUOUS
10
3.75169
20
-1.87531
11
3.7522
21
-1.87476
0
LINE
8
BLACK
6
CONTINUOUS
10
3.7522
20
-1.87476
11
3.75271
21
-1.8742
0
LINE
8
BLACK
6
CONTINUOUS
10
3.75271
20
-1.8742
11
3.75271
21
-1.8742
0
LINE
8
BLACK
6
CONTINUOUS
10
3.75271
20
-1.8742
11
3.75271
21
-1.8742
0
LINE
8
BLACK
6
CONTINUOUS
10
3.75271
20
-1.8742
11
3.75347
21
-1.87417
0
LINE
8
BLACK
6
CONTINUOUS
10
3.75347
20
-1.87417
11
3.75421
21
-1.87413
0
LINE
8
BLACK
6
CONTINUOUS
10
3.75421
20
-1.87413
11
3.75422
21
-1.87413
0
LINE
8
BLACK
6
CONTINUOUS
10
3.75422
20
-1.87413
11
3.75422
21
-1.87413
0
LINE
8
BLACK
6
CONTINUOUS
10
3.75422
20
-1.87413
11
4.41997
21
-2.11665
0
LINE
8
BLACK
6
CONTINUOUS
10
4.41997
20
-2.11665
11
4.42053
21
-2.11717
0
LINE
8
BLACK
6
CONTINUOUS
10
4.42053
20
-2.11717
11
4.42107
21
-2.11767
0
LINE
8
BLACK
6
CONTINUOUS
10
4.42107
20
-2.11767
11
4.42107
21
-2.11767
0
LINE
8
BLACK
6
CONTINUOUS
10
4.42107
20
-2.11767
11
4.42108
21
-2.11767
0
LINE
8
BLACK
6
CONTINUOUS
10
4.42108
20
-2.11767
11
4.42111
21
-2.11845
0
LINE
8
BLACK
6
CONTINUOUS
10
4.42111
20
-2.11845
11
4.42114
21
-2.11918
0
LINE
8
BLACK
6
CONTINUOUS
10
4.42114
20
-2.11918
11
4.36528
21
-2.2729
0
LINE
8
BLACK
6
CONTINUOUS
10
4.36528
20
-2.2729
11
5.30509
21
-2.0654
0
LINE
8
BLACK
6
CONTINUOUS
10
5.30509
20
-2.0654
11
5.30531
21
-2.06544
0
LINE
8
BLACK
6
CONTINUOUS
10
5.30531
20
-2.06544
11
5.30551
21
-2.06535
0
LINE
8
BLACK
6
CONTINUOUS
10
5.30551
20
-2.06535
11
5.39724
21
-2.06535
0
LINE
8
BLACK
6
CONTINUOUS
10
5.39724
20
-2.06535
11
5.39794
21
-2.06564
0
LINE
8
BLACK
6
CONTINUOUS
10
5.39794
20
-2.06564
11
5.39864
21
-2.06593
0
LINE
8
BLACK
6
CONTINUOUS
10
5.39864
20
-2.06593
11
5.39864
21
-2.06593
0
LINE
8
BLACK
6
CONTINUOUS
10
5.39864
20
-2.06593
11
5.39864
21
-2.06593
0
LINE
8
BLACK
6
CONTINUOUS
10
5.39864
20
-2.06593
11
5.39892
21
-2.06663
0
LINE
8
BLACK
6
CONTINUOUS
10
5.39892
20
-2.06663
11
5.39921
21
-2.06732
0
LINE
8
BLACK
6
CONTINUOUS
10
5.39921
20
-2.06732
11
5.39961
21
-2.89055
0
LINE
8
BLACK
6
CONTINUOUS
10
5.39961
20
-2.89055
11
5.92087
21
-2.89016
0
LINE
8
BLACK
6
CONTINUOUS
10
5.92087
20
-2.89016
11
5.92126
21
-2.06772
0
LINE
8
BLACK
6
CONTINUOUS
10
5.92126
20
-2.06772
11
5.92154
21
-2.06705
0
LINE
8
BLACK
6
CONTINUOUS
10
5.92154
20
-2.06705
11
5.92184
21
-2.06632
0
LINE
8
BLACK
6
CONTINUOUS
10
5.92184
20
-2.06632
11
5.92184
21
-2.06632
0
LINE
8
BLACK
6
CONTINUOUS
10
5.92184
20
-2.06632
11
5.92184
21
-2.06632
0
LINE
8
BLACK
6
CONTINUOUS
10
5.92184
20
-2.06632
11
5.9225
21
-2.06605
0
LINE
8
BLACK
6
CONTINUOUS
10
5.9225
20
-2.06605
11
5.92323
21
-2.06575
0
LINE
8
BLACK
6
CONTINUOUS
10
5.92323
20
-2.06575
11
6.01457
21
-2.06575
0
LINE
8
BLACK
6
CONTINUOUS
10
6.01457
20
-2.06575
11
6.01477
21
-2.06583
0
LINE
8
BLACK
6
CONTINUOUS
10
6.01477
20
-2.06583
11
6.01499
21
-2.06579
0
LINE
8
BLACK
6
CONTINUOUS
10
6.01499
20
-2.06579
11
6.95165
21
-2.27329
0
LINE
8
BLACK
6
CONTINUOUS
10
6.95165
20
-2.27329
11
6.89579
21
-2.11917
0
LINE
8
BLACK
6
CONTINUOUS
10
6.89579
20
-2.11917
11
6.89582
21
-2.11843
0
LINE
8
BLACK
6
CONTINUOUS
10
6.89582
20
-2.11843
11
6.89585
21
-2.11767
0
LINE
8
BLACK
6
CONTINUOUS
10
6.89585
20
-2.11767
11
6.89585
21
-2.11767
0
LINE
8
BLACK
6
CONTINUOUS
10
6.89585
20
-2.11767
11
6.89585
21
-2.11767
0
LINE
8
BLACK
6
CONTINUOUS
10
6.89585
20
-2.11767
11
6.89641
21
-2.11716
0
LINE
8
BLACK
6
CONTINUOUS
10
6.89641
20
-2.11716
11
6.89696
21
-2.11665
0
LINE
8
BLACK
6
CONTINUOUS
10
6.89696
20
-2.11665
11
6.89697
21
-2.11665
0
LINE
8
BLACK
6
CONTINUOUS
10
6.89697
20
-2.11665
11
6.89697
21
-2.11665
0
LINE
8
BLACK
6
CONTINUOUS
10
6.89697
20
-2.11665
11
7.56311
21
-1.87413
0
LINE
8
BLACK
6
CONTINUOUS
10
7.56311
20
-1.87413
11
7.56311
21
-1.87413
0
LINE
8
BLACK
6
CONTINUOUS
10
7.56311
20
-1.87413
11
7.56311
21
-1.87413
0
LINE
8
BLACK
6
CONTINUOUS
10
7.56311
20
-1.87413
11
7.56386
21
-1.87417
0
LINE
8
BLACK
6
CONTINUOUS
10
7.56386
20
-1.87417
11
7.56461
21
-1.8742
0
LINE
8
BLACK
6
CONTINUOUS
10
7.56461
20
-1.8742
11
7.56461
21
-1.8742
0
LINE
8
BLACK
6
CONTINUOUS
10
7.56461
20
-1.8742
11
7.56461
21
-1.8742
0
LINE
8
BLACK
6
CONTINUOUS
10
7.56461
20
-1.8742
11
7.56512
21
-1.87476
0
LINE
8
BLACK
6
CONTINUOUS
10
7.56512
20
-1.87476
11
7.56563
21
-1.87531
0
LINE
8
BLACK
6
CONTINUOUS
10
7.56563
20
-1.87531
11
7.56563
21
-1.87531
0
LINE
8
BLACK
6
CONTINUOUS
10
7.56563
20
-1.87531
11
7.56563
21
-1.87531
0
LINE
8
BLACK
6
CONTINUOUS
10
7.56563
20
-1.87531
11
7.62204
21
-2.03094
0
LINE
8
BLACK
6
CONTINUOUS
10
7.62204
20
-2.03094
11
8.28594
21
-1.7891
0
LINE
8
BLACK
6
CONTINUOUS
10
8.28594
20
-1.7891
11
8.28677
21
-1.78913
0
LINE
8
BLACK
6
CONTINUOUS
10
8.28677
20
-1.78913
11
8.28745
21
-1.78916
0
LINE
8
BLACK
6
CONTINUOUS
10
8.28745
20
-1.78916
11
8.28745
21
-1.78916
0
LINE
8
BLACK
6
CONTINUOUS
10
8.28745
20
-1.78916
11
8.28745
21
-1.78916
0
LINE
8
BLACK
6
CONTINUOUS
10
8.28745
20
-1.78916
11
8.28795
21
-1.78971
0
LINE
8
BLACK
6
CONTINUOUS
10
8.28795
20
-1.78971
11
8.28846
21
-1.79027
0
LINE
8
BLACK
6
CONTINUOUS
10
8.28846
20
-1.79027
11
8.45984
21
-2.26047
0
LINE
8
BLACK
6
CONTINUOUS
10
8.45984
20
-2.26047
11
9.12373
21
-2.01823
0
LINE
8
BLACK
6
CONTINUOUS
10
9.12373
20
-2.01823
11
9.12374
21
-2.01823
0
LINE
8
BLACK
6
CONTINUOUS
10
9.12374
20
-2.01823
11
9.12374
21
-2.01823
0
LINE
8
BLACK
6
CONTINUOUS
10
9.12374
20
-2.01823
11
9.1245
21
-2.01826
0
LINE
8
BLACK
6
CONTINUOUS
10
9.1245
20
-2.01826
11
9.12524
21
-2.01829
0
LINE
8
BLACK
6
CONTINUOUS
10
9.12524
20
-2.01829
11
9.12524
21
-2.01829
0
LINE
8
BLACK
6
CONTINUOUS
10
9.12524
20
-2.01829
11
9.12524
21
-2.01829
0
LINE
8
BLACK
6
CONTINUOUS
10
9.12524
20
-2.01829
11
9.12577
21
-2.01887
0
LINE
8
BLACK
6
CONTINUOUS
10
9.12577
20
-2.01887
11
9.12626
21
-2.0194
0
LINE
8
BLACK
6
CONTINUOUS
10
9.12626
20
-2.0194
11
9.12626
21
-2.0194
0
LINE
8
BLACK
6
CONTINUOUS
10
9.12626
20
-2.0194
11
9.12626
21
-2.01941
0
LINE
8
BLACK
6
CONTINUOUS
10
9.12626
20
-2.01941
11
9.58413
21
-3.27767
0
LINE
8
BLACK
6
CONTINUOUS
10
9.58413
20
-3.27767
11
9.58413
21
-3.27767
0
LINE
8
BLACK
6
CONTINUOUS
10
9.58413
20
-3.27767
11
9.58413
21
-3.27767
0
LINE
8
BLACK
6
CONTINUOUS
10
9.58413
20
-3.27767
11
9.5841
21
-3.27839
0
LINE
8
BLACK
6
CONTINUOUS
10
9.5841
20
-3.27839
11
9.58407
21
-3.27918
0
LINE
8
BLACK
6
CONTINUOUS
10
9.58407
20
-3.27918
11
9.58407
21
-3.27918
0
LINE
8
BLACK
6
CONTINUOUS
10
9.58407
20
-3.27918
11
9.58407
21
-3.27918
0
LINE
8
BLACK
6
CONTINUOUS
10
9.58407
20
-3.27918
11
9.58354
21
-3.27966
0
LINE
8
BLACK
6
CONTINUOUS
10
9.58354
20
-3.27966
11
9.58296
21
-3.2802
0
LINE
8
BLACK
6
CONTINUOUS
10
9.58296
20
-3.2802
11
9.58296
21
-3.2802
0
LINE
8
BLACK
6
CONTINUOUS
10
9.58296
20
-3.2802
11
9.58296
21
-3.2802
0
LINE
8
BLACK
6
CONTINUOUS
10
9.58296
20
-3.2802
11
8.91867
21
-3.52165
0
LINE
8
BLACK
6
CONTINUOUS
10
8.91867
20
-3.52165
11
8.97547
21
-3.67728
0
LINE
8
BLACK
6
CONTINUOUS
10
8.97547
20
-3.67728
11
8.97547
21
-3.67728
0
LINE
8
BLACK
6
CONTINUOUS
10
8.97547
20
-3.67728
11
8.97547
21
-3.67728
0
LINE
8
BLACK
6
CONTINUOUS
10
8.97547
20
-3.67728
11
8.97544
21
-3.67804
0
LINE
8
BLACK
6
CONTINUOUS
10
8.97544
20
-3.67804
11
8.97541
21
-3.67878
0
LINE
8
BLACK
6
CONTINUOUS
10
8.97541
20
-3.67878
11
8.97541
21
-3.67878
0
LINE
8
BLACK
6
CONTINUOUS
10
8.97541
20
-3.67878
11
8.97541
21
-3.67879
0
LINE
8
BLACK
6
CONTINUOUS
10
8.97541
20
-3.67879
11
8.97485
21
-3.67929
0
LINE
8
BLACK
6
CONTINUOUS
10
8.97485
20
-3.67929
11
8.9743
21
-3.6798
0
LINE
8
BLACK
6
CONTINUOUS
10
8.9743
20
-3.6798
11
8.9743
21
-3.6798
0
LINE
8
BLACK
6
CONTINUOUS
10
8.9743
20
-3.6798
11
8.97429
21
-3.6798
0
LINE
8
BLACK
6
CONTINUOUS
10
8.97429
20
-3.6798
11
8.30816
21
-3.92193
0
LINE
8
BLACK
6
CONTINUOUS
10
8.30816
20
-3.92193
11
8.30816
21
-3.92193
0
LINE
8
BLACK
6
CONTINUOUS
10
8.30816
20
-3.92193
11
8.30816
21
-3.92193
0
LINE
8
BLACK
6
CONTINUOUS
10
8.30816
20
-3.92193
11
8.30815
21
-3.92193
0
LINE
8
BLACK
6
CONTINUOUS
10
8.30815
20
-3.92193
11
8.30739
21
-3.9219
0
LINE
8
BLACK
6
CONTINUOUS
10
8.30739
20
-3.9219
11
8.30665
21
-3.92186
0
LINE
8
BLACK
6
CONTINUOUS
10
8.30665
20
-3.92186
11
8.30665
21
-3.92186
0
LINE
8
BLACK
6
CONTINUOUS
10
8.30665
20
-3.92186
11
8.30665
21
-3.92186
0
LINE
8
BLACK
6
CONTINUOUS
10
8.30665
20
-3.92186
11
8.30614
21
-3.9213
0
LINE
8
BLACK
6
CONTINUOUS
10
8.30614
20
-3.9213
11
8.30563
21
-3.92075
0
LINE
8
BLACK
6
CONTINUOUS
10
8.30563
20
-3.92075
11
8.24883
21
-3.76512
0
LINE
8
BLACK
6
CONTINUOUS
10
8.24883
20
-3.76512
11
7.58678
21
-4.00669
0
LINE
8
BLACK
6
CONTINUOUS
10
7.58678
20
-4.00669
11
7.64358
21
-4.16153
0
LINE
8
BLACK
6
CONTINUOUS
10
7.64358
20
-4.16153
11
7.64358
21
-4.16153
0
LINE
8
BLACK
6
CONTINUOUS
10
7.64358
20
-4.16153
11
7.64358
21
-4.16153
0
LINE
8
BLACK
6
CONTINUOUS
10
7.64358
20
-4.16153
11
7.64355
21
-4.16228
0
LINE
8
BLACK
6
CONTINUOUS
10
7.64355
20
-4.16228
11
7.64352
21
-4.16303
0
LINE
8
BLACK
6
CONTINUOUS
10
7.64352
20
-4.16303
11
7.64352
21
-4.16303
0
LINE
8
BLACK
6
CONTINUOUS
10
7.64352
20
-4.16303
11
7.64352
21
-4.16304
0
LINE
8
BLACK
6
CONTINUOUS
10
7.64352
20
-4.16304
11
7.64297
21
-4.16354
0
LINE
8
BLACK
6
CONTINUOUS
10
7.64297
20
-4.16354
11
7.64241
21
-4.16405
0
LINE
8
BLACK
6
CONTINUOUS
10
7.64241
20
-4.16405
11
7.64241
21
-4.16405
0
LINE
8
BLACK
6
CONTINUOUS
10
7.64241
20
-4.16405
11
7.64241
21
-4.16405
0
LINE
8
BLACK
6
CONTINUOUS
10
7.64241
20
-4.16405
11
6.98052
21
-4.40542
0
LINE
8
BLACK
6
CONTINUOUS
10
6.98052
20
-4.40542
11
7.67058
21
-4.75612
0
LINE
8
BLACK
6
CONTINUOUS
10
7.67058
20
-4.75612
11
7.67105
21
-4.75667
0
LINE
8
BLACK
6
CONTINUOUS
10
7.67105
20
-4.75667
11
7.67153
21
-4.7572
0
LINE
8
BLACK
6
CONTINUOUS
10
7.67153
20
-4.7572
11
7.90028
21
-5.38594
0
LINE
8
BLACK
6
CONTINUOUS
10
7.90028
20
-5.38594
11
7.90024
21
-5.38668
0
LINE
8
BLACK
6
CONTINUOUS
10
7.90024
20
-5.38668
11
7.90021
21
-5.38745
0
LINE
8
BLACK
6
CONTINUOUS
10
7.90021
20
-5.38745
11
7.90021
21
-5.38745
0
LINE
8
BLACK
6
CONTINUOUS
10
7.90021
20
-5.38745
11
7.90021
21
-5.38745
0
LINE
8
BLACK
6
CONTINUOUS
10
7.90021
20
-5.38745
11
7.89967
21
-5.38794
0
LINE
8
BLACK
6
CONTINUOUS
10
7.89967
20
-5.38794
11
7.8991
21
-5.38846
0
LINE
8
BLACK
6
CONTINUOUS
10
7.8991
20
-5.38846
11
7.2352
21
-5.63031
0
LINE
8
BLACK
6
CONTINUOUS
10
7.2352
20
-5.63031
11
7.26878
21
-5.72255
0
LINE
8
BLACK
6
CONTINUOUS
10
7.26878
20
-5.72255
11
7.26875
21
-5.7233
0
LINE
8
BLACK
6
CONTINUOUS
10
7.26875
20
-5.7233
11
7.26871
21
-5.72406
0
LINE
8
BLACK
6
CONTINUOUS
10
7.26871
20
-5.72406
11
7.26871
21
-5.72406
0
LINE
8
BLACK
6
CONTINUOUS
10
7.26871
20
-5.72406
11
7.26871
21
-5.72406
0
LINE
8
BLACK
6
CONTINUOUS
10
7.26871
20
-5.72406
11
7.26814
21
-5.72458
0
LINE
8
BLACK
6
CONTINUOUS
10
7.26814
20
-5.72458
11
7.2676
21
-5.72508
0
LINE
8
BLACK
6
CONTINUOUS
10
7.2676
20
-5.72508
11
6.60185
21
-5.9676
0
LINE
8
BLACK
6
CONTINUOUS
10
6.60185
20
-5.9676
11
6.60185
21
-5.9676
0
LINE
8
BLACK
6
CONTINUOUS
10
6.60185
20
-5.9676
11
6.60185
21
-5.9676
0
LINE
8
BLACK
6
CONTINUOUS
10
6.60185
20
-5.9676
11
6.601
21
-5.96756
0
LINE
8
BLACK
6
CONTINUOUS
10
6.601
20
-5.96756
11
6.60035
21
-5.96753
0
LINE
8
BLACK
6
CONTINUOUS
10
6.60035
20
-5.96753
11
6.60035
21
-5.96753
0
LINE
8
BLACK
6
CONTINUOUS
10
6.60035
20
-5.96753
11
6.60035
21
-5.96753
0
LINE
8
BLACK
6
CONTINUOUS
10
6.60035
20
-5.96753
11
6.5998
21
-5.96693
0
LINE
8
BLACK
6
CONTINUOUS
10
6.5998
20
-5.96693
11
6.59933
21
-5.96642
0
LINE
8
BLACK
6
CONTINUOUS
10
6.59933
20
-5.96642
11
6.59933
21
-5.96642
0
LINE
8
BLACK
6
CONTINUOUS
10
6.59933
20
-5.96642
11
6.59933
21
-5.96642
0
LINE
8
BLACK
6
CONTINUOUS
10
6.59933
20
-5.96642
11
6.3702
21
-5.33729
0
LINE
8
BLACK
6
CONTINUOUS
10
6.3702
20
-5.33729
11
6.37021
21
-5.33709
0
LINE
8
BLACK
6
CONTINUOUS
10
6.37021
20
-5.33709
11
6.3701
21
-5.33692
0
LINE
8
BLACK
6
CONTINUOUS
10
6.3701
20
-5.33692
11
6.22801
21
-4.42766
0
LINE
8
BLACK
6
CONTINUOUS
10
6.22801
20
-4.42766
11
5.99902
21
-3.79961
0
LINE
8
BLACK
6
CONTINUOUS
10
5.99902
20
-3.79961
11
5.31752
21
-3.79961
0
LINE
8
BLACK
6
CONTINUOUS
10
5.31752
20
-3.79961
11
5.08932
21
-4.42766
0
LINE
8
BLACK
6
CONTINUOUS
10
5.08932
20
-4.42766
11
4.94683
21
-5.33731
0
LINE
8
BLACK
6
CONTINUOUS
10
4.94683
20
-5.33731
11
4.94672
21
-5.33748
0
LINE
8
BLACK
6
CONTINUOUS
10
4.94672
20
-5.33748
11
4.94673
21
-5.33768
0
LINE
8
BLACK
6
CONTINUOUS
10
4.94673
20
-5.33768
11
4.7176
21
-5.96642
0
LINE
8
BLACK
6
CONTINUOUS
10
4.7176
20
-5.96642
11
4.71707
21
-5.967
0
LINE
8
BLACK
6
CONTINUOUS
10
4.71707
20
-5.967
11
4.71658
21
-5.96753
0
LINE
8
BLACK
6
CONTINUOUS
10
4.71658
20
-5.96753
11
4.71658
21
-5.96753
0
LINE
8
BLACK
6
CONTINUOUS
10
4.71658
20
-5.96753
11
4.71658
21
-5.96753
0
LINE
8
BLACK
6
CONTINUOUS
10
4.71658
20
-5.96753
11
4.71575
21
-5.96757
0
LINE
8
BLACK
6
CONTINUOUS
10
4.71575
20
-5.96757
11
4.71507
21
-5.9676
0
LINE
8
BLACK
6
CONTINUOUS
10
4.71507
20
-5.9676
11
4.71507
21
-5.9676
0
LINE
8
BLACK
6
CONTINUOUS
10
4.71507
20
-5.9676
11
4.71507
21
-5.9676
0
LINE
8
BLACK
6
CONTINUOUS
10
4.71507
20
-5.9676
11
4.71507
21
-5.9676
0
LINE
8
BLACK
6
CONTINUOUS
10
4.71507
20
-5.9676
11
4.04933
21
-5.72508
0
LINE
8
BLACK
6
CONTINUOUS
10
4.04933
20
-5.72508
11
4.04879
21
-5.72458
0
LINE
8
BLACK
6
CONTINUOUS
10
4.04879
20
-5.72458
11
4.04822
21
-5.72406
0
LINE
8
BLACK
6
CONTINUOUS
10
4.04822
20
-5.72406
11
4.04822
21
-5.72406
0
LINE
8
BLACK
6
CONTINUOUS
10
4.04822
20
-5.72406
11
4.04822
21
-5.72406
0
LINE
8
BLACK
6
CONTINUOUS
10
4.04822
20
-5.72406
11
4.04818
21
-5.7233
0
LINE
8
BLACK
6
CONTINUOUS
10
4.04818
20
-5.7233
11
4.04815
21
-5.72255
0
LINE
8
BLACK
6
CONTINUOUS
10
4.04815
20
-5.72255
11
4.08173
21
-5.63031
0
LINE
8
BLACK
6
CONTINUOUS
10
4.08173
20
-5.63031
11
3.41783
21
-5.38846
0
LINE
8
BLACK
6
CONTINUOUS
10
3.41783
20
-5.38846
11
3.41726
21
-5.38794
0
LINE
8
BLACK
6
CONTINUOUS
10
3.41726
20
-5.38794
11
3.41672
21
-5.38745
0
LINE
8
BLACK
6
CONTINUOUS
10
3.41672
20
-5.38745
11
3.41672
21
-5.38745
0
LINE
8
BLACK
6
CONTINUOUS
10
3.41672
20
-5.38745
11
3.41672
21
-5.38745
0
LINE
8
BLACK
6
CONTINUOUS
10
3.41672
20
-5.38745
11
3.41669
21
-5.38668
0
LINE
8
BLACK
6
CONTINUOUS
10
3.41669
20
-5.38668
11
3.41665
21
-5.38594
0
LINE
8
BLACK
6
CONTINUOUS
10
3.41665
20
-5.38594
11
3.64539
21
-4.7572
0
LINE
8
BLACK
6
CONTINUOUS
10
3.64539
20
-4.7572
11
3.64588
21
-4.75667
0
LINE
8
BLACK
6
CONTINUOUS
10
3.64588
20
-4.75667
11
3.64635
21
-4.75612
0
LINE
8
BLACK
6
CONTINUOUS
10
3.64635
20
-4.75612
11
4.33641
21
-4.40503
0
LINE
8
BLACK
6
CONTINUOUS
10
4.33641
20
-4.40503
11
3.67452
21
-4.16445
0
LINE
8
BLACK
6
CONTINUOUS
10
3.67452
20
-4.16445
11
3.67452
21
-4.16445
0
LINE
8
BLACK
6
CONTINUOUS
10
3.67452
20
-4.16445
11
3.67452
21
-4.16445
0
LINE
8
BLACK
6
CONTINUOUS
10
3.67452
20
-4.16445
11
3.67397
21
-4.16394
0
LINE
8
BLACK
6
CONTINUOUS
10
3.67397
20
-4.16394
11
3.67341
21
-4.16343
0
LINE
8
BLACK
6
CONTINUOUS
10
3.67341
20
-4.16343
11
3.67341
21
-4.16343
0
LINE
8
BLACK
6
CONTINUOUS
10
3.67341
20
-4.16343
11
3.67341
21
-4.16343
0
LINE
8
BLACK
6
CONTINUOUS
10
3.67341
20
-4.16343
11
3.67338
21
-4.16268
0
LINE
8
BLACK
6
CONTINUOUS
10
3.67338
20
-4.16268
11
3.67335
21
-4.16193
0
LINE
8
BLACK
6
CONTINUOUS
10
3.67335
20
-4.16193
11
3.67335
21
-4.16192
0
LINE
8
BLACK
6
CONTINUOUS
10
3.67335
20
-4.16192
11
3.67335
21
-4.16192
0
LINE
8
BLACK
6
CONTINUOUS
10
3.67335
20
-4.16192
11
3.73015
21
-4.00629
0
LINE
8
BLACK
6
CONTINUOUS
10
3.73015
20
-4.00629
11
3.06771
21
-3.76551
0
LINE
8
BLACK
6
CONTINUOUS
10
3.06771
20
-3.76551
11
3.0113
21
-3.92075
0
LINE
8
BLACK
6
CONTINUOUS
10
3.0113
20
-3.92075
11
3.0113
21
-3.92075
0
LINE
8
BLACK
6
CONTINUOUS
10
3.0113
20
-3.92075
11
3.0113
21
-3.92075
0
LINE
8
BLACK
6
CONTINUOUS
10
3.0113
20
-3.92075
11
3.01078
21
-3.92132
0
LINE
8
BLACK
6
CONTINUOUS
10
3.01078
20
-3.92132
11
3.01028
21
-3.92186
0
LINE
8
BLACK
6
CONTINUOUS
10
3.01028
20
-3.92186
11
3.01028
21
-3.92186
0
LINE
8
BLACK
6
CONTINUOUS
10
3.01028
20
-3.92186
11
3.01028
21
-3.92186
0
LINE
8
BLACK
6
CONTINUOUS
10
3.01028
20
-3.92186
11
3.00951
21
-3.9219
0
LINE
8
BLACK
6
CONTINUOUS
10
3.00951
20
-3.9219
11
3.00878
21
-3.92193
0
LINE
8
BLACK
6
CONTINUOUS
10
3.00878
20
-3.92193
11
3.00878
21
-3.92193
0
LINE
8
BLACK
6
CONTINUOUS
10
3.00878
20
-3.92193
11
3.00878
21
-3.92193
0
LINE
8
BLACK
6
CONTINUOUS
10
3.00878
20
-3.92193
11
2.34263
21
-3.67941
0
LINE
8
BLACK
6
CONTINUOUS
10
2.34263
20
-3.67941
11
2.34263
21
-3.67941
0
LINE
8
BLACK
6
CONTINUOUS
10
2.34263
20
-3.67941
11
2.34263
21
-3.67941
0
LINE
8
BLACK
6
CONTINUOUS
10
2.34263
20
-3.67941
11
2.34207
21
-3.67889
0
LINE
8
BLACK
6
CONTINUOUS
10
2.34207
20
-3.67889
11
2.34152
21
-3.67839
0
LINE
8
BLACK
6
CONTINUOUS
10
2.34152
20
-3.67839
11
2.34152
21
-3.67839
0
LINE
8
BLACK
6
CONTINUOUS
10
2.34152
20
-3.67839
11
2.34152
21
-3.67839
0
LINE
8
BLACK
6
CONTINUOUS
10
2.34152
20
-3.67839
11
2.34149
21
-3.67764
0
LINE
8
BLACK
6
CONTINUOUS
10
2.34149
20
-3.67764
11
2.34146
21
-3.67689
0
LINE
8
BLACK
6
CONTINUOUS
10
2.34146
20
-3.67689
11
2.34146
21
-3.67688
0
LINE
8
BLACK
6
CONTINUOUS
10
2.34146
20
-3.67688
11
2.34146
21
-3.67688
0
LINE
8
BLACK
6
CONTINUOUS
10
2.34146
20
-3.67688
11
2.39826
21
-3.52126
0
LINE
8
BLACK
6
CONTINUOUS
10
2.39826
20
-3.52126
11
1.73397
21
-3.2798
0
LINE
8
BLACK
6
CONTINUOUS
10
1.73397
20
-3.2798
11
1.73397
21
-3.2798
0
LINE
8
BLACK
6
CONTINUOUS
10
1.73397
20
-3.2798
11
1.73397
21
-3.2798
0
LINE
8
BLACK
6
CONTINUOUS
10
1.73397
20
-3.2798
11
1.73342
21
-3.2793
0
LINE
8
BLACK
6
CONTINUOUS
10
1.73342
20
-3.2793
11
1.73286
21
-3.27879
0
LINE
8
BLACK
6
CONTINUOUS
10
1.73286
20
-3.27879
11
1.73286
21
-3.27878
0
LINE
8
BLACK
6
CONTINUOUS
10
1.73286
20
-3.27878
11
1.73286
21
-3.27878
0
LINE
8
BLACK
6
CONTINUOUS
10
1.73286
20
-3.27878
11
1.73283
21
-3.27804
0
LINE
8
BLACK
6
CONTINUOUS
10
1.73283
20
-3.27804
11
1.7328
21
-3.27728
0
LINE
8
BLACK
6
CONTINUOUS
10
1.7328
20
-3.27728
11
1.7328
21
-3.27728
0
LINE
8
BLACK
6
CONTINUOUS
10
1.7328
20
-3.27728
11
1.7328
21
-3.27728
0
LINE
8
BLACK
6
CONTINUOUS
10
1.7328
20
-3.27728
11
2.19067
21
-2.0198
0
LINE
8
BLACK
6
CONTINUOUS
10
2.19067
20
-2.0198
11
2.19067
21
-2.0198
0
LINE
8
BLACK
6
CONTINUOUS
10
2.19067
20
-2.0198
11
2.19067
21
-2.0198
0
LINE
8
BLACK
6
CONTINUOUS
10
2.19067
20
-2.0198
11
2.19119
21
-2.01923
0
LINE
8
BLACK
6
CONTINUOUS
10
2.19119
20
-2.01923
11
2.19169
21
-2.01869
0
LINE
8
BLACK
6
CONTINUOUS
10
2.19169
20
-2.01869
11
2.19169
21
-2.01869
0
LINE
8
BLACK
6
CONTINUOUS
10
2.19169
20
-2.01869
11
2.19169
21
-2.01869
0
LINE
8
BLACK
6
CONTINUOUS
10
2.19169
20
-2.01869
11
2.1925
21
-2.01865
0
LINE
8
BLACK
6
CONTINUOUS
10
2.1925
20
-2.01865
11
2.19319
21
-2.01862
0
LINE
8
BLACK
6
CONTINUOUS
10
2.19319
20
-2.01862
11
2.19319
21
-2.01862
0
LINE
8
BLACK
6
CONTINUOUS
10
2.19319
20
-2.01862
11
2.19319
21
-2.01862
0
LINE
8
BLACK
6
CONTINUOUS
10
2.19319
20
-2.01862
11
2.85709
21
-2.26047
0
LINE
8
BLACK
6
CONTINUOUS
10
2.85709
20
-2.26047
11
3.02847
21
-1.79027
0
LINE
8
BLACK
6
CONTINUOUS
10
3.02847
20
-1.79027
11
3.02897
21
-1.78972
0
LINE
8
BLACK
6
CONTINUOUS
10
3.02897
20
-1.78972
11
3.02948
21
-1.78916
0
LINE
8
BLACK
6
CONTINUOUS
10
3.02948
20
-1.78916
11
3.02948
21
-1.78916
0
LINE
8
BLACK
6
CONTINUOUS
10
3.02948
20
-1.78916
11
3.02948
21
-1.78916
0
LINE
8
BLACK
6
CONTINUOUS
10
3.02948
20
-1.78916
11
3.03021
21
-1.78913
0
LINE
8
BLACK
6
CONTINUOUS
10
3.03021
20
-1.78913
11
3.03099
21
-1.7891
0
LINE
8
BLACK
6
CONTINUOUS
10
3.03099
20
-1.7891
11
3.03099
21
-1.7891
0
LINE
8
BLACK
6
CONTINUOUS
10
3.06721
20
-3.76114
11
3.73335
21
-4.00327
0
LINE
8
BLACK
6
CONTINUOUS
10
3.73335
20
-4.00327
11
3.73335
21
-4.00327
0
LINE
8
BLACK
6
CONTINUOUS
10
3.73335
20
-4.00327
11
3.73335
21
-4.00327
0
LINE
8
BLACK
6
CONTINUOUS
10
3.73335
20
-4.00327
11
3.73391
21
-4.00378
0
LINE
8
BLACK
6
CONTINUOUS
10
3.73391
20
-4.00378
11
3.73446
21
-4.00429
0
LINE
8
BLACK
6
CONTINUOUS
10
3.73446
20
-4.00429
11
3.73446
21
-4.00429
0
LINE
8
BLACK
6
CONTINUOUS
10
3.73446
20
-4.00429
11
3.73446
21
-4.00429
0
LINE
8
BLACK
6
CONTINUOUS
10
3.73446
20
-4.00429
11
3.73449
21
-4.00503
0
LINE
8
BLACK
6
CONTINUOUS
10
3.73449
20
-4.00503
11
3.73453
21
-4.00579
0
LINE
8
BLACK
6
CONTINUOUS
10
3.73453
20
-4.00579
11
3.73453
21
-4.00579
0
LINE
8
BLACK
6
CONTINUOUS
10
3.73453
20
-4.00579
11
3.73453
21
-4.00579
0
LINE
8
BLACK
6
CONTINUOUS
10
3.73453
20
-4.00579
11
3.67772
21
-4.16142
0
LINE
8
BLACK
6
CONTINUOUS
10
3.67772
20
-4.16142
11
4.34201
21
-4.40287
0
LINE
8
BLACK
6
CONTINUOUS
10
4.34201
20
-4.40287
11
4.34254
21
-4.40336
0
LINE
8
BLACK
6
CONTINUOUS
10
4.34254
20
-4.40336
11
4.34309
21
-4.40383
0
LINE
8
BLACK
6
CONTINUOUS
10
4.34309
20
-4.40383
11
4.3431
21
-4.40387
0
LINE
8
BLACK
6
CONTINUOUS
10
4.3431
20
-4.40387
11
4.34312
21
-4.40389
0
LINE
8
BLACK
6
CONTINUOUS
10
4.34312
20
-4.40389
11
4.34315
21
-4.40461
0
LINE
8
BLACK
6
CONTINUOUS
10
4.34315
20
-4.40461
11
4.34321
21
-4.40533
0
LINE
8
BLACK
6
CONTINUOUS
10
4.34321
20
-4.40533
11
4.34319
21
-4.40536
0
LINE
8
BLACK
6
CONTINUOUS
10
4.34319
20
-4.40536
11
4.34319
21
-4.4054
0
LINE
8
BLACK
6
CONTINUOUS
10
4.34319
20
-4.4054
11
4.3427
21
-4.40593
0
LINE
8
BLACK
6
CONTINUOUS
10
4.3427
20
-4.40593
11
4.34223
21
-4.40648
0
LINE
8
BLACK
6
CONTINUOUS
10
4.34223
20
-4.40648
11
3.64883
21
-4.75928
0
LINE
8
BLACK
6
CONTINUOUS
10
3.64883
20
-4.75928
11
3.42103
21
-5.38544
0
LINE
8
BLACK
6
CONTINUOUS
10
3.42103
20
-5.38544
11
4.08493
21
-5.62728
0
LINE
8
BLACK
6
CONTINUOUS
10
4.08493
20
-5.62728
11
4.08547
21
-5.62778
0
LINE
8
BLACK
6
CONTINUOUS
10
4.08547
20
-5.62778
11
4.08604
21
-5.6283
0
LINE
8
BLACK
6
CONTINUOUS
10
4.08604
20
-5.6283
11
4.08604
21
-5.6283
0
LINE
8
BLACK
6
CONTINUOUS
10
4.08604
20
-5.6283
11
4.08604
21
-5.6283
0
LINE
8
BLACK
6
CONTINUOUS
10
4.08604
20
-5.6283
11
4.08607
21
-5.62906
0
LINE
8
BLACK
6
CONTINUOUS
10
4.08607
20
-5.62906
11
4.0861
21
-5.62981
0
LINE
8
BLACK
6
CONTINUOUS
10
4.0861
20
-5.62981
11
4.05252
21
-5.72205
0
LINE
8
BLACK
6
CONTINUOUS
10
4.05252
20
-5.72205
11
4.71457
21
-5.96322
0
LINE
8
BLACK
6
CONTINUOUS
10
4.71457
20
-5.96322
11
4.94297
21
-5.33651
0
LINE
8
BLACK
6
CONTINUOUS
10
4.94297
20
-5.33651
11
5.08546
21
-4.42686
0
LINE
8
BLACK
6
CONTINUOUS
10
5.08546
20
-4.42686
11
5.08556
21
-4.42669
0
LINE
8
BLACK
6
CONTINUOUS
10
5.08556
20
-4.42669
11
5.08555
21
-4.42649
0
LINE
8
BLACK
6
CONTINUOUS
10
5.08555
20
-4.42649
11
5.31429
21
-3.79697
0
LINE
8
BLACK
6
CONTINUOUS
10
5.31429
20
-3.79697
11
5.31458
21
-3.79665
0
LINE
8
BLACK
6
CONTINUOUS
10
5.31458
20
-3.79665
11
5.31475
21
-3.79625
0
LINE
8
BLACK
6
CONTINUOUS
10
5.31475
20
-3.79625
11
5.31507
21
-3.79611
0
LINE
8
BLACK
6
CONTINUOUS
10
5.31507
20
-3.79611
11
5.31531
21
-3.79585
0
LINE
8
BLACK
6
CONTINUOUS
10
5.31531
20
-3.79585
11
5.31574
21
-3.79584
0
LINE
8
BLACK
6
CONTINUOUS
10
5.31574
20
-3.79584
11
5.31614
21
-3.79567
0
LINE
8
BLACK
6
CONTINUOUS
10
5.31614
20
-3.79567
11
6.00039
21
-3.79567
0
LINE
8
BLACK
6
CONTINUOUS
10
6.00039
20
-3.79567
11
6.00079
21
-3.79583
0
LINE
8
BLACK
6
CONTINUOUS
10
6.00079
20
-3.79583
11
6.00122
21
-3.79585
0
LINE
8
BLACK
6
CONTINUOUS
10
6.00122
20
-3.79585
11
6.00146
21
-3.79611
0
LINE
8
BLACK
6
CONTINUOUS
10
6.00146
20
-3.79611
11
6.00179
21
-3.79625
0
LINE
8
BLACK
6
CONTINUOUS
10
6.00179
20
-3.79625
11
6.00195
21
-3.79665
0
LINE
8
BLACK
6
CONTINUOUS
10
6.00195
20
-3.79665
11
6.00224
21
-3.79696
0
LINE
8
BLACK
6
CONTINUOUS
10
6.00224
20
-3.79696
11
6.23177
21
-4.42649
0
LINE
8
BLACK
6
CONTINUOUS
10
6.23177
20
-4.42649
11
6.23176
21
-4.42669
0
LINE
8
BLACK
6
CONTINUOUS
10
6.23176
20
-4.42669
11
6.23187
21
-4.42686
0
LINE
8
BLACK
6
CONTINUOUS
10
6.23187
20
-4.42686
11
6.37396
21
-5.33612
0
LINE
8
BLACK
6
CONTINUOUS
10
6.37396
20
-5.33612
11
6.60236
21
-5.96322
0
LINE
8
BLACK
6
CONTINUOUS
10
6.60236
20
-5.96322
11
7.26441
21
-5.72205
0
LINE
8
BLACK
6
CONTINUOUS
10
7.26441
20
-5.72205
11
7.23083
21
-5.62981
0
LINE
8
BLACK
6
CONTINUOUS
10
7.23083
20
-5.62981
11
7.23086
21
-5.62906
0
LINE
8
BLACK
6
CONTINUOUS
10
7.23086
20
-5.62906
11
7.23089
21
-5.6283
0
LINE
8
BLACK
6
CONTINUOUS
10
7.23089
20
-5.6283
11
7.23089
21
-5.6283
0
LINE
8
BLACK
6
CONTINUOUS
10
7.23089
20
-5.6283
11
7.23089
21
-5.6283
0
LINE
8
BLACK
6
CONTINUOUS
10
7.23089
20
-5.6283
11
7.23146
21
-5.62778
0
LINE
8
BLACK
6
CONTINUOUS
10
7.23146
20
-5.62778
11
7.232
21
-5.62728
0
LINE
8
BLACK
6
CONTINUOUS
10
7.232
20
-5.62728
11
7.8959
21
-5.38544
0
LINE
8
BLACK
6
CONTINUOUS
10
7.8959
20
-5.38544
11
7.6681
21
-4.75928
0
LINE
8
BLACK
6
CONTINUOUS
10
7.6681
20
-4.75928
11
6.9747
21
-4.40687
0
LINE
8
BLACK
6
CONTINUOUS
10
6.9747
20
-4.40687
11
6.97423
21
-4.40632
0
LINE
8
BLACK
6
CONTINUOUS
10
6.97423
20
-4.40632
11
6.97374
21
-4.40579
0
LINE
8
BLACK
6
CONTINUOUS
10
6.97374
20
-4.40579
11
6.97374
21
-4.40576
0
LINE
8
BLACK
6
CONTINUOUS
10
6.97374
20
-4.40576
11
6.97372
21
-4.40573
0
LINE
8
BLACK
6
CONTINUOUS
10
6.97372
20
-4.40573
11
6.97377
21
-4.40501
0
LINE
8
BLACK
6
CONTINUOUS
10
6.97377
20
-4.40501
11
6.97381
21
-4.40429
0
LINE
8
BLACK
6
CONTINUOUS
10
6.97381
20
-4.40429
11
6.97383
21
-4.40426
0
LINE
8
BLACK
6
CONTINUOUS
10
6.97383
20
-4.40426
11
6.97384
21
-4.40423
0
LINE
8
BLACK
6
CONTINUOUS
10
6.97384
20
-4.40423
11
6.97438
21
-4.40376
0
LINE
8
BLACK
6
CONTINUOUS
10
6.97438
20
-4.40376
11
6.97492
21
-4.40327
0
LINE
8
BLACK
6
CONTINUOUS
10
6.97492
20
-4.40327
11
7.6392
21
-4.16103
0
LINE
8
BLACK
6
CONTINUOUS
10
7.6392
20
-4.16103
11
7.5824
21
-4.00619
0
LINE
8
BLACK
6
CONTINUOUS
10
7.5824
20
-4.00619
11
7.5824
21
-4.00619
0
LINE
8
BLACK
6
CONTINUOUS
10
7.5824
20
-4.00619
11
7.5824
21
-4.00619
0
LINE
8
BLACK
6
CONTINUOUS
10
7.5824
20
-4.00619
11
7.58244
21
-4.00543
0
LINE
8
BLACK
6
CONTINUOUS
10
7.58244
20
-4.00543
11
7.58247
21
-4.00468
0
LINE
8
BLACK
6
CONTINUOUS
10
7.58247
20
-4.00468
11
7.58247
21
-4.00468
0
LINE
8
BLACK
6
CONTINUOUS
10
7.58247
20
-4.00468
11
7.58247
21
-4.00468
0
LINE
8
BLACK
6
CONTINUOUS
10
7.58247
20
-4.00468
11
7.58302
21
-4.00417
0
LINE
8
BLACK
6
CONTINUOUS
10
7.58302
20
-4.00417
11
7.58357
21
-4.00366
0
LINE
8
BLACK
6
CONTINUOUS
10
7.58357
20
-4.00366
11
7.58358
21
-4.00366
0
LINE
8
BLACK
6
CONTINUOUS
10
7.58358
20
-4.00366
11
7.58358
21
-4.00366
0
LINE
8
BLACK
6
CONTINUOUS
10
7.58358
20
-4.00366
11
8.24933
21
-3.76075
0
LINE
8
BLACK
6
CONTINUOUS
10
8.24933
20
-3.76075
11
8.25015
21
-3.76078
0
LINE
8
BLACK
6
CONTINUOUS
10
8.25015
20
-3.76078
11
8.25083
21
-3.76081
0
LINE
8
BLACK
6
CONTINUOUS
10
8.25083
20
-3.76081
11
8.25083
21
-3.76081
0
LINE
8
BLACK
6
CONTINUOUS
10
8.25083
20
-3.76081
11
8.25083
21
-3.76081
0
LINE
8
BLACK
6
CONTINUOUS
10
8.25083
20
-3.76081
11
8.25119
21
-3.76121
0
LINE
8
BLACK
6
CONTINUOUS
10
8.25119
20
-3.76121
11
8.25185
21
-3.76192
0
LINE
8
BLACK
6
CONTINUOUS
10
8.25185
20
-3.76192
11
8.30866
21
-3.91756
0
LINE
8
BLACK
6
CONTINUOUS
10
8.30866
20
-3.91756
11
8.9711
21
-3.67678
0
LINE
8
BLACK
6
CONTINUOUS
10
8.9711
20
-3.67678
11
8.91429
21
-3.52115
0
LINE
8
BLACK
6
CONTINUOUS
10
8.91429
20
-3.52115
11
8.91429
21
-3.52115
0
LINE
8
BLACK
6
CONTINUOUS
10
8.91429
20
-3.52115
11
8.91429
21
-3.52114
0
LINE
8
BLACK
6
CONTINUOUS
10
8.91429
20
-3.52114
11
8.91433
21
-3.52039
0
LINE
8
BLACK
6
CONTINUOUS
10
8.91433
20
-3.52039
11
8.91436
21
-3.51964
0
LINE
8
BLACK
6
CONTINUOUS
10
8.91436
20
-3.51964
11
8.91436
21
-3.51964
0
LINE
8
BLACK
6
CONTINUOUS
10
8.91436
20
-3.51964
11
8.91436
21
-3.51964
0
LINE
8
BLACK
6
CONTINUOUS
10
8.91436
20
-3.51964
11
8.91491
21
-3.51913
0
LINE
8
BLACK
6
CONTINUOUS
10
8.91491
20
-3.51913
11
8.91547
21
-3.51862
0
LINE
8
BLACK
6
CONTINUOUS
10
8.91547
20
-3.51862
11
8.91547
21
-3.51862
0
LINE
8
BLACK
6
CONTINUOUS
10
8.91547
20
-3.51862
11
8.91547
21
-3.51862
0
LINE
8
BLACK
6
CONTINUOUS
10
8.91547
20
-3.51862
11
9.57976
21
-3.27717
0
LINE
8
BLACK
6
CONTINUOUS
10
9.57976
20
-3.27717
11
9.12323
21
-2.0226
0
LINE
8
BLACK
6
CONTINUOUS
10
9.12323
20
-2.0226
11
8.45934
21
-2.26484
0
LINE
8
BLACK
6
CONTINUOUS
10
8.45934
20
-2.26484
11
8.45934
21
-2.26484
0
LINE
8
BLACK
6
CONTINUOUS
10
8.45934
20
-2.26484
11
8.45934
21
-2.26484
0
LINE
8
BLACK
6
CONTINUOUS
10
8.45934
20
-2.26484
11
8.45862
21
-2.26481
0
LINE
8
BLACK
6
CONTINUOUS
10
8.45862
20
-2.26481
11
8.45783
21
-2.26478
0
LINE
8
BLACK
6
CONTINUOUS
10
8.45783
20
-2.26478
11
8.45783
21
-2.26478
0
LINE
8
BLACK
6
CONTINUOUS
10
8.45783
20
-2.26478
11
8.45783
21
-2.26478
0
LINE
8
BLACK
6
CONTINUOUS
10
8.45783
20
-2.26478
11
8.45732
21
-2.26422
0
LINE
8
BLACK
6
CONTINUOUS
10
8.45732
20
-2.26422
11
8.45681
21
-2.26367
0
LINE
8
BLACK
6
CONTINUOUS
10
8.45681
20
-2.26367
11
8.45681
21
-2.26367
0
LINE
8
BLACK
6
CONTINUOUS
10
8.45681
20
-2.26367
11
8.45681
21
-2.26367
0
LINE
8
BLACK
6
CONTINUOUS
10
8.45681
20
-2.26367
11
8.28544
21
-1.79347
0
LINE
8
BLACK
6
CONTINUOUS
10
8.28544
20
-1.79347
11
7.62154
21
-2.03531
0
LINE
8
BLACK
6
CONTINUOUS
10
7.62154
20
-2.03531
11
7.62154
21
-2.03531
0
LINE
8
BLACK
6
CONTINUOUS
10
7.62154
20
-2.03531
11
7.62154
21
-2.03532
0
LINE
8
BLACK
6
CONTINUOUS
10
7.62154
20
-2.03532
11
7.62079
21
-2.03528
0
LINE
8
BLACK
6
CONTINUOUS
10
7.62079
20
-2.03528
11
7.62003
21
-2.03525
0
LINE
8
BLACK
6
CONTINUOUS
10
7.62003
20
-2.03525
11
7.62003
21
-2.03525
0
LINE
8
BLACK
6
CONTINUOUS
10
7.62003
20
-2.03525
11
7.62003
21
-2.03525
0
LINE
8
BLACK
6
CONTINUOUS
10
7.62003
20
-2.03525
11
7.61952
21
-2.03469
0
LINE
8
BLACK
6
CONTINUOUS
10
7.61952
20
-2.03469
11
7.61902
21
-2.03414
0
LINE
8
BLACK
6
CONTINUOUS
10
7.61902
20
-2.03414
11
7.61902
21
-2.03414
0
LINE
8
BLACK
6
CONTINUOUS
10
7.61902
20
-2.03414
11
7.61902
21
-2.03414
0
LINE
8
BLACK
6
CONTINUOUS
10
7.61902
20
-2.03414
11
7.5626
21
-1.87851
0
LINE
8
BLACK
6
CONTINUOUS
10
7.5626
20
-1.87851
11
6.90016
21
-2.11968
0
LINE
8
BLACK
6
CONTINUOUS
10
6.90016
20
-2.11968
11
6.95658
21
-2.27531
0
LINE
8
BLACK
6
CONTINUOUS
10
6.95658
20
-2.27531
11
6.95655
21
-2.27587
0
LINE
8
BLACK
6
CONTINUOUS
10
6.95655
20
-2.27587
11
6.95665
21
-2.27641
0
LINE
8
BLACK
6
CONTINUOUS
10
6.95665
20
-2.27641
11
6.95652
21
-2.27659
0
LINE
8
BLACK
6
CONTINUOUS
10
6.95652
20
-2.27659
11
6.95651
21
-2.27682
0
LINE
8
BLACK
6
CONTINUOUS
10
6.95651
20
-2.27682
11
6.9561
21
-2.27719
0
LINE
8
BLACK
6
CONTINUOUS
10
6.9561
20
-2.27719
11
6.95578
21
-2.27764
0
LINE
8
BLACK
6
CONTINUOUS
10
6.95578
20
-2.27764
11
6.95556
21
-2.27768
0
LINE
8
BLACK
6
CONTINUOUS
10
6.95556
20
-2.27768
11
6.9554
21
-2.27783
0
LINE
8
BLACK
6
CONTINUOUS
10
6.9554
20
-2.27783
11
6.95484
21
-2.27781
0
LINE
8
BLACK
6
CONTINUOUS
10
6.95484
20
-2.27781
11
6.9543
21
-2.27791
0
LINE
8
BLACK
6
CONTINUOUS
10
6.9543
20
-2.27791
11
6.01435
21
-2.06969
0
LINE
8
BLACK
6
CONTINUOUS
10
6.01435
20
-2.06969
11
5.9252
21
-2.06969
0
LINE
8
BLACK
6
CONTINUOUS
10
5.9252
20
-2.06969
11
5.9248
21
-2.89213
0
LINE
8
BLACK
6
CONTINUOUS
10
5.9248
20
-2.89213
11
5.92452
21
-2.89281
0
LINE
8
BLACK
6
CONTINUOUS
10
5.92452
20
-2.89281
11
5.92423
21
-2.89352
0
LINE
8
BLACK
6
CONTINUOUS
10
5.92423
20
-2.89352
11
5.92423
21
-2.89352
0
LINE
8
BLACK
6
CONTINUOUS
10
5.92423
20
-2.89352
11
5.92423
21
-2.89352
0
LINE
8
BLACK
6
CONTINUOUS
10
5.92423
20
-2.89352
11
5.92353
21
-2.89381
0
LINE
8
BLACK
6
CONTINUOUS
10
5.92353
20
-2.89381
11
5.92284
21
-2.89409
0
LINE
8
BLACK
6
CONTINUOUS
10
5.92284
20
-2.89409
11
5.39764
21
-2.89449
0
LINE
8
BLACK
6
CONTINUOUS
10
5.39764
20
-2.89449
11
5.39764
21
-2.89449
0
LINE
8
BLACK
6
CONTINUOUS
10
5.39764
20
-2.89449
11
5.39764
21
-2.89449
0
LINE
8
BLACK
6
CONTINUOUS
10
5.39764
20
-2.89449
11
5.39697
21
-2.89421
0
LINE
8
BLACK
6
CONTINUOUS
10
5.39697
20
-2.89421
11
5.39625
21
-2.89391
0
LINE
8
BLACK
6
CONTINUOUS
10
5.39625
20
-2.89391
11
5.39625
21
-2.89391
0
LINE
8
BLACK
6
CONTINUOUS
10
5.39625
20
-2.89391
11
5.39625
21
-2.89391
0
LINE
8
BLACK
6
CONTINUOUS
10
5.39625
20
-2.89391
11
5.39596
21
-2.89321
0
LINE
8
BLACK
6
CONTINUOUS
10
5.39596
20
-2.89321
11
5.39567
21
-2.89252
0
LINE
8
BLACK
6
CONTINUOUS
10
5.39567
20
-2.89252
11
5.39567
21
-2.89252
0
LINE
8
BLACK
6
CONTINUOUS
10
5.39567
20
-2.89252
11
5.39567
21
-2.89252
0
LINE
8
BLACK
6
CONTINUOUS
10
5.39567
20
-2.89252
11
5.39528
21
-2.06929
0
LINE
8
BLACK
6
CONTINUOUS
10
5.39528
20
-2.06929
11
5.30573
21
-2.06929
0
LINE
8
BLACK
6
CONTINUOUS
10
5.30573
20
-2.06929
11
4.36263
21
-2.27751
0
LINE
8
BLACK
6
CONTINUOUS
10
4.36263
20
-2.27751
11
4.36208
21
-2.27742
0
LINE
8
BLACK
6
CONTINUOUS
10
4.36208
20
-2.27742
11
4.36153
21
-2.27744
0
LINE
8
BLACK
6
CONTINUOUS
10
4.36153
20
-2.27744
11
4.36137
21
-2.27729
0
LINE
8
BLACK
6
CONTINUOUS
10
4.36137
20
-2.27729
11
4.36115
21
-2.27725
0
LINE
8
BLACK
6
CONTINUOUS
10
4.36115
20
-2.27725
11
4.36083
21
-2.2768
0
LINE
8
BLACK
6
CONTINUOUS
10
4.36083
20
-2.2768
11
4.36042
21
-2.27642
0
LINE
8
BLACK
6
CONTINUOUS
10
4.36042
20
-2.27642
11
4.36041
21
-2.2762
0
LINE
8
BLACK
6
CONTINUOUS
10
4.36041
20
-2.2762
11
4.36028
21
-2.27601
0
LINE
8
BLACK
6
CONTINUOUS
10
4.36028
20
-2.27601
11
4.36038
21
-2.27547
0
LINE
8
BLACK
6
CONTINUOUS
10
4.36038
20
-2.27547
11
4.36035
21
-2.27492
0
LINE
8
BLACK
6
CONTINUOUS
10
4.36035
20
-2.27492
11
4.41677
21
-2.11968
0
LINE
8
BLACK
6
CONTINUOUS
10
4.41677
20
-2.11968
11
3.75472
21
-1.87851
0
LINE
8
BLACK
6
CONTINUOUS
10
3.75472
20
-1.87851
11
3.69831
21
-2.03414
0
LINE
8
BLACK
6
CONTINUOUS
10
3.69831
20
-2.03414
11
3.69831
21
-2.03414
0
LINE
8
BLACK
6
CONTINUOUS
10
3.69831
20
-2.03414
11
3.69831
21
-2.03414
0
LINE
8
BLACK
6
CONTINUOUS
10
3.69831
20
-2.03414
11
3.6978
21
-2.03469
0
LINE
8
BLACK
6
CONTINUOUS
10
3.6978
20
-2.03469
11
3.69729
21
-2.03525
0
LINE
8
BLACK
6
CONTINUOUS
10
3.69729
20
-2.03525
11
3.69729
21
-2.03525
0
LINE
8
BLACK
6
CONTINUOUS
10
3.69729
20
-2.03525
11
3.69729
21
-2.03525
0
LINE
8
BLACK
6
CONTINUOUS
10
3.69729
20
-2.03525
11
3.69653
21
-2.03528
0
LINE
8
BLACK
6
CONTINUOUS
10
3.69653
20
-2.03528
11
3.69579
21
-2.03532
0
LINE
8
BLACK
6
CONTINUOUS
10
3.69579
20
-2.03532
11
3.69578
21
-2.03531
0
LINE
8
BLACK
6
CONTINUOUS
10
3.69578
20
-2.03531
11
3.69578
21
-2.03531
0
LINE
8
BLACK
6
CONTINUOUS
10
3.69578
20
-2.03531
11
3.03149
21
-1.79347
0
LINE
8
BLACK
6
CONTINUOUS
10
3.03149
20
-1.79347
11
2.86012
21
-2.26367
0
LINE
8
BLACK
6
CONTINUOUS
10
2.86012
20
-2.26367
11
2.8596
21
-2.26423
0
LINE
8
BLACK
6
CONTINUOUS
10
2.8596
20
-2.26423
11
2.8591
21
-2.26478
0
LINE
8
BLACK
6
CONTINUOUS
10
2.8591
20
-2.26478
11
2.8591
21
-2.26478
0
LINE
8
BLACK
6
CONTINUOUS
10
2.8591
20
-2.26478
11
2.8591
21
-2.26478
0
LINE
8
BLACK
6
CONTINUOUS
10
2.8591
20
-2.26478
11
2.85843
21
-2.26481
0
LINE
8
BLACK
6
CONTINUOUS
10
2.85843
20
-2.26481
11
2.85759
21
-2.26484
0
LINE
8
BLACK
6
CONTINUOUS
10
2.85759
20
-2.26484
11
2.1937
21
-2.023
0
LINE
8
BLACK
6
CONTINUOUS
10
2.1937
20
-2.023
11
1.73717
21
-3.27678
0
LINE
8
BLACK
6
CONTINUOUS
10
1.73717
20
-3.27678
11
2.40146
21
-3.51823
0
LINE
8
BLACK
6
CONTINUOUS
10
2.40146
20
-3.51823
11
2.40146
21
-3.51823
0
LINE
8
BLACK
6
CONTINUOUS
10
2.40146
20
-3.51823
11
2.40146
21
-3.51823
0
LINE
8
BLACK
6
CONTINUOUS
10
2.40146
20
-3.51823
11
2.40202
21
-3.51874
0
LINE
8
BLACK
6
CONTINUOUS
10
2.40202
20
-3.51874
11
2.40257
21
-3.51925
0
LINE
8
BLACK
6
CONTINUOUS
10
2.40257
20
-3.51925
11
2.40257
21
-3.51925
0
LINE
8
BLACK
6
CONTINUOUS
10
2.40257
20
-3.51925
11
2.40257
21
-3.51925
0
LINE
8
BLACK
6
CONTINUOUS
10
2.40257
20
-3.51925
11
2.4026
21
-3.52
0
LINE
8
BLACK
6
CONTINUOUS
10
2.4026
20
-3.52
11
2.40264
21
-3.52075
0
LINE
8
BLACK
6
CONTINUOUS
10
2.40264
20
-3.52075
11
2.40264
21
-3.52075
0
LINE
8
BLACK
6
CONTINUOUS
10
2.40264
20
-3.52075
11
2.40264
21
-3.52075
0
LINE
8
BLACK
6
CONTINUOUS
10
2.40264
20
-3.52075
11
2.34583
21
-3.67638
0
LINE
8
BLACK
6
CONTINUOUS
10
2.34583
20
-3.67638
11
3.00827
21
-3.91756
0
LINE
8
BLACK
6
CONTINUOUS
10
3.00827
20
-3.91756
11
3.06469
21
-3.76232
0
LINE
8
BLACK
6
CONTINUOUS
10
3.06469
20
-3.76232
11
3.06469
21
-3.76232
0
LINE
8
BLACK
6
CONTINUOUS
10
3.06469
20
-3.76232
11
3.06469
21
-3.76232
0
LINE
8
BLACK
6
CONTINUOUS
10
3.06469
20
-3.76232
11
3.0657
21
-3.76121
0
LINE
8
BLACK
6
CONTINUOUS
10
3.0657
20
-3.76121
11
3.06666
21
-3.76117
0
LINE
8
BLACK
6
CONTINUOUS
10
3.06666
20
-3.76117
11
3.06721
21
-3.76114
0
LINE
8
BLACK
6
CONTINUOUS
10
3.06721
20
-3.76114
11
3.06721
21
-3.76114
  0
ENDSEC
  0
EOF
