G04 #@! TF.GenerationSoftware,KiCad,Pcbnew,7.0.1*
G04 #@! TF.CreationDate,2024-05-26T16:47:26-04:00*
G04 #@! TF.ProjectId,30,33302e6b-6963-4616-945f-706362585858,rev?*
G04 #@! TF.SameCoordinates,Original*
G04 #@! TF.FileFunction,Legend,Bot*
G04 #@! TF.FilePolarity,Positive*
%FSLAX46Y46*%
G04 Gerber Fmt 4.6, Leading zero omitted, Abs format (unit mm)*
G04 Created by KiCad (PCBNEW 7.0.1) date 2024-05-26 16:47:26*
%MOMM*%
%LPD*%
G01*
G04 APERTURE LIST*
G04 Aperture macros list*
%AMRoundRect*
0 Rectangle with rounded corners*
0 $1 Rounding radius*
0 $2 $3 $4 $5 $6 $7 $8 $9 X,Y pos of 4 corners*
0 Add a 4 corners polygon primitive as box body*
4,1,4,$2,$3,$4,$5,$6,$7,$8,$9,$2,$3,0*
0 Add four circle primitives for the rounded corners*
1,1,$1+$1,$2,$3*
1,1,$1+$1,$4,$5*
1,1,$1+$1,$6,$7*
1,1,$1+$1,$8,$9*
0 Add four rect primitives between the rounded corners*
20,1,$1+$1,$2,$3,$4,$5,0*
20,1,$1+$1,$4,$5,$6,$7,0*
20,1,$1+$1,$6,$7,$8,$9,0*
20,1,$1+$1,$8,$9,$2,$3,0*%
G04 Aperture macros list end*
%ADD10C,0.150000*%
%ADD11C,0.120000*%
%ADD12O,3.290000X1.500000*%
%ADD13O,1.500000X3.290000*%
%ADD14C,3.050000*%
%ADD15RoundRect,0.250000X-0.506347X-1.339492X1.351584X-0.473124X0.506347X1.339492X-1.351584X0.473124X0*%
%ADD16C,4.000000*%
%ADD17C,1.750000*%
%ADD18RoundRect,0.250000X-1.351584X-0.473124X0.506347X-1.339492X1.351584X0.473124X-0.506347X1.339492X0*%
%ADD19RoundRect,0.225000X0.434955X-0.045437X0.244776X0.362401X-0.434955X0.045437X-0.244776X-0.362401X0*%
%ADD20RoundRect,0.225000X0.244776X-0.362401X0.434955X0.045437X-0.244776X0.362401X-0.434955X-0.045437X0*%
G04 APERTURE END LIST*
D10*
X129281904Y-78227619D02*
X129281904Y-77227619D01*
X128710476Y-78227619D02*
X129139047Y-77656190D01*
X128710476Y-77227619D02*
X129281904Y-77799047D01*
X127900952Y-78180000D02*
X127996190Y-78227619D01*
X127996190Y-78227619D02*
X128186666Y-78227619D01*
X128186666Y-78227619D02*
X128281904Y-78180000D01*
X128281904Y-78180000D02*
X128329523Y-78084761D01*
X128329523Y-78084761D02*
X128329523Y-77703809D01*
X128329523Y-77703809D02*
X128281904Y-77608571D01*
X128281904Y-77608571D02*
X128186666Y-77560952D01*
X128186666Y-77560952D02*
X127996190Y-77560952D01*
X127996190Y-77560952D02*
X127900952Y-77608571D01*
X127900952Y-77608571D02*
X127853333Y-77703809D01*
X127853333Y-77703809D02*
X127853333Y-77799047D01*
X127853333Y-77799047D02*
X128329523Y-77894285D01*
X127519999Y-77560952D02*
X127281904Y-78227619D01*
X127043809Y-77560952D02*
X127281904Y-78227619D01*
X127281904Y-78227619D02*
X127377142Y-78465714D01*
X127377142Y-78465714D02*
X127424761Y-78513333D01*
X127424761Y-78513333D02*
X127519999Y-78560952D01*
X126662856Y-78227619D02*
X126662856Y-77227619D01*
X126662856Y-77608571D02*
X126567618Y-77560952D01*
X126567618Y-77560952D02*
X126377142Y-77560952D01*
X126377142Y-77560952D02*
X126281904Y-77608571D01*
X126281904Y-77608571D02*
X126234285Y-77656190D01*
X126234285Y-77656190D02*
X126186666Y-77751428D01*
X126186666Y-77751428D02*
X126186666Y-78037142D01*
X126186666Y-78037142D02*
X126234285Y-78132380D01*
X126234285Y-78132380D02*
X126281904Y-78180000D01*
X126281904Y-78180000D02*
X126377142Y-78227619D01*
X126377142Y-78227619D02*
X126567618Y-78227619D01*
X126567618Y-78227619D02*
X126662856Y-78180000D01*
X125615237Y-78227619D02*
X125710475Y-78180000D01*
X125710475Y-78180000D02*
X125758094Y-78132380D01*
X125758094Y-78132380D02*
X125805713Y-78037142D01*
X125805713Y-78037142D02*
X125805713Y-77751428D01*
X125805713Y-77751428D02*
X125758094Y-77656190D01*
X125758094Y-77656190D02*
X125710475Y-77608571D01*
X125710475Y-77608571D02*
X125615237Y-77560952D01*
X125615237Y-77560952D02*
X125472380Y-77560952D01*
X125472380Y-77560952D02*
X125377142Y-77608571D01*
X125377142Y-77608571D02*
X125329523Y-77656190D01*
X125329523Y-77656190D02*
X125281904Y-77751428D01*
X125281904Y-77751428D02*
X125281904Y-78037142D01*
X125281904Y-78037142D02*
X125329523Y-78132380D01*
X125329523Y-78132380D02*
X125377142Y-78180000D01*
X125377142Y-78180000D02*
X125472380Y-78227619D01*
X125472380Y-78227619D02*
X125615237Y-78227619D01*
X124424761Y-78227619D02*
X124424761Y-77703809D01*
X124424761Y-77703809D02*
X124472380Y-77608571D01*
X124472380Y-77608571D02*
X124567618Y-77560952D01*
X124567618Y-77560952D02*
X124758094Y-77560952D01*
X124758094Y-77560952D02*
X124853332Y-77608571D01*
X124424761Y-78180000D02*
X124519999Y-78227619D01*
X124519999Y-78227619D02*
X124758094Y-78227619D01*
X124758094Y-78227619D02*
X124853332Y-78180000D01*
X124853332Y-78180000D02*
X124900951Y-78084761D01*
X124900951Y-78084761D02*
X124900951Y-77989523D01*
X124900951Y-77989523D02*
X124853332Y-77894285D01*
X124853332Y-77894285D02*
X124758094Y-77846666D01*
X124758094Y-77846666D02*
X124519999Y-77846666D01*
X124519999Y-77846666D02*
X124424761Y-77799047D01*
X123948570Y-78227619D02*
X123948570Y-77560952D01*
X123948570Y-77751428D02*
X123900951Y-77656190D01*
X123900951Y-77656190D02*
X123853332Y-77608571D01*
X123853332Y-77608571D02*
X123758094Y-77560952D01*
X123758094Y-77560952D02*
X123662856Y-77560952D01*
X122900951Y-78227619D02*
X122900951Y-77227619D01*
X122900951Y-78180000D02*
X122996189Y-78227619D01*
X122996189Y-78227619D02*
X123186665Y-78227619D01*
X123186665Y-78227619D02*
X123281903Y-78180000D01*
X123281903Y-78180000D02*
X123329522Y-78132380D01*
X123329522Y-78132380D02*
X123377141Y-78037142D01*
X123377141Y-78037142D02*
X123377141Y-77751428D01*
X123377141Y-77751428D02*
X123329522Y-77656190D01*
X123329522Y-77656190D02*
X123281903Y-77608571D01*
X123281903Y-77608571D02*
X123186665Y-77560952D01*
X123186665Y-77560952D02*
X122996189Y-77560952D01*
X122996189Y-77560952D02*
X122900951Y-77608571D01*
X122424760Y-78227619D02*
X122424760Y-77227619D01*
X122424760Y-77227619D02*
X122186665Y-77227619D01*
X122186665Y-77227619D02*
X122043808Y-77275238D01*
X122043808Y-77275238D02*
X121948570Y-77370476D01*
X121948570Y-77370476D02*
X121900951Y-77465714D01*
X121900951Y-77465714D02*
X121853332Y-77656190D01*
X121853332Y-77656190D02*
X121853332Y-77799047D01*
X121853332Y-77799047D02*
X121900951Y-77989523D01*
X121900951Y-77989523D02*
X121948570Y-78084761D01*
X121948570Y-78084761D02*
X122043808Y-78180000D01*
X122043808Y-78180000D02*
X122186665Y-78227619D01*
X122186665Y-78227619D02*
X122424760Y-78227619D01*
X121519998Y-77560952D02*
X121329522Y-78227619D01*
X121329522Y-78227619D02*
X121139046Y-77751428D01*
X121139046Y-77751428D02*
X120948570Y-78227619D01*
X120948570Y-78227619D02*
X120758094Y-77560952D01*
X119996189Y-78180000D02*
X120091427Y-78227619D01*
X120091427Y-78227619D02*
X120281903Y-78227619D01*
X120281903Y-78227619D02*
X120377141Y-78180000D01*
X120377141Y-78180000D02*
X120424760Y-78084761D01*
X120424760Y-78084761D02*
X120424760Y-77703809D01*
X120424760Y-77703809D02*
X120377141Y-77608571D01*
X120377141Y-77608571D02*
X120281903Y-77560952D01*
X120281903Y-77560952D02*
X120091427Y-77560952D01*
X120091427Y-77560952D02*
X119996189Y-77608571D01*
X119996189Y-77608571D02*
X119948570Y-77703809D01*
X119948570Y-77703809D02*
X119948570Y-77799047D01*
X119948570Y-77799047D02*
X120424760Y-77894285D01*
X119139046Y-78180000D02*
X119234284Y-78227619D01*
X119234284Y-78227619D02*
X119424760Y-78227619D01*
X119424760Y-78227619D02*
X119519998Y-78180000D01*
X119519998Y-78180000D02*
X119567617Y-78084761D01*
X119567617Y-78084761D02*
X119567617Y-77703809D01*
X119567617Y-77703809D02*
X119519998Y-77608571D01*
X119519998Y-77608571D02*
X119424760Y-77560952D01*
X119424760Y-77560952D02*
X119234284Y-77560952D01*
X119234284Y-77560952D02*
X119139046Y-77608571D01*
X119139046Y-77608571D02*
X119091427Y-77703809D01*
X119091427Y-77703809D02*
X119091427Y-77799047D01*
X119091427Y-77799047D02*
X119567617Y-77894285D01*
X118662855Y-78227619D02*
X118662855Y-77227619D01*
X118662855Y-77608571D02*
X118567617Y-77560952D01*
X118567617Y-77560952D02*
X118377141Y-77560952D01*
X118377141Y-77560952D02*
X118281903Y-77608571D01*
X118281903Y-77608571D02*
X118234284Y-77656190D01*
X118234284Y-77656190D02*
X118186665Y-77751428D01*
X118186665Y-77751428D02*
X118186665Y-78037142D01*
X118186665Y-78037142D02*
X118234284Y-78132380D01*
X118234284Y-78132380D02*
X118281903Y-78180000D01*
X118281903Y-78180000D02*
X118377141Y-78227619D01*
X118377141Y-78227619D02*
X118567617Y-78227619D01*
X118567617Y-78227619D02*
X118662855Y-78180000D01*
X117805712Y-78180000D02*
X117710474Y-78227619D01*
X117710474Y-78227619D02*
X117519998Y-78227619D01*
X117519998Y-78227619D02*
X117424760Y-78180000D01*
X117424760Y-78180000D02*
X117377141Y-78084761D01*
X117377141Y-78084761D02*
X117377141Y-78037142D01*
X117377141Y-78037142D02*
X117424760Y-77941904D01*
X117424760Y-77941904D02*
X117519998Y-77894285D01*
X117519998Y-77894285D02*
X117662855Y-77894285D01*
X117662855Y-77894285D02*
X117758093Y-77846666D01*
X117758093Y-77846666D02*
X117805712Y-77751428D01*
X117805712Y-77751428D02*
X117805712Y-77703809D01*
X117805712Y-77703809D02*
X117758093Y-77608571D01*
X117758093Y-77608571D02*
X117662855Y-77560952D01*
X117662855Y-77560952D02*
X117519998Y-77560952D01*
X117519998Y-77560952D02*
X117424760Y-77608571D01*
X116948569Y-78132380D02*
X116900950Y-78180000D01*
X116900950Y-78180000D02*
X116948569Y-78227619D01*
X116948569Y-78227619D02*
X116996188Y-78180000D01*
X116996188Y-78180000D02*
X116948569Y-78132380D01*
X116948569Y-78132380D02*
X116948569Y-78227619D01*
X116472379Y-77560952D02*
X116472379Y-78227619D01*
X116472379Y-77656190D02*
X116424760Y-77608571D01*
X116424760Y-77608571D02*
X116329522Y-77560952D01*
X116329522Y-77560952D02*
X116186665Y-77560952D01*
X116186665Y-77560952D02*
X116091427Y-77608571D01*
X116091427Y-77608571D02*
X116043808Y-77703809D01*
X116043808Y-77703809D02*
X116043808Y-78227619D01*
X115186665Y-78180000D02*
X115281903Y-78227619D01*
X115281903Y-78227619D02*
X115472379Y-78227619D01*
X115472379Y-78227619D02*
X115567617Y-78180000D01*
X115567617Y-78180000D02*
X115615236Y-78084761D01*
X115615236Y-78084761D02*
X115615236Y-77703809D01*
X115615236Y-77703809D02*
X115567617Y-77608571D01*
X115567617Y-77608571D02*
X115472379Y-77560952D01*
X115472379Y-77560952D02*
X115281903Y-77560952D01*
X115281903Y-77560952D02*
X115186665Y-77608571D01*
X115186665Y-77608571D02*
X115139046Y-77703809D01*
X115139046Y-77703809D02*
X115139046Y-77799047D01*
X115139046Y-77799047D02*
X115615236Y-77894285D01*
X114853331Y-77560952D02*
X114472379Y-77560952D01*
X114710474Y-77227619D02*
X114710474Y-78084761D01*
X114710474Y-78084761D02*
X114662855Y-78180000D01*
X114662855Y-78180000D02*
X114567617Y-78227619D01*
X114567617Y-78227619D02*
X114472379Y-78227619D01*
X197808452Y-105529181D02*
X198714759Y-105106563D01*
X198714759Y-105106563D02*
X198614136Y-104890776D01*
X198614136Y-104890776D02*
X198510604Y-104781428D01*
X198510604Y-104781428D02*
X198384040Y-104735362D01*
X198384040Y-104735362D02*
X198277600Y-104732454D01*
X198277600Y-104732454D02*
X198084846Y-104769795D01*
X198084846Y-104769795D02*
X197955373Y-104830169D01*
X197955373Y-104830169D02*
X197802868Y-104953825D01*
X197802868Y-104953825D02*
X197736677Y-105037232D01*
X197736677Y-105037232D02*
X197690612Y-105163797D01*
X197690612Y-105163797D02*
X197707828Y-105313394D01*
X197707828Y-105313394D02*
X197808452Y-105529181D01*
X198332390Y-104286570D02*
X198070770Y-103725523D01*
X198070770Y-103725523D02*
X197866382Y-104188623D01*
X197866382Y-104188623D02*
X197806008Y-104059150D01*
X197806008Y-104059150D02*
X197722601Y-103992960D01*
X197722601Y-103992960D02*
X197659319Y-103969927D01*
X197659319Y-103969927D02*
X197552879Y-103967019D01*
X197552879Y-103967019D02*
X197337092Y-104067642D01*
X197337092Y-104067642D02*
X197270902Y-104151049D01*
X197270902Y-104151049D02*
X197247869Y-104214331D01*
X197247869Y-104214331D02*
X197244961Y-104320771D01*
X197244961Y-104320771D02*
X197365709Y-104579716D01*
X197365709Y-104579716D02*
X197449116Y-104645906D01*
X197449116Y-104645906D02*
X197512398Y-104668939D01*
X197809149Y-103164475D02*
X197768899Y-103078160D01*
X197768899Y-103078160D02*
X197685493Y-103011970D01*
X197685493Y-103011970D02*
X197622210Y-102988937D01*
X197622210Y-102988937D02*
X197515771Y-102986029D01*
X197515771Y-102986029D02*
X197323016Y-103023370D01*
X197323016Y-103023370D02*
X197107228Y-103123993D01*
X197107228Y-103123993D02*
X196954723Y-103247649D01*
X196954723Y-103247649D02*
X196888533Y-103331056D01*
X196888533Y-103331056D02*
X196865500Y-103394339D01*
X196865500Y-103394339D02*
X196862592Y-103500778D01*
X196862592Y-103500778D02*
X196902841Y-103587093D01*
X196902841Y-103587093D02*
X196986248Y-103653284D01*
X196986248Y-103653284D02*
X197049530Y-103676316D01*
X197049530Y-103676316D02*
X197155970Y-103679225D01*
X197155970Y-103679225D02*
X197348725Y-103641883D01*
X197348725Y-103641883D02*
X197564512Y-103541260D01*
X197564512Y-103541260D02*
X197717017Y-103417604D01*
X197717017Y-103417604D02*
X197783208Y-103334197D01*
X197783208Y-103334197D02*
X197806241Y-103270915D01*
X197806241Y-103270915D02*
X197809149Y-103164475D01*
X182582845Y-117953900D02*
X183489152Y-117531282D01*
X183489152Y-117531282D02*
X183388529Y-117315495D01*
X183388529Y-117315495D02*
X183284997Y-117206147D01*
X183284997Y-117206147D02*
X183158433Y-117160081D01*
X183158433Y-117160081D02*
X183051993Y-117157173D01*
X183051993Y-117157173D02*
X182859239Y-117194514D01*
X182859239Y-117194514D02*
X182729766Y-117254888D01*
X182729766Y-117254888D02*
X182577261Y-117378544D01*
X182577261Y-117378544D02*
X182511070Y-117461951D01*
X182511070Y-117461951D02*
X182465005Y-117588516D01*
X182465005Y-117588516D02*
X182482221Y-117738113D01*
X182482221Y-117738113D02*
X182582845Y-117953900D01*
X183000344Y-116708381D02*
X183023377Y-116645099D01*
X183023377Y-116645099D02*
X183026285Y-116538659D01*
X183026285Y-116538659D02*
X182925661Y-116322872D01*
X182925661Y-116322872D02*
X182842254Y-116256681D01*
X182842254Y-116256681D02*
X182778972Y-116233649D01*
X182778972Y-116233649D02*
X182672533Y-116230740D01*
X182672533Y-116230740D02*
X182586218Y-116270990D01*
X182586218Y-116270990D02*
X182476870Y-116374521D01*
X182476870Y-116374521D02*
X182200476Y-117133908D01*
X182200476Y-117133908D02*
X181938855Y-116572860D01*
X181737608Y-116141285D02*
X181657109Y-115968655D01*
X181657109Y-115968655D02*
X181660017Y-115862215D01*
X181660017Y-115862215D02*
X181683050Y-115798933D01*
X181683050Y-115798933D02*
X181772274Y-115652244D01*
X181772274Y-115652244D02*
X181924779Y-115528588D01*
X181924779Y-115528588D02*
X182270039Y-115367590D01*
X182270039Y-115367590D02*
X182376479Y-115370498D01*
X182376479Y-115370498D02*
X182439761Y-115393531D01*
X182439761Y-115393531D02*
X182523168Y-115459721D01*
X182523168Y-115459721D02*
X182603666Y-115632351D01*
X182603666Y-115632351D02*
X182600758Y-115738791D01*
X182600758Y-115738791D02*
X182577725Y-115802073D01*
X182577725Y-115802073D02*
X182511535Y-115885480D01*
X182511535Y-115885480D02*
X182295748Y-115986104D01*
X182295748Y-115986104D02*
X182189308Y-115983196D01*
X182189308Y-115983196D02*
X182126026Y-115960163D01*
X182126026Y-115960163D02*
X182042619Y-115893972D01*
X182042619Y-115893972D02*
X181962120Y-115721342D01*
X181962120Y-115721342D02*
X181965028Y-115614903D01*
X181965028Y-115614903D02*
X181988061Y-115551620D01*
X181988061Y-115551620D02*
X182054251Y-115468213D01*
X75584661Y-121734833D02*
X74678353Y-121312215D01*
X74678353Y-121312215D02*
X74577730Y-121528002D01*
X74577730Y-121528002D02*
X74560513Y-121677600D01*
X74560513Y-121677600D02*
X74606579Y-121804164D01*
X74606579Y-121804164D02*
X74672769Y-121887571D01*
X74672769Y-121887571D02*
X74825275Y-122011227D01*
X74825275Y-122011227D02*
X74954747Y-122071601D01*
X74954747Y-122071601D02*
X75147502Y-122108942D01*
X75147502Y-122108942D02*
X75253942Y-122106034D01*
X75253942Y-122106034D02*
X75380506Y-122059969D01*
X75380506Y-122059969D02*
X75484038Y-121950621D01*
X75484038Y-121950621D02*
X75584661Y-121734833D01*
X74362175Y-122215614D02*
X74298893Y-122238647D01*
X74298893Y-122238647D02*
X74215486Y-122304838D01*
X74215486Y-122304838D02*
X74114862Y-122520625D01*
X74114862Y-122520625D02*
X74117770Y-122627065D01*
X74117770Y-122627065D02*
X74140803Y-122690347D01*
X74140803Y-122690347D02*
X74206994Y-122773754D01*
X74206994Y-122773754D02*
X74293309Y-122814003D01*
X74293309Y-122814003D02*
X74442906Y-122831220D01*
X74442906Y-122831220D02*
X75202292Y-122554826D01*
X75202292Y-122554826D02*
X74940671Y-123115874D01*
X74181285Y-123392268D02*
X74178377Y-123285828D01*
X74178377Y-123285828D02*
X74155344Y-123222546D01*
X74155344Y-123222546D02*
X74089154Y-123139139D01*
X74089154Y-123139139D02*
X74045996Y-123119014D01*
X74045996Y-123119014D02*
X73939556Y-123121922D01*
X73939556Y-123121922D02*
X73876274Y-123144955D01*
X73876274Y-123144955D02*
X73792867Y-123211145D01*
X73792867Y-123211145D02*
X73712369Y-123383776D01*
X73712369Y-123383776D02*
X73715277Y-123490215D01*
X73715277Y-123490215D02*
X73738310Y-123553497D01*
X73738310Y-123553497D02*
X73804500Y-123636904D01*
X73804500Y-123636904D02*
X73847658Y-123657029D01*
X73847658Y-123657029D02*
X73954097Y-123654121D01*
X73954097Y-123654121D02*
X74017379Y-123631088D01*
X74017379Y-123631088D02*
X74100786Y-123564898D01*
X74100786Y-123564898D02*
X74181285Y-123392268D01*
X74181285Y-123392268D02*
X74264692Y-123326077D01*
X74264692Y-123326077D02*
X74327974Y-123303044D01*
X74327974Y-123303044D02*
X74434414Y-123300136D01*
X74434414Y-123300136D02*
X74607044Y-123380635D01*
X74607044Y-123380635D02*
X74673234Y-123464042D01*
X74673234Y-123464042D02*
X74696267Y-123527324D01*
X74696267Y-123527324D02*
X74699175Y-123633764D01*
X74699175Y-123633764D02*
X74618676Y-123806394D01*
X74618676Y-123806394D02*
X74535270Y-123872584D01*
X74535270Y-123872584D02*
X74471987Y-123895617D01*
X74471987Y-123895617D02*
X74365548Y-123898525D01*
X74365548Y-123898525D02*
X74192918Y-123818026D01*
X74192918Y-123818026D02*
X74126727Y-123734620D01*
X74126727Y-123734620D02*
X74103694Y-123671337D01*
X74103694Y-123671337D02*
X74100786Y-123564898D01*
X60359054Y-109310113D02*
X59452746Y-108887495D01*
X59452746Y-108887495D02*
X59352123Y-109103282D01*
X59352123Y-109103282D02*
X59334906Y-109252880D01*
X59334906Y-109252880D02*
X59380972Y-109379444D01*
X59380972Y-109379444D02*
X59447162Y-109462851D01*
X59447162Y-109462851D02*
X59599668Y-109586507D01*
X59599668Y-109586507D02*
X59729140Y-109646881D01*
X59729140Y-109646881D02*
X59921895Y-109684222D01*
X59921895Y-109684222D02*
X60028335Y-109681314D01*
X60028335Y-109681314D02*
X60154899Y-109635249D01*
X60154899Y-109635249D02*
X60258431Y-109525901D01*
X60258431Y-109525901D02*
X60359054Y-109310113D01*
X59136568Y-109790894D02*
X59073286Y-109813927D01*
X59073286Y-109813927D02*
X58989879Y-109880118D01*
X58989879Y-109880118D02*
X58889255Y-110095905D01*
X58889255Y-110095905D02*
X58892163Y-110202345D01*
X58892163Y-110202345D02*
X58915196Y-110265627D01*
X58915196Y-110265627D02*
X58981387Y-110349034D01*
X58981387Y-110349034D02*
X59067702Y-110389283D01*
X59067702Y-110389283D02*
X59217299Y-110406500D01*
X59217299Y-110406500D02*
X59976685Y-110130106D01*
X59976685Y-110130106D02*
X59715064Y-110691154D01*
X58667884Y-110570638D02*
X58386138Y-111174843D01*
X58386138Y-111174843D02*
X59473568Y-111209044D01*
X209299473Y-73826579D02*
X210205780Y-73403961D01*
X210205780Y-73403961D02*
X210105157Y-73188174D01*
X210105157Y-73188174D02*
X210001625Y-73078826D01*
X210001625Y-73078826D02*
X209875061Y-73032760D01*
X209875061Y-73032760D02*
X209768621Y-73029852D01*
X209768621Y-73029852D02*
X209575867Y-73067193D01*
X209575867Y-73067193D02*
X209446394Y-73127567D01*
X209446394Y-73127567D02*
X209293889Y-73251223D01*
X209293889Y-73251223D02*
X209227698Y-73334630D01*
X209227698Y-73334630D02*
X209181633Y-73461195D01*
X209181633Y-73461195D02*
X209198849Y-73610792D01*
X209198849Y-73610792D02*
X209299473Y-73826579D01*
X209716972Y-72581060D02*
X209740005Y-72517778D01*
X209740005Y-72517778D02*
X209742913Y-72411338D01*
X209742913Y-72411338D02*
X209642289Y-72195551D01*
X209642289Y-72195551D02*
X209558882Y-72129360D01*
X209558882Y-72129360D02*
X209495600Y-72106328D01*
X209495600Y-72106328D02*
X209389161Y-72103419D01*
X209389161Y-72103419D02*
X209302846Y-72143669D01*
X209302846Y-72143669D02*
X209193498Y-72247200D01*
X209193498Y-72247200D02*
X208917104Y-73006587D01*
X208917104Y-73006587D02*
X208655483Y-72445539D01*
X209199546Y-71246085D02*
X209280045Y-71418715D01*
X209280045Y-71418715D02*
X209277137Y-71525155D01*
X209277137Y-71525155D02*
X209254104Y-71588437D01*
X209254104Y-71588437D02*
X209164881Y-71735126D01*
X209164881Y-71735126D02*
X209012376Y-71858783D01*
X209012376Y-71858783D02*
X208667115Y-72019780D01*
X208667115Y-72019780D02*
X208560676Y-72016872D01*
X208560676Y-72016872D02*
X208497394Y-71993839D01*
X208497394Y-71993839D02*
X208413987Y-71927649D01*
X208413987Y-71927649D02*
X208333488Y-71755019D01*
X208333488Y-71755019D02*
X208336396Y-71648579D01*
X208336396Y-71648579D02*
X208359429Y-71585297D01*
X208359429Y-71585297D02*
X208425619Y-71501890D01*
X208425619Y-71501890D02*
X208641407Y-71401267D01*
X208641407Y-71401267D02*
X208747847Y-71404175D01*
X208747847Y-71404175D02*
X208811129Y-71427208D01*
X208811129Y-71427208D02*
X208894536Y-71493398D01*
X208894536Y-71493398D02*
X208975034Y-71666028D01*
X208975034Y-71666028D02*
X208972126Y-71772468D01*
X208972126Y-71772468D02*
X208949093Y-71835750D01*
X208949093Y-71835750D02*
X208882903Y-71919157D01*
X190102099Y-77733817D02*
X191008406Y-77311199D01*
X191008406Y-77311199D02*
X190907783Y-77095412D01*
X190907783Y-77095412D02*
X190804251Y-76986064D01*
X190804251Y-76986064D02*
X190677687Y-76939998D01*
X190677687Y-76939998D02*
X190571247Y-76937090D01*
X190571247Y-76937090D02*
X190378493Y-76974431D01*
X190378493Y-76974431D02*
X190249020Y-77034805D01*
X190249020Y-77034805D02*
X190096515Y-77158461D01*
X190096515Y-77158461D02*
X190030324Y-77241868D01*
X190030324Y-77241868D02*
X189984259Y-77368433D01*
X189984259Y-77368433D02*
X190001475Y-77518030D01*
X190001475Y-77518030D02*
X190102099Y-77733817D01*
X190519598Y-76488298D02*
X190542631Y-76425016D01*
X190542631Y-76425016D02*
X190545539Y-76318576D01*
X190545539Y-76318576D02*
X190444915Y-76102789D01*
X190444915Y-76102789D02*
X190361508Y-76036598D01*
X190361508Y-76036598D02*
X190298226Y-76013566D01*
X190298226Y-76013566D02*
X190191787Y-76010657D01*
X190191787Y-76010657D02*
X190105472Y-76050907D01*
X190105472Y-76050907D02*
X189996124Y-76154438D01*
X189996124Y-76154438D02*
X189719730Y-76913825D01*
X189719730Y-76913825D02*
X189458109Y-76352777D01*
X189982048Y-75110166D02*
X190183295Y-75541741D01*
X190183295Y-75541741D02*
X189771844Y-75786145D01*
X189771844Y-75786145D02*
X189794877Y-75722863D01*
X189794877Y-75722863D02*
X189797785Y-75616423D01*
X189797785Y-75616423D02*
X189697162Y-75400636D01*
X189697162Y-75400636D02*
X189613755Y-75334446D01*
X189613755Y-75334446D02*
X189550473Y-75311413D01*
X189550473Y-75311413D02*
X189444033Y-75308505D01*
X189444033Y-75308505D02*
X189228245Y-75409128D01*
X189228245Y-75409128D02*
X189162055Y-75492535D01*
X189162055Y-75492535D02*
X189139022Y-75555817D01*
X189139022Y-75555817D02*
X189136114Y-75662257D01*
X189136114Y-75662257D02*
X189236737Y-75878044D01*
X189236737Y-75878044D02*
X189320144Y-75944235D01*
X189320144Y-75944235D02*
X189383426Y-75967267D01*
X174769146Y-89928334D02*
X175675453Y-89505716D01*
X175675453Y-89505716D02*
X175574830Y-89289929D01*
X175574830Y-89289929D02*
X175471298Y-89180581D01*
X175471298Y-89180581D02*
X175344734Y-89134515D01*
X175344734Y-89134515D02*
X175238294Y-89131607D01*
X175238294Y-89131607D02*
X175045540Y-89168948D01*
X175045540Y-89168948D02*
X174916067Y-89229322D01*
X174916067Y-89229322D02*
X174763562Y-89352978D01*
X174763562Y-89352978D02*
X174697371Y-89436385D01*
X174697371Y-89436385D02*
X174651306Y-89562950D01*
X174651306Y-89562950D02*
X174668522Y-89712547D01*
X174668522Y-89712547D02*
X174769146Y-89928334D01*
X175186645Y-88682815D02*
X175209678Y-88619533D01*
X175209678Y-88619533D02*
X175212586Y-88513093D01*
X175212586Y-88513093D02*
X175111962Y-88297306D01*
X175111962Y-88297306D02*
X175028555Y-88231115D01*
X175028555Y-88231115D02*
X174965273Y-88208083D01*
X174965273Y-88208083D02*
X174858834Y-88205174D01*
X174858834Y-88205174D02*
X174772519Y-88245424D01*
X174772519Y-88245424D02*
X174663171Y-88348955D01*
X174663171Y-88348955D02*
X174386777Y-89108342D01*
X174386777Y-89108342D02*
X174125156Y-88547294D01*
X174367117Y-87488713D02*
X173762912Y-87770459D01*
X174813000Y-87543503D02*
X174266261Y-88061161D01*
X174266261Y-88061161D02*
X174004640Y-87500113D01*
X83398360Y-93709267D02*
X82492052Y-93286649D01*
X82492052Y-93286649D02*
X82391429Y-93502436D01*
X82391429Y-93502436D02*
X82374212Y-93652034D01*
X82374212Y-93652034D02*
X82420278Y-93778598D01*
X82420278Y-93778598D02*
X82486468Y-93862005D01*
X82486468Y-93862005D02*
X82638974Y-93985661D01*
X82638974Y-93985661D02*
X82768446Y-94046035D01*
X82768446Y-94046035D02*
X82961201Y-94083376D01*
X82961201Y-94083376D02*
X83067641Y-94080468D01*
X83067641Y-94080468D02*
X83194205Y-94034403D01*
X83194205Y-94034403D02*
X83297737Y-93925055D01*
X83297737Y-93925055D02*
X83398360Y-93709267D01*
X82175874Y-94190048D02*
X82112592Y-94213081D01*
X82112592Y-94213081D02*
X82029185Y-94279272D01*
X82029185Y-94279272D02*
X81928561Y-94495059D01*
X81928561Y-94495059D02*
X81931469Y-94601499D01*
X81931469Y-94601499D02*
X81954502Y-94664781D01*
X81954502Y-94664781D02*
X82020693Y-94748188D01*
X82020693Y-94748188D02*
X82107008Y-94788437D01*
X82107008Y-94788437D02*
X82256605Y-94805654D01*
X82256605Y-94805654D02*
X83015991Y-94529260D01*
X83015991Y-94529260D02*
X82754370Y-95090308D01*
X81707190Y-94969792D02*
X81445569Y-95530840D01*
X81445569Y-95530840D02*
X81931702Y-95389734D01*
X81931702Y-95389734D02*
X81871328Y-95519207D01*
X81871328Y-95519207D02*
X81874236Y-95625647D01*
X81874236Y-95625647D02*
X81897269Y-95688929D01*
X81897269Y-95688929D02*
X81963459Y-95772336D01*
X81963459Y-95772336D02*
X82179247Y-95872959D01*
X82179247Y-95872959D02*
X82285686Y-95870051D01*
X82285686Y-95870051D02*
X82348969Y-95847018D01*
X82348969Y-95847018D02*
X82432375Y-95780828D01*
X82432375Y-95780828D02*
X82553124Y-95521883D01*
X82553124Y-95521883D02*
X82550215Y-95415443D01*
X82550215Y-95415443D02*
X82527183Y-95352161D01*
X68065407Y-81514750D02*
X67159099Y-81092132D01*
X67159099Y-81092132D02*
X67058476Y-81307919D01*
X67058476Y-81307919D02*
X67041259Y-81457517D01*
X67041259Y-81457517D02*
X67087325Y-81584081D01*
X67087325Y-81584081D02*
X67153515Y-81667488D01*
X67153515Y-81667488D02*
X67306021Y-81791144D01*
X67306021Y-81791144D02*
X67435493Y-81851518D01*
X67435493Y-81851518D02*
X67628248Y-81888859D01*
X67628248Y-81888859D02*
X67734688Y-81885951D01*
X67734688Y-81885951D02*
X67861252Y-81839886D01*
X67861252Y-81839886D02*
X67964784Y-81730538D01*
X67964784Y-81730538D02*
X68065407Y-81514750D01*
X66842921Y-81995531D02*
X66779639Y-82018564D01*
X66779639Y-82018564D02*
X66696232Y-82084755D01*
X66696232Y-82084755D02*
X66595608Y-82300542D01*
X66595608Y-82300542D02*
X66598516Y-82406982D01*
X66598516Y-82406982D02*
X66621549Y-82470264D01*
X66621549Y-82470264D02*
X66687740Y-82553671D01*
X66687740Y-82553671D02*
X66774055Y-82593920D01*
X66774055Y-82593920D02*
X66923652Y-82611137D01*
X66923652Y-82611137D02*
X67683038Y-82334743D01*
X67683038Y-82334743D02*
X67421417Y-82895791D01*
X66440427Y-82858682D02*
X66377145Y-82881715D01*
X66377145Y-82881715D02*
X66293738Y-82947905D01*
X66293738Y-82947905D02*
X66193115Y-83163693D01*
X66193115Y-83163693D02*
X66196023Y-83270132D01*
X66196023Y-83270132D02*
X66219056Y-83333414D01*
X66219056Y-83333414D02*
X66285246Y-83416821D01*
X66285246Y-83416821D02*
X66371561Y-83457071D01*
X66371561Y-83457071D02*
X66521158Y-83474287D01*
X66521158Y-83474287D02*
X67280545Y-83197893D01*
X67280545Y-83197893D02*
X67018924Y-83758941D01*
X48868033Y-77607511D02*
X47961725Y-77184893D01*
X47961725Y-77184893D02*
X47861102Y-77400680D01*
X47861102Y-77400680D02*
X47843885Y-77550278D01*
X47843885Y-77550278D02*
X47889951Y-77676842D01*
X47889951Y-77676842D02*
X47956141Y-77760249D01*
X47956141Y-77760249D02*
X48108647Y-77883905D01*
X48108647Y-77883905D02*
X48238119Y-77944279D01*
X48238119Y-77944279D02*
X48430874Y-77981620D01*
X48430874Y-77981620D02*
X48537314Y-77978712D01*
X48537314Y-77978712D02*
X48663878Y-77932647D01*
X48663878Y-77932647D02*
X48767410Y-77823299D01*
X48767410Y-77823299D02*
X48868033Y-77607511D01*
X47645547Y-78088292D02*
X47582265Y-78111325D01*
X47582265Y-78111325D02*
X47498858Y-78177516D01*
X47498858Y-78177516D02*
X47398234Y-78393303D01*
X47398234Y-78393303D02*
X47401142Y-78499743D01*
X47401142Y-78499743D02*
X47424175Y-78563025D01*
X47424175Y-78563025D02*
X47490366Y-78646432D01*
X47490366Y-78646432D02*
X47576681Y-78686681D01*
X47576681Y-78686681D02*
X47726278Y-78703898D01*
X47726278Y-78703898D02*
X48485664Y-78427504D01*
X48485664Y-78427504D02*
X48224043Y-78988552D01*
X47821550Y-79851702D02*
X48063046Y-79333812D01*
X47942298Y-79592757D02*
X47035990Y-79170139D01*
X47035990Y-79170139D02*
X47205712Y-79144198D01*
X47205712Y-79144198D02*
X47332276Y-79098132D01*
X47332276Y-79098132D02*
X47415683Y-79031942D01*
X222592870Y-57258220D02*
X223499177Y-56835602D01*
X223499177Y-56835602D02*
X223398554Y-56619815D01*
X223398554Y-56619815D02*
X223295022Y-56510467D01*
X223295022Y-56510467D02*
X223168458Y-56464401D01*
X223168458Y-56464401D02*
X223062018Y-56461493D01*
X223062018Y-56461493D02*
X222869264Y-56498834D01*
X222869264Y-56498834D02*
X222739791Y-56559208D01*
X222739791Y-56559208D02*
X222587286Y-56682864D01*
X222587286Y-56682864D02*
X222521095Y-56766271D01*
X222521095Y-56766271D02*
X222475030Y-56892836D01*
X222475030Y-56892836D02*
X222492246Y-57042433D01*
X222492246Y-57042433D02*
X222592870Y-57258220D01*
X223010369Y-56012701D02*
X223033402Y-55949419D01*
X223033402Y-55949419D02*
X223036310Y-55842979D01*
X223036310Y-55842979D02*
X222935686Y-55627192D01*
X222935686Y-55627192D02*
X222852279Y-55561001D01*
X222852279Y-55561001D02*
X222788997Y-55537969D01*
X222788997Y-55537969D02*
X222682558Y-55535060D01*
X222682558Y-55535060D02*
X222596243Y-55575310D01*
X222596243Y-55575310D02*
X222486895Y-55678841D01*
X222486895Y-55678841D02*
X222210501Y-56438228D01*
X222210501Y-56438228D02*
X221948880Y-55877180D01*
X222593567Y-54893514D02*
X222553317Y-54807199D01*
X222553317Y-54807199D02*
X222469911Y-54741009D01*
X222469911Y-54741009D02*
X222406628Y-54717976D01*
X222406628Y-54717976D02*
X222300189Y-54715068D01*
X222300189Y-54715068D02*
X222107434Y-54752409D01*
X222107434Y-54752409D02*
X221891646Y-54853032D01*
X221891646Y-54853032D02*
X221739141Y-54976688D01*
X221739141Y-54976688D02*
X221672951Y-55060095D01*
X221672951Y-55060095D02*
X221649918Y-55123378D01*
X221649918Y-55123378D02*
X221647010Y-55229817D01*
X221647010Y-55229817D02*
X221687259Y-55316132D01*
X221687259Y-55316132D02*
X221770666Y-55382323D01*
X221770666Y-55382323D02*
X221833948Y-55405355D01*
X221833948Y-55405355D02*
X221940388Y-55408264D01*
X221940388Y-55408264D02*
X222133143Y-55370922D01*
X222133143Y-55370922D02*
X222348930Y-55270299D01*
X222348930Y-55270299D02*
X222501435Y-55146643D01*
X222501435Y-55146643D02*
X222567626Y-55063236D01*
X222567626Y-55063236D02*
X222590659Y-54999954D01*
X222590659Y-54999954D02*
X222593567Y-54893514D01*
X201355940Y-56791617D02*
X202262247Y-56368999D01*
X202262247Y-56368999D02*
X202161624Y-56153212D01*
X202161624Y-56153212D02*
X202058092Y-56043864D01*
X202058092Y-56043864D02*
X201931528Y-55997798D01*
X201931528Y-55997798D02*
X201825088Y-55994890D01*
X201825088Y-55994890D02*
X201632334Y-56032231D01*
X201632334Y-56032231D02*
X201502861Y-56092605D01*
X201502861Y-56092605D02*
X201350356Y-56216261D01*
X201350356Y-56216261D02*
X201284165Y-56299668D01*
X201284165Y-56299668D02*
X201238100Y-56426233D01*
X201238100Y-56426233D02*
X201255316Y-56575830D01*
X201255316Y-56575830D02*
X201355940Y-56791617D01*
X200711950Y-55410577D02*
X200953446Y-55928467D01*
X200832698Y-55669522D02*
X201739006Y-55246904D01*
X201739006Y-55246904D02*
X201649783Y-55393593D01*
X201649783Y-55393593D02*
X201603717Y-55520157D01*
X201603717Y-55520157D02*
X201600809Y-55626597D01*
X200510703Y-54979002D02*
X200430204Y-54806372D01*
X200430204Y-54806372D02*
X200433112Y-54699932D01*
X200433112Y-54699932D02*
X200456145Y-54636650D01*
X200456145Y-54636650D02*
X200545369Y-54489961D01*
X200545369Y-54489961D02*
X200697874Y-54366305D01*
X200697874Y-54366305D02*
X201043134Y-54205307D01*
X201043134Y-54205307D02*
X201149574Y-54208215D01*
X201149574Y-54208215D02*
X201212856Y-54231248D01*
X201212856Y-54231248D02*
X201296263Y-54297438D01*
X201296263Y-54297438D02*
X201376761Y-54470068D01*
X201376761Y-54470068D02*
X201373853Y-54576508D01*
X201373853Y-54576508D02*
X201350820Y-54639790D01*
X201350820Y-54639790D02*
X201284630Y-54723197D01*
X201284630Y-54723197D02*
X201068843Y-54823821D01*
X201068843Y-54823821D02*
X200962403Y-54820913D01*
X200962403Y-54820913D02*
X200899121Y-54797880D01*
X200899121Y-54797880D02*
X200815714Y-54731689D01*
X200815714Y-54731689D02*
X200735215Y-54559059D01*
X200735215Y-54559059D02*
X200738123Y-54452620D01*
X200738123Y-54452620D02*
X200761156Y-54389337D01*
X200761156Y-54389337D02*
X200827346Y-54305930D01*
X182051221Y-60468654D02*
X182957528Y-60046036D01*
X182957528Y-60046036D02*
X182856905Y-59830249D01*
X182856905Y-59830249D02*
X182753373Y-59720901D01*
X182753373Y-59720901D02*
X182626809Y-59674835D01*
X182626809Y-59674835D02*
X182520369Y-59671927D01*
X182520369Y-59671927D02*
X182327615Y-59709268D01*
X182327615Y-59709268D02*
X182198142Y-59769642D01*
X182198142Y-59769642D02*
X182045637Y-59893298D01*
X182045637Y-59893298D02*
X181979446Y-59976705D01*
X181979446Y-59976705D02*
X181933381Y-60103270D01*
X181933381Y-60103270D02*
X181950597Y-60252867D01*
X181950597Y-60252867D02*
X182051221Y-60468654D01*
X181407231Y-59087614D02*
X181648727Y-59605504D01*
X181527979Y-59346559D02*
X182434287Y-58923941D01*
X182434287Y-58923941D02*
X182345064Y-59070630D01*
X182345064Y-59070630D02*
X182298998Y-59197194D01*
X182298998Y-59197194D02*
X182296090Y-59303634D01*
X181683625Y-58328228D02*
X181767032Y-58394418D01*
X181767032Y-58394418D02*
X181830314Y-58417451D01*
X181830314Y-58417451D02*
X181936754Y-58420359D01*
X181936754Y-58420359D02*
X181979911Y-58400234D01*
X181979911Y-58400234D02*
X182046101Y-58316827D01*
X182046101Y-58316827D02*
X182069134Y-58253545D01*
X182069134Y-58253545D02*
X182072042Y-58147105D01*
X182072042Y-58147105D02*
X181991544Y-57974475D01*
X181991544Y-57974475D02*
X181908137Y-57908285D01*
X181908137Y-57908285D02*
X181844855Y-57885252D01*
X181844855Y-57885252D02*
X181738415Y-57882344D01*
X181738415Y-57882344D02*
X181695257Y-57902469D01*
X181695257Y-57902469D02*
X181629067Y-57985876D01*
X181629067Y-57985876D02*
X181606034Y-58049158D01*
X181606034Y-58049158D02*
X181603126Y-58155598D01*
X181603126Y-58155598D02*
X181683625Y-58328228D01*
X181683625Y-58328228D02*
X181680717Y-58434667D01*
X181680717Y-58434667D02*
X181657684Y-58497950D01*
X181657684Y-58497950D02*
X181591494Y-58581356D01*
X181591494Y-58581356D02*
X181418863Y-58661855D01*
X181418863Y-58661855D02*
X181312424Y-58658947D01*
X181312424Y-58658947D02*
X181249142Y-58635914D01*
X181249142Y-58635914D02*
X181165735Y-58569724D01*
X181165735Y-58569724D02*
X181085236Y-58397094D01*
X181085236Y-58397094D02*
X181088144Y-58290654D01*
X181088144Y-58290654D02*
X181111177Y-58227372D01*
X181111177Y-58227372D02*
X181177367Y-58143965D01*
X181177367Y-58143965D02*
X181349997Y-58063466D01*
X181349997Y-58063466D02*
X181456437Y-58066374D01*
X181456437Y-58066374D02*
X181519719Y-58089407D01*
X181519719Y-58089407D02*
X181603126Y-58155598D01*
X166825613Y-72893373D02*
X167731920Y-72470755D01*
X167731920Y-72470755D02*
X167631297Y-72254968D01*
X167631297Y-72254968D02*
X167527765Y-72145620D01*
X167527765Y-72145620D02*
X167401201Y-72099554D01*
X167401201Y-72099554D02*
X167294761Y-72096646D01*
X167294761Y-72096646D02*
X167102007Y-72133987D01*
X167102007Y-72133987D02*
X166972534Y-72194361D01*
X166972534Y-72194361D02*
X166820029Y-72318017D01*
X166820029Y-72318017D02*
X166753838Y-72401424D01*
X166753838Y-72401424D02*
X166707773Y-72527989D01*
X166707773Y-72527989D02*
X166724989Y-72677586D01*
X166724989Y-72677586D02*
X166825613Y-72893373D01*
X166181623Y-71512333D02*
X166423119Y-72030223D01*
X166302371Y-71771278D02*
X167208679Y-71348660D01*
X167208679Y-71348660D02*
X167119456Y-71495349D01*
X167119456Y-71495349D02*
X167073390Y-71621913D01*
X167073390Y-71621913D02*
X167070482Y-71728353D01*
X166947058Y-70787612D02*
X166665312Y-70183407D01*
X166665312Y-70183407D02*
X165940127Y-70994443D01*
X151492661Y-85087890D02*
X152398968Y-84665272D01*
X152398968Y-84665272D02*
X152298345Y-84449485D01*
X152298345Y-84449485D02*
X152194813Y-84340137D01*
X152194813Y-84340137D02*
X152068249Y-84294071D01*
X152068249Y-84294071D02*
X151961809Y-84291163D01*
X151961809Y-84291163D02*
X151769055Y-84328504D01*
X151769055Y-84328504D02*
X151639582Y-84388878D01*
X151639582Y-84388878D02*
X151487077Y-84512534D01*
X151487077Y-84512534D02*
X151420886Y-84595941D01*
X151420886Y-84595941D02*
X151374821Y-84722506D01*
X151374821Y-84722506D02*
X151392037Y-84872103D01*
X151392037Y-84872103D02*
X151492661Y-85087890D01*
X150848671Y-83706850D02*
X151090167Y-84224740D01*
X150969419Y-83965795D02*
X151875727Y-83543177D01*
X151875727Y-83543177D02*
X151786504Y-83689866D01*
X151786504Y-83689866D02*
X151740438Y-83816430D01*
X151740438Y-83816430D02*
X151737530Y-83922870D01*
X151392734Y-82507396D02*
X151473233Y-82680026D01*
X151473233Y-82680026D02*
X151470325Y-82786466D01*
X151470325Y-82786466D02*
X151447292Y-82849748D01*
X151447292Y-82849748D02*
X151358069Y-82996437D01*
X151358069Y-82996437D02*
X151205564Y-83120094D01*
X151205564Y-83120094D02*
X150860303Y-83281091D01*
X150860303Y-83281091D02*
X150753864Y-83278183D01*
X150753864Y-83278183D02*
X150690582Y-83255150D01*
X150690582Y-83255150D02*
X150607175Y-83188960D01*
X150607175Y-83188960D02*
X150526676Y-83016330D01*
X150526676Y-83016330D02*
X150529584Y-82909890D01*
X150529584Y-82909890D02*
X150552617Y-82846608D01*
X150552617Y-82846608D02*
X150618807Y-82763201D01*
X150618807Y-82763201D02*
X150834595Y-82662578D01*
X150834595Y-82662578D02*
X150941035Y-82665486D01*
X150941035Y-82665486D02*
X151004317Y-82688519D01*
X151004317Y-82688519D02*
X151087724Y-82754709D01*
X151087724Y-82754709D02*
X151168222Y-82927339D01*
X151168222Y-82927339D02*
X151165314Y-83033779D01*
X151165314Y-83033779D02*
X151142281Y-83097061D01*
X151142281Y-83097061D02*
X151076091Y-83180468D01*
X106674845Y-88868823D02*
X105768537Y-88446205D01*
X105768537Y-88446205D02*
X105667914Y-88661992D01*
X105667914Y-88661992D02*
X105650697Y-88811590D01*
X105650697Y-88811590D02*
X105696763Y-88938154D01*
X105696763Y-88938154D02*
X105762953Y-89021561D01*
X105762953Y-89021561D02*
X105915459Y-89145217D01*
X105915459Y-89145217D02*
X106044931Y-89205591D01*
X106044931Y-89205591D02*
X106237686Y-89242932D01*
X106237686Y-89242932D02*
X106344126Y-89240024D01*
X106344126Y-89240024D02*
X106470690Y-89193959D01*
X106470690Y-89193959D02*
X106574222Y-89084611D01*
X106574222Y-89084611D02*
X106674845Y-88868823D01*
X106030855Y-90249864D02*
X106272352Y-89731973D01*
X106151603Y-89990918D02*
X105245296Y-89568300D01*
X105245296Y-89568300D02*
X105415018Y-89542359D01*
X105415018Y-89542359D02*
X105541582Y-89496294D01*
X105541582Y-89496294D02*
X105624989Y-89430103D01*
X104742179Y-90647238D02*
X104943425Y-90215663D01*
X104943425Y-90215663D02*
X105395125Y-90373752D01*
X105395125Y-90373752D02*
X105331843Y-90396785D01*
X105331843Y-90396785D02*
X105248436Y-90462975D01*
X105248436Y-90462975D02*
X105147813Y-90678763D01*
X105147813Y-90678763D02*
X105150721Y-90785203D01*
X105150721Y-90785203D02*
X105173754Y-90848485D01*
X105173754Y-90848485D02*
X105239944Y-90931892D01*
X105239944Y-90931892D02*
X105455732Y-91032515D01*
X105455732Y-91032515D02*
X105562171Y-91029607D01*
X105562171Y-91029607D02*
X105625454Y-91006574D01*
X105625454Y-91006574D02*
X105708860Y-90940384D01*
X105708860Y-90940384D02*
X105809484Y-90724596D01*
X105809484Y-90724596D02*
X105806576Y-90618157D01*
X105806576Y-90618157D02*
X105783543Y-90554874D01*
X91341893Y-76674306D02*
X90435585Y-76251688D01*
X90435585Y-76251688D02*
X90334962Y-76467475D01*
X90334962Y-76467475D02*
X90317745Y-76617073D01*
X90317745Y-76617073D02*
X90363811Y-76743637D01*
X90363811Y-76743637D02*
X90430001Y-76827044D01*
X90430001Y-76827044D02*
X90582507Y-76950700D01*
X90582507Y-76950700D02*
X90711979Y-77011074D01*
X90711979Y-77011074D02*
X90904734Y-77048415D01*
X90904734Y-77048415D02*
X91011174Y-77045507D01*
X91011174Y-77045507D02*
X91137738Y-76999442D01*
X91137738Y-76999442D02*
X91241270Y-76890094D01*
X91241270Y-76890094D02*
X91341893Y-76674306D01*
X90697903Y-78055347D02*
X90939400Y-77537456D01*
X90818651Y-77796401D02*
X89912344Y-77373783D01*
X89912344Y-77373783D02*
X90082066Y-77347842D01*
X90082066Y-77347842D02*
X90208630Y-77301777D01*
X90208630Y-77301777D02*
X90292037Y-77235586D01*
X89731454Y-78550436D02*
X90335659Y-78832182D01*
X89486817Y-78173651D02*
X90234803Y-78259734D01*
X90234803Y-78259734D02*
X89973182Y-78820782D01*
X76116285Y-64249587D02*
X75209977Y-63826969D01*
X75209977Y-63826969D02*
X75109354Y-64042756D01*
X75109354Y-64042756D02*
X75092137Y-64192354D01*
X75092137Y-64192354D02*
X75138203Y-64318918D01*
X75138203Y-64318918D02*
X75204393Y-64402325D01*
X75204393Y-64402325D02*
X75356899Y-64525981D01*
X75356899Y-64525981D02*
X75486371Y-64586355D01*
X75486371Y-64586355D02*
X75679126Y-64623696D01*
X75679126Y-64623696D02*
X75785566Y-64620788D01*
X75785566Y-64620788D02*
X75912130Y-64574723D01*
X75912130Y-64574723D02*
X76015662Y-64465375D01*
X76015662Y-64465375D02*
X76116285Y-64249587D01*
X75472295Y-65630628D02*
X75713792Y-65112737D01*
X75593043Y-65371682D02*
X74686736Y-64949064D01*
X74686736Y-64949064D02*
X74856458Y-64923123D01*
X74856458Y-64923123D02*
X74983022Y-64877058D01*
X74983022Y-64877058D02*
X75066429Y-64810867D01*
X74425115Y-65510112D02*
X74163494Y-66071160D01*
X74163494Y-66071160D02*
X74649627Y-65930054D01*
X74649627Y-65930054D02*
X74589253Y-66059527D01*
X74589253Y-66059527D02*
X74592161Y-66165967D01*
X74592161Y-66165967D02*
X74615194Y-66229249D01*
X74615194Y-66229249D02*
X74681384Y-66312656D01*
X74681384Y-66312656D02*
X74897172Y-66413279D01*
X74897172Y-66413279D02*
X75003611Y-66410371D01*
X75003611Y-66410371D02*
X75066894Y-66387338D01*
X75066894Y-66387338D02*
X75150300Y-66321148D01*
X75150300Y-66321148D02*
X75271049Y-66062203D01*
X75271049Y-66062203D02*
X75268140Y-65955763D01*
X75268140Y-65955763D02*
X75245108Y-65892481D01*
X56864816Y-60458355D02*
X55958508Y-60035737D01*
X55958508Y-60035737D02*
X55857885Y-60251524D01*
X55857885Y-60251524D02*
X55840668Y-60401122D01*
X55840668Y-60401122D02*
X55886734Y-60527686D01*
X55886734Y-60527686D02*
X55952924Y-60611093D01*
X55952924Y-60611093D02*
X56105430Y-60734749D01*
X56105430Y-60734749D02*
X56234902Y-60795123D01*
X56234902Y-60795123D02*
X56427657Y-60832464D01*
X56427657Y-60832464D02*
X56534097Y-60829556D01*
X56534097Y-60829556D02*
X56660661Y-60783491D01*
X56660661Y-60783491D02*
X56764193Y-60674143D01*
X56764193Y-60674143D02*
X56864816Y-60458355D01*
X56220826Y-61839396D02*
X56462323Y-61321505D01*
X56341574Y-61580450D02*
X55435267Y-61157832D01*
X55435267Y-61157832D02*
X55604989Y-61131891D01*
X55604989Y-61131891D02*
X55731553Y-61085826D01*
X55731553Y-61085826D02*
X55814960Y-61019635D01*
X55239836Y-61802287D02*
X55176554Y-61825320D01*
X55176554Y-61825320D02*
X55093147Y-61891510D01*
X55093147Y-61891510D02*
X54992524Y-62107298D01*
X54992524Y-62107298D02*
X54995432Y-62213737D01*
X54995432Y-62213737D02*
X55018465Y-62277019D01*
X55018465Y-62277019D02*
X55084655Y-62360426D01*
X55084655Y-62360426D02*
X55170970Y-62400676D01*
X55170970Y-62400676D02*
X55320567Y-62417892D01*
X55320567Y-62417892D02*
X56079954Y-62141498D01*
X56079954Y-62141498D02*
X55818333Y-62702546D01*
X35521386Y-61153347D02*
X34615078Y-60730729D01*
X34615078Y-60730729D02*
X34514455Y-60946516D01*
X34514455Y-60946516D02*
X34497238Y-61096114D01*
X34497238Y-61096114D02*
X34543304Y-61222678D01*
X34543304Y-61222678D02*
X34609494Y-61306085D01*
X34609494Y-61306085D02*
X34762000Y-61429741D01*
X34762000Y-61429741D02*
X34891472Y-61490115D01*
X34891472Y-61490115D02*
X35084227Y-61527456D01*
X35084227Y-61527456D02*
X35190667Y-61524548D01*
X35190667Y-61524548D02*
X35317231Y-61478483D01*
X35317231Y-61478483D02*
X35420763Y-61369135D01*
X35420763Y-61369135D02*
X35521386Y-61153347D01*
X34877396Y-62534388D02*
X35118893Y-62016497D01*
X34998144Y-62275442D02*
X34091837Y-61852824D01*
X34091837Y-61852824D02*
X34261559Y-61826883D01*
X34261559Y-61826883D02*
X34388123Y-61780818D01*
X34388123Y-61780818D02*
X34471530Y-61714627D01*
X34474903Y-63397538D02*
X34716399Y-62879648D01*
X34595651Y-63138593D02*
X33689343Y-62715975D01*
X33689343Y-62715975D02*
X33859065Y-62690034D01*
X33859065Y-62690034D02*
X33985629Y-62643968D01*
X33985629Y-62643968D02*
X34069036Y-62577778D01*
X214541992Y-39993057D02*
X215448299Y-39570439D01*
X215448299Y-39570439D02*
X215347676Y-39354652D01*
X215347676Y-39354652D02*
X215244144Y-39245304D01*
X215244144Y-39245304D02*
X215117580Y-39199238D01*
X215117580Y-39199238D02*
X215011140Y-39196330D01*
X215011140Y-39196330D02*
X214818386Y-39233671D01*
X214818386Y-39233671D02*
X214688913Y-39294045D01*
X214688913Y-39294045D02*
X214536408Y-39417701D01*
X214536408Y-39417701D02*
X214470217Y-39501108D01*
X214470217Y-39501108D02*
X214424152Y-39627673D01*
X214424152Y-39627673D02*
X214441368Y-39777270D01*
X214441368Y-39777270D02*
X214541992Y-39993057D01*
X213898002Y-38612017D02*
X214139498Y-39129907D01*
X214018750Y-38870962D02*
X214925058Y-38448344D01*
X214925058Y-38448344D02*
X214835835Y-38595033D01*
X214835835Y-38595033D02*
X214789769Y-38721597D01*
X214789769Y-38721597D02*
X214786861Y-38828037D01*
X214542689Y-37628351D02*
X214502439Y-37542036D01*
X214502439Y-37542036D02*
X214419033Y-37475846D01*
X214419033Y-37475846D02*
X214355750Y-37452813D01*
X214355750Y-37452813D02*
X214249311Y-37449905D01*
X214249311Y-37449905D02*
X214056556Y-37487246D01*
X214056556Y-37487246D02*
X213840768Y-37587869D01*
X213840768Y-37587869D02*
X213688263Y-37711525D01*
X213688263Y-37711525D02*
X213622073Y-37794932D01*
X213622073Y-37794932D02*
X213599040Y-37858215D01*
X213599040Y-37858215D02*
X213596132Y-37964654D01*
X213596132Y-37964654D02*
X213636381Y-38050969D01*
X213636381Y-38050969D02*
X213719788Y-38117160D01*
X213719788Y-38117160D02*
X213783070Y-38140192D01*
X213783070Y-38140192D02*
X213889510Y-38143101D01*
X213889510Y-38143101D02*
X214082265Y-38105759D01*
X214082265Y-38105759D02*
X214298052Y-38005136D01*
X214298052Y-38005136D02*
X214450557Y-37881480D01*
X214450557Y-37881480D02*
X214516748Y-37798073D01*
X214516748Y-37798073D02*
X214539781Y-37734791D01*
X214539781Y-37734791D02*
X214542689Y-37628351D01*
X193050565Y-38980684D02*
X193956872Y-38558066D01*
X193956872Y-38558066D02*
X193856249Y-38342278D01*
X193856249Y-38342278D02*
X193752717Y-38232930D01*
X193752717Y-38232930D02*
X193626153Y-38186864D01*
X193626153Y-38186864D02*
X193519713Y-38183956D01*
X193519713Y-38183956D02*
X193326959Y-38221297D01*
X193326959Y-38221297D02*
X193197486Y-38281672D01*
X193197486Y-38281672D02*
X193044981Y-38405328D01*
X193044981Y-38405328D02*
X192978790Y-38488735D01*
X192978790Y-38488735D02*
X192932725Y-38615299D01*
X192932725Y-38615299D02*
X192949941Y-38764896D01*
X192949941Y-38764896D02*
X193050565Y-38980684D01*
X192607822Y-38031218D02*
X192527323Y-37858588D01*
X192527323Y-37858588D02*
X192530231Y-37752149D01*
X192530231Y-37752149D02*
X192553264Y-37688867D01*
X192553264Y-37688867D02*
X192642487Y-37542177D01*
X192642487Y-37542177D02*
X192794992Y-37418521D01*
X192794992Y-37418521D02*
X193140253Y-37257524D01*
X193140253Y-37257524D02*
X193246692Y-37260432D01*
X193246692Y-37260432D02*
X193309974Y-37283465D01*
X193309974Y-37283465D02*
X193393381Y-37349655D01*
X193393381Y-37349655D02*
X193473880Y-37522285D01*
X193473880Y-37522285D02*
X193470972Y-37628725D01*
X193470972Y-37628725D02*
X193447939Y-37692007D01*
X193447939Y-37692007D02*
X193381749Y-37775414D01*
X193381749Y-37775414D02*
X193165961Y-37876037D01*
X193165961Y-37876037D02*
X193059521Y-37873129D01*
X193059521Y-37873129D02*
X192996239Y-37850096D01*
X192996239Y-37850096D02*
X192912832Y-37783906D01*
X192912832Y-37783906D02*
X192832334Y-37611276D01*
X192832334Y-37611276D02*
X192835242Y-37504836D01*
X192835242Y-37504836D02*
X192858275Y-37441554D01*
X192858275Y-37441554D02*
X192924465Y-37358147D01*
X173799096Y-42771916D02*
X174705403Y-42349298D01*
X174705403Y-42349298D02*
X174604780Y-42133510D01*
X174604780Y-42133510D02*
X174501248Y-42024162D01*
X174501248Y-42024162D02*
X174374684Y-41978096D01*
X174374684Y-41978096D02*
X174268244Y-41975188D01*
X174268244Y-41975188D02*
X174075490Y-42012529D01*
X174075490Y-42012529D02*
X173946017Y-42072904D01*
X173946017Y-42072904D02*
X173793512Y-42196560D01*
X173793512Y-42196560D02*
X173727321Y-42279967D01*
X173727321Y-42279967D02*
X173681256Y-42406531D01*
X173681256Y-42406531D02*
X173698472Y-42556128D01*
X173698472Y-42556128D02*
X173799096Y-42771916D01*
X173833993Y-41494639D02*
X173917400Y-41560830D01*
X173917400Y-41560830D02*
X173980683Y-41583862D01*
X173980683Y-41583862D02*
X174087122Y-41586771D01*
X174087122Y-41586771D02*
X174130280Y-41566646D01*
X174130280Y-41566646D02*
X174196470Y-41483239D01*
X174196470Y-41483239D02*
X174219503Y-41419957D01*
X174219503Y-41419957D02*
X174222411Y-41313517D01*
X174222411Y-41313517D02*
X174141912Y-41140887D01*
X174141912Y-41140887D02*
X174058505Y-41074697D01*
X174058505Y-41074697D02*
X173995223Y-41051664D01*
X173995223Y-41051664D02*
X173888784Y-41048756D01*
X173888784Y-41048756D02*
X173845626Y-41068880D01*
X173845626Y-41068880D02*
X173779436Y-41152287D01*
X173779436Y-41152287D02*
X173756403Y-41215570D01*
X173756403Y-41215570D02*
X173753495Y-41322009D01*
X173753495Y-41322009D02*
X173833993Y-41494639D01*
X173833993Y-41494639D02*
X173831085Y-41601079D01*
X173831085Y-41601079D02*
X173808052Y-41664361D01*
X173808052Y-41664361D02*
X173741862Y-41747768D01*
X173741862Y-41747768D02*
X173569232Y-41828267D01*
X173569232Y-41828267D02*
X173462792Y-41825359D01*
X173462792Y-41825359D02*
X173399510Y-41802326D01*
X173399510Y-41802326D02*
X173316103Y-41736135D01*
X173316103Y-41736135D02*
X173235605Y-41563505D01*
X173235605Y-41563505D02*
X173238513Y-41457066D01*
X173238513Y-41457066D02*
X173261546Y-41393784D01*
X173261546Y-41393784D02*
X173327736Y-41310377D01*
X173327736Y-41310377D02*
X173500366Y-41229878D01*
X173500366Y-41229878D02*
X173606806Y-41232786D01*
X173606806Y-41232786D02*
X173670088Y-41255819D01*
X173670088Y-41255819D02*
X173753495Y-41322009D01*
X158466143Y-54966433D02*
X159372450Y-54543815D01*
X159372450Y-54543815D02*
X159271827Y-54328027D01*
X159271827Y-54328027D02*
X159168295Y-54218679D01*
X159168295Y-54218679D02*
X159041731Y-54172613D01*
X159041731Y-54172613D02*
X158935291Y-54169705D01*
X158935291Y-54169705D02*
X158742537Y-54207046D01*
X158742537Y-54207046D02*
X158613064Y-54267421D01*
X158613064Y-54267421D02*
X158460559Y-54391077D01*
X158460559Y-54391077D02*
X158394368Y-54474484D01*
X158394368Y-54474484D02*
X158348303Y-54601048D01*
X158348303Y-54601048D02*
X158365519Y-54750645D01*
X158365519Y-54750645D02*
X158466143Y-54966433D01*
X158990081Y-53723822D02*
X158708336Y-53119617D01*
X158708336Y-53119617D02*
X157983150Y-53930652D01*
X143240536Y-67391152D02*
X144146843Y-66968534D01*
X144146843Y-66968534D02*
X144046220Y-66752746D01*
X144046220Y-66752746D02*
X143942688Y-66643398D01*
X143942688Y-66643398D02*
X143816124Y-66597332D01*
X143816124Y-66597332D02*
X143709684Y-66594424D01*
X143709684Y-66594424D02*
X143516930Y-66631765D01*
X143516930Y-66631765D02*
X143387457Y-66692140D01*
X143387457Y-66692140D02*
X143234952Y-66815796D01*
X143234952Y-66815796D02*
X143168761Y-66899203D01*
X143168761Y-66899203D02*
X143122696Y-67025767D01*
X143122696Y-67025767D02*
X143139912Y-67175364D01*
X143139912Y-67175364D02*
X143240536Y-67391152D01*
X143543103Y-65673808D02*
X143623602Y-65846438D01*
X143623602Y-65846438D02*
X143620694Y-65952878D01*
X143620694Y-65952878D02*
X143597661Y-66016160D01*
X143597661Y-66016160D02*
X143508438Y-66162849D01*
X143508438Y-66162849D02*
X143355932Y-66286505D01*
X143355932Y-66286505D02*
X143010672Y-66447503D01*
X143010672Y-66447503D02*
X142904232Y-66444595D01*
X142904232Y-66444595D02*
X142840950Y-66421562D01*
X142840950Y-66421562D02*
X142757543Y-66355371D01*
X142757543Y-66355371D02*
X142677045Y-66182741D01*
X142677045Y-66182741D02*
X142679953Y-66076302D01*
X142679953Y-66076302D02*
X142702986Y-66013020D01*
X142702986Y-66013020D02*
X142769176Y-65929613D01*
X142769176Y-65929613D02*
X142984963Y-65828989D01*
X142984963Y-65828989D02*
X143091403Y-65831897D01*
X143091403Y-65831897D02*
X143154685Y-65854930D01*
X143154685Y-65854930D02*
X143238092Y-65921121D01*
X143238092Y-65921121D02*
X143318591Y-66093751D01*
X143318591Y-66093751D02*
X143315683Y-66200190D01*
X143315683Y-66200190D02*
X143292650Y-66263473D01*
X143292650Y-66263473D02*
X143226460Y-66346879D01*
X114524476Y-72035236D02*
X113618168Y-71612617D01*
X113618168Y-71612617D02*
X113517545Y-71828405D01*
X113517545Y-71828405D02*
X113500328Y-71978002D01*
X113500328Y-71978002D02*
X113546394Y-72104567D01*
X113546394Y-72104567D02*
X113612584Y-72187974D01*
X113612584Y-72187974D02*
X113765090Y-72311630D01*
X113765090Y-72311630D02*
X113894562Y-72372004D01*
X113894562Y-72372004D02*
X114087317Y-72409345D01*
X114087317Y-72409345D02*
X114193757Y-72406437D01*
X114193757Y-72406437D02*
X114320321Y-72360371D01*
X114320321Y-72360371D02*
X114423853Y-72251023D01*
X114423853Y-72251023D02*
X114524476Y-72035236D01*
X112994303Y-72950500D02*
X113195550Y-72518925D01*
X113195550Y-72518925D02*
X113647250Y-72677015D01*
X113647250Y-72677015D02*
X113583968Y-72700047D01*
X113583968Y-72700047D02*
X113500561Y-72766238D01*
X113500561Y-72766238D02*
X113399937Y-72982025D01*
X113399937Y-72982025D02*
X113402846Y-73088465D01*
X113402846Y-73088465D02*
X113425878Y-73151747D01*
X113425878Y-73151747D02*
X113492069Y-73235154D01*
X113492069Y-73235154D02*
X113707856Y-73335777D01*
X113707856Y-73335777D02*
X113814296Y-73332869D01*
X113814296Y-73332869D02*
X113877578Y-73309836D01*
X113877578Y-73309836D02*
X113960985Y-73243646D01*
X113960985Y-73243646D02*
X114061608Y-73027859D01*
X114061608Y-73027859D02*
X114058700Y-72921419D01*
X114058700Y-72921419D02*
X114035667Y-72858137D01*
X99298869Y-59610516D02*
X98392561Y-59187897D01*
X98392561Y-59187897D02*
X98291938Y-59403685D01*
X98291938Y-59403685D02*
X98274721Y-59553282D01*
X98274721Y-59553282D02*
X98320787Y-59679847D01*
X98320787Y-59679847D02*
X98386977Y-59763254D01*
X98386977Y-59763254D02*
X98539483Y-59886910D01*
X98539483Y-59886910D02*
X98668955Y-59947284D01*
X98668955Y-59947284D02*
X98861710Y-59984625D01*
X98861710Y-59984625D02*
X98968150Y-59981717D01*
X98968150Y-59981717D02*
X99094714Y-59935651D01*
X99094714Y-59935651D02*
X99198246Y-59826303D01*
X99198246Y-59826303D02*
X99298869Y-59610516D01*
X98090924Y-60623496D02*
X98695129Y-60905241D01*
X97846287Y-60246711D02*
X98594273Y-60332793D01*
X98594273Y-60332793D02*
X98332652Y-60893841D01*
X83965916Y-47415999D02*
X83059608Y-46993380D01*
X83059608Y-46993380D02*
X82958985Y-47209168D01*
X82958985Y-47209168D02*
X82941768Y-47358765D01*
X82941768Y-47358765D02*
X82987834Y-47485330D01*
X82987834Y-47485330D02*
X83054024Y-47568737D01*
X83054024Y-47568737D02*
X83206530Y-47692393D01*
X83206530Y-47692393D02*
X83336002Y-47752767D01*
X83336002Y-47752767D02*
X83528757Y-47790108D01*
X83528757Y-47790108D02*
X83635197Y-47787200D01*
X83635197Y-47787200D02*
X83761761Y-47741134D01*
X83761761Y-47741134D02*
X83865293Y-47631786D01*
X83865293Y-47631786D02*
X83965916Y-47415999D01*
X82677239Y-47813373D02*
X82415619Y-48374421D01*
X82415619Y-48374421D02*
X82901751Y-48233316D01*
X82901751Y-48233316D02*
X82841377Y-48362788D01*
X82841377Y-48362788D02*
X82844286Y-48469228D01*
X82844286Y-48469228D02*
X82867318Y-48532510D01*
X82867318Y-48532510D02*
X82933509Y-48615917D01*
X82933509Y-48615917D02*
X83149296Y-48716540D01*
X83149296Y-48716540D02*
X83255736Y-48713632D01*
X83255736Y-48713632D02*
X83319018Y-48690599D01*
X83319018Y-48690599D02*
X83402425Y-48624409D01*
X83402425Y-48624409D02*
X83523173Y-48365464D01*
X83523173Y-48365464D02*
X83520265Y-48259024D01*
X83520265Y-48259024D02*
X83497232Y-48195742D01*
X64714447Y-43624768D02*
X63808139Y-43202149D01*
X63808139Y-43202149D02*
X63707516Y-43417937D01*
X63707516Y-43417937D02*
X63690299Y-43567534D01*
X63690299Y-43567534D02*
X63736365Y-43694099D01*
X63736365Y-43694099D02*
X63802555Y-43777506D01*
X63802555Y-43777506D02*
X63955061Y-43901162D01*
X63955061Y-43901162D02*
X64084533Y-43961536D01*
X64084533Y-43961536D02*
X64277288Y-43998877D01*
X64277288Y-43998877D02*
X64383728Y-43995969D01*
X64383728Y-43995969D02*
X64510292Y-43949903D01*
X64510292Y-43949903D02*
X64613824Y-43840555D01*
X64613824Y-43840555D02*
X64714447Y-43624768D01*
X63491961Y-44105549D02*
X63428679Y-44128582D01*
X63428679Y-44128582D02*
X63345272Y-44194772D01*
X63345272Y-44194772D02*
X63244648Y-44410560D01*
X63244648Y-44410560D02*
X63247556Y-44517000D01*
X63247556Y-44517000D02*
X63270589Y-44580282D01*
X63270589Y-44580282D02*
X63336780Y-44663689D01*
X63336780Y-44663689D02*
X63423095Y-44703938D01*
X63423095Y-44703938D02*
X63572692Y-44721155D01*
X63572692Y-44721155D02*
X64332078Y-44444760D01*
X64332078Y-44444760D02*
X64070457Y-45005808D01*
X43424267Y-44205565D02*
X42517959Y-43782946D01*
X42517959Y-43782946D02*
X42417336Y-43998734D01*
X42417336Y-43998734D02*
X42400119Y-44148331D01*
X42400119Y-44148331D02*
X42446185Y-44274896D01*
X42446185Y-44274896D02*
X42512375Y-44358303D01*
X42512375Y-44358303D02*
X42664881Y-44481959D01*
X42664881Y-44481959D02*
X42794353Y-44542333D01*
X42794353Y-44542333D02*
X42987108Y-44579674D01*
X42987108Y-44579674D02*
X43093548Y-44576766D01*
X43093548Y-44576766D02*
X43220112Y-44530700D01*
X43220112Y-44530700D02*
X43323644Y-44421352D01*
X43323644Y-44421352D02*
X43424267Y-44205565D01*
X42780277Y-45586605D02*
X43021773Y-45068715D01*
X42901025Y-45327660D02*
X41994718Y-44905042D01*
X41994718Y-44905042D02*
X42164440Y-44879101D01*
X42164440Y-44879101D02*
X42291004Y-44833035D01*
X42291004Y-44833035D02*
X42374411Y-44766845D01*
D11*
X183109458Y-99366572D02*
G75*
G03*
X182142079Y-102024423I845237J-1812615D01*
G01*
X188419055Y-101524853D02*
G75*
G03*
X187451677Y-104182705I845237J-1812615D01*
G01*
X183109458Y-99366571D02*
X187731628Y-97211218D01*
X188419055Y-101524853D02*
X193041225Y-99369499D01*
X167857014Y-111733741D02*
G75*
G03*
X166889635Y-114391592I845237J-1812615D01*
G01*
X173166611Y-113892022D02*
G75*
G03*
X172199233Y-116549874I845237J-1812615D01*
G01*
X167857014Y-111733740D02*
X172479184Y-109578387D01*
X173166611Y-113892022D02*
X177788781Y-111736668D01*
X69019091Y-108265960D02*
G75*
G03*
X66361240Y-109233339I-845236J-1812616D01*
G01*
X70778694Y-113720665D02*
G75*
G03*
X68120844Y-114688043I-845236J-1812615D01*
G01*
X69019091Y-108265960D02*
X73641261Y-110421314D01*
X70778695Y-113720664D02*
X75400864Y-115876017D01*
X53766647Y-95898791D02*
G75*
G03*
X51108796Y-96866170I-845236J-1812616D01*
G01*
X55526250Y-101353496D02*
G75*
G03*
X52868400Y-102320874I-845236J-1812615D01*
G01*
X53766647Y-95898791D02*
X58388817Y-98054145D01*
X55526251Y-101353495D02*
X60148420Y-103508848D01*
X194627315Y-67721520D02*
G75*
G03*
X193659936Y-70379371I845237J-1812615D01*
G01*
X199936912Y-69879801D02*
G75*
G03*
X198969534Y-72537653I845237J-1812615D01*
G01*
X194627315Y-67721519D02*
X199249485Y-65566166D01*
X199936912Y-69879801D02*
X204559082Y-67724447D01*
X175349432Y-71456107D02*
G75*
G03*
X174382053Y-74113958I845237J-1812615D01*
G01*
X180659029Y-73614388D02*
G75*
G03*
X179691651Y-76272240I845237J-1812615D01*
G01*
X175349432Y-71456106D02*
X179971602Y-69300753D01*
X180659029Y-73614388D02*
X185281199Y-71459034D01*
X160096988Y-83823276D02*
G75*
G03*
X159129609Y-86481127I845237J-1812615D01*
G01*
X165406585Y-85981557D02*
G75*
G03*
X164439207Y-88639409I845237J-1812615D01*
G01*
X160096988Y-83823275D02*
X164719158Y-81667922D01*
X165406585Y-85981557D02*
X170028755Y-83826203D01*
X76779117Y-80355495D02*
G75*
G03*
X74121266Y-81322874I-845236J-1812616D01*
G01*
X78538720Y-85810200D02*
G75*
G03*
X75880870Y-86777578I-845236J-1812615D01*
G01*
X76779117Y-80355495D02*
X81401287Y-82510849D01*
X78538721Y-85810199D02*
X83160890Y-87965552D01*
X61526673Y-67988326D02*
G75*
G03*
X58868822Y-68955705I-845236J-1812616D01*
G01*
X63286276Y-73443031D02*
G75*
G03*
X60628426Y-74410409I-845236J-1812615D01*
G01*
X61526673Y-67988326D02*
X66148843Y-70143680D01*
X63286277Y-73443030D02*
X67908446Y-75598383D01*
X42248790Y-64253739D02*
G75*
G03*
X39590939Y-65221118I-845236J-1812616D01*
G01*
X44008393Y-69708444D02*
G75*
G03*
X41350543Y-70675822I-845236J-1812615D01*
G01*
X42248790Y-64253739D02*
X46870960Y-66409093D01*
X44008394Y-69708443D02*
X48630563Y-71863796D01*
X207867039Y-51038061D02*
G75*
G03*
X206899660Y-53695912I845237J-1812615D01*
G01*
X213176636Y-53196342D02*
G75*
G03*
X212209258Y-55854194I845237J-1812615D01*
G01*
X207867039Y-51038060D02*
X212489209Y-48882707D01*
X213176636Y-53196342D02*
X217798806Y-51040988D01*
X186576437Y-50456357D02*
G75*
G03*
X185609058Y-53114208I845237J-1812615D01*
G01*
X191886034Y-52614638D02*
G75*
G03*
X190918656Y-55272490I845237J-1812615D01*
G01*
X186576437Y-50456356D02*
X191198607Y-48301003D01*
X191886034Y-52614638D02*
X196508204Y-50459284D01*
X167298554Y-54190944D02*
G75*
G03*
X166331175Y-56848795I845237J-1812615D01*
G01*
X172608151Y-56349225D02*
G75*
G03*
X171640773Y-59007077I845237J-1812615D01*
G01*
X167298554Y-54190943D02*
X171920724Y-52035590D01*
X172608151Y-56349225D02*
X177230321Y-54193871D01*
X152046110Y-66558113D02*
G75*
G03*
X151078731Y-69215964I845237J-1812615D01*
G01*
X157355707Y-68716394D02*
G75*
G03*
X156388329Y-71374246I845237J-1812615D01*
G01*
X152046110Y-66558112D02*
X156668280Y-64402759D01*
X157355707Y-68716394D02*
X161977877Y-66561040D01*
X136793666Y-78925282D02*
G75*
G03*
X135826287Y-81583133I845237J-1812615D01*
G01*
X142103263Y-81083563D02*
G75*
G03*
X141135885Y-83741415I845237J-1812615D01*
G01*
X136793666Y-78925281D02*
X141415836Y-76769928D01*
X142103263Y-81083563D02*
X146725433Y-78928209D01*
X100082439Y-75457501D02*
G75*
G03*
X97424588Y-76424880I-845236J-1812616D01*
G01*
X101842042Y-80912206D02*
G75*
G03*
X99184192Y-81879584I-845236J-1812615D01*
G01*
X100082439Y-75457501D02*
X104704609Y-77612855D01*
X101842043Y-80912205D02*
X106464212Y-83067558D01*
X84829995Y-63090332D02*
G75*
G03*
X82172144Y-64057711I-845236J-1812616D01*
G01*
X86589598Y-68545037D02*
G75*
G03*
X83931748Y-69512415I-845236J-1812615D01*
G01*
X84829995Y-63090332D02*
X89452165Y-65245686D01*
X86589599Y-68545036D02*
X91211768Y-70700389D01*
X69577551Y-50723163D02*
G75*
G03*
X66919700Y-51690542I-845236J-1812616D01*
G01*
X71337154Y-56177868D02*
G75*
G03*
X68679304Y-57145246I-845236J-1812615D01*
G01*
X69577551Y-50723163D02*
X74199721Y-52878517D01*
X71337155Y-56177867D02*
X75959324Y-58333220D01*
X50299668Y-46988576D02*
G75*
G03*
X47641817Y-47955955I-845236J-1812616D01*
G01*
X52059271Y-52443281D02*
G75*
G03*
X49401421Y-53410659I-845236J-1812615D01*
G01*
X50299668Y-46988576D02*
X54921838Y-49143930D01*
X52059272Y-52443280D02*
X56681441Y-54598633D01*
X29009066Y-47570280D02*
G75*
G03*
X26351215Y-48537659I-845236J-1812616D01*
G01*
X30768669Y-53024985D02*
G75*
G03*
X28110819Y-53992363I-845236J-1812615D01*
G01*
X29009066Y-47570280D02*
X33631236Y-49725634D01*
X30768670Y-53024984D02*
X35390839Y-55180337D01*
X199816161Y-33772897D02*
G75*
G03*
X198848782Y-36430748I845237J-1812615D01*
G01*
X205125758Y-35931178D02*
G75*
G03*
X204158380Y-38589030I845237J-1812615D01*
G01*
X199816161Y-33772896D02*
X204438331Y-31617543D01*
X205125758Y-35931178D02*
X209747928Y-33775824D01*
X178525559Y-33191194D02*
G75*
G03*
X177558180Y-35849045I845237J-1812615D01*
G01*
X183835156Y-35349475D02*
G75*
G03*
X182867778Y-38007327I845237J-1812615D01*
G01*
X178525559Y-33191193D02*
X183147729Y-31035840D01*
X183835156Y-35349475D02*
X188457326Y-33194121D01*
X159247676Y-36925781D02*
G75*
G03*
X158280297Y-39583632I845237J-1812615D01*
G01*
X164557273Y-39084062D02*
G75*
G03*
X163589895Y-41741914I845237J-1812615D01*
G01*
X159247676Y-36925780D02*
X163869846Y-34770427D01*
X164557273Y-39084062D02*
X169179443Y-36928708D01*
X143995232Y-49292949D02*
G75*
G03*
X143027853Y-51950800I845237J-1812615D01*
G01*
X149304829Y-51451230D02*
G75*
G03*
X148337451Y-54109082I845237J-1812615D01*
G01*
X143995232Y-49292948D02*
X148617402Y-47137595D01*
X149304829Y-51451230D02*
X153926999Y-49295876D01*
X128742788Y-61660118D02*
G75*
G03*
X127775409Y-64317969I845237J-1812615D01*
G01*
X134052385Y-63818399D02*
G75*
G03*
X133085007Y-66476251I845237J-1812615D01*
G01*
X128742788Y-61660117D02*
X133364958Y-59504764D01*
X134052385Y-63818399D02*
X138674555Y-61663045D01*
X108133317Y-58192337D02*
G75*
G03*
X105475466Y-59159716I-845236J-1812616D01*
G01*
X109892920Y-63647042D02*
G75*
G03*
X107235070Y-64614420I-845236J-1812615D01*
G01*
X108133317Y-58192337D02*
X112755487Y-60347691D01*
X109892921Y-63647041D02*
X114515090Y-65802394D01*
X92880873Y-45825168D02*
G75*
G03*
X90223022Y-46792547I-845236J-1812616D01*
G01*
X94640476Y-51279873D02*
G75*
G03*
X91982626Y-52247251I-845236J-1812615D01*
G01*
X92880873Y-45825168D02*
X97503043Y-47980522D01*
X94640477Y-51279872D02*
X99262646Y-53435225D01*
X77628429Y-33458000D02*
G75*
G03*
X74970578Y-34425379I-845236J-1812616D01*
G01*
X79388032Y-38912705D02*
G75*
G03*
X76730182Y-39880083I-845236J-1812615D01*
G01*
X77628429Y-33458000D02*
X82250599Y-35613354D01*
X79388033Y-38912704D02*
X84010202Y-41068057D01*
X58350546Y-29723413D02*
G75*
G03*
X55692695Y-30690792I-845236J-1812616D01*
G01*
X60110149Y-35178118D02*
G75*
G03*
X57452299Y-36145496I-845236J-1812615D01*
G01*
X58350546Y-29723413D02*
X62972716Y-31878767D01*
X60110150Y-35178117D02*
X64732319Y-37333470D01*
X37059944Y-30305116D02*
G75*
G03*
X34402093Y-31272495I-845236J-1812616D01*
G01*
X38819547Y-35759821D02*
G75*
G03*
X36161697Y-36727199I-845236J-1812615D01*
G01*
X37059944Y-30305116D02*
X41682114Y-32460470D01*
X38819548Y-35759820D02*
X43441717Y-37915173D01*
X195993003Y-107639896D02*
X194298304Y-104005601D01*
X197805619Y-106794659D02*
X196110920Y-103160365D01*
X197805619Y-106794659D02*
X195993003Y-107639896D01*
X180767396Y-120064615D02*
X179072697Y-116430320D01*
X182580012Y-119219378D02*
X180885313Y-115585084D01*
X182580012Y-119219378D02*
X180767396Y-120064615D01*
X70935904Y-123510870D02*
X72630603Y-119876576D01*
X72748520Y-124356107D02*
X74443219Y-120721812D01*
X72748520Y-124356107D02*
X70935904Y-123510870D01*
X55710297Y-111086150D02*
X57404996Y-107451856D01*
X57522913Y-111931387D02*
X59217612Y-108297092D01*
X57522913Y-111931387D02*
X55710297Y-111086150D01*
X207484024Y-75937294D02*
X205789325Y-72302999D01*
X209296640Y-75092057D02*
X207601941Y-71457763D01*
X209296640Y-75092057D02*
X207484024Y-75937294D01*
X188286650Y-79844532D02*
X186591951Y-76210237D01*
X190099266Y-78999295D02*
X188404567Y-75365001D01*
X190099266Y-78999295D02*
X188286650Y-79844532D01*
X172953697Y-92039049D02*
X171258998Y-88404754D01*
X174766313Y-91193812D02*
X173071614Y-87559518D01*
X174766313Y-91193812D02*
X172953697Y-92039049D01*
X78749603Y-95485304D02*
X80444302Y-91851010D01*
X80562219Y-96330541D02*
X82256918Y-92696246D01*
X80562219Y-96330541D02*
X78749603Y-95485304D01*
X63416650Y-83290787D02*
X65111349Y-79656493D01*
X65229266Y-84136024D02*
X66923965Y-80501729D01*
X65229266Y-84136024D02*
X63416650Y-83290787D01*
X44219276Y-79383548D02*
X45913975Y-75749254D01*
X46031892Y-80228785D02*
X47726591Y-76594490D01*
X46031892Y-80228785D02*
X44219276Y-79383548D01*
X220777421Y-59368935D02*
X219082722Y-55734640D01*
X222590037Y-58523698D02*
X220895338Y-54889404D01*
X222590037Y-58523698D02*
X220777421Y-59368935D01*
X199540491Y-58902332D02*
X197845792Y-55268037D01*
X201353107Y-58057095D02*
X199658408Y-54422801D01*
X201353107Y-58057095D02*
X199540491Y-58902332D01*
X180235772Y-62579369D02*
X178541073Y-58945074D01*
X182048388Y-61734132D02*
X180353689Y-58099838D01*
X182048388Y-61734132D02*
X180235772Y-62579369D01*
X165010164Y-75004088D02*
X163315465Y-71369793D01*
X166822780Y-74158851D02*
X165128081Y-70524557D01*
X166822780Y-74158851D02*
X165010164Y-75004088D01*
X149677212Y-87198605D02*
X147982513Y-83564310D01*
X151489828Y-86353368D02*
X149795129Y-82719074D01*
X151489828Y-86353368D02*
X149677212Y-87198605D01*
X102026088Y-90644860D02*
X103720787Y-87010566D01*
X103838704Y-91490097D02*
X105533403Y-87855802D01*
X103838704Y-91490097D02*
X102026088Y-90644860D01*
X86693136Y-78450343D02*
X88387835Y-74816049D01*
X88505752Y-79295580D02*
X90200451Y-75661285D01*
X88505752Y-79295580D02*
X86693136Y-78450343D01*
X71467528Y-66025624D02*
X73162227Y-62391330D01*
X73280144Y-66870861D02*
X74974843Y-63236566D01*
X73280144Y-66870861D02*
X71467528Y-66025624D01*
X52216059Y-62234392D02*
X53910758Y-58600098D01*
X54028675Y-63079629D02*
X55723374Y-59445334D01*
X54028675Y-63079629D02*
X52216059Y-62234392D01*
X30872629Y-62929384D02*
X32567328Y-59295090D01*
X32685245Y-63774621D02*
X34379944Y-60140326D01*
X32685245Y-63774621D02*
X30872629Y-62929384D01*
X212726543Y-42103772D02*
X211031844Y-38469477D01*
X214539159Y-41258535D02*
X212844460Y-37624241D01*
X214539159Y-41258535D02*
X212726543Y-42103772D01*
X191436363Y-41522974D02*
X189741664Y-37888679D01*
X193248979Y-40677737D02*
X191554280Y-37043443D01*
X193248979Y-40677737D02*
X191436363Y-41522974D01*
X172184894Y-45314206D02*
X170490195Y-41679911D01*
X173997510Y-44468969D02*
X172302811Y-40834675D01*
X173997510Y-44468969D02*
X172184894Y-45314206D01*
X156851941Y-57508723D02*
X155157242Y-53874428D01*
X158664557Y-56663486D02*
X156969858Y-53029192D01*
X158664557Y-56663486D02*
X156851941Y-57508723D01*
X143438950Y-69088205D02*
X141626334Y-69933442D01*
X143438950Y-69088205D02*
X141744251Y-65453911D01*
X141626334Y-69933442D02*
X139931635Y-66299147D01*
X110076966Y-73379697D02*
X111771665Y-69745403D01*
X111889582Y-74224934D02*
X113584281Y-70590639D01*
X111889582Y-74224934D02*
X110076966Y-73379697D01*
X94851359Y-60954977D02*
X96546058Y-57320683D01*
X96663975Y-61800214D02*
X98358674Y-58165919D01*
X96663975Y-61800214D02*
X94851359Y-60954977D01*
X79518406Y-48760460D02*
X81213105Y-45126166D01*
X81331022Y-49605697D02*
X83025721Y-45971402D01*
X81331022Y-49605697D02*
X79518406Y-48760460D01*
X60266937Y-44969229D02*
X61961636Y-41334935D01*
X62079553Y-45814466D02*
X63774252Y-42180171D01*
X62079553Y-45814466D02*
X60266937Y-44969229D01*
X38976757Y-45550026D02*
X40671456Y-41915732D01*
X40789373Y-46395263D02*
X42484072Y-42760968D01*
X40789373Y-46395263D02*
X38976757Y-45550026D01*
%LPC*%
D12*
X113659000Y-34798000D03*
X113659000Y-37338000D03*
X113659000Y-39878000D03*
X113659000Y-42418000D03*
X113659000Y-44958000D03*
X113659000Y-47498000D03*
X113659000Y-50038000D03*
X113659000Y-52578000D03*
X113659000Y-55118000D03*
D13*
X117094000Y-56013000D03*
X119634000Y-56013000D03*
X122174000Y-56013000D03*
X124714000Y-56013000D03*
X127254000Y-56013000D03*
D12*
X130689000Y-55118000D03*
X130689000Y-52578000D03*
X130689000Y-50038000D03*
X130689000Y-47498000D03*
X130689000Y-44958000D03*
X130689000Y-42418000D03*
X130689000Y-39878000D03*
X130689000Y-37338000D03*
X130689000Y-34798000D03*
D14*
X185214903Y-103195514D03*
X189896507Y-98209866D03*
D15*
X182246745Y-104579589D03*
X192889135Y-96814381D03*
D16*
X189741386Y-103887360D03*
D17*
X185137342Y-106034261D03*
X194345430Y-101740459D03*
D14*
X169962459Y-115562683D03*
X174644063Y-110577035D03*
D15*
X166994301Y-116946758D03*
X177636691Y-109181550D03*
D16*
X174488942Y-116254529D03*
D17*
X169884898Y-118401430D03*
X179092986Y-114107628D03*
D14*
X67439305Y-112340022D03*
X74267810Y-112721626D03*
D18*
X64471147Y-110955947D03*
X77260438Y-114117111D03*
D16*
X69818887Y-116252219D03*
D17*
X65214843Y-114105318D03*
X74422931Y-118399120D03*
D14*
X52186861Y-99972853D03*
X59015366Y-100354457D03*
D18*
X49218703Y-98588778D03*
X62007994Y-101749942D03*
D16*
X54566443Y-103885050D03*
D17*
X49962399Y-101738149D03*
X59170487Y-106031951D03*
D14*
X196732760Y-71550462D03*
X201414364Y-66564814D03*
D15*
X193764602Y-72934537D03*
X204406992Y-65169329D03*
D16*
X201259243Y-72242308D03*
D17*
X196655199Y-74389209D03*
X205863287Y-70095407D03*
D14*
X177454877Y-75285049D03*
X182136481Y-70299401D03*
D15*
X174486719Y-76669124D03*
X185129109Y-68903916D03*
D16*
X181981360Y-75976895D03*
D17*
X177377316Y-78123796D03*
X186585404Y-73829994D03*
D14*
X162202433Y-87652218D03*
X166884037Y-82666570D03*
D15*
X159234275Y-89036293D03*
X169876665Y-81271085D03*
D16*
X166728916Y-88344064D03*
D17*
X162124872Y-90490965D03*
X171332960Y-86197163D03*
D14*
X75199331Y-84429557D03*
X82027836Y-84811161D03*
D18*
X72231173Y-83045482D03*
X85020464Y-86206646D03*
D16*
X77578913Y-88341754D03*
D17*
X72974869Y-86194853D03*
X82182957Y-90488655D03*
D14*
X59946887Y-72062388D03*
X66775392Y-72443992D03*
D18*
X56978729Y-70678313D03*
X69768020Y-73839477D03*
D16*
X62326469Y-75974585D03*
D17*
X57722425Y-73827684D03*
X66930513Y-78121486D03*
D14*
X40669004Y-68327801D03*
X47497509Y-68709405D03*
D18*
X37700846Y-66943726D03*
X50490137Y-70104890D03*
D16*
X43048586Y-72239998D03*
D17*
X38444542Y-70093097D03*
X47652630Y-74386899D03*
D14*
X209972484Y-54867003D03*
X214654088Y-49881355D03*
D15*
X207004326Y-56251078D03*
X217646716Y-48485870D03*
D16*
X214498967Y-55558849D03*
D17*
X209894923Y-57705750D03*
X219103011Y-53411948D03*
D14*
X188681882Y-54285299D03*
X193363486Y-49299651D03*
D15*
X185713724Y-55669374D03*
X196356114Y-47904166D03*
D16*
X193208365Y-54977145D03*
D17*
X188604321Y-57124046D03*
X197812409Y-52830244D03*
D14*
X169403999Y-58019886D03*
X174085603Y-53034238D03*
D15*
X166435841Y-59403961D03*
X177078231Y-51638753D03*
D16*
X173930482Y-58711732D03*
D17*
X169326438Y-60858633D03*
X178534526Y-56564831D03*
D14*
X154151555Y-70387055D03*
X158833159Y-65401407D03*
D15*
X151183397Y-71771130D03*
X161825787Y-64005922D03*
D16*
X158678038Y-71078901D03*
D17*
X154073994Y-73225802D03*
X163282082Y-68932000D03*
D14*
X138899111Y-82754224D03*
X143580715Y-77768576D03*
D15*
X135930953Y-84138299D03*
X146573343Y-76373091D03*
D16*
X143425594Y-83446070D03*
D17*
X138821550Y-85592971D03*
X148029638Y-81299169D03*
D14*
X98502653Y-79531563D03*
X105331158Y-79913167D03*
D18*
X95534495Y-78147488D03*
X108323786Y-81308652D03*
D16*
X100882235Y-83443760D03*
D17*
X96278191Y-81296859D03*
X105486279Y-85590661D03*
D14*
X83250209Y-67164394D03*
X90078714Y-67545998D03*
D18*
X80282051Y-65780319D03*
X93071342Y-68941483D03*
D16*
X85629791Y-71076591D03*
D17*
X81025747Y-68929690D03*
X90233835Y-73223492D03*
D14*
X67997765Y-54797225D03*
X74826270Y-55178829D03*
D18*
X65029607Y-53413150D03*
X77818898Y-56574314D03*
D16*
X70377347Y-58709422D03*
D17*
X65773303Y-56562521D03*
X74981391Y-60856323D03*
D14*
X48719882Y-51062638D03*
X55548387Y-51444242D03*
D18*
X45751724Y-49678563D03*
X58541015Y-52839727D03*
D16*
X51099464Y-54974835D03*
D17*
X46495420Y-52827934D03*
X55703508Y-57121736D03*
D14*
X27429280Y-51644342D03*
X34257785Y-52025946D03*
D18*
X24461122Y-50260267D03*
X37250413Y-53421431D03*
D16*
X29808862Y-55556539D03*
D17*
X25204818Y-53409638D03*
X34412906Y-57703440D03*
D14*
X201921606Y-37601839D03*
X206603210Y-32616191D03*
D15*
X198953448Y-38985914D03*
X209595838Y-31220706D03*
D16*
X206448089Y-38293685D03*
D17*
X201844045Y-40440586D03*
X211052133Y-36146784D03*
D14*
X180631004Y-37020136D03*
X185312608Y-32034488D03*
D15*
X177662846Y-38404211D03*
X188305236Y-30639003D03*
D16*
X185157487Y-37711982D03*
D17*
X180553443Y-39858883D03*
X189761531Y-35565081D03*
D14*
X161353121Y-40754723D03*
X166034725Y-35769075D03*
D15*
X158384963Y-42138798D03*
X169027353Y-34373590D03*
D16*
X165879604Y-41446569D03*
D17*
X161275560Y-43593470D03*
X170483648Y-39299668D03*
D14*
X146100677Y-53121891D03*
X150782281Y-48136243D03*
D15*
X143132519Y-54505966D03*
X153774909Y-46740758D03*
D16*
X150627160Y-53813737D03*
D17*
X146023116Y-55960638D03*
X155231204Y-51666836D03*
D14*
X130848233Y-65489060D03*
X135529837Y-60503412D03*
D15*
X127880075Y-66873135D03*
X138522465Y-59107927D03*
D16*
X135374716Y-66180906D03*
D17*
X130770672Y-68327807D03*
X139978760Y-64034005D03*
D14*
X106553531Y-62266399D03*
X113382036Y-62648003D03*
D18*
X103585373Y-60882324D03*
X116374664Y-64043488D03*
D16*
X108933113Y-66178596D03*
D17*
X104329069Y-64031695D03*
X113537157Y-68325497D03*
D14*
X91301087Y-49899230D03*
X98129592Y-50280834D03*
D18*
X88332929Y-48515155D03*
X101122220Y-51676319D03*
D16*
X93680669Y-53811427D03*
D17*
X89076625Y-51664526D03*
X98284713Y-55958328D03*
D14*
X76048643Y-37532062D03*
X82877148Y-37913666D03*
D18*
X73080485Y-36147987D03*
X85869776Y-39309151D03*
D16*
X78428225Y-41444259D03*
D17*
X73824181Y-39297358D03*
X83032269Y-43591160D03*
D14*
X56770760Y-33797475D03*
X63599265Y-34179079D03*
D18*
X53802602Y-32413400D03*
X66591893Y-35574564D03*
D16*
X59150342Y-37709672D03*
D17*
X54546298Y-35562771D03*
X63754386Y-39856573D03*
D14*
X35480158Y-34379178D03*
X42308663Y-34760782D03*
D18*
X32512000Y-32995103D03*
X45301291Y-36156267D03*
D16*
X37859740Y-38291375D03*
D17*
X33255696Y-36144474D03*
X42463784Y-40438276D03*
D19*
X196599252Y-106573799D03*
X195204612Y-103582983D03*
X181373645Y-118998518D03*
X179979005Y-116007702D03*
D20*
X72142271Y-123290010D03*
X73536911Y-120299194D03*
X56916664Y-110865290D03*
X58311304Y-107874474D03*
D19*
X208090273Y-74871197D03*
X206695633Y-71880381D03*
X188892899Y-78778435D03*
X187498259Y-75787619D03*
X173559946Y-90972952D03*
X172165306Y-87982136D03*
D20*
X79955970Y-95264444D03*
X81350610Y-92273628D03*
X64623017Y-83069927D03*
X66017657Y-80079111D03*
X45425643Y-79162688D03*
X46820283Y-76171872D03*
D19*
X221383670Y-58302838D03*
X219989030Y-55312022D03*
X200146740Y-57836235D03*
X198752100Y-54845419D03*
X180842021Y-61513272D03*
X179447381Y-58522456D03*
X165616413Y-73937991D03*
X164221773Y-70947175D03*
X150283461Y-86132508D03*
X148888821Y-83141692D03*
D20*
X103232455Y-90424000D03*
X104627095Y-87433184D03*
X87899503Y-78229483D03*
X89294143Y-75238667D03*
X72673895Y-65804764D03*
X74068535Y-62813948D03*
X53422426Y-62013532D03*
X54817066Y-59022716D03*
X32078996Y-62708524D03*
X33473636Y-59717708D03*
D19*
X213332792Y-41037675D03*
X211938152Y-38046859D03*
X192042612Y-40456877D03*
X190647972Y-37466061D03*
X172791143Y-44248109D03*
X171396503Y-41257293D03*
X157458190Y-56442626D03*
X156063550Y-53451810D03*
X140837943Y-65876529D03*
X142232583Y-68867345D03*
D20*
X111283333Y-73158837D03*
X112677973Y-70168021D03*
X96057726Y-60734117D03*
X97452366Y-57743301D03*
X80724773Y-48539600D03*
X82119413Y-45548784D03*
X61473304Y-44748369D03*
X62867944Y-41757553D03*
X40183124Y-45329166D03*
X41577764Y-42338350D03*
M02*
