G04 #@! TF.GenerationSoftware,KiCad,Pcbnew,7.0.1*
G04 #@! TF.CreationDate,2024-05-26T16:47:26-04:00*
G04 #@! TF.ProjectId,30,33302e6b-6963-4616-945f-706362585858,rev?*
G04 #@! TF.SameCoordinates,Original*
G04 #@! TF.FileFunction,Legend,Top*
G04 #@! TF.FilePolarity,Positive*
%FSLAX46Y46*%
G04 Gerber Fmt 4.6, Leading zero omitted, Abs format (unit mm)*
G04 Created by KiCad (PCBNEW 7.0.1) date 2024-05-26 16:47:26*
%MOMM*%
%LPD*%
G01*
G04 APERTURE LIST*
%ADD10C,0.150000*%
%ADD11C,0.120000*%
%ADD12O,3.290000X1.500000*%
%ADD13O,1.500000X3.290000*%
%ADD14C,3.050000*%
%ADD15C,4.000000*%
%ADD16C,1.750000*%
G04 APERTURE END LIST*
D10*
X118493809Y-71410476D02*
X118303333Y-71315238D01*
X118303333Y-71315238D02*
X118017619Y-71315238D01*
X118017619Y-71315238D02*
X117731904Y-71410476D01*
X117731904Y-71410476D02*
X117541428Y-71600952D01*
X117541428Y-71600952D02*
X117446190Y-71791428D01*
X117446190Y-71791428D02*
X117350952Y-72172380D01*
X117350952Y-72172380D02*
X117350952Y-72458095D01*
X117350952Y-72458095D02*
X117446190Y-72839047D01*
X117446190Y-72839047D02*
X117541428Y-73029523D01*
X117541428Y-73029523D02*
X117731904Y-73220000D01*
X117731904Y-73220000D02*
X118017619Y-73315238D01*
X118017619Y-73315238D02*
X118208095Y-73315238D01*
X118208095Y-73315238D02*
X118493809Y-73220000D01*
X118493809Y-73220000D02*
X118589047Y-73124761D01*
X118589047Y-73124761D02*
X118589047Y-72458095D01*
X118589047Y-72458095D02*
X118208095Y-72458095D01*
X119731904Y-73315238D02*
X119541428Y-73220000D01*
X119541428Y-73220000D02*
X119446190Y-73124761D01*
X119446190Y-73124761D02*
X119350952Y-72934285D01*
X119350952Y-72934285D02*
X119350952Y-72362857D01*
X119350952Y-72362857D02*
X119446190Y-72172380D01*
X119446190Y-72172380D02*
X119541428Y-72077142D01*
X119541428Y-72077142D02*
X119731904Y-71981904D01*
X119731904Y-71981904D02*
X120017619Y-71981904D01*
X120017619Y-71981904D02*
X120208095Y-72077142D01*
X120208095Y-72077142D02*
X120303333Y-72172380D01*
X120303333Y-72172380D02*
X120398571Y-72362857D01*
X120398571Y-72362857D02*
X120398571Y-72934285D01*
X120398571Y-72934285D02*
X120303333Y-73124761D01*
X120303333Y-73124761D02*
X120208095Y-73220000D01*
X120208095Y-73220000D02*
X120017619Y-73315238D01*
X120017619Y-73315238D02*
X119731904Y-73315238D01*
X121541428Y-73315238D02*
X121350952Y-73220000D01*
X121350952Y-73220000D02*
X121255714Y-73124761D01*
X121255714Y-73124761D02*
X121160476Y-72934285D01*
X121160476Y-72934285D02*
X121160476Y-72362857D01*
X121160476Y-72362857D02*
X121255714Y-72172380D01*
X121255714Y-72172380D02*
X121350952Y-72077142D01*
X121350952Y-72077142D02*
X121541428Y-71981904D01*
X121541428Y-71981904D02*
X121827143Y-71981904D01*
X121827143Y-71981904D02*
X122017619Y-72077142D01*
X122017619Y-72077142D02*
X122112857Y-72172380D01*
X122112857Y-72172380D02*
X122208095Y-72362857D01*
X122208095Y-72362857D02*
X122208095Y-72934285D01*
X122208095Y-72934285D02*
X122112857Y-73124761D01*
X122112857Y-73124761D02*
X122017619Y-73220000D01*
X122017619Y-73220000D02*
X121827143Y-73315238D01*
X121827143Y-73315238D02*
X121541428Y-73315238D01*
X123065238Y-73315238D02*
X123065238Y-71315238D01*
X123065238Y-72077142D02*
X123255714Y-71981904D01*
X123255714Y-71981904D02*
X123636667Y-71981904D01*
X123636667Y-71981904D02*
X123827143Y-72077142D01*
X123827143Y-72077142D02*
X123922381Y-72172380D01*
X123922381Y-72172380D02*
X124017619Y-72362857D01*
X124017619Y-72362857D02*
X124017619Y-72934285D01*
X124017619Y-72934285D02*
X123922381Y-73124761D01*
X123922381Y-73124761D02*
X123827143Y-73220000D01*
X123827143Y-73220000D02*
X123636667Y-73315238D01*
X123636667Y-73315238D02*
X123255714Y-73315238D01*
X123255714Y-73315238D02*
X123065238Y-73220000D01*
X125636667Y-73220000D02*
X125446191Y-73315238D01*
X125446191Y-73315238D02*
X125065238Y-73315238D01*
X125065238Y-73315238D02*
X124874762Y-73220000D01*
X124874762Y-73220000D02*
X124779524Y-73029523D01*
X124779524Y-73029523D02*
X124779524Y-72267619D01*
X124779524Y-72267619D02*
X124874762Y-72077142D01*
X124874762Y-72077142D02*
X125065238Y-71981904D01*
X125065238Y-71981904D02*
X125446191Y-71981904D01*
X125446191Y-71981904D02*
X125636667Y-72077142D01*
X125636667Y-72077142D02*
X125731905Y-72267619D01*
X125731905Y-72267619D02*
X125731905Y-72458095D01*
X125731905Y-72458095D02*
X124779524Y-72648571D01*
X126589048Y-73315238D02*
X126589048Y-71981904D01*
X126589048Y-72362857D02*
X126684286Y-72172380D01*
X126684286Y-72172380D02*
X126779524Y-72077142D01*
X126779524Y-72077142D02*
X126970000Y-71981904D01*
X126970000Y-71981904D02*
X127160477Y-71981904D01*
X114688095Y-78187619D02*
X114688095Y-77187619D01*
X115259523Y-78187619D02*
X114830952Y-77616190D01*
X115259523Y-77187619D02*
X114688095Y-77759047D01*
X116069047Y-78140000D02*
X115973809Y-78187619D01*
X115973809Y-78187619D02*
X115783333Y-78187619D01*
X115783333Y-78187619D02*
X115688095Y-78140000D01*
X115688095Y-78140000D02*
X115640476Y-78044761D01*
X115640476Y-78044761D02*
X115640476Y-77663809D01*
X115640476Y-77663809D02*
X115688095Y-77568571D01*
X115688095Y-77568571D02*
X115783333Y-77520952D01*
X115783333Y-77520952D02*
X115973809Y-77520952D01*
X115973809Y-77520952D02*
X116069047Y-77568571D01*
X116069047Y-77568571D02*
X116116666Y-77663809D01*
X116116666Y-77663809D02*
X116116666Y-77759047D01*
X116116666Y-77759047D02*
X115640476Y-77854285D01*
X116450000Y-77520952D02*
X116688095Y-78187619D01*
X116926190Y-77520952D02*
X116688095Y-78187619D01*
X116688095Y-78187619D02*
X116592857Y-78425714D01*
X116592857Y-78425714D02*
X116545238Y-78473333D01*
X116545238Y-78473333D02*
X116450000Y-78520952D01*
X117307143Y-78187619D02*
X117307143Y-77187619D01*
X117307143Y-77568571D02*
X117402381Y-77520952D01*
X117402381Y-77520952D02*
X117592857Y-77520952D01*
X117592857Y-77520952D02*
X117688095Y-77568571D01*
X117688095Y-77568571D02*
X117735714Y-77616190D01*
X117735714Y-77616190D02*
X117783333Y-77711428D01*
X117783333Y-77711428D02*
X117783333Y-77997142D01*
X117783333Y-77997142D02*
X117735714Y-78092380D01*
X117735714Y-78092380D02*
X117688095Y-78140000D01*
X117688095Y-78140000D02*
X117592857Y-78187619D01*
X117592857Y-78187619D02*
X117402381Y-78187619D01*
X117402381Y-78187619D02*
X117307143Y-78140000D01*
X118354762Y-78187619D02*
X118259524Y-78140000D01*
X118259524Y-78140000D02*
X118211905Y-78092380D01*
X118211905Y-78092380D02*
X118164286Y-77997142D01*
X118164286Y-77997142D02*
X118164286Y-77711428D01*
X118164286Y-77711428D02*
X118211905Y-77616190D01*
X118211905Y-77616190D02*
X118259524Y-77568571D01*
X118259524Y-77568571D02*
X118354762Y-77520952D01*
X118354762Y-77520952D02*
X118497619Y-77520952D01*
X118497619Y-77520952D02*
X118592857Y-77568571D01*
X118592857Y-77568571D02*
X118640476Y-77616190D01*
X118640476Y-77616190D02*
X118688095Y-77711428D01*
X118688095Y-77711428D02*
X118688095Y-77997142D01*
X118688095Y-77997142D02*
X118640476Y-78092380D01*
X118640476Y-78092380D02*
X118592857Y-78140000D01*
X118592857Y-78140000D02*
X118497619Y-78187619D01*
X118497619Y-78187619D02*
X118354762Y-78187619D01*
X119545238Y-78187619D02*
X119545238Y-77663809D01*
X119545238Y-77663809D02*
X119497619Y-77568571D01*
X119497619Y-77568571D02*
X119402381Y-77520952D01*
X119402381Y-77520952D02*
X119211905Y-77520952D01*
X119211905Y-77520952D02*
X119116667Y-77568571D01*
X119545238Y-78140000D02*
X119450000Y-78187619D01*
X119450000Y-78187619D02*
X119211905Y-78187619D01*
X119211905Y-78187619D02*
X119116667Y-78140000D01*
X119116667Y-78140000D02*
X119069048Y-78044761D01*
X119069048Y-78044761D02*
X119069048Y-77949523D01*
X119069048Y-77949523D02*
X119116667Y-77854285D01*
X119116667Y-77854285D02*
X119211905Y-77806666D01*
X119211905Y-77806666D02*
X119450000Y-77806666D01*
X119450000Y-77806666D02*
X119545238Y-77759047D01*
X120021429Y-78187619D02*
X120021429Y-77520952D01*
X120021429Y-77711428D02*
X120069048Y-77616190D01*
X120069048Y-77616190D02*
X120116667Y-77568571D01*
X120116667Y-77568571D02*
X120211905Y-77520952D01*
X120211905Y-77520952D02*
X120307143Y-77520952D01*
X121069048Y-78187619D02*
X121069048Y-77187619D01*
X121069048Y-78140000D02*
X120973810Y-78187619D01*
X120973810Y-78187619D02*
X120783334Y-78187619D01*
X120783334Y-78187619D02*
X120688096Y-78140000D01*
X120688096Y-78140000D02*
X120640477Y-78092380D01*
X120640477Y-78092380D02*
X120592858Y-77997142D01*
X120592858Y-77997142D02*
X120592858Y-77711428D01*
X120592858Y-77711428D02*
X120640477Y-77616190D01*
X120640477Y-77616190D02*
X120688096Y-77568571D01*
X120688096Y-77568571D02*
X120783334Y-77520952D01*
X120783334Y-77520952D02*
X120973810Y-77520952D01*
X120973810Y-77520952D02*
X121069048Y-77568571D01*
X121545239Y-78187619D02*
X121545239Y-77187619D01*
X121545239Y-77187619D02*
X121783334Y-77187619D01*
X121783334Y-77187619D02*
X121926191Y-77235238D01*
X121926191Y-77235238D02*
X122021429Y-77330476D01*
X122021429Y-77330476D02*
X122069048Y-77425714D01*
X122069048Y-77425714D02*
X122116667Y-77616190D01*
X122116667Y-77616190D02*
X122116667Y-77759047D01*
X122116667Y-77759047D02*
X122069048Y-77949523D01*
X122069048Y-77949523D02*
X122021429Y-78044761D01*
X122021429Y-78044761D02*
X121926191Y-78140000D01*
X121926191Y-78140000D02*
X121783334Y-78187619D01*
X121783334Y-78187619D02*
X121545239Y-78187619D01*
X122450001Y-77520952D02*
X122640477Y-78187619D01*
X122640477Y-78187619D02*
X122830953Y-77711428D01*
X122830953Y-77711428D02*
X123021429Y-78187619D01*
X123021429Y-78187619D02*
X123211905Y-77520952D01*
X123973810Y-78140000D02*
X123878572Y-78187619D01*
X123878572Y-78187619D02*
X123688096Y-78187619D01*
X123688096Y-78187619D02*
X123592858Y-78140000D01*
X123592858Y-78140000D02*
X123545239Y-78044761D01*
X123545239Y-78044761D02*
X123545239Y-77663809D01*
X123545239Y-77663809D02*
X123592858Y-77568571D01*
X123592858Y-77568571D02*
X123688096Y-77520952D01*
X123688096Y-77520952D02*
X123878572Y-77520952D01*
X123878572Y-77520952D02*
X123973810Y-77568571D01*
X123973810Y-77568571D02*
X124021429Y-77663809D01*
X124021429Y-77663809D02*
X124021429Y-77759047D01*
X124021429Y-77759047D02*
X123545239Y-77854285D01*
X124830953Y-78140000D02*
X124735715Y-78187619D01*
X124735715Y-78187619D02*
X124545239Y-78187619D01*
X124545239Y-78187619D02*
X124450001Y-78140000D01*
X124450001Y-78140000D02*
X124402382Y-78044761D01*
X124402382Y-78044761D02*
X124402382Y-77663809D01*
X124402382Y-77663809D02*
X124450001Y-77568571D01*
X124450001Y-77568571D02*
X124545239Y-77520952D01*
X124545239Y-77520952D02*
X124735715Y-77520952D01*
X124735715Y-77520952D02*
X124830953Y-77568571D01*
X124830953Y-77568571D02*
X124878572Y-77663809D01*
X124878572Y-77663809D02*
X124878572Y-77759047D01*
X124878572Y-77759047D02*
X124402382Y-77854285D01*
X125307144Y-78187619D02*
X125307144Y-77187619D01*
X125307144Y-77568571D02*
X125402382Y-77520952D01*
X125402382Y-77520952D02*
X125592858Y-77520952D01*
X125592858Y-77520952D02*
X125688096Y-77568571D01*
X125688096Y-77568571D02*
X125735715Y-77616190D01*
X125735715Y-77616190D02*
X125783334Y-77711428D01*
X125783334Y-77711428D02*
X125783334Y-77997142D01*
X125783334Y-77997142D02*
X125735715Y-78092380D01*
X125735715Y-78092380D02*
X125688096Y-78140000D01*
X125688096Y-78140000D02*
X125592858Y-78187619D01*
X125592858Y-78187619D02*
X125402382Y-78187619D01*
X125402382Y-78187619D02*
X125307144Y-78140000D01*
X126164287Y-78140000D02*
X126259525Y-78187619D01*
X126259525Y-78187619D02*
X126450001Y-78187619D01*
X126450001Y-78187619D02*
X126545239Y-78140000D01*
X126545239Y-78140000D02*
X126592858Y-78044761D01*
X126592858Y-78044761D02*
X126592858Y-77997142D01*
X126592858Y-77997142D02*
X126545239Y-77901904D01*
X126545239Y-77901904D02*
X126450001Y-77854285D01*
X126450001Y-77854285D02*
X126307144Y-77854285D01*
X126307144Y-77854285D02*
X126211906Y-77806666D01*
X126211906Y-77806666D02*
X126164287Y-77711428D01*
X126164287Y-77711428D02*
X126164287Y-77663809D01*
X126164287Y-77663809D02*
X126211906Y-77568571D01*
X126211906Y-77568571D02*
X126307144Y-77520952D01*
X126307144Y-77520952D02*
X126450001Y-77520952D01*
X126450001Y-77520952D02*
X126545239Y-77568571D01*
X127021430Y-78092380D02*
X127069049Y-78140000D01*
X127069049Y-78140000D02*
X127021430Y-78187619D01*
X127021430Y-78187619D02*
X126973811Y-78140000D01*
X126973811Y-78140000D02*
X127021430Y-78092380D01*
X127021430Y-78092380D02*
X127021430Y-78187619D01*
X127497620Y-77520952D02*
X127497620Y-78187619D01*
X127497620Y-77616190D02*
X127545239Y-77568571D01*
X127545239Y-77568571D02*
X127640477Y-77520952D01*
X127640477Y-77520952D02*
X127783334Y-77520952D01*
X127783334Y-77520952D02*
X127878572Y-77568571D01*
X127878572Y-77568571D02*
X127926191Y-77663809D01*
X127926191Y-77663809D02*
X127926191Y-78187619D01*
X128783334Y-78140000D02*
X128688096Y-78187619D01*
X128688096Y-78187619D02*
X128497620Y-78187619D01*
X128497620Y-78187619D02*
X128402382Y-78140000D01*
X128402382Y-78140000D02*
X128354763Y-78044761D01*
X128354763Y-78044761D02*
X128354763Y-77663809D01*
X128354763Y-77663809D02*
X128402382Y-77568571D01*
X128402382Y-77568571D02*
X128497620Y-77520952D01*
X128497620Y-77520952D02*
X128688096Y-77520952D01*
X128688096Y-77520952D02*
X128783334Y-77568571D01*
X128783334Y-77568571D02*
X128830953Y-77663809D01*
X128830953Y-77663809D02*
X128830953Y-77759047D01*
X128830953Y-77759047D02*
X128354763Y-77854285D01*
X129116668Y-77520952D02*
X129497620Y-77520952D01*
X129259525Y-77187619D02*
X129259525Y-78044761D01*
X129259525Y-78044761D02*
X129307144Y-78140000D01*
X129307144Y-78140000D02*
X129402382Y-78187619D01*
X129402382Y-78187619D02*
X129497620Y-78187619D01*
X184895841Y-97777753D02*
X185045438Y-97760537D01*
X185045438Y-97760537D02*
X185261225Y-97659913D01*
X185261225Y-97659913D02*
X185327416Y-97576506D01*
X185327416Y-97576506D02*
X185350449Y-97513224D01*
X185350449Y-97513224D02*
X185353357Y-97406784D01*
X185353357Y-97406784D02*
X185313107Y-97320469D01*
X185313107Y-97320469D02*
X185229700Y-97254279D01*
X185229700Y-97254279D02*
X185166418Y-97231246D01*
X185166418Y-97231246D02*
X185059979Y-97228338D01*
X185059979Y-97228338D02*
X184867224Y-97265679D01*
X184867224Y-97265679D02*
X184760784Y-97262771D01*
X184760784Y-97262771D02*
X184697502Y-97239738D01*
X184697502Y-97239738D02*
X184614095Y-97173548D01*
X184614095Y-97173548D02*
X184573846Y-97087233D01*
X184573846Y-97087233D02*
X184576754Y-96980793D01*
X184576754Y-96980793D02*
X184599787Y-96917511D01*
X184599787Y-96917511D02*
X184665977Y-96834104D01*
X184665977Y-96834104D02*
X184881765Y-96733481D01*
X184881765Y-96733481D02*
X185031362Y-96716264D01*
X185313340Y-96532234D02*
X185951746Y-97337918D01*
X185951746Y-97337918D02*
X185822505Y-96610057D01*
X185822505Y-96610057D02*
X186297006Y-97176921D01*
X186297006Y-97176921D02*
X186090175Y-96169990D01*
X186349120Y-96049242D02*
X186910168Y-95787621D01*
X186910168Y-95787621D02*
X186769062Y-96273754D01*
X186769062Y-96273754D02*
X186898535Y-96213380D01*
X186898535Y-96213380D02*
X187004975Y-96216288D01*
X187004975Y-96216288D02*
X187068257Y-96239321D01*
X187068257Y-96239321D02*
X187151664Y-96305511D01*
X187151664Y-96305511D02*
X187252287Y-96521299D01*
X187252287Y-96521299D02*
X187249379Y-96627738D01*
X187249379Y-96627738D02*
X187226346Y-96691020D01*
X187226346Y-96691020D02*
X187160156Y-96774427D01*
X187160156Y-96774427D02*
X186901211Y-96895175D01*
X186901211Y-96895175D02*
X186794771Y-96892267D01*
X186794771Y-96892267D02*
X186731489Y-96869234D01*
X187471215Y-95526000D02*
X187557530Y-95485751D01*
X187557530Y-95485751D02*
X187663970Y-95488659D01*
X187663970Y-95488659D02*
X187727252Y-95511692D01*
X187727252Y-95511692D02*
X187810659Y-95577882D01*
X187810659Y-95577882D02*
X187934315Y-95730387D01*
X187934315Y-95730387D02*
X188034939Y-95946175D01*
X188034939Y-95946175D02*
X188072280Y-96138930D01*
X188072280Y-96138930D02*
X188069372Y-96245369D01*
X188069372Y-96245369D02*
X188046339Y-96308651D01*
X188046339Y-96308651D02*
X187980149Y-96392058D01*
X187980149Y-96392058D02*
X187893834Y-96432308D01*
X187893834Y-96432308D02*
X187787394Y-96429400D01*
X187787394Y-96429400D02*
X187724112Y-96406367D01*
X187724112Y-96406367D02*
X187640705Y-96340176D01*
X187640705Y-96340176D02*
X187517049Y-96187671D01*
X187517049Y-96187671D02*
X187416425Y-95971883D01*
X187416425Y-95971883D02*
X187379084Y-95779129D01*
X187379084Y-95779129D02*
X187381992Y-95672689D01*
X187381992Y-95672689D02*
X187405025Y-95609407D01*
X187405025Y-95609407D02*
X187471215Y-95526000D01*
X169643397Y-110144922D02*
X169792994Y-110127706D01*
X169792994Y-110127706D02*
X170008781Y-110027082D01*
X170008781Y-110027082D02*
X170074972Y-109943675D01*
X170074972Y-109943675D02*
X170098005Y-109880393D01*
X170098005Y-109880393D02*
X170100913Y-109773953D01*
X170100913Y-109773953D02*
X170060663Y-109687638D01*
X170060663Y-109687638D02*
X169977256Y-109621448D01*
X169977256Y-109621448D02*
X169913974Y-109598415D01*
X169913974Y-109598415D02*
X169807535Y-109595507D01*
X169807535Y-109595507D02*
X169614780Y-109632848D01*
X169614780Y-109632848D02*
X169508340Y-109629940D01*
X169508340Y-109629940D02*
X169445058Y-109606907D01*
X169445058Y-109606907D02*
X169361651Y-109540717D01*
X169361651Y-109540717D02*
X169321402Y-109454402D01*
X169321402Y-109454402D02*
X169324310Y-109347962D01*
X169324310Y-109347962D02*
X169347343Y-109284680D01*
X169347343Y-109284680D02*
X169413533Y-109201273D01*
X169413533Y-109201273D02*
X169629321Y-109100650D01*
X169629321Y-109100650D02*
X169778918Y-109083433D01*
X170060896Y-108899403D02*
X170699302Y-109705087D01*
X170699302Y-109705087D02*
X170570061Y-108977226D01*
X170570061Y-108977226D02*
X171044562Y-109544090D01*
X171044562Y-109544090D02*
X170837731Y-108537159D01*
X171180083Y-108482601D02*
X171203116Y-108419319D01*
X171203116Y-108419319D02*
X171269306Y-108335912D01*
X171269306Y-108335912D02*
X171485094Y-108235288D01*
X171485094Y-108235288D02*
X171591533Y-108238197D01*
X171591533Y-108238197D02*
X171654816Y-108261229D01*
X171654816Y-108261229D02*
X171738222Y-108327420D01*
X171738222Y-108327420D02*
X171778472Y-108413735D01*
X171778472Y-108413735D02*
X171795688Y-108563332D01*
X171795688Y-108563332D02*
X171519294Y-109322718D01*
X171519294Y-109322718D02*
X172080342Y-109061098D01*
X172511917Y-108859851D02*
X172684547Y-108779352D01*
X172684547Y-108779352D02*
X172750738Y-108695945D01*
X172750738Y-108695945D02*
X172773770Y-108632663D01*
X172773770Y-108632663D02*
X172799711Y-108462941D01*
X172799711Y-108462941D02*
X172762370Y-108270186D01*
X172762370Y-108270186D02*
X172601373Y-107924926D01*
X172601373Y-107924926D02*
X172517966Y-107858736D01*
X172517966Y-107858736D02*
X172454684Y-107835703D01*
X172454684Y-107835703D02*
X172348244Y-107832795D01*
X172348244Y-107832795D02*
X172175614Y-107913294D01*
X172175614Y-107913294D02*
X172109424Y-107996700D01*
X172109424Y-107996700D02*
X172086391Y-108059983D01*
X172086391Y-108059983D02*
X172083483Y-108166422D01*
X172083483Y-108166422D02*
X172184106Y-108382210D01*
X172184106Y-108382210D02*
X172267513Y-108448400D01*
X172267513Y-108448400D02*
X172330795Y-108471433D01*
X172330795Y-108471433D02*
X172437235Y-108474341D01*
X172437235Y-108474341D02*
X172609865Y-108393843D01*
X172609865Y-108393843D02*
X172676055Y-108310436D01*
X172676055Y-108310436D02*
X172699088Y-108247154D01*
X172699088Y-108247154D02*
X172701996Y-108140714D01*
X71384460Y-108613136D02*
X71493808Y-108716668D01*
X71493808Y-108716668D02*
X71709596Y-108817291D01*
X71709596Y-108817291D02*
X71816036Y-108814383D01*
X71816036Y-108814383D02*
X71879318Y-108791350D01*
X71879318Y-108791350D02*
X71962725Y-108725160D01*
X71962725Y-108725160D02*
X72002974Y-108638845D01*
X72002974Y-108638845D02*
X72000066Y-108532405D01*
X72000066Y-108532405D02*
X71977033Y-108469123D01*
X71977033Y-108469123D02*
X71910843Y-108385716D01*
X71910843Y-108385716D02*
X71758337Y-108262060D01*
X71758337Y-108262060D02*
X71692147Y-108178653D01*
X71692147Y-108178653D02*
X71669114Y-108115371D01*
X71669114Y-108115371D02*
X71666206Y-108008931D01*
X71666206Y-108008931D02*
X71706455Y-107922616D01*
X71706455Y-107922616D02*
X71789862Y-107856426D01*
X71789862Y-107856426D02*
X71853144Y-107833393D01*
X71853144Y-107833393D02*
X71959584Y-107830485D01*
X71959584Y-107830485D02*
X72175372Y-107931108D01*
X72175372Y-107931108D02*
X72284719Y-108034640D01*
X72606947Y-108132355D02*
X72400116Y-109139286D01*
X72400116Y-109139286D02*
X72874616Y-108572422D01*
X72874616Y-108572422D02*
X72745376Y-109300284D01*
X72745376Y-109300284D02*
X73383782Y-108494599D01*
X73645635Y-108721787D02*
X73708917Y-108698754D01*
X73708917Y-108698754D02*
X73815357Y-108695846D01*
X73815357Y-108695846D02*
X74031145Y-108796469D01*
X74031145Y-108796469D02*
X74097335Y-108879876D01*
X74097335Y-108879876D02*
X74120368Y-108943158D01*
X74120368Y-108943158D02*
X74123276Y-109049598D01*
X74123276Y-109049598D02*
X74083027Y-109135913D01*
X74083027Y-109135913D02*
X73979495Y-109245261D01*
X73979495Y-109245261D02*
X73220109Y-109521655D01*
X73220109Y-109521655D02*
X73781156Y-109783276D01*
X74540543Y-109506882D02*
X74474352Y-109423475D01*
X74474352Y-109423475D02*
X74451320Y-109360193D01*
X74451320Y-109360193D02*
X74448411Y-109253753D01*
X74448411Y-109253753D02*
X74468536Y-109210596D01*
X74468536Y-109210596D02*
X74551943Y-109144405D01*
X74551943Y-109144405D02*
X74615225Y-109121372D01*
X74615225Y-109121372D02*
X74721665Y-109118464D01*
X74721665Y-109118464D02*
X74894295Y-109198963D01*
X74894295Y-109198963D02*
X74960485Y-109282370D01*
X74960485Y-109282370D02*
X74983518Y-109345652D01*
X74983518Y-109345652D02*
X74986426Y-109452092D01*
X74986426Y-109452092D02*
X74966302Y-109495249D01*
X74966302Y-109495249D02*
X74882895Y-109561440D01*
X74882895Y-109561440D02*
X74819613Y-109584472D01*
X74819613Y-109584472D02*
X74713173Y-109587381D01*
X74713173Y-109587381D02*
X74540543Y-109506882D01*
X74540543Y-109506882D02*
X74434103Y-109509790D01*
X74434103Y-109509790D02*
X74370821Y-109532823D01*
X74370821Y-109532823D02*
X74287414Y-109599013D01*
X74287414Y-109599013D02*
X74206915Y-109771643D01*
X74206915Y-109771643D02*
X74209823Y-109878083D01*
X74209823Y-109878083D02*
X74232856Y-109941365D01*
X74232856Y-109941365D02*
X74299047Y-110024772D01*
X74299047Y-110024772D02*
X74471677Y-110105271D01*
X74471677Y-110105271D02*
X74578116Y-110102363D01*
X74578116Y-110102363D02*
X74641399Y-110079330D01*
X74641399Y-110079330D02*
X74724805Y-110013139D01*
X74724805Y-110013139D02*
X74805304Y-109840509D01*
X74805304Y-109840509D02*
X74802396Y-109734070D01*
X74802396Y-109734070D02*
X74779363Y-109670788D01*
X74779363Y-109670788D02*
X74713173Y-109587381D01*
X56132016Y-96245967D02*
X56241364Y-96349499D01*
X56241364Y-96349499D02*
X56457152Y-96450122D01*
X56457152Y-96450122D02*
X56563592Y-96447214D01*
X56563592Y-96447214D02*
X56626874Y-96424181D01*
X56626874Y-96424181D02*
X56710281Y-96357991D01*
X56710281Y-96357991D02*
X56750530Y-96271676D01*
X56750530Y-96271676D02*
X56747622Y-96165236D01*
X56747622Y-96165236D02*
X56724589Y-96101954D01*
X56724589Y-96101954D02*
X56658399Y-96018547D01*
X56658399Y-96018547D02*
X56505893Y-95894891D01*
X56505893Y-95894891D02*
X56439703Y-95811484D01*
X56439703Y-95811484D02*
X56416670Y-95748202D01*
X56416670Y-95748202D02*
X56413762Y-95641762D01*
X56413762Y-95641762D02*
X56454011Y-95555447D01*
X56454011Y-95555447D02*
X56537418Y-95489257D01*
X56537418Y-95489257D02*
X56600700Y-95466224D01*
X56600700Y-95466224D02*
X56707140Y-95463316D01*
X56707140Y-95463316D02*
X56922928Y-95563939D01*
X56922928Y-95563939D02*
X57032275Y-95667471D01*
X57354503Y-95765186D02*
X57147672Y-96772117D01*
X57147672Y-96772117D02*
X57622172Y-96205253D01*
X57622172Y-96205253D02*
X57492932Y-96933115D01*
X57492932Y-96933115D02*
X58131338Y-96127430D01*
X58393191Y-96354618D02*
X58456473Y-96331585D01*
X58456473Y-96331585D02*
X58562913Y-96328677D01*
X58562913Y-96328677D02*
X58778701Y-96429300D01*
X58778701Y-96429300D02*
X58844891Y-96512707D01*
X58844891Y-96512707D02*
X58867924Y-96575989D01*
X58867924Y-96575989D02*
X58870832Y-96682429D01*
X58870832Y-96682429D02*
X58830583Y-96768744D01*
X58830583Y-96768744D02*
X58727051Y-96878092D01*
X58727051Y-96878092D02*
X57967665Y-97154486D01*
X57967665Y-97154486D02*
X58528712Y-97416107D01*
X59253433Y-96650672D02*
X59857638Y-96932417D01*
X59857638Y-96932417D02*
X59046603Y-97657603D01*
X196413698Y-66132701D02*
X196563295Y-66115485D01*
X196563295Y-66115485D02*
X196779082Y-66014861D01*
X196779082Y-66014861D02*
X196845273Y-65931454D01*
X196845273Y-65931454D02*
X196868306Y-65868172D01*
X196868306Y-65868172D02*
X196871214Y-65761732D01*
X196871214Y-65761732D02*
X196830964Y-65675417D01*
X196830964Y-65675417D02*
X196747557Y-65609227D01*
X196747557Y-65609227D02*
X196684275Y-65586194D01*
X196684275Y-65586194D02*
X196577836Y-65583286D01*
X196577836Y-65583286D02*
X196385081Y-65620627D01*
X196385081Y-65620627D02*
X196278641Y-65617719D01*
X196278641Y-65617719D02*
X196215359Y-65594686D01*
X196215359Y-65594686D02*
X196131952Y-65528496D01*
X196131952Y-65528496D02*
X196091703Y-65442181D01*
X196091703Y-65442181D02*
X196094611Y-65335741D01*
X196094611Y-65335741D02*
X196117644Y-65272459D01*
X196117644Y-65272459D02*
X196183834Y-65189052D01*
X196183834Y-65189052D02*
X196399622Y-65088429D01*
X196399622Y-65088429D02*
X196549219Y-65071212D01*
X196831197Y-64887182D02*
X197469603Y-65692866D01*
X197469603Y-65692866D02*
X197340362Y-64965005D01*
X197340362Y-64965005D02*
X197814863Y-65531869D01*
X197814863Y-65531869D02*
X197608032Y-64524938D01*
X197950384Y-64470380D02*
X197973417Y-64407098D01*
X197973417Y-64407098D02*
X198039607Y-64323691D01*
X198039607Y-64323691D02*
X198255395Y-64223067D01*
X198255395Y-64223067D02*
X198361834Y-64225976D01*
X198361834Y-64225976D02*
X198425117Y-64249008D01*
X198425117Y-64249008D02*
X198508523Y-64315199D01*
X198508523Y-64315199D02*
X198548773Y-64401514D01*
X198548773Y-64401514D02*
X198565989Y-64551111D01*
X198565989Y-64551111D02*
X198289595Y-65310497D01*
X198289595Y-65310497D02*
X198850643Y-65048877D01*
X199204860Y-63780325D02*
X199032230Y-63860823D01*
X199032230Y-63860823D02*
X198966040Y-63944230D01*
X198966040Y-63944230D02*
X198943007Y-64007512D01*
X198943007Y-64007512D02*
X198917066Y-64177234D01*
X198917066Y-64177234D02*
X198954407Y-64369989D01*
X198954407Y-64369989D02*
X199115404Y-64715249D01*
X199115404Y-64715249D02*
X199198811Y-64781439D01*
X199198811Y-64781439D02*
X199262093Y-64804472D01*
X199262093Y-64804472D02*
X199368533Y-64807380D01*
X199368533Y-64807380D02*
X199541163Y-64726882D01*
X199541163Y-64726882D02*
X199607354Y-64643475D01*
X199607354Y-64643475D02*
X199630386Y-64580193D01*
X199630386Y-64580193D02*
X199633295Y-64473753D01*
X199633295Y-64473753D02*
X199532671Y-64257965D01*
X199532671Y-64257965D02*
X199449264Y-64191775D01*
X199449264Y-64191775D02*
X199385982Y-64168742D01*
X199385982Y-64168742D02*
X199279542Y-64165834D01*
X199279542Y-64165834D02*
X199106912Y-64246333D01*
X199106912Y-64246333D02*
X199040722Y-64329740D01*
X199040722Y-64329740D02*
X199017689Y-64393022D01*
X199017689Y-64393022D02*
X199014781Y-64499461D01*
X177135815Y-69867288D02*
X177285412Y-69850072D01*
X177285412Y-69850072D02*
X177501199Y-69749448D01*
X177501199Y-69749448D02*
X177567390Y-69666041D01*
X177567390Y-69666041D02*
X177590423Y-69602759D01*
X177590423Y-69602759D02*
X177593331Y-69496319D01*
X177593331Y-69496319D02*
X177553081Y-69410004D01*
X177553081Y-69410004D02*
X177469674Y-69343814D01*
X177469674Y-69343814D02*
X177406392Y-69320781D01*
X177406392Y-69320781D02*
X177299953Y-69317873D01*
X177299953Y-69317873D02*
X177107198Y-69355214D01*
X177107198Y-69355214D02*
X177000758Y-69352306D01*
X177000758Y-69352306D02*
X176937476Y-69329273D01*
X176937476Y-69329273D02*
X176854069Y-69263083D01*
X176854069Y-69263083D02*
X176813820Y-69176768D01*
X176813820Y-69176768D02*
X176816728Y-69070328D01*
X176816728Y-69070328D02*
X176839761Y-69007046D01*
X176839761Y-69007046D02*
X176905951Y-68923639D01*
X176905951Y-68923639D02*
X177121739Y-68823016D01*
X177121739Y-68823016D02*
X177271336Y-68805799D01*
X177553314Y-68621769D02*
X178191720Y-69427453D01*
X178191720Y-69427453D02*
X178062479Y-68699592D01*
X178062479Y-68699592D02*
X178536980Y-69266456D01*
X178536980Y-69266456D02*
X178330149Y-68259525D01*
X178672501Y-68204967D02*
X178695534Y-68141685D01*
X178695534Y-68141685D02*
X178761724Y-68058278D01*
X178761724Y-68058278D02*
X178977512Y-67957654D01*
X178977512Y-67957654D02*
X179083951Y-67960563D01*
X179083951Y-67960563D02*
X179147234Y-67983595D01*
X179147234Y-67983595D02*
X179230640Y-68049786D01*
X179230640Y-68049786D02*
X179270890Y-68136101D01*
X179270890Y-68136101D02*
X179288106Y-68285698D01*
X179288106Y-68285698D02*
X179011712Y-69045084D01*
X179011712Y-69045084D02*
X179572760Y-68783464D01*
X179970134Y-67494787D02*
X179538559Y-67696034D01*
X179538559Y-67696034D02*
X179696649Y-68147733D01*
X179696649Y-68147733D02*
X179719681Y-68084451D01*
X179719681Y-68084451D02*
X179785872Y-68001044D01*
X179785872Y-68001044D02*
X180001659Y-67900421D01*
X180001659Y-67900421D02*
X180108099Y-67903329D01*
X180108099Y-67903329D02*
X180171381Y-67926362D01*
X180171381Y-67926362D02*
X180254788Y-67992552D01*
X180254788Y-67992552D02*
X180355412Y-68208340D01*
X180355412Y-68208340D02*
X180352503Y-68314780D01*
X180352503Y-68314780D02*
X180329471Y-68378062D01*
X180329471Y-68378062D02*
X180263280Y-68461469D01*
X180263280Y-68461469D02*
X180047493Y-68562092D01*
X180047493Y-68562092D02*
X179941053Y-68559184D01*
X179941053Y-68559184D02*
X179877771Y-68536151D01*
X161883371Y-82234457D02*
X162032968Y-82217241D01*
X162032968Y-82217241D02*
X162248755Y-82116617D01*
X162248755Y-82116617D02*
X162314946Y-82033210D01*
X162314946Y-82033210D02*
X162337979Y-81969928D01*
X162337979Y-81969928D02*
X162340887Y-81863488D01*
X162340887Y-81863488D02*
X162300637Y-81777173D01*
X162300637Y-81777173D02*
X162217230Y-81710983D01*
X162217230Y-81710983D02*
X162153948Y-81687950D01*
X162153948Y-81687950D02*
X162047509Y-81685042D01*
X162047509Y-81685042D02*
X161854754Y-81722383D01*
X161854754Y-81722383D02*
X161748314Y-81719475D01*
X161748314Y-81719475D02*
X161685032Y-81696442D01*
X161685032Y-81696442D02*
X161601625Y-81630252D01*
X161601625Y-81630252D02*
X161561376Y-81543937D01*
X161561376Y-81543937D02*
X161564284Y-81437497D01*
X161564284Y-81437497D02*
X161587317Y-81374215D01*
X161587317Y-81374215D02*
X161653507Y-81290808D01*
X161653507Y-81290808D02*
X161869295Y-81190185D01*
X161869295Y-81190185D02*
X162018892Y-81172968D01*
X162300870Y-80988938D02*
X162939276Y-81794622D01*
X162939276Y-81794622D02*
X162810035Y-81066761D01*
X162810035Y-81066761D02*
X163284536Y-81633625D01*
X163284536Y-81633625D02*
X163077705Y-80626694D01*
X163420057Y-80572136D02*
X163443090Y-80508854D01*
X163443090Y-80508854D02*
X163509280Y-80425447D01*
X163509280Y-80425447D02*
X163725068Y-80324823D01*
X163725068Y-80324823D02*
X163831507Y-80327732D01*
X163831507Y-80327732D02*
X163894790Y-80350764D01*
X163894790Y-80350764D02*
X163978196Y-80416955D01*
X163978196Y-80416955D02*
X164018446Y-80503270D01*
X164018446Y-80503270D02*
X164035662Y-80652867D01*
X164035662Y-80652867D02*
X163759268Y-81412253D01*
X163759268Y-81412253D02*
X164320316Y-81150633D01*
X164815406Y-80184183D02*
X165097151Y-80788388D01*
X164438621Y-79939546D02*
X164524703Y-80687533D01*
X164524703Y-80687533D02*
X165085751Y-80425912D01*
X79144486Y-80702671D02*
X79253834Y-80806203D01*
X79253834Y-80806203D02*
X79469622Y-80906826D01*
X79469622Y-80906826D02*
X79576062Y-80903918D01*
X79576062Y-80903918D02*
X79639344Y-80880885D01*
X79639344Y-80880885D02*
X79722751Y-80814695D01*
X79722751Y-80814695D02*
X79763000Y-80728380D01*
X79763000Y-80728380D02*
X79760092Y-80621940D01*
X79760092Y-80621940D02*
X79737059Y-80558658D01*
X79737059Y-80558658D02*
X79670869Y-80475251D01*
X79670869Y-80475251D02*
X79518363Y-80351595D01*
X79518363Y-80351595D02*
X79452173Y-80268188D01*
X79452173Y-80268188D02*
X79429140Y-80204906D01*
X79429140Y-80204906D02*
X79426232Y-80098466D01*
X79426232Y-80098466D02*
X79466481Y-80012151D01*
X79466481Y-80012151D02*
X79549888Y-79945961D01*
X79549888Y-79945961D02*
X79613170Y-79922928D01*
X79613170Y-79922928D02*
X79719610Y-79920020D01*
X79719610Y-79920020D02*
X79935398Y-80020643D01*
X79935398Y-80020643D02*
X80044745Y-80124175D01*
X80366973Y-80221890D02*
X80160142Y-81228821D01*
X80160142Y-81228821D02*
X80634642Y-80661957D01*
X80634642Y-80661957D02*
X80505402Y-81389819D01*
X80505402Y-81389819D02*
X81143808Y-80584134D01*
X81405661Y-80811322D02*
X81468943Y-80788289D01*
X81468943Y-80788289D02*
X81575383Y-80785381D01*
X81575383Y-80785381D02*
X81791171Y-80886004D01*
X81791171Y-80886004D02*
X81857361Y-80969411D01*
X81857361Y-80969411D02*
X81880394Y-81032693D01*
X81880394Y-81032693D02*
X81883302Y-81139133D01*
X81883302Y-81139133D02*
X81843053Y-81225448D01*
X81843053Y-81225448D02*
X81739521Y-81334796D01*
X81739521Y-81334796D02*
X80980135Y-81611190D01*
X80980135Y-81611190D02*
X81541182Y-81872811D01*
X82265903Y-81107376D02*
X82826951Y-81368997D01*
X82826951Y-81368997D02*
X82363851Y-81573384D01*
X82363851Y-81573384D02*
X82493323Y-81633758D01*
X82493323Y-81633758D02*
X82559514Y-81717165D01*
X82559514Y-81717165D02*
X82582547Y-81780447D01*
X82582547Y-81780447D02*
X82585455Y-81886887D01*
X82585455Y-81886887D02*
X82484831Y-82102674D01*
X82484831Y-82102674D02*
X82401425Y-82168865D01*
X82401425Y-82168865D02*
X82338142Y-82191898D01*
X82338142Y-82191898D02*
X82231703Y-82194806D01*
X82231703Y-82194806D02*
X81972758Y-82074058D01*
X81972758Y-82074058D02*
X81906567Y-81990651D01*
X81906567Y-81990651D02*
X81883534Y-81927369D01*
X63892042Y-68335502D02*
X64001390Y-68439034D01*
X64001390Y-68439034D02*
X64217178Y-68539657D01*
X64217178Y-68539657D02*
X64323618Y-68536749D01*
X64323618Y-68536749D02*
X64386900Y-68513716D01*
X64386900Y-68513716D02*
X64470307Y-68447526D01*
X64470307Y-68447526D02*
X64510556Y-68361211D01*
X64510556Y-68361211D02*
X64507648Y-68254771D01*
X64507648Y-68254771D02*
X64484615Y-68191489D01*
X64484615Y-68191489D02*
X64418425Y-68108082D01*
X64418425Y-68108082D02*
X64265919Y-67984426D01*
X64265919Y-67984426D02*
X64199729Y-67901019D01*
X64199729Y-67901019D02*
X64176696Y-67837737D01*
X64176696Y-67837737D02*
X64173788Y-67731297D01*
X64173788Y-67731297D02*
X64214037Y-67644982D01*
X64214037Y-67644982D02*
X64297444Y-67578792D01*
X64297444Y-67578792D02*
X64360726Y-67555759D01*
X64360726Y-67555759D02*
X64467166Y-67552851D01*
X64467166Y-67552851D02*
X64682954Y-67653474D01*
X64682954Y-67653474D02*
X64792301Y-67757006D01*
X65114529Y-67854721D02*
X64907698Y-68861652D01*
X64907698Y-68861652D02*
X65382198Y-68294788D01*
X65382198Y-68294788D02*
X65252958Y-69022650D01*
X65252958Y-69022650D02*
X65891364Y-68216965D01*
X66153217Y-68444153D02*
X66216499Y-68421120D01*
X66216499Y-68421120D02*
X66322939Y-68418212D01*
X66322939Y-68418212D02*
X66538727Y-68518835D01*
X66538727Y-68518835D02*
X66604917Y-68602242D01*
X66604917Y-68602242D02*
X66627950Y-68665524D01*
X66627950Y-68665524D02*
X66630858Y-68771964D01*
X66630858Y-68771964D02*
X66590609Y-68858279D01*
X66590609Y-68858279D02*
X66487077Y-68967627D01*
X66487077Y-68967627D02*
X65727691Y-69244021D01*
X65727691Y-69244021D02*
X66288738Y-69505642D01*
X67016367Y-68846647D02*
X67079650Y-68823614D01*
X67079650Y-68823614D02*
X67186089Y-68820706D01*
X67186089Y-68820706D02*
X67401877Y-68921329D01*
X67401877Y-68921329D02*
X67468067Y-69004736D01*
X67468067Y-69004736D02*
X67491100Y-69068018D01*
X67491100Y-69068018D02*
X67494008Y-69174458D01*
X67494008Y-69174458D02*
X67453759Y-69260773D01*
X67453759Y-69260773D02*
X67350227Y-69370121D01*
X67350227Y-69370121D02*
X66590841Y-69646515D01*
X66590841Y-69646515D02*
X67151889Y-69908136D01*
X44614159Y-64600915D02*
X44723507Y-64704447D01*
X44723507Y-64704447D02*
X44939295Y-64805070D01*
X44939295Y-64805070D02*
X45045735Y-64802162D01*
X45045735Y-64802162D02*
X45109017Y-64779129D01*
X45109017Y-64779129D02*
X45192424Y-64712939D01*
X45192424Y-64712939D02*
X45232673Y-64626624D01*
X45232673Y-64626624D02*
X45229765Y-64520184D01*
X45229765Y-64520184D02*
X45206732Y-64456902D01*
X45206732Y-64456902D02*
X45140542Y-64373495D01*
X45140542Y-64373495D02*
X44988036Y-64249839D01*
X44988036Y-64249839D02*
X44921846Y-64166432D01*
X44921846Y-64166432D02*
X44898813Y-64103150D01*
X44898813Y-64103150D02*
X44895905Y-63996710D01*
X44895905Y-63996710D02*
X44936154Y-63910395D01*
X44936154Y-63910395D02*
X45019561Y-63844205D01*
X45019561Y-63844205D02*
X45082843Y-63821172D01*
X45082843Y-63821172D02*
X45189283Y-63818264D01*
X45189283Y-63818264D02*
X45405071Y-63918887D01*
X45405071Y-63918887D02*
X45514418Y-64022419D01*
X45836646Y-64120134D02*
X45629815Y-65127065D01*
X45629815Y-65127065D02*
X46104315Y-64560201D01*
X46104315Y-64560201D02*
X45975075Y-65288063D01*
X45975075Y-65288063D02*
X46613481Y-64482378D01*
X46875334Y-64709566D02*
X46938616Y-64686533D01*
X46938616Y-64686533D02*
X47045056Y-64683625D01*
X47045056Y-64683625D02*
X47260844Y-64784248D01*
X47260844Y-64784248D02*
X47327034Y-64867655D01*
X47327034Y-64867655D02*
X47350067Y-64930937D01*
X47350067Y-64930937D02*
X47352975Y-65037377D01*
X47352975Y-65037377D02*
X47312726Y-65123692D01*
X47312726Y-65123692D02*
X47209194Y-65233040D01*
X47209194Y-65233040D02*
X46449808Y-65509434D01*
X46449808Y-65509434D02*
X47010855Y-65771055D01*
X47874006Y-66173549D02*
X47356116Y-65932052D01*
X47615061Y-66052800D02*
X48037679Y-65146493D01*
X48037679Y-65146493D02*
X47890990Y-65235716D01*
X47890990Y-65235716D02*
X47764425Y-65281782D01*
X47764425Y-65281782D02*
X47657986Y-65284690D01*
X209653422Y-49449242D02*
X209803019Y-49432026D01*
X209803019Y-49432026D02*
X210018806Y-49331402D01*
X210018806Y-49331402D02*
X210084997Y-49247995D01*
X210084997Y-49247995D02*
X210108030Y-49184713D01*
X210108030Y-49184713D02*
X210110938Y-49078273D01*
X210110938Y-49078273D02*
X210070688Y-48991958D01*
X210070688Y-48991958D02*
X209987281Y-48925768D01*
X209987281Y-48925768D02*
X209923999Y-48902735D01*
X209923999Y-48902735D02*
X209817560Y-48899827D01*
X209817560Y-48899827D02*
X209624805Y-48937168D01*
X209624805Y-48937168D02*
X209518365Y-48934260D01*
X209518365Y-48934260D02*
X209455083Y-48911227D01*
X209455083Y-48911227D02*
X209371676Y-48845037D01*
X209371676Y-48845037D02*
X209331427Y-48758722D01*
X209331427Y-48758722D02*
X209334335Y-48652282D01*
X209334335Y-48652282D02*
X209357368Y-48589000D01*
X209357368Y-48589000D02*
X209423558Y-48505593D01*
X209423558Y-48505593D02*
X209639346Y-48404970D01*
X209639346Y-48404970D02*
X209788943Y-48387753D01*
X210070921Y-48203723D02*
X210709327Y-49009407D01*
X210709327Y-49009407D02*
X210580086Y-48281546D01*
X210580086Y-48281546D02*
X211054587Y-48848410D01*
X211054587Y-48848410D02*
X210847756Y-47841479D01*
X211190108Y-47786921D02*
X211213141Y-47723639D01*
X211213141Y-47723639D02*
X211279331Y-47640232D01*
X211279331Y-47640232D02*
X211495119Y-47539608D01*
X211495119Y-47539608D02*
X211601558Y-47542517D01*
X211601558Y-47542517D02*
X211664841Y-47565549D01*
X211664841Y-47565549D02*
X211748247Y-47631740D01*
X211748247Y-47631740D02*
X211788497Y-47718055D01*
X211788497Y-47718055D02*
X211805713Y-47867652D01*
X211805713Y-47867652D02*
X211529319Y-48627038D01*
X211529319Y-48627038D02*
X212090367Y-48365418D01*
X212228796Y-47197489D02*
X212315111Y-47157240D01*
X212315111Y-47157240D02*
X212421551Y-47160148D01*
X212421551Y-47160148D02*
X212484833Y-47183181D01*
X212484833Y-47183181D02*
X212568240Y-47249371D01*
X212568240Y-47249371D02*
X212691896Y-47401876D01*
X212691896Y-47401876D02*
X212792520Y-47617664D01*
X212792520Y-47617664D02*
X212829861Y-47810419D01*
X212829861Y-47810419D02*
X212826953Y-47916858D01*
X212826953Y-47916858D02*
X212803920Y-47980140D01*
X212803920Y-47980140D02*
X212737730Y-48063547D01*
X212737730Y-48063547D02*
X212651415Y-48103797D01*
X212651415Y-48103797D02*
X212544975Y-48100889D01*
X212544975Y-48100889D02*
X212481693Y-48077856D01*
X212481693Y-48077856D02*
X212398286Y-48011665D01*
X212398286Y-48011665D02*
X212274630Y-47859160D01*
X212274630Y-47859160D02*
X212174006Y-47643372D01*
X212174006Y-47643372D02*
X212136665Y-47450618D01*
X212136665Y-47450618D02*
X212139573Y-47344178D01*
X212139573Y-47344178D02*
X212162606Y-47280896D01*
X212162606Y-47280896D02*
X212228796Y-47197489D01*
X188362820Y-48867538D02*
X188512417Y-48850322D01*
X188512417Y-48850322D02*
X188728204Y-48749698D01*
X188728204Y-48749698D02*
X188794395Y-48666291D01*
X188794395Y-48666291D02*
X188817428Y-48603009D01*
X188817428Y-48603009D02*
X188820336Y-48496569D01*
X188820336Y-48496569D02*
X188780086Y-48410254D01*
X188780086Y-48410254D02*
X188696679Y-48344064D01*
X188696679Y-48344064D02*
X188633397Y-48321031D01*
X188633397Y-48321031D02*
X188526958Y-48318123D01*
X188526958Y-48318123D02*
X188334203Y-48355464D01*
X188334203Y-48355464D02*
X188227763Y-48352556D01*
X188227763Y-48352556D02*
X188164481Y-48329523D01*
X188164481Y-48329523D02*
X188081074Y-48263333D01*
X188081074Y-48263333D02*
X188040825Y-48177018D01*
X188040825Y-48177018D02*
X188043733Y-48070578D01*
X188043733Y-48070578D02*
X188066766Y-48007296D01*
X188066766Y-48007296D02*
X188132956Y-47923889D01*
X188132956Y-47923889D02*
X188348744Y-47823266D01*
X188348744Y-47823266D02*
X188498341Y-47806049D01*
X188780319Y-47622019D02*
X189418725Y-48427703D01*
X189418725Y-48427703D02*
X189289484Y-47699842D01*
X189289484Y-47699842D02*
X189763985Y-48266706D01*
X189763985Y-48266706D02*
X189557154Y-47259775D01*
X190799765Y-47783714D02*
X190281875Y-48025210D01*
X190540820Y-47904462D02*
X190118202Y-46998154D01*
X190118202Y-46998154D02*
X190092261Y-47167876D01*
X190092261Y-47167876D02*
X190046195Y-47294440D01*
X190046195Y-47294440D02*
X189980005Y-47377847D01*
X191231340Y-47582467D02*
X191403970Y-47501968D01*
X191403970Y-47501968D02*
X191470161Y-47418561D01*
X191470161Y-47418561D02*
X191493193Y-47355279D01*
X191493193Y-47355279D02*
X191519134Y-47185557D01*
X191519134Y-47185557D02*
X191481793Y-46992802D01*
X191481793Y-46992802D02*
X191320796Y-46647542D01*
X191320796Y-46647542D02*
X191237389Y-46581352D01*
X191237389Y-46581352D02*
X191174107Y-46558319D01*
X191174107Y-46558319D02*
X191067667Y-46555411D01*
X191067667Y-46555411D02*
X190895037Y-46635910D01*
X190895037Y-46635910D02*
X190828847Y-46719316D01*
X190828847Y-46719316D02*
X190805814Y-46782599D01*
X190805814Y-46782599D02*
X190802906Y-46889038D01*
X190802906Y-46889038D02*
X190903529Y-47104826D01*
X190903529Y-47104826D02*
X190986936Y-47171016D01*
X190986936Y-47171016D02*
X191050218Y-47194049D01*
X191050218Y-47194049D02*
X191156658Y-47196957D01*
X191156658Y-47196957D02*
X191329288Y-47116459D01*
X191329288Y-47116459D02*
X191395478Y-47033052D01*
X191395478Y-47033052D02*
X191418511Y-46969770D01*
X191418511Y-46969770D02*
X191421419Y-46863330D01*
X169084937Y-52602125D02*
X169234534Y-52584909D01*
X169234534Y-52584909D02*
X169450321Y-52484285D01*
X169450321Y-52484285D02*
X169516512Y-52400878D01*
X169516512Y-52400878D02*
X169539545Y-52337596D01*
X169539545Y-52337596D02*
X169542453Y-52231156D01*
X169542453Y-52231156D02*
X169502203Y-52144841D01*
X169502203Y-52144841D02*
X169418796Y-52078651D01*
X169418796Y-52078651D02*
X169355514Y-52055618D01*
X169355514Y-52055618D02*
X169249075Y-52052710D01*
X169249075Y-52052710D02*
X169056320Y-52090051D01*
X169056320Y-52090051D02*
X168949880Y-52087143D01*
X168949880Y-52087143D02*
X168886598Y-52064110D01*
X168886598Y-52064110D02*
X168803191Y-51997920D01*
X168803191Y-51997920D02*
X168762942Y-51911605D01*
X168762942Y-51911605D02*
X168765850Y-51805165D01*
X168765850Y-51805165D02*
X168788883Y-51741883D01*
X168788883Y-51741883D02*
X168855073Y-51658476D01*
X168855073Y-51658476D02*
X169070861Y-51557853D01*
X169070861Y-51557853D02*
X169220458Y-51540636D01*
X169502436Y-51356606D02*
X170140842Y-52162290D01*
X170140842Y-52162290D02*
X170011601Y-51434429D01*
X170011601Y-51434429D02*
X170486102Y-52001293D01*
X170486102Y-52001293D02*
X170279271Y-50994362D01*
X171521882Y-51518301D02*
X171003992Y-51759797D01*
X171262937Y-51639049D02*
X170840319Y-50732741D01*
X170840319Y-50732741D02*
X170814378Y-50902463D01*
X170814378Y-50902463D02*
X170768312Y-51029027D01*
X170768312Y-51029027D02*
X170702122Y-51112434D01*
X171798276Y-50758914D02*
X171691836Y-50756006D01*
X171691836Y-50756006D02*
X171628554Y-50732973D01*
X171628554Y-50732973D02*
X171545147Y-50666783D01*
X171545147Y-50666783D02*
X171525023Y-50623625D01*
X171525023Y-50623625D02*
X171527931Y-50517186D01*
X171527931Y-50517186D02*
X171550964Y-50453903D01*
X171550964Y-50453903D02*
X171617154Y-50370497D01*
X171617154Y-50370497D02*
X171789784Y-50289998D01*
X171789784Y-50289998D02*
X171896224Y-50292906D01*
X171896224Y-50292906D02*
X171959506Y-50315939D01*
X171959506Y-50315939D02*
X172042913Y-50382129D01*
X172042913Y-50382129D02*
X172063037Y-50425287D01*
X172063037Y-50425287D02*
X172060129Y-50531726D01*
X172060129Y-50531726D02*
X172037096Y-50595009D01*
X172037096Y-50595009D02*
X171970906Y-50678416D01*
X171970906Y-50678416D02*
X171798276Y-50758914D01*
X171798276Y-50758914D02*
X171732086Y-50842321D01*
X171732086Y-50842321D02*
X171709053Y-50905603D01*
X171709053Y-50905603D02*
X171706145Y-51012043D01*
X171706145Y-51012043D02*
X171786643Y-51184673D01*
X171786643Y-51184673D02*
X171870050Y-51250863D01*
X171870050Y-51250863D02*
X171933332Y-51273896D01*
X171933332Y-51273896D02*
X172039772Y-51276804D01*
X172039772Y-51276804D02*
X172212402Y-51196306D01*
X172212402Y-51196306D02*
X172278593Y-51112899D01*
X172278593Y-51112899D02*
X172301625Y-51049617D01*
X172301625Y-51049617D02*
X172304534Y-50943177D01*
X172304534Y-50943177D02*
X172224035Y-50770547D01*
X172224035Y-50770547D02*
X172140628Y-50704357D01*
X172140628Y-50704357D02*
X172077346Y-50681324D01*
X172077346Y-50681324D02*
X171970906Y-50678416D01*
X153832493Y-64969294D02*
X153982090Y-64952078D01*
X153982090Y-64952078D02*
X154197877Y-64851454D01*
X154197877Y-64851454D02*
X154264068Y-64768047D01*
X154264068Y-64768047D02*
X154287101Y-64704765D01*
X154287101Y-64704765D02*
X154290009Y-64598325D01*
X154290009Y-64598325D02*
X154249759Y-64512010D01*
X154249759Y-64512010D02*
X154166352Y-64445820D01*
X154166352Y-64445820D02*
X154103070Y-64422787D01*
X154103070Y-64422787D02*
X153996631Y-64419879D01*
X153996631Y-64419879D02*
X153803876Y-64457220D01*
X153803876Y-64457220D02*
X153697436Y-64454312D01*
X153697436Y-64454312D02*
X153634154Y-64431279D01*
X153634154Y-64431279D02*
X153550747Y-64365089D01*
X153550747Y-64365089D02*
X153510498Y-64278774D01*
X153510498Y-64278774D02*
X153513406Y-64172334D01*
X153513406Y-64172334D02*
X153536439Y-64109052D01*
X153536439Y-64109052D02*
X153602629Y-64025645D01*
X153602629Y-64025645D02*
X153818417Y-63925022D01*
X153818417Y-63925022D02*
X153968014Y-63907805D01*
X154249992Y-63723775D02*
X154888398Y-64529459D01*
X154888398Y-64529459D02*
X154759157Y-63801598D01*
X154759157Y-63801598D02*
X155233658Y-64368462D01*
X155233658Y-64368462D02*
X155026827Y-63361531D01*
X156269438Y-63885470D02*
X155751548Y-64126966D01*
X156010493Y-64006218D02*
X155587875Y-63099910D01*
X155587875Y-63099910D02*
X155561934Y-63269632D01*
X155561934Y-63269632D02*
X155515868Y-63396196D01*
X155515868Y-63396196D02*
X155449678Y-63479603D01*
X156148922Y-62838289D02*
X156753127Y-62556543D01*
X156753127Y-62556543D02*
X156787328Y-63643973D01*
X138580049Y-77336463D02*
X138729646Y-77319247D01*
X138729646Y-77319247D02*
X138945433Y-77218623D01*
X138945433Y-77218623D02*
X139011624Y-77135216D01*
X139011624Y-77135216D02*
X139034657Y-77071934D01*
X139034657Y-77071934D02*
X139037565Y-76965494D01*
X139037565Y-76965494D02*
X138997315Y-76879179D01*
X138997315Y-76879179D02*
X138913908Y-76812989D01*
X138913908Y-76812989D02*
X138850626Y-76789956D01*
X138850626Y-76789956D02*
X138744187Y-76787048D01*
X138744187Y-76787048D02*
X138551432Y-76824389D01*
X138551432Y-76824389D02*
X138444992Y-76821481D01*
X138444992Y-76821481D02*
X138381710Y-76798448D01*
X138381710Y-76798448D02*
X138298303Y-76732258D01*
X138298303Y-76732258D02*
X138258054Y-76645943D01*
X138258054Y-76645943D02*
X138260962Y-76539503D01*
X138260962Y-76539503D02*
X138283995Y-76476221D01*
X138283995Y-76476221D02*
X138350185Y-76392814D01*
X138350185Y-76392814D02*
X138565973Y-76292191D01*
X138565973Y-76292191D02*
X138715570Y-76274974D01*
X138997548Y-76090944D02*
X139635954Y-76896628D01*
X139635954Y-76896628D02*
X139506713Y-76168767D01*
X139506713Y-76168767D02*
X139981214Y-76735631D01*
X139981214Y-76735631D02*
X139774383Y-75728700D01*
X141016994Y-76252639D02*
X140499104Y-76494135D01*
X140758049Y-76373387D02*
X140335431Y-75467079D01*
X140335431Y-75467079D02*
X140309490Y-75636801D01*
X140309490Y-75636801D02*
X140263424Y-75763365D01*
X140263424Y-75763365D02*
X140197234Y-75846772D01*
X141371211Y-74984087D02*
X141198581Y-75064585D01*
X141198581Y-75064585D02*
X141132391Y-75147992D01*
X141132391Y-75147992D02*
X141109358Y-75211274D01*
X141109358Y-75211274D02*
X141083417Y-75380996D01*
X141083417Y-75380996D02*
X141120758Y-75573751D01*
X141120758Y-75573751D02*
X141281755Y-75919011D01*
X141281755Y-75919011D02*
X141365162Y-75985201D01*
X141365162Y-75985201D02*
X141428444Y-76008234D01*
X141428444Y-76008234D02*
X141534884Y-76011142D01*
X141534884Y-76011142D02*
X141707514Y-75930644D01*
X141707514Y-75930644D02*
X141773705Y-75847237D01*
X141773705Y-75847237D02*
X141796737Y-75783955D01*
X141796737Y-75783955D02*
X141799646Y-75677515D01*
X141799646Y-75677515D02*
X141699022Y-75461727D01*
X141699022Y-75461727D02*
X141615615Y-75395537D01*
X141615615Y-75395537D02*
X141552333Y-75372504D01*
X141552333Y-75372504D02*
X141445893Y-75369596D01*
X141445893Y-75369596D02*
X141273263Y-75450095D01*
X141273263Y-75450095D02*
X141207073Y-75533502D01*
X141207073Y-75533502D02*
X141184040Y-75596784D01*
X141184040Y-75596784D02*
X141181132Y-75703223D01*
X102447808Y-75804677D02*
X102557156Y-75908209D01*
X102557156Y-75908209D02*
X102772944Y-76008832D01*
X102772944Y-76008832D02*
X102879384Y-76005924D01*
X102879384Y-76005924D02*
X102942666Y-75982891D01*
X102942666Y-75982891D02*
X103026073Y-75916701D01*
X103026073Y-75916701D02*
X103066322Y-75830386D01*
X103066322Y-75830386D02*
X103063414Y-75723946D01*
X103063414Y-75723946D02*
X103040381Y-75660664D01*
X103040381Y-75660664D02*
X102974191Y-75577257D01*
X102974191Y-75577257D02*
X102821685Y-75453601D01*
X102821685Y-75453601D02*
X102755495Y-75370194D01*
X102755495Y-75370194D02*
X102732462Y-75306912D01*
X102732462Y-75306912D02*
X102729554Y-75200472D01*
X102729554Y-75200472D02*
X102769803Y-75114157D01*
X102769803Y-75114157D02*
X102853210Y-75047967D01*
X102853210Y-75047967D02*
X102916492Y-75024934D01*
X102916492Y-75024934D02*
X103022932Y-75022026D01*
X103022932Y-75022026D02*
X103238720Y-75122649D01*
X103238720Y-75122649D02*
X103348067Y-75226181D01*
X103670295Y-75323896D02*
X103463464Y-76330827D01*
X103463464Y-76330827D02*
X103937964Y-75763963D01*
X103937964Y-75763963D02*
X103808724Y-76491825D01*
X103808724Y-76491825D02*
X104447130Y-75686140D01*
X104844504Y-76974817D02*
X104326614Y-76733321D01*
X104585559Y-76854069D02*
X105008178Y-75947761D01*
X105008178Y-75947761D02*
X104861489Y-76036984D01*
X104861489Y-76036984D02*
X104734924Y-76083050D01*
X104734924Y-76083050D02*
X104628484Y-76085958D01*
X106087115Y-76450878D02*
X105655540Y-76249631D01*
X105655540Y-76249631D02*
X105411136Y-76661082D01*
X105411136Y-76661082D02*
X105474418Y-76638049D01*
X105474418Y-76638049D02*
X105580858Y-76635141D01*
X105580858Y-76635141D02*
X105796645Y-76735764D01*
X105796645Y-76735764D02*
X105862836Y-76819171D01*
X105862836Y-76819171D02*
X105885869Y-76882453D01*
X105885869Y-76882453D02*
X105888777Y-76988893D01*
X105888777Y-76988893D02*
X105788153Y-77204680D01*
X105788153Y-77204680D02*
X105704747Y-77270871D01*
X105704747Y-77270871D02*
X105641464Y-77293904D01*
X105641464Y-77293904D02*
X105535025Y-77296812D01*
X105535025Y-77296812D02*
X105319237Y-77196188D01*
X105319237Y-77196188D02*
X105253047Y-77112782D01*
X105253047Y-77112782D02*
X105230014Y-77049499D01*
X87195364Y-63437508D02*
X87304712Y-63541040D01*
X87304712Y-63541040D02*
X87520500Y-63641663D01*
X87520500Y-63641663D02*
X87626940Y-63638755D01*
X87626940Y-63638755D02*
X87690222Y-63615722D01*
X87690222Y-63615722D02*
X87773629Y-63549532D01*
X87773629Y-63549532D02*
X87813878Y-63463217D01*
X87813878Y-63463217D02*
X87810970Y-63356777D01*
X87810970Y-63356777D02*
X87787937Y-63293495D01*
X87787937Y-63293495D02*
X87721747Y-63210088D01*
X87721747Y-63210088D02*
X87569241Y-63086432D01*
X87569241Y-63086432D02*
X87503051Y-63003025D01*
X87503051Y-63003025D02*
X87480018Y-62939743D01*
X87480018Y-62939743D02*
X87477110Y-62833303D01*
X87477110Y-62833303D02*
X87517359Y-62746988D01*
X87517359Y-62746988D02*
X87600766Y-62680798D01*
X87600766Y-62680798D02*
X87664048Y-62657765D01*
X87664048Y-62657765D02*
X87770488Y-62654857D01*
X87770488Y-62654857D02*
X87986276Y-62755480D01*
X87986276Y-62755480D02*
X88095623Y-62859012D01*
X88417851Y-62956727D02*
X88211020Y-63963658D01*
X88211020Y-63963658D02*
X88685520Y-63396794D01*
X88685520Y-63396794D02*
X88556280Y-64124656D01*
X88556280Y-64124656D02*
X89194686Y-63318971D01*
X89592060Y-64607648D02*
X89074170Y-64366152D01*
X89333115Y-64486900D02*
X89755734Y-63580592D01*
X89755734Y-63580592D02*
X89609045Y-63669815D01*
X89609045Y-63669815D02*
X89482480Y-63715881D01*
X89482480Y-63715881D02*
X89376040Y-63718789D01*
X90650641Y-64365687D02*
X90368896Y-64969892D01*
X90595851Y-63919803D02*
X90078193Y-64466543D01*
X90078193Y-64466543D02*
X90639241Y-64728164D01*
X71942920Y-51070339D02*
X72052268Y-51173871D01*
X72052268Y-51173871D02*
X72268056Y-51274494D01*
X72268056Y-51274494D02*
X72374496Y-51271586D01*
X72374496Y-51271586D02*
X72437778Y-51248553D01*
X72437778Y-51248553D02*
X72521185Y-51182363D01*
X72521185Y-51182363D02*
X72561434Y-51096048D01*
X72561434Y-51096048D02*
X72558526Y-50989608D01*
X72558526Y-50989608D02*
X72535493Y-50926326D01*
X72535493Y-50926326D02*
X72469303Y-50842919D01*
X72469303Y-50842919D02*
X72316797Y-50719263D01*
X72316797Y-50719263D02*
X72250607Y-50635856D01*
X72250607Y-50635856D02*
X72227574Y-50572574D01*
X72227574Y-50572574D02*
X72224666Y-50466134D01*
X72224666Y-50466134D02*
X72264915Y-50379819D01*
X72264915Y-50379819D02*
X72348322Y-50313629D01*
X72348322Y-50313629D02*
X72411604Y-50290596D01*
X72411604Y-50290596D02*
X72518044Y-50287688D01*
X72518044Y-50287688D02*
X72733832Y-50388311D01*
X72733832Y-50388311D02*
X72843179Y-50491843D01*
X73165407Y-50589558D02*
X72958576Y-51596489D01*
X72958576Y-51596489D02*
X73433076Y-51029625D01*
X73433076Y-51029625D02*
X73303836Y-51757487D01*
X73303836Y-51757487D02*
X73942242Y-50951802D01*
X74339616Y-52240479D02*
X73821726Y-51998983D01*
X74080671Y-52119731D02*
X74503290Y-51213423D01*
X74503290Y-51213423D02*
X74356601Y-51302646D01*
X74356601Y-51302646D02*
X74230036Y-51348712D01*
X74230036Y-51348712D02*
X74123596Y-51351620D01*
X75064337Y-51475044D02*
X75625385Y-51736665D01*
X75625385Y-51736665D02*
X75162285Y-51941052D01*
X75162285Y-51941052D02*
X75291757Y-52001426D01*
X75291757Y-52001426D02*
X75357948Y-52084833D01*
X75357948Y-52084833D02*
X75380981Y-52148115D01*
X75380981Y-52148115D02*
X75383889Y-52254555D01*
X75383889Y-52254555D02*
X75283265Y-52470342D01*
X75283265Y-52470342D02*
X75199859Y-52536533D01*
X75199859Y-52536533D02*
X75136576Y-52559566D01*
X75136576Y-52559566D02*
X75030137Y-52562474D01*
X75030137Y-52562474D02*
X74771192Y-52441726D01*
X74771192Y-52441726D02*
X74705001Y-52358319D01*
X74705001Y-52358319D02*
X74681968Y-52295037D01*
X52665037Y-47335752D02*
X52774385Y-47439284D01*
X52774385Y-47439284D02*
X52990173Y-47539907D01*
X52990173Y-47539907D02*
X53096613Y-47536999D01*
X53096613Y-47536999D02*
X53159895Y-47513966D01*
X53159895Y-47513966D02*
X53243302Y-47447776D01*
X53243302Y-47447776D02*
X53283551Y-47361461D01*
X53283551Y-47361461D02*
X53280643Y-47255021D01*
X53280643Y-47255021D02*
X53257610Y-47191739D01*
X53257610Y-47191739D02*
X53191420Y-47108332D01*
X53191420Y-47108332D02*
X53038914Y-46984676D01*
X53038914Y-46984676D02*
X52972724Y-46901269D01*
X52972724Y-46901269D02*
X52949691Y-46837987D01*
X52949691Y-46837987D02*
X52946783Y-46731547D01*
X52946783Y-46731547D02*
X52987032Y-46645232D01*
X52987032Y-46645232D02*
X53070439Y-46579042D01*
X53070439Y-46579042D02*
X53133721Y-46556009D01*
X53133721Y-46556009D02*
X53240161Y-46553101D01*
X53240161Y-46553101D02*
X53455949Y-46653724D01*
X53455949Y-46653724D02*
X53565296Y-46757256D01*
X53887524Y-46854971D02*
X53680693Y-47861902D01*
X53680693Y-47861902D02*
X54155193Y-47295038D01*
X54155193Y-47295038D02*
X54025953Y-48022900D01*
X54025953Y-48022900D02*
X54664359Y-47217215D01*
X55061733Y-48505892D02*
X54543843Y-48264396D01*
X54802788Y-48385144D02*
X55225407Y-47478836D01*
X55225407Y-47478836D02*
X55078718Y-47568059D01*
X55078718Y-47568059D02*
X54952153Y-47614125D01*
X54952153Y-47614125D02*
X54845713Y-47617033D01*
X55789362Y-47846897D02*
X55852645Y-47823864D01*
X55852645Y-47823864D02*
X55959084Y-47820956D01*
X55959084Y-47820956D02*
X56174872Y-47921579D01*
X56174872Y-47921579D02*
X56241062Y-48004986D01*
X56241062Y-48004986D02*
X56264095Y-48068268D01*
X56264095Y-48068268D02*
X56267003Y-48174708D01*
X56267003Y-48174708D02*
X56226754Y-48261023D01*
X56226754Y-48261023D02*
X56123222Y-48370371D01*
X56123222Y-48370371D02*
X55363836Y-48646765D01*
X55363836Y-48646765D02*
X55924884Y-48908386D01*
X31374435Y-47917456D02*
X31483783Y-48020988D01*
X31483783Y-48020988D02*
X31699571Y-48121611D01*
X31699571Y-48121611D02*
X31806011Y-48118703D01*
X31806011Y-48118703D02*
X31869293Y-48095670D01*
X31869293Y-48095670D02*
X31952700Y-48029480D01*
X31952700Y-48029480D02*
X31992949Y-47943165D01*
X31992949Y-47943165D02*
X31990041Y-47836725D01*
X31990041Y-47836725D02*
X31967008Y-47773443D01*
X31967008Y-47773443D02*
X31900818Y-47690036D01*
X31900818Y-47690036D02*
X31748312Y-47566380D01*
X31748312Y-47566380D02*
X31682122Y-47482973D01*
X31682122Y-47482973D02*
X31659089Y-47419691D01*
X31659089Y-47419691D02*
X31656181Y-47313251D01*
X31656181Y-47313251D02*
X31696430Y-47226936D01*
X31696430Y-47226936D02*
X31779837Y-47160746D01*
X31779837Y-47160746D02*
X31843119Y-47137713D01*
X31843119Y-47137713D02*
X31949559Y-47134805D01*
X31949559Y-47134805D02*
X32165347Y-47235428D01*
X32165347Y-47235428D02*
X32274694Y-47338960D01*
X32596922Y-47436675D02*
X32390091Y-48443606D01*
X32390091Y-48443606D02*
X32864591Y-47876742D01*
X32864591Y-47876742D02*
X32735351Y-48604604D01*
X32735351Y-48604604D02*
X33373757Y-47798919D01*
X33771131Y-49087596D02*
X33253241Y-48846100D01*
X33512186Y-48966848D02*
X33934805Y-48060540D01*
X33934805Y-48060540D02*
X33788116Y-48149763D01*
X33788116Y-48149763D02*
X33661551Y-48195829D01*
X33661551Y-48195829D02*
X33555111Y-48198737D01*
X34634282Y-49490090D02*
X34116392Y-49248593D01*
X34375337Y-49369341D02*
X34797955Y-48463034D01*
X34797955Y-48463034D02*
X34651266Y-48552257D01*
X34651266Y-48552257D02*
X34524701Y-48598323D01*
X34524701Y-48598323D02*
X34418262Y-48601231D01*
X201602544Y-32184078D02*
X201752141Y-32166862D01*
X201752141Y-32166862D02*
X201967928Y-32066238D01*
X201967928Y-32066238D02*
X202034119Y-31982831D01*
X202034119Y-31982831D02*
X202057152Y-31919549D01*
X202057152Y-31919549D02*
X202060060Y-31813109D01*
X202060060Y-31813109D02*
X202019810Y-31726794D01*
X202019810Y-31726794D02*
X201936403Y-31660604D01*
X201936403Y-31660604D02*
X201873121Y-31637571D01*
X201873121Y-31637571D02*
X201766682Y-31634663D01*
X201766682Y-31634663D02*
X201573927Y-31672004D01*
X201573927Y-31672004D02*
X201467487Y-31669096D01*
X201467487Y-31669096D02*
X201404205Y-31646063D01*
X201404205Y-31646063D02*
X201320798Y-31579873D01*
X201320798Y-31579873D02*
X201280549Y-31493558D01*
X201280549Y-31493558D02*
X201283457Y-31387118D01*
X201283457Y-31387118D02*
X201306490Y-31323836D01*
X201306490Y-31323836D02*
X201372680Y-31240429D01*
X201372680Y-31240429D02*
X201588468Y-31139806D01*
X201588468Y-31139806D02*
X201738065Y-31122589D01*
X202020043Y-30938559D02*
X202658449Y-31744243D01*
X202658449Y-31744243D02*
X202529208Y-31016382D01*
X202529208Y-31016382D02*
X203003709Y-31583246D01*
X203003709Y-31583246D02*
X202796878Y-30576315D01*
X204039489Y-31100254D02*
X203521599Y-31341750D01*
X203780544Y-31221002D02*
X203357926Y-30314694D01*
X203357926Y-30314694D02*
X203331985Y-30484416D01*
X203331985Y-30484416D02*
X203285919Y-30610980D01*
X203285919Y-30610980D02*
X203219729Y-30694387D01*
X204177918Y-29932325D02*
X204264233Y-29892076D01*
X204264233Y-29892076D02*
X204370673Y-29894984D01*
X204370673Y-29894984D02*
X204433955Y-29918017D01*
X204433955Y-29918017D02*
X204517362Y-29984207D01*
X204517362Y-29984207D02*
X204641018Y-30136712D01*
X204641018Y-30136712D02*
X204741642Y-30352500D01*
X204741642Y-30352500D02*
X204778983Y-30545255D01*
X204778983Y-30545255D02*
X204776075Y-30651694D01*
X204776075Y-30651694D02*
X204753042Y-30714976D01*
X204753042Y-30714976D02*
X204686852Y-30798383D01*
X204686852Y-30798383D02*
X204600537Y-30838633D01*
X204600537Y-30838633D02*
X204494097Y-30835725D01*
X204494097Y-30835725D02*
X204430815Y-30812692D01*
X204430815Y-30812692D02*
X204347408Y-30746501D01*
X204347408Y-30746501D02*
X204223752Y-30593996D01*
X204223752Y-30593996D02*
X204123128Y-30378208D01*
X204123128Y-30378208D02*
X204085787Y-30185454D01*
X204085787Y-30185454D02*
X204088695Y-30079014D01*
X204088695Y-30079014D02*
X204111728Y-30015732D01*
X204111728Y-30015732D02*
X204177918Y-29932325D01*
X180743517Y-31401128D02*
X180893114Y-31383912D01*
X180893114Y-31383912D02*
X181108902Y-31283288D01*
X181108902Y-31283288D02*
X181175092Y-31199881D01*
X181175092Y-31199881D02*
X181198125Y-31136599D01*
X181198125Y-31136599D02*
X181201033Y-31030159D01*
X181201033Y-31030159D02*
X181160784Y-30943844D01*
X181160784Y-30943844D02*
X181077377Y-30877654D01*
X181077377Y-30877654D02*
X181014095Y-30854621D01*
X181014095Y-30854621D02*
X180907655Y-30851713D01*
X180907655Y-30851713D02*
X180714900Y-30889054D01*
X180714900Y-30889054D02*
X180608461Y-30886146D01*
X180608461Y-30886146D02*
X180545179Y-30863113D01*
X180545179Y-30863113D02*
X180461772Y-30796923D01*
X180461772Y-30796923D02*
X180421522Y-30710608D01*
X180421522Y-30710608D02*
X180424430Y-30604168D01*
X180424430Y-30604168D02*
X180447463Y-30540886D01*
X180447463Y-30540886D02*
X180513654Y-30457479D01*
X180513654Y-30457479D02*
X180729441Y-30356856D01*
X180729441Y-30356856D02*
X180879038Y-30339639D01*
X181161016Y-30155609D02*
X181799422Y-30961293D01*
X181799422Y-30961293D02*
X181670182Y-30233432D01*
X181670182Y-30233432D02*
X182144682Y-30800296D01*
X182144682Y-30800296D02*
X181937852Y-29793365D01*
X182748887Y-30518550D02*
X182921517Y-30438052D01*
X182921517Y-30438052D02*
X182987708Y-30354645D01*
X182987708Y-30354645D02*
X183010741Y-30291363D01*
X183010741Y-30291363D02*
X183036682Y-30121641D01*
X183036682Y-30121641D02*
X182999340Y-29928886D01*
X182999340Y-29928886D02*
X182838343Y-29583626D01*
X182838343Y-29583626D02*
X182754936Y-29517435D01*
X182754936Y-29517435D02*
X182691654Y-29494403D01*
X182691654Y-29494403D02*
X182585214Y-29491494D01*
X182585214Y-29491494D02*
X182412584Y-29571993D01*
X182412584Y-29571993D02*
X182346394Y-29655400D01*
X182346394Y-29655400D02*
X182323361Y-29718682D01*
X182323361Y-29718682D02*
X182320453Y-29825122D01*
X182320453Y-29825122D02*
X182421076Y-30040910D01*
X182421076Y-30040910D02*
X182504483Y-30107100D01*
X182504483Y-30107100D02*
X182567765Y-30130133D01*
X182567765Y-30130133D02*
X182674205Y-30133041D01*
X182674205Y-30133041D02*
X182846835Y-30052542D01*
X182846835Y-30052542D02*
X182913025Y-29969135D01*
X182913025Y-29969135D02*
X182936058Y-29905853D01*
X182936058Y-29905853D02*
X182938966Y-29799413D01*
X161465634Y-35135715D02*
X161615231Y-35118499D01*
X161615231Y-35118499D02*
X161831019Y-35017875D01*
X161831019Y-35017875D02*
X161897209Y-34934468D01*
X161897209Y-34934468D02*
X161920242Y-34871186D01*
X161920242Y-34871186D02*
X161923150Y-34764746D01*
X161923150Y-34764746D02*
X161882901Y-34678431D01*
X161882901Y-34678431D02*
X161799494Y-34612241D01*
X161799494Y-34612241D02*
X161736212Y-34589208D01*
X161736212Y-34589208D02*
X161629772Y-34586300D01*
X161629772Y-34586300D02*
X161437017Y-34623641D01*
X161437017Y-34623641D02*
X161330578Y-34620733D01*
X161330578Y-34620733D02*
X161267296Y-34597700D01*
X161267296Y-34597700D02*
X161183889Y-34531510D01*
X161183889Y-34531510D02*
X161143639Y-34445195D01*
X161143639Y-34445195D02*
X161146547Y-34338755D01*
X161146547Y-34338755D02*
X161169580Y-34275473D01*
X161169580Y-34275473D02*
X161235771Y-34192066D01*
X161235771Y-34192066D02*
X161451558Y-34091443D01*
X161451558Y-34091443D02*
X161601155Y-34074226D01*
X161883133Y-33890196D02*
X162521539Y-34695880D01*
X162521539Y-34695880D02*
X162392299Y-33968019D01*
X162392299Y-33968019D02*
X162866799Y-34534883D01*
X162866799Y-34534883D02*
X162659969Y-33527952D01*
X163315823Y-33694998D02*
X163209384Y-33692090D01*
X163209384Y-33692090D02*
X163146101Y-33669057D01*
X163146101Y-33669057D02*
X163062694Y-33602866D01*
X163062694Y-33602866D02*
X163042570Y-33559709D01*
X163042570Y-33559709D02*
X163045478Y-33453269D01*
X163045478Y-33453269D02*
X163068511Y-33389987D01*
X163068511Y-33389987D02*
X163134701Y-33306580D01*
X163134701Y-33306580D02*
X163307331Y-33226081D01*
X163307331Y-33226081D02*
X163413771Y-33228990D01*
X163413771Y-33228990D02*
X163477053Y-33252022D01*
X163477053Y-33252022D02*
X163560460Y-33318213D01*
X163560460Y-33318213D02*
X163580585Y-33361370D01*
X163580585Y-33361370D02*
X163577677Y-33467810D01*
X163577677Y-33467810D02*
X163554644Y-33531092D01*
X163554644Y-33531092D02*
X163488453Y-33614499D01*
X163488453Y-33614499D02*
X163315823Y-33694998D01*
X163315823Y-33694998D02*
X163249633Y-33778405D01*
X163249633Y-33778405D02*
X163226600Y-33841687D01*
X163226600Y-33841687D02*
X163223692Y-33948127D01*
X163223692Y-33948127D02*
X163304191Y-34120757D01*
X163304191Y-34120757D02*
X163387598Y-34186947D01*
X163387598Y-34186947D02*
X163450880Y-34209980D01*
X163450880Y-34209980D02*
X163557319Y-34212888D01*
X163557319Y-34212888D02*
X163729949Y-34132389D01*
X163729949Y-34132389D02*
X163796140Y-34048982D01*
X163796140Y-34048982D02*
X163819173Y-33985700D01*
X163819173Y-33985700D02*
X163822081Y-33879260D01*
X163822081Y-33879260D02*
X163741582Y-33706630D01*
X163741582Y-33706630D02*
X163658175Y-33640440D01*
X163658175Y-33640440D02*
X163594893Y-33617407D01*
X163594893Y-33617407D02*
X163488453Y-33614499D01*
X146213190Y-47502883D02*
X146362787Y-47485667D01*
X146362787Y-47485667D02*
X146578575Y-47385043D01*
X146578575Y-47385043D02*
X146644765Y-47301636D01*
X146644765Y-47301636D02*
X146667798Y-47238354D01*
X146667798Y-47238354D02*
X146670706Y-47131914D01*
X146670706Y-47131914D02*
X146630457Y-47045599D01*
X146630457Y-47045599D02*
X146547050Y-46979409D01*
X146547050Y-46979409D02*
X146483768Y-46956376D01*
X146483768Y-46956376D02*
X146377328Y-46953468D01*
X146377328Y-46953468D02*
X146184573Y-46990809D01*
X146184573Y-46990809D02*
X146078134Y-46987901D01*
X146078134Y-46987901D02*
X146014852Y-46964868D01*
X146014852Y-46964868D02*
X145931445Y-46898678D01*
X145931445Y-46898678D02*
X145891195Y-46812363D01*
X145891195Y-46812363D02*
X145894103Y-46705923D01*
X145894103Y-46705923D02*
X145917136Y-46642641D01*
X145917136Y-46642641D02*
X145983327Y-46559234D01*
X145983327Y-46559234D02*
X146199114Y-46458611D01*
X146199114Y-46458611D02*
X146348711Y-46441394D01*
X146630689Y-46257364D02*
X147269095Y-47063048D01*
X147269095Y-47063048D02*
X147139855Y-46335187D01*
X147139855Y-46335187D02*
X147614355Y-46902051D01*
X147614355Y-46902051D02*
X147407525Y-45895120D01*
X147666470Y-45774372D02*
X148270675Y-45492626D01*
X148270675Y-45492626D02*
X148304875Y-46580056D01*
X130960746Y-59870052D02*
X131110343Y-59852836D01*
X131110343Y-59852836D02*
X131326131Y-59752212D01*
X131326131Y-59752212D02*
X131392321Y-59668805D01*
X131392321Y-59668805D02*
X131415354Y-59605523D01*
X131415354Y-59605523D02*
X131418262Y-59499083D01*
X131418262Y-59499083D02*
X131378013Y-59412768D01*
X131378013Y-59412768D02*
X131294606Y-59346578D01*
X131294606Y-59346578D02*
X131231324Y-59323545D01*
X131231324Y-59323545D02*
X131124884Y-59320637D01*
X131124884Y-59320637D02*
X130932129Y-59357978D01*
X130932129Y-59357978D02*
X130825690Y-59355070D01*
X130825690Y-59355070D02*
X130762408Y-59332037D01*
X130762408Y-59332037D02*
X130679001Y-59265847D01*
X130679001Y-59265847D02*
X130638751Y-59179532D01*
X130638751Y-59179532D02*
X130641659Y-59073092D01*
X130641659Y-59073092D02*
X130664692Y-59009810D01*
X130664692Y-59009810D02*
X130730883Y-58926403D01*
X130730883Y-58926403D02*
X130946670Y-58825780D01*
X130946670Y-58825780D02*
X131096267Y-58808563D01*
X131378245Y-58624533D02*
X132016651Y-59430217D01*
X132016651Y-59430217D02*
X131887411Y-58702356D01*
X131887411Y-58702356D02*
X132361911Y-59269220D01*
X132361911Y-59269220D02*
X132155081Y-58262289D01*
X132888758Y-57920169D02*
X132716128Y-58000668D01*
X132716128Y-58000668D02*
X132649938Y-58084075D01*
X132649938Y-58084075D02*
X132626905Y-58147357D01*
X132626905Y-58147357D02*
X132600964Y-58317079D01*
X132600964Y-58317079D02*
X132638305Y-58509834D01*
X132638305Y-58509834D02*
X132799303Y-58855094D01*
X132799303Y-58855094D02*
X132882710Y-58921284D01*
X132882710Y-58921284D02*
X132945992Y-58944317D01*
X132945992Y-58944317D02*
X133052431Y-58947225D01*
X133052431Y-58947225D02*
X133225061Y-58866726D01*
X133225061Y-58866726D02*
X133291252Y-58783319D01*
X133291252Y-58783319D02*
X133314285Y-58720037D01*
X133314285Y-58720037D02*
X133317193Y-58613597D01*
X133317193Y-58613597D02*
X133216569Y-58397810D01*
X133216569Y-58397810D02*
X133133163Y-58331620D01*
X133133163Y-58331620D02*
X133069880Y-58308587D01*
X133069880Y-58308587D02*
X132963441Y-58305679D01*
X132963441Y-58305679D02*
X132790811Y-58386177D01*
X132790811Y-58386177D02*
X132724620Y-58469584D01*
X132724620Y-58469584D02*
X132701587Y-58532866D01*
X132701587Y-58532866D02*
X132698679Y-58639306D01*
X110930262Y-58740760D02*
X111039610Y-58844292D01*
X111039610Y-58844292D02*
X111255397Y-58944915D01*
X111255397Y-58944915D02*
X111361837Y-58942007D01*
X111361837Y-58942007D02*
X111425119Y-58918974D01*
X111425119Y-58918974D02*
X111508526Y-58852784D01*
X111508526Y-58852784D02*
X111548776Y-58766469D01*
X111548776Y-58766469D02*
X111545867Y-58660029D01*
X111545867Y-58660029D02*
X111522835Y-58596747D01*
X111522835Y-58596747D02*
X111456644Y-58513340D01*
X111456644Y-58513340D02*
X111304139Y-58389684D01*
X111304139Y-58389684D02*
X111237949Y-58306277D01*
X111237949Y-58306277D02*
X111214916Y-58242995D01*
X111214916Y-58242995D02*
X111212008Y-58136555D01*
X111212008Y-58136555D02*
X111252257Y-58050240D01*
X111252257Y-58050240D02*
X111335664Y-57984050D01*
X111335664Y-57984050D02*
X111398946Y-57961017D01*
X111398946Y-57961017D02*
X111505386Y-57958109D01*
X111505386Y-57958109D02*
X111721173Y-58058732D01*
X111721173Y-58058732D02*
X111830521Y-58162264D01*
X112152748Y-58259979D02*
X111945918Y-59266910D01*
X111945918Y-59266910D02*
X112420418Y-58700046D01*
X112420418Y-58700046D02*
X112291178Y-59427908D01*
X112291178Y-59427908D02*
X112929584Y-58622223D01*
X113706419Y-58984467D02*
X113274844Y-58783221D01*
X113274844Y-58783221D02*
X113030439Y-59194671D01*
X113030439Y-59194671D02*
X113093722Y-59171638D01*
X113093722Y-59171638D02*
X113200161Y-59168730D01*
X113200161Y-59168730D02*
X113415949Y-59269354D01*
X113415949Y-59269354D02*
X113482139Y-59352760D01*
X113482139Y-59352760D02*
X113505172Y-59416043D01*
X113505172Y-59416043D02*
X113508080Y-59522482D01*
X113508080Y-59522482D02*
X113407457Y-59738270D01*
X113407457Y-59738270D02*
X113324050Y-59804460D01*
X113324050Y-59804460D02*
X113260768Y-59827493D01*
X113260768Y-59827493D02*
X113154328Y-59830401D01*
X113154328Y-59830401D02*
X112938540Y-59729778D01*
X112938540Y-59729778D02*
X112872350Y-59646371D01*
X112872350Y-59646371D02*
X112849317Y-59583089D01*
X95677818Y-46373591D02*
X95787166Y-46477123D01*
X95787166Y-46477123D02*
X96002953Y-46577746D01*
X96002953Y-46577746D02*
X96109393Y-46574838D01*
X96109393Y-46574838D02*
X96172675Y-46551805D01*
X96172675Y-46551805D02*
X96256082Y-46485615D01*
X96256082Y-46485615D02*
X96296332Y-46399300D01*
X96296332Y-46399300D02*
X96293423Y-46292860D01*
X96293423Y-46292860D02*
X96270391Y-46229578D01*
X96270391Y-46229578D02*
X96204200Y-46146171D01*
X96204200Y-46146171D02*
X96051695Y-46022515D01*
X96051695Y-46022515D02*
X95985505Y-45939108D01*
X95985505Y-45939108D02*
X95962472Y-45875826D01*
X95962472Y-45875826D02*
X95959564Y-45769386D01*
X95959564Y-45769386D02*
X95999813Y-45683071D01*
X95999813Y-45683071D02*
X96083220Y-45616881D01*
X96083220Y-45616881D02*
X96146502Y-45593848D01*
X96146502Y-45593848D02*
X96252942Y-45590940D01*
X96252942Y-45590940D02*
X96468729Y-45691563D01*
X96468729Y-45691563D02*
X96578077Y-45795095D01*
X96900304Y-45892810D02*
X96693474Y-46899741D01*
X96693474Y-46899741D02*
X97167974Y-46332877D01*
X97167974Y-46332877D02*
X97038734Y-47060739D01*
X97038734Y-47060739D02*
X97677140Y-46255054D01*
X98269944Y-46899276D02*
X97988199Y-47503482D01*
X98215154Y-46453393D02*
X97697497Y-47000132D01*
X97697497Y-47000132D02*
X98258544Y-47261753D01*
X80425374Y-34006423D02*
X80534722Y-34109955D01*
X80534722Y-34109955D02*
X80750509Y-34210578D01*
X80750509Y-34210578D02*
X80856949Y-34207670D01*
X80856949Y-34207670D02*
X80920231Y-34184637D01*
X80920231Y-34184637D02*
X81003638Y-34118447D01*
X81003638Y-34118447D02*
X81043888Y-34032132D01*
X81043888Y-34032132D02*
X81040979Y-33925692D01*
X81040979Y-33925692D02*
X81017947Y-33862410D01*
X81017947Y-33862410D02*
X80951756Y-33779003D01*
X80951756Y-33779003D02*
X80799251Y-33655347D01*
X80799251Y-33655347D02*
X80733061Y-33571940D01*
X80733061Y-33571940D02*
X80710028Y-33508658D01*
X80710028Y-33508658D02*
X80707120Y-33402218D01*
X80707120Y-33402218D02*
X80747369Y-33315903D01*
X80747369Y-33315903D02*
X80830776Y-33249713D01*
X80830776Y-33249713D02*
X80894058Y-33226680D01*
X80894058Y-33226680D02*
X81000498Y-33223772D01*
X81000498Y-33223772D02*
X81216285Y-33324395D01*
X81216285Y-33324395D02*
X81325633Y-33427927D01*
X81647860Y-33525642D02*
X81441030Y-34532573D01*
X81441030Y-34532573D02*
X81915530Y-33965709D01*
X81915530Y-33965709D02*
X81786290Y-34693571D01*
X81786290Y-34693571D02*
X82424696Y-33887886D01*
X82683641Y-34008634D02*
X83244688Y-34270255D01*
X83244688Y-34270255D02*
X82781588Y-34474643D01*
X82781588Y-34474643D02*
X82911061Y-34535017D01*
X82911061Y-34535017D02*
X82977251Y-34618423D01*
X82977251Y-34618423D02*
X83000284Y-34681706D01*
X83000284Y-34681706D02*
X83003192Y-34788145D01*
X83003192Y-34788145D02*
X82902569Y-35003933D01*
X82902569Y-35003933D02*
X82819162Y-35070123D01*
X82819162Y-35070123D02*
X82755880Y-35093156D01*
X82755880Y-35093156D02*
X82649440Y-35096064D01*
X82649440Y-35096064D02*
X82390495Y-34975316D01*
X82390495Y-34975316D02*
X82324305Y-34891909D01*
X82324305Y-34891909D02*
X82301272Y-34828627D01*
X61147491Y-30271836D02*
X61256839Y-30375368D01*
X61256839Y-30375368D02*
X61472626Y-30475991D01*
X61472626Y-30475991D02*
X61579066Y-30473083D01*
X61579066Y-30473083D02*
X61642348Y-30450050D01*
X61642348Y-30450050D02*
X61725755Y-30383860D01*
X61725755Y-30383860D02*
X61766005Y-30297545D01*
X61766005Y-30297545D02*
X61763096Y-30191105D01*
X61763096Y-30191105D02*
X61740064Y-30127823D01*
X61740064Y-30127823D02*
X61673873Y-30044416D01*
X61673873Y-30044416D02*
X61521368Y-29920760D01*
X61521368Y-29920760D02*
X61455178Y-29837353D01*
X61455178Y-29837353D02*
X61432145Y-29774071D01*
X61432145Y-29774071D02*
X61429237Y-29667631D01*
X61429237Y-29667631D02*
X61469486Y-29581316D01*
X61469486Y-29581316D02*
X61552893Y-29515126D01*
X61552893Y-29515126D02*
X61616175Y-29492093D01*
X61616175Y-29492093D02*
X61722615Y-29489185D01*
X61722615Y-29489185D02*
X61938402Y-29589808D01*
X61938402Y-29589808D02*
X62047750Y-29693340D01*
X62369977Y-29791055D02*
X62163147Y-30797986D01*
X62163147Y-30797986D02*
X62637647Y-30231122D01*
X62637647Y-30231122D02*
X62508407Y-30958984D01*
X62508407Y-30958984D02*
X63146813Y-30153299D01*
X63408666Y-30380487D02*
X63471948Y-30357454D01*
X63471948Y-30357454D02*
X63578388Y-30354546D01*
X63578388Y-30354546D02*
X63794175Y-30455169D01*
X63794175Y-30455169D02*
X63860366Y-30538576D01*
X63860366Y-30538576D02*
X63883398Y-30601859D01*
X63883398Y-30601859D02*
X63886307Y-30708298D01*
X63886307Y-30708298D02*
X63846057Y-30794613D01*
X63846057Y-30794613D02*
X63742526Y-30903961D01*
X63742526Y-30903961D02*
X62983139Y-31180355D01*
X62983139Y-31180355D02*
X63544187Y-31441976D01*
X39856889Y-30853539D02*
X39966237Y-30957071D01*
X39966237Y-30957071D02*
X40182024Y-31057694D01*
X40182024Y-31057694D02*
X40288464Y-31054786D01*
X40288464Y-31054786D02*
X40351746Y-31031753D01*
X40351746Y-31031753D02*
X40435153Y-30965563D01*
X40435153Y-30965563D02*
X40475403Y-30879248D01*
X40475403Y-30879248D02*
X40472494Y-30772808D01*
X40472494Y-30772808D02*
X40449462Y-30709526D01*
X40449462Y-30709526D02*
X40383271Y-30626119D01*
X40383271Y-30626119D02*
X40230766Y-30502463D01*
X40230766Y-30502463D02*
X40164576Y-30419056D01*
X40164576Y-30419056D02*
X40141543Y-30355774D01*
X40141543Y-30355774D02*
X40138635Y-30249334D01*
X40138635Y-30249334D02*
X40178884Y-30163019D01*
X40178884Y-30163019D02*
X40262291Y-30096829D01*
X40262291Y-30096829D02*
X40325573Y-30073796D01*
X40325573Y-30073796D02*
X40432013Y-30070888D01*
X40432013Y-30070888D02*
X40647800Y-30171511D01*
X40647800Y-30171511D02*
X40757148Y-30275043D01*
X41079375Y-30372758D02*
X40872545Y-31379689D01*
X40872545Y-31379689D02*
X41347045Y-30812825D01*
X41347045Y-30812825D02*
X41217805Y-31540687D01*
X41217805Y-31540687D02*
X41856211Y-30735002D01*
X42253585Y-32023679D02*
X41735695Y-31782183D01*
X41994640Y-31902931D02*
X42417258Y-30996623D01*
X42417258Y-30996623D02*
X42270569Y-31085846D01*
X42270569Y-31085846D02*
X42144005Y-31131912D01*
X42144005Y-31131912D02*
X42037565Y-31134820D01*
D11*
X180306011Y-100453164D02*
X186307190Y-113322735D01*
X186307190Y-113322735D02*
X199176761Y-107321556D01*
X199176761Y-107321556D02*
X193175582Y-94451985D01*
X193175582Y-94451985D02*
X180306011Y-100453164D01*
X165053567Y-112820333D02*
X171054746Y-125689904D01*
X171054746Y-125689904D02*
X183924317Y-119688725D01*
X183924317Y-119688725D02*
X177923138Y-106819154D01*
X177923138Y-106819154D02*
X165053567Y-112820333D01*
X66384691Y-106816844D02*
X60383512Y-119686415D01*
X60383512Y-119686415D02*
X73253083Y-125687594D01*
X73253083Y-125687594D02*
X79254262Y-112818023D01*
X79254262Y-112818023D02*
X66384691Y-106816844D01*
X51132247Y-94449675D02*
X45131068Y-107319246D01*
X45131068Y-107319246D02*
X58000639Y-113320425D01*
X58000639Y-113320425D02*
X64001818Y-100450854D01*
X64001818Y-100450854D02*
X51132247Y-94449675D01*
X191823868Y-68808112D02*
X197825047Y-81677683D01*
X197825047Y-81677683D02*
X210694618Y-75676504D01*
X210694618Y-75676504D02*
X204693439Y-62806933D01*
X204693439Y-62806933D02*
X191823868Y-68808112D01*
X172545985Y-72542699D02*
X178547164Y-85412270D01*
X178547164Y-85412270D02*
X191416735Y-79411091D01*
X191416735Y-79411091D02*
X185415556Y-66541520D01*
X185415556Y-66541520D02*
X172545985Y-72542699D01*
X157293541Y-84909868D02*
X163294720Y-97779439D01*
X163294720Y-97779439D02*
X176164291Y-91778260D01*
X176164291Y-91778260D02*
X170163112Y-78908689D01*
X170163112Y-78908689D02*
X157293541Y-84909868D01*
X74144717Y-78906379D02*
X68143538Y-91775950D01*
X68143538Y-91775950D02*
X81013109Y-97777129D01*
X81013109Y-97777129D02*
X87014288Y-84907558D01*
X87014288Y-84907558D02*
X74144717Y-78906379D01*
X58892273Y-66539210D02*
X52891094Y-79408781D01*
X52891094Y-79408781D02*
X65760665Y-85409960D01*
X65760665Y-85409960D02*
X71761844Y-72540389D01*
X71761844Y-72540389D02*
X58892273Y-66539210D01*
X39614390Y-62804623D02*
X33613211Y-75674194D01*
X33613211Y-75674194D02*
X46482782Y-81675373D01*
X46482782Y-81675373D02*
X52483961Y-68805802D01*
X52483961Y-68805802D02*
X39614390Y-62804623D01*
X205063592Y-52124653D02*
X211064771Y-64994224D01*
X211064771Y-64994224D02*
X223934342Y-58993045D01*
X223934342Y-58993045D02*
X217933163Y-46123474D01*
X217933163Y-46123474D02*
X205063592Y-52124653D01*
X183772990Y-51542949D02*
X189774169Y-64412520D01*
X189774169Y-64412520D02*
X202643740Y-58411341D01*
X202643740Y-58411341D02*
X196642561Y-45541770D01*
X196642561Y-45541770D02*
X183772990Y-51542949D01*
X164495107Y-55277536D02*
X170496286Y-68147107D01*
X170496286Y-68147107D02*
X183365857Y-62145928D01*
X183365857Y-62145928D02*
X177364678Y-49276357D01*
X177364678Y-49276357D02*
X164495107Y-55277536D01*
X149242663Y-67644705D02*
X155243842Y-80514276D01*
X155243842Y-80514276D02*
X168113413Y-74513097D01*
X168113413Y-74513097D02*
X162112234Y-61643526D01*
X162112234Y-61643526D02*
X149242663Y-67644705D01*
X133990219Y-80011874D02*
X139991398Y-92881445D01*
X139991398Y-92881445D02*
X152860969Y-86880266D01*
X152860969Y-86880266D02*
X146859790Y-74010695D01*
X146859790Y-74010695D02*
X133990219Y-80011874D01*
X97448039Y-74008385D02*
X91446860Y-86877956D01*
X91446860Y-86877956D02*
X104316431Y-92879135D01*
X104316431Y-92879135D02*
X110317610Y-80009564D01*
X110317610Y-80009564D02*
X97448039Y-74008385D01*
X82195595Y-61641216D02*
X76194416Y-74510787D01*
X76194416Y-74510787D02*
X89063987Y-80511966D01*
X89063987Y-80511966D02*
X95065166Y-67642395D01*
X95065166Y-67642395D02*
X82195595Y-61641216D01*
X66943151Y-49274047D02*
X60941972Y-62143618D01*
X60941972Y-62143618D02*
X73811543Y-68144797D01*
X73811543Y-68144797D02*
X79812722Y-55275226D01*
X79812722Y-55275226D02*
X66943151Y-49274047D01*
X47665268Y-45539460D02*
X41664089Y-58409031D01*
X41664089Y-58409031D02*
X54533660Y-64410210D01*
X54533660Y-64410210D02*
X60534839Y-51540639D01*
X60534839Y-51540639D02*
X47665268Y-45539460D01*
X26374666Y-46121164D02*
X20373487Y-58990735D01*
X20373487Y-58990735D02*
X33243058Y-64991914D01*
X33243058Y-64991914D02*
X39244237Y-52122343D01*
X39244237Y-52122343D02*
X26374666Y-46121164D01*
X197012714Y-34859489D02*
X203013893Y-47729060D01*
X203013893Y-47729060D02*
X215883464Y-41727881D01*
X215883464Y-41727881D02*
X209882285Y-28858310D01*
X209882285Y-28858310D02*
X197012714Y-34859489D01*
X175722112Y-34277786D02*
X181723291Y-47147357D01*
X181723291Y-47147357D02*
X194592862Y-41146178D01*
X194592862Y-41146178D02*
X188591683Y-28276607D01*
X188591683Y-28276607D02*
X175722112Y-34277786D01*
X156444229Y-38012373D02*
X162445408Y-50881944D01*
X162445408Y-50881944D02*
X175314979Y-44880765D01*
X175314979Y-44880765D02*
X169313800Y-32011194D01*
X169313800Y-32011194D02*
X156444229Y-38012373D01*
X141191785Y-50379541D02*
X147192964Y-63249112D01*
X147192964Y-63249112D02*
X160062535Y-57247933D01*
X160062535Y-57247933D02*
X154061356Y-44378362D01*
X154061356Y-44378362D02*
X141191785Y-50379541D01*
X125939341Y-62746710D02*
X131940520Y-75616281D01*
X131940520Y-75616281D02*
X144810091Y-69615102D01*
X144810091Y-69615102D02*
X138808912Y-56745531D01*
X138808912Y-56745531D02*
X125939341Y-62746710D01*
X105498917Y-56743221D02*
X99497738Y-69612792D01*
X99497738Y-69612792D02*
X112367309Y-75613971D01*
X112367309Y-75613971D02*
X118368488Y-62744400D01*
X118368488Y-62744400D02*
X105498917Y-56743221D01*
X90246473Y-44376052D02*
X84245294Y-57245623D01*
X84245294Y-57245623D02*
X97114865Y-63246802D01*
X97114865Y-63246802D02*
X103116044Y-50377231D01*
X103116044Y-50377231D02*
X90246473Y-44376052D01*
X74994029Y-32008884D02*
X68992850Y-44878455D01*
X68992850Y-44878455D02*
X81862421Y-50879634D01*
X81862421Y-50879634D02*
X87863600Y-38010063D01*
X87863600Y-38010063D02*
X74994029Y-32008884D01*
X55716146Y-28274297D02*
X49714967Y-41143868D01*
X49714967Y-41143868D02*
X62584538Y-47145047D01*
X62584538Y-47145047D02*
X68585717Y-34275476D01*
X68585717Y-34275476D02*
X55716146Y-28274297D01*
X34425544Y-28856000D02*
X28424365Y-41725571D01*
X28424365Y-41725571D02*
X41293936Y-47726750D01*
X41293936Y-47726750D02*
X47295115Y-34857179D01*
X47295115Y-34857179D02*
X34425544Y-28856000D01*
%LPC*%
D12*
X113659000Y-34798000D03*
X113659000Y-37338000D03*
X113659000Y-39878000D03*
X113659000Y-42418000D03*
X113659000Y-44958000D03*
X113659000Y-47498000D03*
X113659000Y-50038000D03*
X113659000Y-52578000D03*
X113659000Y-55118000D03*
D13*
X117094000Y-56013000D03*
X119634000Y-56013000D03*
X122174000Y-56013000D03*
X124714000Y-56013000D03*
X127254000Y-56013000D03*
D12*
X130689000Y-55118000D03*
X130689000Y-52578000D03*
X130689000Y-50038000D03*
X130689000Y-47498000D03*
X130689000Y-44958000D03*
X130689000Y-42418000D03*
X130689000Y-39878000D03*
X130689000Y-37338000D03*
X130689000Y-34798000D03*
D14*
X185214903Y-103195514D03*
X189896507Y-98209866D03*
D15*
X189741386Y-103887360D03*
D16*
X185137342Y-106034261D03*
X194345430Y-101740459D03*
D14*
X169962459Y-115562683D03*
X174644063Y-110577035D03*
D15*
X174488942Y-116254529D03*
D16*
X169884898Y-118401430D03*
X179092986Y-114107628D03*
D14*
X67439305Y-112340022D03*
X74267810Y-112721626D03*
D15*
X69818887Y-116252219D03*
D16*
X65214843Y-114105318D03*
X74422931Y-118399120D03*
D14*
X52186861Y-99972853D03*
X59015366Y-100354457D03*
D15*
X54566443Y-103885050D03*
D16*
X49962399Y-101738149D03*
X59170487Y-106031951D03*
D14*
X196732760Y-71550462D03*
X201414364Y-66564814D03*
D15*
X201259243Y-72242308D03*
D16*
X196655199Y-74389209D03*
X205863287Y-70095407D03*
D14*
X177454877Y-75285049D03*
X182136481Y-70299401D03*
D15*
X181981360Y-75976895D03*
D16*
X177377316Y-78123796D03*
X186585404Y-73829994D03*
D14*
X162202433Y-87652218D03*
X166884037Y-82666570D03*
D15*
X166728916Y-88344064D03*
D16*
X162124872Y-90490965D03*
X171332960Y-86197163D03*
D14*
X75199331Y-84429557D03*
X82027836Y-84811161D03*
D15*
X77578913Y-88341754D03*
D16*
X72974869Y-86194853D03*
X82182957Y-90488655D03*
D14*
X59946887Y-72062388D03*
X66775392Y-72443992D03*
D15*
X62326469Y-75974585D03*
D16*
X57722425Y-73827684D03*
X66930513Y-78121486D03*
D14*
X40669004Y-68327801D03*
X47497509Y-68709405D03*
D15*
X43048586Y-72239998D03*
D16*
X38444542Y-70093097D03*
X47652630Y-74386899D03*
D14*
X209972484Y-54867003D03*
X214654088Y-49881355D03*
D15*
X214498967Y-55558849D03*
D16*
X209894923Y-57705750D03*
X219103011Y-53411948D03*
D14*
X188681882Y-54285299D03*
X193363486Y-49299651D03*
D15*
X193208365Y-54977145D03*
D16*
X188604321Y-57124046D03*
X197812409Y-52830244D03*
D14*
X169403999Y-58019886D03*
X174085603Y-53034238D03*
D15*
X173930482Y-58711732D03*
D16*
X169326438Y-60858633D03*
X178534526Y-56564831D03*
D14*
X154151555Y-70387055D03*
X158833159Y-65401407D03*
D15*
X158678038Y-71078901D03*
D16*
X154073994Y-73225802D03*
X163282082Y-68932000D03*
D14*
X138899111Y-82754224D03*
X143580715Y-77768576D03*
D15*
X143425594Y-83446070D03*
D16*
X138821550Y-85592971D03*
X148029638Y-81299169D03*
D14*
X98502653Y-79531563D03*
X105331158Y-79913167D03*
D15*
X100882235Y-83443760D03*
D16*
X96278191Y-81296859D03*
X105486279Y-85590661D03*
D14*
X83250209Y-67164394D03*
X90078714Y-67545998D03*
D15*
X85629791Y-71076591D03*
D16*
X81025747Y-68929690D03*
X90233835Y-73223492D03*
D14*
X67997765Y-54797225D03*
X74826270Y-55178829D03*
D15*
X70377347Y-58709422D03*
D16*
X65773303Y-56562521D03*
X74981391Y-60856323D03*
D14*
X48719882Y-51062638D03*
X55548387Y-51444242D03*
D15*
X51099464Y-54974835D03*
D16*
X46495420Y-52827934D03*
X55703508Y-57121736D03*
D14*
X27429280Y-51644342D03*
X34257785Y-52025946D03*
D15*
X29808862Y-55556539D03*
D16*
X25204818Y-53409638D03*
X34412906Y-57703440D03*
D14*
X201921606Y-37601839D03*
X206603210Y-32616191D03*
D15*
X206448089Y-38293685D03*
D16*
X201844045Y-40440586D03*
X211052133Y-36146784D03*
D14*
X180631004Y-37020136D03*
X185312608Y-32034488D03*
D15*
X185157487Y-37711982D03*
D16*
X180553443Y-39858883D03*
X189761531Y-35565081D03*
D14*
X161353121Y-40754723D03*
X166034725Y-35769075D03*
D15*
X165879604Y-41446569D03*
D16*
X161275560Y-43593470D03*
X170483648Y-39299668D03*
D14*
X146100677Y-53121891D03*
X150782281Y-48136243D03*
D15*
X150627160Y-53813737D03*
D16*
X146023116Y-55960638D03*
X155231204Y-51666836D03*
D14*
X130848233Y-65489060D03*
X135529837Y-60503412D03*
D15*
X135374716Y-66180906D03*
D16*
X130770672Y-68327807D03*
X139978760Y-64034005D03*
D14*
X106553531Y-62266399D03*
X113382036Y-62648003D03*
D15*
X108933113Y-66178596D03*
D16*
X104329069Y-64031695D03*
X113537157Y-68325497D03*
D14*
X91301087Y-49899230D03*
X98129592Y-50280834D03*
D15*
X93680669Y-53811427D03*
D16*
X89076625Y-51664526D03*
X98284713Y-55958328D03*
D14*
X76048643Y-37532062D03*
X82877148Y-37913666D03*
D15*
X78428225Y-41444259D03*
D16*
X73824181Y-39297358D03*
X83032269Y-43591160D03*
D14*
X56770760Y-33797475D03*
X63599265Y-34179079D03*
D15*
X59150342Y-37709672D03*
D16*
X54546298Y-35562771D03*
X63754386Y-39856573D03*
D14*
X35480158Y-34379178D03*
X42308663Y-34760782D03*
D15*
X37859740Y-38291375D03*
D16*
X33255696Y-36144474D03*
X42463784Y-40438276D03*
M02*
