M48
; DRILL file {KiCad 7.0.1} date Mon Jun 17 16:10:24 2024
; FORMAT={-:-/ absolute / metric / decimal}
; #@! TF.CreationDate,2024-06-17T16:10:24-04:00
; #@! TF.GenerationSoftware,Kicad,Pcbnew,7.0.1
; #@! TF.FileFunction,NonPlated,1,2,NPTH
FMAT,2
METRIC
; #@! TA.AperFunction,NonPlated,NPTH,ComponentDrill
T1C1.900
; #@! TA.AperFunction,NonPlated,NPTH,ComponentDrill
T2C3.450
%
G90
G05
T1
X50.261Y-76.475
X56.075Y-60.5
X60.597Y-80.237
X65.722Y-86.625
X66.412Y-64.262
X71.536Y-70.65
X76.058Y-90.387
X77.35Y-54.675
X81.873Y-74.412
X84.09Y-88.787
X87.687Y-58.438
X89.904Y-72.813
X93.023Y-130.03
X94.426Y-92.55
X95.718Y-56.838
X99.55Y-98.938
X100.241Y-76.575
X103.359Y-133.792
X105.365Y-82.963
X106.055Y-60.6
X109.065Y-138.583
X109.887Y-102.7
X111.179Y-66.988
X115.701Y-86.725
X118.5Y-99.503
X119.401Y-142.345
X121.516Y-70.75
X124.314Y-83.528
X128.837Y-103.265
X134.651Y-87.29
X152.8Y-87.29
X158.614Y-103.265
X163.137Y-83.528
X165.935Y-70.75
X168.049Y-142.345
X168.951Y-99.503
X171.749Y-86.725
X176.272Y-66.988
X177.564Y-102.7
X178.386Y-138.583
X181.396Y-60.6
X182.086Y-82.963
X184.092Y-133.792
X187.21Y-76.575
X187.9Y-98.938
X191.733Y-56.838
X193.025Y-92.55
X194.428Y-130.03
X197.547Y-72.813
X199.764Y-58.438
X203.361Y-88.787
X205.578Y-74.412
X210.101Y-54.675
X211.393Y-90.387
X215.915Y-70.65
X221.039Y-64.262
X221.729Y-86.625
X226.854Y-80.237
X231.376Y-60.5
X237.19Y-76.475
T2
X55.429Y-78.356
X61.243Y-62.381
X70.89Y-88.506
X76.704Y-72.531
X82.519Y-56.556
X89.258Y-90.669
X95.072Y-74.694
X98.191Y-131.911
X100.887Y-58.719
X104.719Y-100.819
X110.533Y-84.844
X114.233Y-140.464
X116.347Y-68.869
X123.668Y-101.384
X129.483Y-85.409
X157.968Y-85.409
X163.783Y-101.384
X171.103Y-68.869
X173.218Y-140.464
X176.918Y-84.844
X182.732Y-100.819
X186.564Y-58.719
X189.26Y-131.911
X192.379Y-74.694
X198.193Y-90.669
X204.932Y-56.556
X210.747Y-72.531
X216.561Y-88.506
X226.208Y-62.381
X232.022Y-78.356
T0
M30
