M48
; DRILL file {KiCad 7.0.1} date Mon Jun 17 16:10:24 2024
; FORMAT={-:-/ absolute / metric / decimal}
; #@! TF.CreationDate,2024-06-17T16:10:24-04:00
; #@! TF.GenerationSoftware,Kicad,Pcbnew,7.0.1
; #@! TF.FileFunction,Plated,1,2,PTH
FMAT,2
METRIC
; #@! TA.AperFunction,Plated,PTH,ViaDrill
T1C0.400
; #@! TA.AperFunction,Plated,PTH,ComponentDrill
T2C1.000
; #@! TA.AperFunction,Plated,PTH,ComponentDrill
T3C1.200
%
G90
G05
T1
X118.2Y-103.71
X118.404Y-102.306
X126.86Y-97.989
X128.445Y-97.385
X140.216Y-88.279
X140.276Y-89.277
X140.31Y-90.275
X143.35Y-90.275
X146.06Y-89.26
X149.06Y-88.26
T2
X136.144Y-54.102
X136.144Y-56.642
X136.144Y-59.182
X136.144Y-61.722
X136.144Y-64.262
X136.144Y-66.802
X136.144Y-69.342
X136.144Y-71.882
X136.144Y-74.422
X138.684Y-74.422
X141.224Y-74.422
X143.764Y-74.422
X146.304Y-74.422
X148.844Y-74.422
X151.384Y-54.102
X151.384Y-56.642
X151.384Y-59.182
X151.384Y-61.722
X151.384Y-64.262
X151.384Y-66.802
X151.384Y-69.342
X151.384Y-71.882
X151.384Y-74.422
T3
X57.447Y-72.812
X61.427Y-76.495
X63.261Y-56.837
X67.241Y-60.52
X72.908Y-82.962
X76.888Y-86.645
X78.722Y-66.987
X82.702Y-70.67
X84.536Y-51.012
X88.517Y-54.696
X91.276Y-85.124
X95.256Y-88.808
X97.09Y-69.15
X100.209Y-126.367
X101.07Y-72.833
X102.905Y-53.175
X104.189Y-130.05
X106.737Y-95.274
X106.885Y-56.858
X110.717Y-98.958
X112.551Y-79.3
X116.251Y-134.919
X116.531Y-82.983
X118.365Y-63.325
X120.231Y-138.603
X122.346Y-67.008
X125.686Y-95.84
X129.666Y-99.523
X131.501Y-79.865
X135.481Y-83.548
X155.95Y-79.865
X161.367Y-80.128
X161.765Y-95.84
X167.181Y-96.103
X169.086Y-63.325
X171.2Y-134.919
X174.502Y-63.588
X174.9Y-79.3
X176.617Y-135.183
X180.317Y-79.563
X180.714Y-95.274
X184.546Y-53.175
X186.131Y-95.538
X187.242Y-126.367
X189.963Y-53.438
X190.361Y-69.15
X192.659Y-126.63
X195.777Y-69.413
X196.175Y-85.124
X201.592Y-85.388
X202.914Y-51.012
X208.331Y-51.275
X208.729Y-66.987
X214.146Y-67.25
X214.543Y-82.962
X219.96Y-83.225
X224.19Y-56.837
X229.606Y-57.1
X230.004Y-72.812
X235.421Y-73.075
T0
M30
