%TF.GenerationSoftware,KiCad,Pcbnew,7.0.1*%
%TF.CreationDate,2024-06-17T16:10:21-04:00*%
%TF.ProjectId,goober-wi,676f6f62-6572-42d7-9769-2e6b69636164,rev?*%
%TF.SameCoordinates,Original*%
%TF.FileFunction,Soldermask,Top*%
%TF.FilePolarity,Negative*%
%FSLAX46Y46*%
G04 Gerber Fmt 4.6, Leading zero omitted, Abs format (unit mm)*
G04 Created by KiCad (PCBNEW 7.0.1) date 2024-06-17 16:10:21*
%MOMM*%
%LPD*%
G01*
G04 APERTURE LIST*
%ADD10C,1.900000*%
%ADD11C,3.450000*%
%ADD12C,2.200000*%
%ADD13O,3.130000X1.500000*%
%ADD14O,3.130000X1.430000*%
%ADD15O,1.500000X2.990000*%
%ADD16O,1.430000X2.990000*%
%ADD17O,3.130000X1.550000*%
G04 APERTURE END LIST*
D10*
%TO.C,SW30*%
X184091746Y-133792201D03*
D11*
X189260055Y-131911090D03*
D10*
X194428364Y-130029979D03*
D12*
X187242136Y-126366904D03*
X192658842Y-126630157D03*
%TD*%
D10*
%TO.C,SW3*%
X95718277Y-56837951D03*
D11*
X100886586Y-58719062D03*
D10*
X106054895Y-60600173D03*
D12*
X102904505Y-53174876D03*
X106884726Y-56858331D03*
%TD*%
D10*
%TO.C,SW10*%
X221039303Y-64262222D03*
D11*
X226207612Y-62381111D03*
D10*
X231375921Y-60500000D03*
D12*
X224189693Y-56836925D03*
X229606399Y-57100178D03*
%TD*%
D10*
%TO.C,SW5*%
X124314303Y-83527973D03*
D11*
X129482612Y-85409084D03*
D10*
X134650921Y-87290195D03*
D12*
X131500531Y-79864898D03*
X135480752Y-83548353D03*
%TD*%
D10*
%TO.C,SW28*%
X109064873Y-138582558D03*
D11*
X114233182Y-140463669D03*
D10*
X119401491Y-142344780D03*
D12*
X116251101Y-134919483D03*
X120231322Y-138602938D03*
%TD*%
D10*
%TO.C,SW22*%
X84089592Y-88787500D03*
D11*
X89257901Y-90668611D03*
D10*
X94426210Y-92549722D03*
D12*
X91275820Y-85124425D03*
X95256041Y-88807880D03*
%TD*%
D10*
%TO.C,SW14*%
X105364816Y-82962781D03*
D11*
X110533125Y-84843892D03*
D10*
X115701434Y-86725003D03*
D12*
X112551044Y-79299706D03*
X116531265Y-82983161D03*
%TD*%
D10*
%TO.C,SW1*%
X56075000Y-60500000D03*
D11*
X61243309Y-62381111D03*
D10*
X66411618Y-64262222D03*
D12*
X63261228Y-56836925D03*
X67241449Y-60520380D03*
%TD*%
D10*
%TO.C,SW19*%
X205578421Y-74412278D03*
D11*
X210746730Y-72531167D03*
D10*
X215915039Y-70650056D03*
D12*
X208728811Y-66986981D03*
X214145517Y-67250234D03*
%TD*%
D10*
%TO.C,SW6*%
X152800000Y-87290195D03*
D11*
X157968309Y-85409084D03*
D10*
X163136618Y-83527973D03*
D12*
X155950390Y-79864898D03*
X161367096Y-80128151D03*
%TD*%
D10*
%TO.C,SW4*%
X111179159Y-66988007D03*
D11*
X116347468Y-68869118D03*
D10*
X121515777Y-70750229D03*
D12*
X118365387Y-63324932D03*
X122345608Y-67008387D03*
%TD*%
D10*
%TO.C,SW15*%
X118499961Y-99502747D03*
D11*
X123668270Y-101383858D03*
D10*
X128836579Y-103264969D03*
D12*
X125686189Y-95839672D03*
X129666410Y-99523127D03*
%TD*%
D10*
%TO.C,SW11*%
X50260658Y-76474775D03*
D11*
X55428967Y-78355886D03*
D10*
X60597276Y-80236997D03*
D12*
X57446886Y-72811700D03*
X61427107Y-76495155D03*
%TD*%
D10*
%TO.C,SW26*%
X211392764Y-90387053D03*
D11*
X216561073Y-88505942D03*
D10*
X221729382Y-86624831D03*
D12*
X214543154Y-82961756D03*
X219959860Y-83225009D03*
%TD*%
D10*
%TO.C,SW9*%
X199764079Y-58437504D03*
D11*
X204932388Y-56556393D03*
D10*
X210100697Y-54675282D03*
D12*
X202914469Y-51012207D03*
X208331175Y-51275460D03*
%TD*%
D10*
%TO.C,SW25*%
X193024711Y-92549722D03*
D11*
X198193020Y-90668611D03*
D10*
X203361329Y-88787500D03*
D12*
X196175101Y-85124425D03*
X201591807Y-85387678D03*
%TD*%
D10*
%TO.C,SW8*%
X181396026Y-60600173D03*
D11*
X186564335Y-58719062D03*
D10*
X191732644Y-56837951D03*
D12*
X184546416Y-53174876D03*
X189963122Y-53438129D03*
%TD*%
D10*
%TO.C,SW24*%
X177563829Y-102699778D03*
D11*
X182732138Y-100818667D03*
D10*
X187900447Y-98937556D03*
D12*
X180714219Y-95274481D03*
X186130925Y-95537734D03*
%TD*%
D10*
%TO.C,SW17*%
X171749487Y-86725003D03*
D11*
X176917796Y-84843892D03*
D10*
X182086105Y-82962781D03*
D12*
X174899877Y-79299706D03*
X180316583Y-79562959D03*
%TD*%
D10*
%TO.C,SW27*%
X93022557Y-130029979D03*
D11*
X98190866Y-131911090D03*
D10*
X103359175Y-133792201D03*
D12*
X100208785Y-126366904D03*
X104189006Y-130050359D03*
%TD*%
D10*
%TO.C,SW29*%
X168049430Y-142344780D03*
D11*
X173217739Y-140463669D03*
D10*
X178386048Y-138582558D03*
D12*
X171199820Y-134919483D03*
X176616526Y-135182736D03*
%TD*%
D10*
%TO.C,SW23*%
X99550474Y-98937556D03*
D11*
X104718783Y-100818667D03*
D10*
X109887092Y-102699778D03*
D12*
X106736702Y-95274481D03*
X110716923Y-98957936D03*
%TD*%
D10*
%TO.C,SW13*%
X89903935Y-72812725D03*
D11*
X95072244Y-74693836D03*
D10*
X100240553Y-76574947D03*
D12*
X97090163Y-69149650D03*
X101070384Y-72833105D03*
%TD*%
D10*
%TO.C,SW18*%
X187210368Y-76574947D03*
D11*
X192378677Y-74693836D03*
D10*
X197546986Y-72812725D03*
D12*
X190360758Y-69149650D03*
X195777464Y-69412903D03*
%TD*%
D10*
%TO.C,SW21*%
X65721539Y-86624831D03*
D11*
X70889848Y-88505942D03*
D10*
X76058157Y-90387053D03*
D12*
X72907767Y-82961756D03*
X76887988Y-86645211D03*
%TD*%
D10*
%TO.C,SW7*%
X165935144Y-70750229D03*
D11*
X171103453Y-68869118D03*
D10*
X176271762Y-66988007D03*
D12*
X169085534Y-63324932D03*
X174502240Y-63588185D03*
%TD*%
D10*
%TO.C,SW20*%
X226853645Y-80236997D03*
D11*
X232021954Y-78355886D03*
D10*
X237190263Y-76474775D03*
D12*
X230004035Y-72811700D03*
X235420741Y-73074953D03*
%TD*%
D10*
%TO.C,SW2*%
X77350224Y-54675282D03*
D11*
X82518533Y-56556393D03*
D10*
X87686842Y-58437504D03*
D12*
X84536452Y-51012207D03*
X88516673Y-54695662D03*
%TD*%
D10*
%TO.C,SW16*%
X158614342Y-103264969D03*
D11*
X163782651Y-101383858D03*
D10*
X168950960Y-99502747D03*
D12*
X161764732Y-95839672D03*
X167181438Y-96102925D03*
%TD*%
D10*
%TO.C,SW12*%
X71535882Y-70650056D03*
D11*
X76704191Y-72531167D03*
D10*
X81872500Y-74412278D03*
D12*
X78722110Y-66986981D03*
X82702331Y-70670436D03*
%TD*%
D13*
%TO.C,U1*%
X135329000Y-54102000D03*
X135329000Y-56642000D03*
D14*
X135329000Y-59147000D03*
D13*
X135329000Y-61722000D03*
X135329000Y-64262000D03*
X135329000Y-66802000D03*
X135329000Y-69342000D03*
X135329000Y-71882000D03*
X135329000Y-74422000D03*
D15*
X138684000Y-75167000D03*
X141224000Y-75167000D03*
X143764000Y-75167000D03*
X146304000Y-75167000D03*
D16*
X148879000Y-75167000D03*
D13*
X152199000Y-74422000D03*
X152199000Y-71882000D03*
X152199000Y-69342000D03*
X152199000Y-66802000D03*
D17*
X152199000Y-64237000D03*
D13*
X152199000Y-61722000D03*
X152199000Y-59182000D03*
X152199000Y-56642000D03*
X152199000Y-54102000D03*
%TD*%
M02*
