%TF.GenerationSoftware,KiCad,Pcbnew,7.0.1*%
%TF.CreationDate,2024-06-17T16:10:21-04:00*%
%TF.ProjectId,goober-wi,676f6f62-6572-42d7-9769-2e6b69636164,rev?*%
%TF.SameCoordinates,Original*%
%TF.FileFunction,Profile,NP*%
%FSLAX46Y46*%
G04 Gerber Fmt 4.6, Leading zero omitted, Abs format (unit mm)*
G04 Created by KiCad (PCBNEW 7.0.1) date 2024-06-17 16:10:21*
%MOMM*%
%LPD*%
G01*
G04 APERTURE LIST*
%TA.AperFunction,Profile*%
%ADD10C,0.100000*%
%TD*%
G04 APERTURE END LIST*
D10*
X227930000Y-93420000D02*
X211010000Y-99570000D01*
X44060000Y-83260000D02*
X55690000Y-51320000D01*
X110270000Y-111880000D02*
X93350000Y-105730000D01*
X176650000Y-57810000D02*
X175200000Y-53810000D01*
X231760000Y-51310000D02*
X243390000Y-83270000D01*
X194100000Y-105720000D02*
X177180000Y-111890000D01*
X112250000Y-53810000D02*
X110800000Y-57800000D01*
X93890000Y-51650000D02*
X95340000Y-47650000D01*
X72600000Y-57480000D02*
X76970000Y-45490000D01*
X200620000Y-136820000D02*
X183710000Y-142980000D01*
X55690000Y-51320000D02*
X72600000Y-57480000D01*
X86830000Y-136820000D02*
X92640000Y-120850000D01*
X137100000Y-73470000D02*
X150440000Y-73460000D01*
X177180000Y-111890000D02*
X194810000Y-120850000D01*
X184580000Y-145370000D02*
X167670000Y-151530000D01*
X150450000Y-52520000D02*
X152770000Y-52520000D01*
X183710000Y-142980000D02*
X184580000Y-145370000D01*
X135030000Y-96460000D02*
X129220000Y-112450000D01*
X150440000Y-73460000D02*
X150450000Y-52520000D01*
X158240000Y-112450000D02*
X152410000Y-96460000D01*
X152770000Y-52520000D02*
X176650000Y-57810000D01*
X129220000Y-112450000D02*
X125600000Y-135560000D01*
X76440000Y-99570000D02*
X59520000Y-93410000D01*
X76970000Y-45490000D02*
X93890000Y-51650000D01*
X137090000Y-52510000D02*
X137100000Y-73470000D01*
X94810000Y-101730000D02*
X77890000Y-95580000D01*
X119780000Y-151530000D02*
X102870000Y-145370000D01*
X59520000Y-93410000D02*
X60980000Y-89410000D01*
X60980000Y-89410000D02*
X44060000Y-83260000D01*
X175200000Y-53810000D02*
X192120000Y-47650000D01*
X110800000Y-57800000D02*
X134760000Y-52510000D01*
X193570000Y-51650000D02*
X210480000Y-45490000D01*
X92640000Y-120850000D02*
X110270000Y-111880000D01*
X192640000Y-101740000D02*
X194100000Y-105720000D01*
X77890000Y-95580000D02*
X76440000Y-99570000D01*
X192120000Y-47650000D02*
X193570000Y-51650000D01*
X214850000Y-57480000D02*
X231760000Y-51310000D01*
X211010000Y-99570000D02*
X209550000Y-95570000D01*
X134760000Y-52510000D02*
X137090000Y-52510000D01*
X210480000Y-45490000D02*
X214850000Y-57480000D01*
X125600000Y-135560000D02*
X119780000Y-151530000D01*
X95340000Y-47650000D02*
X112250000Y-53810000D01*
X152410000Y-96460000D02*
X135030000Y-96460000D01*
X226470000Y-89420000D02*
X227930000Y-93420000D01*
X93350000Y-105730000D02*
X94810000Y-101730000D01*
X103740000Y-142980000D02*
X86830000Y-136820000D01*
X243390000Y-83270000D02*
X226470000Y-89420000D01*
X167670000Y-151530000D02*
X161850000Y-135550000D01*
X102870000Y-145370000D02*
X103740000Y-142980000D01*
X209550000Y-95570000D02*
X192640000Y-101740000D01*
X194810000Y-120850000D02*
X200620000Y-136820000D01*
X161850000Y-135550000D02*
X158240000Y-112450000D01*
M02*
