%TF.GenerationSoftware,KiCad,Pcbnew,7.0.1*%
%TF.CreationDate,2024-06-17T16:10:21-04:00*%
%TF.ProjectId,goober-wi,676f6f62-6572-42d7-9769-2e6b69636164,rev?*%
%TF.SameCoordinates,Original*%
%TF.FileFunction,Legend,Top*%
%TF.FilePolarity,Positive*%
%FSLAX46Y46*%
G04 Gerber Fmt 4.6, Leading zero omitted, Abs format (unit mm)*
G04 Created by KiCad (PCBNEW 7.0.1) date 2024-06-17 16:10:21*
%MOMM*%
%LPD*%
G01*
G04 APERTURE LIST*
%ADD10C,0.150000*%
%ADD11C,0.120000*%
G04 APERTURE END LIST*
D10*
%TO.C,SW30*%
X184623416Y-124462722D02*
X184773944Y-124458609D01*
X184773944Y-124458609D02*
X184997681Y-124377175D01*
X184997681Y-124377175D02*
X185070888Y-124299855D01*
X185070888Y-124299855D02*
X185099349Y-124238821D01*
X185099349Y-124238821D02*
X185111523Y-124133040D01*
X185111523Y-124133040D02*
X185078950Y-124043545D01*
X185078950Y-124043545D02*
X185001629Y-123970337D01*
X185001629Y-123970337D02*
X184940595Y-123941877D01*
X184940595Y-123941877D02*
X184834814Y-123929703D01*
X184834814Y-123929703D02*
X184639538Y-123950102D01*
X184639538Y-123950102D02*
X184533757Y-123937928D01*
X184533757Y-123937928D02*
X184472723Y-123909468D01*
X184472723Y-123909468D02*
X184395402Y-123836260D01*
X184395402Y-123836260D02*
X184362829Y-123746765D01*
X184362829Y-123746765D02*
X184375003Y-123640984D01*
X184375003Y-123640984D02*
X184403463Y-123579950D01*
X184403463Y-123579950D02*
X184476671Y-123502629D01*
X184476671Y-123502629D02*
X184700408Y-123421196D01*
X184700408Y-123421196D02*
X184850936Y-123417083D01*
X185147880Y-123258329D02*
X185713637Y-124116589D01*
X185713637Y-124116589D02*
X185648326Y-123380233D01*
X185648326Y-123380233D02*
X186071615Y-123986295D01*
X186071615Y-123986295D02*
X185953331Y-122965169D01*
X186221815Y-122867449D02*
X186803529Y-122655722D01*
X186803529Y-122655722D02*
X186620592Y-123127707D01*
X186620592Y-123127707D02*
X186754833Y-123078847D01*
X186754833Y-123078847D02*
X186860615Y-123091021D01*
X186860615Y-123091021D02*
X186921649Y-123119482D01*
X186921649Y-123119482D02*
X186998969Y-123192690D01*
X186998969Y-123192690D02*
X187080403Y-123416426D01*
X187080403Y-123416426D02*
X187068229Y-123522207D01*
X187068229Y-123522207D02*
X187039768Y-123583241D01*
X187039768Y-123583241D02*
X186966560Y-123660562D01*
X186966560Y-123660562D02*
X186698077Y-123758282D01*
X186698077Y-123758282D02*
X186592295Y-123746108D01*
X186592295Y-123746108D02*
X186531261Y-123717647D01*
X187385244Y-122443996D02*
X187474738Y-122411422D01*
X187474738Y-122411422D02*
X187580519Y-122423596D01*
X187580519Y-122423596D02*
X187641553Y-122452057D01*
X187641553Y-122452057D02*
X187718874Y-122525265D01*
X187718874Y-122525265D02*
X187828768Y-122687967D01*
X187828768Y-122687967D02*
X187910201Y-122911703D01*
X187910201Y-122911703D02*
X187930601Y-123106979D01*
X187930601Y-123106979D02*
X187918427Y-123212760D01*
X187918427Y-123212760D02*
X187889966Y-123273794D01*
X187889966Y-123273794D02*
X187816758Y-123351115D01*
X187816758Y-123351115D02*
X187727264Y-123383688D01*
X187727264Y-123383688D02*
X187621483Y-123371514D01*
X187621483Y-123371514D02*
X187560449Y-123343054D01*
X187560449Y-123343054D02*
X187483128Y-123269846D01*
X187483128Y-123269846D02*
X187373234Y-123107144D01*
X187373234Y-123107144D02*
X187291801Y-122883407D01*
X187291801Y-122883407D02*
X187271401Y-122688131D01*
X187271401Y-122688131D02*
X187283575Y-122582350D01*
X187283575Y-122582350D02*
X187312036Y-122521316D01*
X187312036Y-122521316D02*
X187385244Y-122443996D01*
%TO.C,SW3*%
X102569905Y-50195773D02*
X102687860Y-50289381D01*
X102687860Y-50289381D02*
X102911597Y-50370814D01*
X102911597Y-50370814D02*
X103017378Y-50358640D01*
X103017378Y-50358640D02*
X103078412Y-50330179D01*
X103078412Y-50330179D02*
X103155732Y-50256972D01*
X103155732Y-50256972D02*
X103188306Y-50167477D01*
X103188306Y-50167477D02*
X103176132Y-50061696D01*
X103176132Y-50061696D02*
X103147671Y-50000662D01*
X103147671Y-50000662D02*
X103074463Y-49923341D01*
X103074463Y-49923341D02*
X102911761Y-49813447D01*
X102911761Y-49813447D02*
X102838553Y-49736127D01*
X102838553Y-49736127D02*
X102810092Y-49675093D01*
X102810092Y-49675093D02*
X102797919Y-49569312D01*
X102797919Y-49569312D02*
X102830492Y-49479817D01*
X102830492Y-49479817D02*
X102907813Y-49406609D01*
X102907813Y-49406609D02*
X102968846Y-49378149D01*
X102968846Y-49378149D02*
X103074628Y-49365975D01*
X103074628Y-49365975D02*
X103298364Y-49447408D01*
X103298364Y-49447408D02*
X103416319Y-49541015D01*
X103745837Y-49610275D02*
X103627553Y-50631401D01*
X103627553Y-50631401D02*
X104050842Y-50025338D01*
X104050842Y-50025338D02*
X103985531Y-50761694D01*
X103985531Y-50761694D02*
X104551288Y-49903435D01*
X104819771Y-50001155D02*
X105401486Y-50212882D01*
X105401486Y-50212882D02*
X104957961Y-50456853D01*
X104957961Y-50456853D02*
X105092203Y-50505713D01*
X105092203Y-50505713D02*
X105165411Y-50583034D01*
X105165411Y-50583034D02*
X105193872Y-50644068D01*
X105193872Y-50644068D02*
X105206045Y-50749849D01*
X105206045Y-50749849D02*
X105124612Y-50973585D01*
X105124612Y-50973585D02*
X105047291Y-51046793D01*
X105047291Y-51046793D02*
X104986258Y-51075254D01*
X104986258Y-51075254D02*
X104880476Y-51087428D01*
X104880476Y-51087428D02*
X104611993Y-50989707D01*
X104611993Y-50989707D02*
X104538785Y-50912387D01*
X104538785Y-50912387D02*
X104510324Y-50851353D01*
%TO.C,SW10*%
X221570973Y-54932743D02*
X221721501Y-54928630D01*
X221721501Y-54928630D02*
X221945238Y-54847196D01*
X221945238Y-54847196D02*
X222018445Y-54769876D01*
X222018445Y-54769876D02*
X222046906Y-54708842D01*
X222046906Y-54708842D02*
X222059080Y-54603061D01*
X222059080Y-54603061D02*
X222026507Y-54513566D01*
X222026507Y-54513566D02*
X221949186Y-54440358D01*
X221949186Y-54440358D02*
X221888152Y-54411898D01*
X221888152Y-54411898D02*
X221782371Y-54399724D01*
X221782371Y-54399724D02*
X221587095Y-54420123D01*
X221587095Y-54420123D02*
X221481314Y-54407949D01*
X221481314Y-54407949D02*
X221420280Y-54379489D01*
X221420280Y-54379489D02*
X221342959Y-54306281D01*
X221342959Y-54306281D02*
X221310386Y-54216786D01*
X221310386Y-54216786D02*
X221322560Y-54111005D01*
X221322560Y-54111005D02*
X221351020Y-54049971D01*
X221351020Y-54049971D02*
X221424228Y-53972650D01*
X221424228Y-53972650D02*
X221647965Y-53891217D01*
X221647965Y-53891217D02*
X221798493Y-53887104D01*
X222095437Y-53728350D02*
X222661194Y-54586610D01*
X222661194Y-54586610D02*
X222595883Y-53850254D01*
X222595883Y-53850254D02*
X223019172Y-54456316D01*
X223019172Y-54456316D02*
X222900888Y-53435190D01*
X224093106Y-54065436D02*
X223556139Y-54260876D01*
X223824623Y-54163156D02*
X223482603Y-53223464D01*
X223482603Y-53223464D02*
X223441968Y-53390279D01*
X223441968Y-53390279D02*
X223385047Y-53512347D01*
X223385047Y-53512347D02*
X223311839Y-53589667D01*
X224332801Y-52914017D02*
X224422295Y-52881443D01*
X224422295Y-52881443D02*
X224528076Y-52893617D01*
X224528076Y-52893617D02*
X224589110Y-52922078D01*
X224589110Y-52922078D02*
X224666431Y-52995286D01*
X224666431Y-52995286D02*
X224776325Y-53157988D01*
X224776325Y-53157988D02*
X224857758Y-53381724D01*
X224857758Y-53381724D02*
X224878158Y-53577000D01*
X224878158Y-53577000D02*
X224865984Y-53682781D01*
X224865984Y-53682781D02*
X224837523Y-53743815D01*
X224837523Y-53743815D02*
X224764315Y-53821136D01*
X224764315Y-53821136D02*
X224674821Y-53853709D01*
X224674821Y-53853709D02*
X224569040Y-53841535D01*
X224569040Y-53841535D02*
X224508006Y-53813075D01*
X224508006Y-53813075D02*
X224430685Y-53739867D01*
X224430685Y-53739867D02*
X224320791Y-53577165D01*
X224320791Y-53577165D02*
X224239358Y-53353428D01*
X224239358Y-53353428D02*
X224218958Y-53158152D01*
X224218958Y-53158152D02*
X224231132Y-53052371D01*
X224231132Y-53052371D02*
X224259593Y-52991337D01*
X224259593Y-52991337D02*
X224332801Y-52914017D01*
%TO.C,SW5*%
X131165931Y-76885795D02*
X131283886Y-76979403D01*
X131283886Y-76979403D02*
X131507623Y-77060836D01*
X131507623Y-77060836D02*
X131613404Y-77048662D01*
X131613404Y-77048662D02*
X131674438Y-77020201D01*
X131674438Y-77020201D02*
X131751758Y-76946994D01*
X131751758Y-76946994D02*
X131784332Y-76857499D01*
X131784332Y-76857499D02*
X131772158Y-76751718D01*
X131772158Y-76751718D02*
X131743697Y-76690684D01*
X131743697Y-76690684D02*
X131670489Y-76613363D01*
X131670489Y-76613363D02*
X131507787Y-76503469D01*
X131507787Y-76503469D02*
X131434579Y-76426149D01*
X131434579Y-76426149D02*
X131406118Y-76365115D01*
X131406118Y-76365115D02*
X131393945Y-76259334D01*
X131393945Y-76259334D02*
X131426518Y-76169839D01*
X131426518Y-76169839D02*
X131503839Y-76096631D01*
X131503839Y-76096631D02*
X131564872Y-76068171D01*
X131564872Y-76068171D02*
X131670654Y-76055997D01*
X131670654Y-76055997D02*
X131894390Y-76137430D01*
X131894390Y-76137430D02*
X132012345Y-76231037D01*
X132341863Y-76300297D02*
X132223579Y-77321423D01*
X132223579Y-77321423D02*
X132646868Y-76715360D01*
X132646868Y-76715360D02*
X132581557Y-77451716D01*
X132581557Y-77451716D02*
X133147314Y-76593457D01*
X133952764Y-76886617D02*
X133505292Y-76723750D01*
X133505292Y-76723750D02*
X133297678Y-77154936D01*
X133297678Y-77154936D02*
X133358712Y-77126476D01*
X133358712Y-77126476D02*
X133464493Y-77114302D01*
X133464493Y-77114302D02*
X133688229Y-77195735D01*
X133688229Y-77195735D02*
X133761437Y-77273056D01*
X133761437Y-77273056D02*
X133789898Y-77334090D01*
X133789898Y-77334090D02*
X133802071Y-77439871D01*
X133802071Y-77439871D02*
X133720638Y-77663607D01*
X133720638Y-77663607D02*
X133643317Y-77736815D01*
X133643317Y-77736815D02*
X133582284Y-77765276D01*
X133582284Y-77765276D02*
X133476502Y-77777450D01*
X133476502Y-77777450D02*
X133252766Y-77696016D01*
X133252766Y-77696016D02*
X133179558Y-77618696D01*
X133179558Y-77618696D02*
X133151097Y-77557662D01*
%TO.C,SW28*%
X115469028Y-131777513D02*
X115586983Y-131871121D01*
X115586983Y-131871121D02*
X115810719Y-131952554D01*
X115810719Y-131952554D02*
X115916501Y-131940380D01*
X115916501Y-131940380D02*
X115977535Y-131911919D01*
X115977535Y-131911919D02*
X116054855Y-131838712D01*
X116054855Y-131838712D02*
X116087429Y-131749217D01*
X116087429Y-131749217D02*
X116075255Y-131643436D01*
X116075255Y-131643436D02*
X116046794Y-131582402D01*
X116046794Y-131582402D02*
X115973586Y-131505081D01*
X115973586Y-131505081D02*
X115810884Y-131395187D01*
X115810884Y-131395187D02*
X115737676Y-131317867D01*
X115737676Y-131317867D02*
X115709215Y-131256833D01*
X115709215Y-131256833D02*
X115697041Y-131151052D01*
X115697041Y-131151052D02*
X115729615Y-131061557D01*
X115729615Y-131061557D02*
X115806935Y-130988349D01*
X115806935Y-130988349D02*
X115867969Y-130959889D01*
X115867969Y-130959889D02*
X115973751Y-130947715D01*
X115973751Y-130947715D02*
X116197487Y-131029148D01*
X116197487Y-131029148D02*
X116315442Y-131122755D01*
X116644960Y-131192015D02*
X116526676Y-132213141D01*
X116526676Y-132213141D02*
X116949965Y-131607078D01*
X116949965Y-131607078D02*
X116884654Y-132343434D01*
X116884654Y-132343434D02*
X117450410Y-131485175D01*
X117731068Y-131688676D02*
X117792102Y-131660216D01*
X117792102Y-131660216D02*
X117897883Y-131648042D01*
X117897883Y-131648042D02*
X118121619Y-131729475D01*
X118121619Y-131729475D02*
X118194827Y-131806796D01*
X118194827Y-131806796D02*
X118223288Y-131867830D01*
X118223288Y-131867830D02*
X118235462Y-131973611D01*
X118235462Y-131973611D02*
X118202888Y-132063105D01*
X118202888Y-132063105D02*
X118109281Y-132181060D01*
X118109281Y-132181060D02*
X117376874Y-132522588D01*
X117376874Y-132522588D02*
X117958588Y-132734314D01*
X118690996Y-132392787D02*
X118617788Y-132315467D01*
X118617788Y-132315467D02*
X118589327Y-132254433D01*
X118589327Y-132254433D02*
X118577153Y-132148651D01*
X118577153Y-132148651D02*
X118593440Y-132103904D01*
X118593440Y-132103904D02*
X118670760Y-132030696D01*
X118670760Y-132030696D02*
X118731794Y-132002236D01*
X118731794Y-132002236D02*
X118837576Y-131990062D01*
X118837576Y-131990062D02*
X119016565Y-132055208D01*
X119016565Y-132055208D02*
X119089773Y-132132529D01*
X119089773Y-132132529D02*
X119118233Y-132193563D01*
X119118233Y-132193563D02*
X119130407Y-132299344D01*
X119130407Y-132299344D02*
X119114120Y-132344091D01*
X119114120Y-132344091D02*
X119036800Y-132417299D01*
X119036800Y-132417299D02*
X118975766Y-132445760D01*
X118975766Y-132445760D02*
X118869985Y-132457934D01*
X118869985Y-132457934D02*
X118690996Y-132392787D01*
X118690996Y-132392787D02*
X118585214Y-132404961D01*
X118585214Y-132404961D02*
X118524180Y-132433422D01*
X118524180Y-132433422D02*
X118446860Y-132506630D01*
X118446860Y-132506630D02*
X118381713Y-132685619D01*
X118381713Y-132685619D02*
X118393887Y-132791400D01*
X118393887Y-132791400D02*
X118422348Y-132852434D01*
X118422348Y-132852434D02*
X118495555Y-132929754D01*
X118495555Y-132929754D02*
X118674545Y-132994901D01*
X118674545Y-132994901D02*
X118780326Y-132982727D01*
X118780326Y-132982727D02*
X118841360Y-132954267D01*
X118841360Y-132954267D02*
X118918680Y-132881059D01*
X118918680Y-132881059D02*
X118983827Y-132702070D01*
X118983827Y-132702070D02*
X118971653Y-132596288D01*
X118971653Y-132596288D02*
X118943192Y-132535254D01*
X118943192Y-132535254D02*
X118869985Y-132457934D01*
%TO.C,SW22*%
X90493747Y-81982455D02*
X90611702Y-82076063D01*
X90611702Y-82076063D02*
X90835438Y-82157496D01*
X90835438Y-82157496D02*
X90941220Y-82145322D01*
X90941220Y-82145322D02*
X91002254Y-82116861D01*
X91002254Y-82116861D02*
X91079574Y-82043654D01*
X91079574Y-82043654D02*
X91112148Y-81954159D01*
X91112148Y-81954159D02*
X91099974Y-81848378D01*
X91099974Y-81848378D02*
X91071513Y-81787344D01*
X91071513Y-81787344D02*
X90998305Y-81710023D01*
X90998305Y-81710023D02*
X90835603Y-81600129D01*
X90835603Y-81600129D02*
X90762395Y-81522809D01*
X90762395Y-81522809D02*
X90733934Y-81461775D01*
X90733934Y-81461775D02*
X90721760Y-81355994D01*
X90721760Y-81355994D02*
X90754334Y-81266499D01*
X90754334Y-81266499D02*
X90831654Y-81193291D01*
X90831654Y-81193291D02*
X90892688Y-81164831D01*
X90892688Y-81164831D02*
X90998470Y-81152657D01*
X90998470Y-81152657D02*
X91222206Y-81234090D01*
X91222206Y-81234090D02*
X91340161Y-81327697D01*
X91669679Y-81396957D02*
X91551395Y-82418083D01*
X91551395Y-82418083D02*
X91974684Y-81812020D01*
X91974684Y-81812020D02*
X91909373Y-82548376D01*
X91909373Y-82548376D02*
X92475129Y-81690117D01*
X92755787Y-81893618D02*
X92816821Y-81865158D01*
X92816821Y-81865158D02*
X92922602Y-81852984D01*
X92922602Y-81852984D02*
X93146338Y-81934417D01*
X93146338Y-81934417D02*
X93219546Y-82011738D01*
X93219546Y-82011738D02*
X93248007Y-82072772D01*
X93248007Y-82072772D02*
X93260181Y-82178553D01*
X93260181Y-82178553D02*
X93227607Y-82268047D01*
X93227607Y-82268047D02*
X93134000Y-82386002D01*
X93134000Y-82386002D02*
X92401593Y-82727530D01*
X92401593Y-82727530D02*
X92983307Y-82939256D01*
X93650732Y-82219352D02*
X93711766Y-82190891D01*
X93711766Y-82190891D02*
X93817547Y-82178717D01*
X93817547Y-82178717D02*
X94041284Y-82260150D01*
X94041284Y-82260150D02*
X94114492Y-82337471D01*
X94114492Y-82337471D02*
X94142952Y-82398505D01*
X94142952Y-82398505D02*
X94155126Y-82504286D01*
X94155126Y-82504286D02*
X94122553Y-82593781D01*
X94122553Y-82593781D02*
X94028945Y-82711736D01*
X94028945Y-82711736D02*
X93296538Y-83053263D01*
X93296538Y-83053263D02*
X93878253Y-83264990D01*
%TO.C,SW14*%
X111768971Y-76157736D02*
X111886926Y-76251344D01*
X111886926Y-76251344D02*
X112110662Y-76332777D01*
X112110662Y-76332777D02*
X112216444Y-76320603D01*
X112216444Y-76320603D02*
X112277478Y-76292142D01*
X112277478Y-76292142D02*
X112354798Y-76218935D01*
X112354798Y-76218935D02*
X112387372Y-76129440D01*
X112387372Y-76129440D02*
X112375198Y-76023659D01*
X112375198Y-76023659D02*
X112346737Y-75962625D01*
X112346737Y-75962625D02*
X112273529Y-75885304D01*
X112273529Y-75885304D02*
X112110827Y-75775410D01*
X112110827Y-75775410D02*
X112037619Y-75698090D01*
X112037619Y-75698090D02*
X112009158Y-75637056D01*
X112009158Y-75637056D02*
X111996984Y-75531275D01*
X111996984Y-75531275D02*
X112029558Y-75441780D01*
X112029558Y-75441780D02*
X112106878Y-75368572D01*
X112106878Y-75368572D02*
X112167912Y-75340112D01*
X112167912Y-75340112D02*
X112273694Y-75327938D01*
X112273694Y-75327938D02*
X112497430Y-75409371D01*
X112497430Y-75409371D02*
X112615385Y-75502978D01*
X112944903Y-75572238D02*
X112826619Y-76593364D01*
X112826619Y-76593364D02*
X113249908Y-75987301D01*
X113249908Y-75987301D02*
X113184597Y-76723657D01*
X113184597Y-76723657D02*
X113750353Y-75865398D01*
X114258531Y-77114537D02*
X113721564Y-76919097D01*
X113990048Y-77016817D02*
X114332068Y-76077125D01*
X114332068Y-76077125D02*
X114193713Y-76178793D01*
X114193713Y-76178793D02*
X114071645Y-76235714D01*
X114071645Y-76235714D02*
X113965864Y-76247888D01*
X115291995Y-76781236D02*
X115063982Y-77407697D01*
X115198553Y-76341824D02*
X114730516Y-76931600D01*
X114730516Y-76931600D02*
X115312231Y-77143327D01*
%TO.C,SW1*%
X62926628Y-53857822D02*
X63044583Y-53951430D01*
X63044583Y-53951430D02*
X63268320Y-54032863D01*
X63268320Y-54032863D02*
X63374101Y-54020689D01*
X63374101Y-54020689D02*
X63435135Y-53992228D01*
X63435135Y-53992228D02*
X63512455Y-53919021D01*
X63512455Y-53919021D02*
X63545029Y-53829526D01*
X63545029Y-53829526D02*
X63532855Y-53723745D01*
X63532855Y-53723745D02*
X63504394Y-53662711D01*
X63504394Y-53662711D02*
X63431186Y-53585390D01*
X63431186Y-53585390D02*
X63268484Y-53475496D01*
X63268484Y-53475496D02*
X63195276Y-53398176D01*
X63195276Y-53398176D02*
X63166815Y-53337142D01*
X63166815Y-53337142D02*
X63154642Y-53231361D01*
X63154642Y-53231361D02*
X63187215Y-53141866D01*
X63187215Y-53141866D02*
X63264536Y-53068658D01*
X63264536Y-53068658D02*
X63325569Y-53040198D01*
X63325569Y-53040198D02*
X63431351Y-53028024D01*
X63431351Y-53028024D02*
X63655087Y-53109457D01*
X63655087Y-53109457D02*
X63773042Y-53203064D01*
X64102560Y-53272324D02*
X63984276Y-54293450D01*
X63984276Y-54293450D02*
X64407565Y-53687387D01*
X64407565Y-53687387D02*
X64342254Y-54423743D01*
X64342254Y-54423743D02*
X64908011Y-53565484D01*
X65416188Y-54814623D02*
X64879221Y-54619183D01*
X65147705Y-54716903D02*
X65489725Y-53777211D01*
X65489725Y-53777211D02*
X65351370Y-53878879D01*
X65351370Y-53878879D02*
X65229302Y-53935800D01*
X65229302Y-53935800D02*
X65123521Y-53947974D01*
%TO.C,SW19*%
X206110091Y-65082799D02*
X206260619Y-65078686D01*
X206260619Y-65078686D02*
X206484356Y-64997252D01*
X206484356Y-64997252D02*
X206557563Y-64919932D01*
X206557563Y-64919932D02*
X206586024Y-64858898D01*
X206586024Y-64858898D02*
X206598198Y-64753117D01*
X206598198Y-64753117D02*
X206565625Y-64663622D01*
X206565625Y-64663622D02*
X206488304Y-64590414D01*
X206488304Y-64590414D02*
X206427270Y-64561954D01*
X206427270Y-64561954D02*
X206321489Y-64549780D01*
X206321489Y-64549780D02*
X206126213Y-64570179D01*
X206126213Y-64570179D02*
X206020432Y-64558005D01*
X206020432Y-64558005D02*
X205959398Y-64529545D01*
X205959398Y-64529545D02*
X205882077Y-64456337D01*
X205882077Y-64456337D02*
X205849504Y-64366842D01*
X205849504Y-64366842D02*
X205861678Y-64261061D01*
X205861678Y-64261061D02*
X205890138Y-64200027D01*
X205890138Y-64200027D02*
X205963346Y-64122706D01*
X205963346Y-64122706D02*
X206187083Y-64041273D01*
X206187083Y-64041273D02*
X206337611Y-64037160D01*
X206634555Y-63878406D02*
X207200312Y-64736666D01*
X207200312Y-64736666D02*
X207135001Y-64000310D01*
X207135001Y-64000310D02*
X207558290Y-64606372D01*
X207558290Y-64606372D02*
X207440006Y-63585246D01*
X208632224Y-64215492D02*
X208095257Y-64410932D01*
X208363741Y-64313212D02*
X208021721Y-63373520D01*
X208021721Y-63373520D02*
X207981086Y-63540335D01*
X207981086Y-63540335D02*
X207924165Y-63662403D01*
X207924165Y-63662403D02*
X207850957Y-63739723D01*
X209079697Y-64052625D02*
X209258686Y-63987479D01*
X209258686Y-63987479D02*
X209331894Y-63910158D01*
X209331894Y-63910158D02*
X209360355Y-63849124D01*
X209360355Y-63849124D02*
X209400989Y-63682309D01*
X209400989Y-63682309D02*
X209380590Y-63487033D01*
X209380590Y-63487033D02*
X209250296Y-63129055D01*
X209250296Y-63129055D02*
X209172976Y-63055847D01*
X209172976Y-63055847D02*
X209111942Y-63027387D01*
X209111942Y-63027387D02*
X209006160Y-63015213D01*
X209006160Y-63015213D02*
X208827171Y-63080359D01*
X208827171Y-63080359D02*
X208753964Y-63157680D01*
X208753964Y-63157680D02*
X208725503Y-63218714D01*
X208725503Y-63218714D02*
X208713329Y-63324495D01*
X208713329Y-63324495D02*
X208794762Y-63548231D01*
X208794762Y-63548231D02*
X208872083Y-63621439D01*
X208872083Y-63621439D02*
X208933117Y-63649900D01*
X208933117Y-63649900D02*
X209038898Y-63662074D01*
X209038898Y-63662074D02*
X209217887Y-63596927D01*
X209217887Y-63596927D02*
X209291095Y-63519607D01*
X209291095Y-63519607D02*
X209319556Y-63458573D01*
X209319556Y-63458573D02*
X209331730Y-63352791D01*
%TO.C,SW6*%
X153779143Y-77797849D02*
X153929671Y-77793736D01*
X153929671Y-77793736D02*
X154153408Y-77712302D01*
X154153408Y-77712302D02*
X154226616Y-77634982D01*
X154226616Y-77634982D02*
X154255076Y-77573948D01*
X154255076Y-77573948D02*
X154267250Y-77468167D01*
X154267250Y-77468167D02*
X154234677Y-77378672D01*
X154234677Y-77378672D02*
X154157356Y-77305464D01*
X154157356Y-77305464D02*
X154096322Y-77277004D01*
X154096322Y-77277004D02*
X153990541Y-77264830D01*
X153990541Y-77264830D02*
X153795265Y-77285229D01*
X153795265Y-77285229D02*
X153689484Y-77273055D01*
X153689484Y-77273055D02*
X153628450Y-77244595D01*
X153628450Y-77244595D02*
X153551129Y-77171387D01*
X153551129Y-77171387D02*
X153518556Y-77081892D01*
X153518556Y-77081892D02*
X153530730Y-76976111D01*
X153530730Y-76976111D02*
X153559191Y-76915077D01*
X153559191Y-76915077D02*
X153632398Y-76837757D01*
X153632398Y-76837757D02*
X153856135Y-76756323D01*
X153856135Y-76756323D02*
X154006663Y-76752210D01*
X154303608Y-76593456D02*
X154869364Y-77451716D01*
X154869364Y-77451716D02*
X154804053Y-76715360D01*
X154804053Y-76715360D02*
X155227342Y-77321422D01*
X155227342Y-77321422D02*
X155109058Y-76300296D01*
X155869762Y-76023423D02*
X155690773Y-76088570D01*
X155690773Y-76088570D02*
X155617565Y-76165890D01*
X155617565Y-76165890D02*
X155589104Y-76226924D01*
X155589104Y-76226924D02*
X155548470Y-76393739D01*
X155548470Y-76393739D02*
X155568869Y-76589015D01*
X155568869Y-76589015D02*
X155699163Y-76946993D01*
X155699163Y-76946993D02*
X155776483Y-77020201D01*
X155776483Y-77020201D02*
X155837517Y-77048662D01*
X155837517Y-77048662D02*
X155943298Y-77060836D01*
X155943298Y-77060836D02*
X156122287Y-76995689D01*
X156122287Y-76995689D02*
X156195495Y-76918368D01*
X156195495Y-76918368D02*
X156223956Y-76857334D01*
X156223956Y-76857334D02*
X156236130Y-76751553D01*
X156236130Y-76751553D02*
X156154696Y-76527817D01*
X156154696Y-76527817D02*
X156077376Y-76454609D01*
X156077376Y-76454609D02*
X156016342Y-76426148D01*
X156016342Y-76426148D02*
X155910561Y-76413974D01*
X155910561Y-76413974D02*
X155731572Y-76479121D01*
X155731572Y-76479121D02*
X155658364Y-76556442D01*
X155658364Y-76556442D02*
X155629903Y-76617476D01*
X155629903Y-76617476D02*
X155617729Y-76723257D01*
%TO.C,SW4*%
X118030787Y-60345829D02*
X118148742Y-60439437D01*
X118148742Y-60439437D02*
X118372479Y-60520870D01*
X118372479Y-60520870D02*
X118478260Y-60508696D01*
X118478260Y-60508696D02*
X118539294Y-60480235D01*
X118539294Y-60480235D02*
X118616614Y-60407028D01*
X118616614Y-60407028D02*
X118649188Y-60317533D01*
X118649188Y-60317533D02*
X118637014Y-60211752D01*
X118637014Y-60211752D02*
X118608553Y-60150718D01*
X118608553Y-60150718D02*
X118535345Y-60073397D01*
X118535345Y-60073397D02*
X118372643Y-59963503D01*
X118372643Y-59963503D02*
X118299435Y-59886183D01*
X118299435Y-59886183D02*
X118270974Y-59825149D01*
X118270974Y-59825149D02*
X118258801Y-59719368D01*
X118258801Y-59719368D02*
X118291374Y-59629873D01*
X118291374Y-59629873D02*
X118368695Y-59556665D01*
X118368695Y-59556665D02*
X118429728Y-59528205D01*
X118429728Y-59528205D02*
X118535510Y-59516031D01*
X118535510Y-59516031D02*
X118759246Y-59597464D01*
X118759246Y-59597464D02*
X118877201Y-59691071D01*
X119206719Y-59760331D02*
X119088435Y-60781457D01*
X119088435Y-60781457D02*
X119511724Y-60175394D01*
X119511724Y-60175394D02*
X119446413Y-60911750D01*
X119446413Y-60911750D02*
X120012170Y-60053491D01*
X120658866Y-60643595D02*
X120430853Y-61270057D01*
X120565423Y-60204184D02*
X120097387Y-60793959D01*
X120097387Y-60793959D02*
X120679101Y-61005686D01*
%TO.C,SW15*%
X124904116Y-92697702D02*
X125022071Y-92791310D01*
X125022071Y-92791310D02*
X125245807Y-92872743D01*
X125245807Y-92872743D02*
X125351589Y-92860569D01*
X125351589Y-92860569D02*
X125412623Y-92832108D01*
X125412623Y-92832108D02*
X125489943Y-92758901D01*
X125489943Y-92758901D02*
X125522517Y-92669406D01*
X125522517Y-92669406D02*
X125510343Y-92563625D01*
X125510343Y-92563625D02*
X125481882Y-92502591D01*
X125481882Y-92502591D02*
X125408674Y-92425270D01*
X125408674Y-92425270D02*
X125245972Y-92315376D01*
X125245972Y-92315376D02*
X125172764Y-92238056D01*
X125172764Y-92238056D02*
X125144303Y-92177022D01*
X125144303Y-92177022D02*
X125132129Y-92071241D01*
X125132129Y-92071241D02*
X125164703Y-91981746D01*
X125164703Y-91981746D02*
X125242023Y-91908538D01*
X125242023Y-91908538D02*
X125303057Y-91880078D01*
X125303057Y-91880078D02*
X125408839Y-91867904D01*
X125408839Y-91867904D02*
X125632575Y-91949337D01*
X125632575Y-91949337D02*
X125750530Y-92042944D01*
X126080048Y-92112204D02*
X125961764Y-93133330D01*
X125961764Y-93133330D02*
X126385053Y-92527267D01*
X126385053Y-92527267D02*
X126319742Y-93263623D01*
X126319742Y-93263623D02*
X126885498Y-92405364D01*
X127393676Y-93654503D02*
X126856709Y-93459063D01*
X127125193Y-93556783D02*
X127467213Y-92617091D01*
X127467213Y-92617091D02*
X127328858Y-92718759D01*
X127328858Y-92718759D02*
X127206790Y-92775680D01*
X127206790Y-92775680D02*
X127101009Y-92787854D01*
X128585894Y-93024257D02*
X128138422Y-92861391D01*
X128138422Y-92861391D02*
X127930808Y-93292577D01*
X127930808Y-93292577D02*
X127991842Y-93264116D01*
X127991842Y-93264116D02*
X128097623Y-93251942D01*
X128097623Y-93251942D02*
X128321359Y-93333376D01*
X128321359Y-93333376D02*
X128394567Y-93410696D01*
X128394567Y-93410696D02*
X128423028Y-93471730D01*
X128423028Y-93471730D02*
X128435202Y-93577511D01*
X128435202Y-93577511D02*
X128353768Y-93801248D01*
X128353768Y-93801248D02*
X128276448Y-93874456D01*
X128276448Y-93874456D02*
X128215414Y-93902916D01*
X128215414Y-93902916D02*
X128109633Y-93915090D01*
X128109633Y-93915090D02*
X127885896Y-93833657D01*
X127885896Y-93833657D02*
X127812688Y-93756336D01*
X127812688Y-93756336D02*
X127784228Y-93695302D01*
%TO.C,SW11*%
X56664813Y-69669730D02*
X56782768Y-69763338D01*
X56782768Y-69763338D02*
X57006504Y-69844771D01*
X57006504Y-69844771D02*
X57112286Y-69832597D01*
X57112286Y-69832597D02*
X57173320Y-69804136D01*
X57173320Y-69804136D02*
X57250640Y-69730929D01*
X57250640Y-69730929D02*
X57283214Y-69641434D01*
X57283214Y-69641434D02*
X57271040Y-69535653D01*
X57271040Y-69535653D02*
X57242579Y-69474619D01*
X57242579Y-69474619D02*
X57169371Y-69397298D01*
X57169371Y-69397298D02*
X57006669Y-69287404D01*
X57006669Y-69287404D02*
X56933461Y-69210084D01*
X56933461Y-69210084D02*
X56905000Y-69149050D01*
X56905000Y-69149050D02*
X56892826Y-69043269D01*
X56892826Y-69043269D02*
X56925400Y-68953774D01*
X56925400Y-68953774D02*
X57002720Y-68880566D01*
X57002720Y-68880566D02*
X57063754Y-68852106D01*
X57063754Y-68852106D02*
X57169536Y-68839932D01*
X57169536Y-68839932D02*
X57393272Y-68921365D01*
X57393272Y-68921365D02*
X57511227Y-69014972D01*
X57840745Y-69084232D02*
X57722461Y-70105358D01*
X57722461Y-70105358D02*
X58145750Y-69499295D01*
X58145750Y-69499295D02*
X58080439Y-70235651D01*
X58080439Y-70235651D02*
X58646195Y-69377392D01*
X59154373Y-70626531D02*
X58617406Y-70431091D01*
X58885890Y-70528811D02*
X59227910Y-69589119D01*
X59227910Y-69589119D02*
X59089555Y-69690787D01*
X59089555Y-69690787D02*
X58967487Y-69747708D01*
X58967487Y-69747708D02*
X58861706Y-69759882D01*
X60049319Y-70952265D02*
X59512351Y-70756825D01*
X59780835Y-70854545D02*
X60122855Y-69914852D01*
X60122855Y-69914852D02*
X59984501Y-70016521D01*
X59984501Y-70016521D02*
X59862433Y-70073442D01*
X59862433Y-70073442D02*
X59756651Y-70085616D01*
%TO.C,SW26*%
X211924434Y-81057574D02*
X212074962Y-81053461D01*
X212074962Y-81053461D02*
X212298699Y-80972027D01*
X212298699Y-80972027D02*
X212371906Y-80894707D01*
X212371906Y-80894707D02*
X212400367Y-80833673D01*
X212400367Y-80833673D02*
X212412541Y-80727892D01*
X212412541Y-80727892D02*
X212379968Y-80638397D01*
X212379968Y-80638397D02*
X212302647Y-80565189D01*
X212302647Y-80565189D02*
X212241613Y-80536729D01*
X212241613Y-80536729D02*
X212135832Y-80524555D01*
X212135832Y-80524555D02*
X211940556Y-80544954D01*
X211940556Y-80544954D02*
X211834775Y-80532780D01*
X211834775Y-80532780D02*
X211773741Y-80504320D01*
X211773741Y-80504320D02*
X211696420Y-80431112D01*
X211696420Y-80431112D02*
X211663847Y-80341617D01*
X211663847Y-80341617D02*
X211676021Y-80235836D01*
X211676021Y-80235836D02*
X211704481Y-80174802D01*
X211704481Y-80174802D02*
X211777689Y-80097481D01*
X211777689Y-80097481D02*
X212001426Y-80016048D01*
X212001426Y-80016048D02*
X212151954Y-80011935D01*
X212448898Y-79853181D02*
X213014655Y-80711441D01*
X213014655Y-80711441D02*
X212949344Y-79975085D01*
X212949344Y-79975085D02*
X213372633Y-80581147D01*
X213372633Y-80581147D02*
X213254349Y-79560021D01*
X213600153Y-79535509D02*
X213628614Y-79474475D01*
X213628614Y-79474475D02*
X213701822Y-79397155D01*
X213701822Y-79397155D02*
X213925558Y-79315721D01*
X213925558Y-79315721D02*
X214031339Y-79327895D01*
X214031339Y-79327895D02*
X214092373Y-79356356D01*
X214092373Y-79356356D02*
X214169694Y-79429564D01*
X214169694Y-79429564D02*
X214202267Y-79519058D01*
X214202267Y-79519058D02*
X214206380Y-79669587D01*
X214206380Y-79669587D02*
X213864853Y-80401994D01*
X213864853Y-80401994D02*
X214446567Y-80190267D01*
X214909998Y-78957414D02*
X214731009Y-79022561D01*
X214731009Y-79022561D02*
X214657801Y-79099882D01*
X214657801Y-79099882D02*
X214629340Y-79160916D01*
X214629340Y-79160916D02*
X214588706Y-79327731D01*
X214588706Y-79327731D02*
X214609105Y-79523006D01*
X214609105Y-79523006D02*
X214739399Y-79880985D01*
X214739399Y-79880985D02*
X214816719Y-79954193D01*
X214816719Y-79954193D02*
X214877753Y-79982653D01*
X214877753Y-79982653D02*
X214983535Y-79994827D01*
X214983535Y-79994827D02*
X215162524Y-79929680D01*
X215162524Y-79929680D02*
X215235731Y-79852360D01*
X215235731Y-79852360D02*
X215264192Y-79791326D01*
X215264192Y-79791326D02*
X215276366Y-79685545D01*
X215276366Y-79685545D02*
X215194933Y-79461808D01*
X215194933Y-79461808D02*
X215117612Y-79388600D01*
X215117612Y-79388600D02*
X215056578Y-79360140D01*
X215056578Y-79360140D02*
X214950797Y-79347966D01*
X214950797Y-79347966D02*
X214771808Y-79413113D01*
X214771808Y-79413113D02*
X214698600Y-79490433D01*
X214698600Y-79490433D02*
X214670139Y-79551467D01*
X214670139Y-79551467D02*
X214657965Y-79657248D01*
%TO.C,SW9*%
X200743222Y-48945158D02*
X200893750Y-48941045D01*
X200893750Y-48941045D02*
X201117487Y-48859611D01*
X201117487Y-48859611D02*
X201190695Y-48782291D01*
X201190695Y-48782291D02*
X201219155Y-48721257D01*
X201219155Y-48721257D02*
X201231329Y-48615476D01*
X201231329Y-48615476D02*
X201198756Y-48525981D01*
X201198756Y-48525981D02*
X201121435Y-48452773D01*
X201121435Y-48452773D02*
X201060401Y-48424313D01*
X201060401Y-48424313D02*
X200954620Y-48412139D01*
X200954620Y-48412139D02*
X200759344Y-48432538D01*
X200759344Y-48432538D02*
X200653563Y-48420364D01*
X200653563Y-48420364D02*
X200592529Y-48391904D01*
X200592529Y-48391904D02*
X200515208Y-48318696D01*
X200515208Y-48318696D02*
X200482635Y-48229201D01*
X200482635Y-48229201D02*
X200494809Y-48123420D01*
X200494809Y-48123420D02*
X200523270Y-48062386D01*
X200523270Y-48062386D02*
X200596477Y-47985066D01*
X200596477Y-47985066D02*
X200820214Y-47903632D01*
X200820214Y-47903632D02*
X200970742Y-47899519D01*
X201267687Y-47740765D02*
X201833443Y-48599025D01*
X201833443Y-48599025D02*
X201768132Y-47862669D01*
X201768132Y-47862669D02*
X202191421Y-48468731D01*
X202191421Y-48468731D02*
X202073137Y-47447605D01*
X202817883Y-48240718D02*
X202996872Y-48175571D01*
X202996872Y-48175571D02*
X203070080Y-48098251D01*
X203070080Y-48098251D02*
X203098540Y-48037217D01*
X203098540Y-48037217D02*
X203139175Y-47870402D01*
X203139175Y-47870402D02*
X203118775Y-47675126D01*
X203118775Y-47675126D02*
X202988482Y-47317148D01*
X202988482Y-47317148D02*
X202911161Y-47243940D01*
X202911161Y-47243940D02*
X202850127Y-47215479D01*
X202850127Y-47215479D02*
X202744346Y-47203305D01*
X202744346Y-47203305D02*
X202565357Y-47268452D01*
X202565357Y-47268452D02*
X202492149Y-47345773D01*
X202492149Y-47345773D02*
X202463689Y-47406807D01*
X202463689Y-47406807D02*
X202451515Y-47512588D01*
X202451515Y-47512588D02*
X202532948Y-47736324D01*
X202532948Y-47736324D02*
X202610269Y-47809532D01*
X202610269Y-47809532D02*
X202671303Y-47837993D01*
X202671303Y-47837993D02*
X202777084Y-47850166D01*
X202777084Y-47850166D02*
X202956073Y-47785020D01*
X202956073Y-47785020D02*
X203029281Y-47707699D01*
X203029281Y-47707699D02*
X203057741Y-47646665D01*
X203057741Y-47646665D02*
X203069915Y-47540884D01*
%TO.C,SW25*%
X193556381Y-83220243D02*
X193706909Y-83216130D01*
X193706909Y-83216130D02*
X193930646Y-83134696D01*
X193930646Y-83134696D02*
X194003853Y-83057376D01*
X194003853Y-83057376D02*
X194032314Y-82996342D01*
X194032314Y-82996342D02*
X194044488Y-82890561D01*
X194044488Y-82890561D02*
X194011915Y-82801066D01*
X194011915Y-82801066D02*
X193934594Y-82727858D01*
X193934594Y-82727858D02*
X193873560Y-82699398D01*
X193873560Y-82699398D02*
X193767779Y-82687224D01*
X193767779Y-82687224D02*
X193572503Y-82707623D01*
X193572503Y-82707623D02*
X193466722Y-82695449D01*
X193466722Y-82695449D02*
X193405688Y-82666989D01*
X193405688Y-82666989D02*
X193328367Y-82593781D01*
X193328367Y-82593781D02*
X193295794Y-82504286D01*
X193295794Y-82504286D02*
X193307968Y-82398505D01*
X193307968Y-82398505D02*
X193336428Y-82337471D01*
X193336428Y-82337471D02*
X193409636Y-82260150D01*
X193409636Y-82260150D02*
X193633373Y-82178717D01*
X193633373Y-82178717D02*
X193783901Y-82174604D01*
X194080845Y-82015850D02*
X194646602Y-82874110D01*
X194646602Y-82874110D02*
X194581291Y-82137754D01*
X194581291Y-82137754D02*
X195004580Y-82743816D01*
X195004580Y-82743816D02*
X194886296Y-81722690D01*
X195232100Y-81698178D02*
X195260561Y-81637144D01*
X195260561Y-81637144D02*
X195333769Y-81559824D01*
X195333769Y-81559824D02*
X195557505Y-81478390D01*
X195557505Y-81478390D02*
X195663286Y-81490564D01*
X195663286Y-81490564D02*
X195724320Y-81519025D01*
X195724320Y-81519025D02*
X195801641Y-81592233D01*
X195801641Y-81592233D02*
X195834214Y-81681727D01*
X195834214Y-81681727D02*
X195838327Y-81832256D01*
X195838327Y-81832256D02*
X195496800Y-82564663D01*
X195496800Y-82564663D02*
X196078514Y-82352936D01*
X196586692Y-81103797D02*
X196139220Y-81266663D01*
X196139220Y-81266663D02*
X196257339Y-81730423D01*
X196257339Y-81730423D02*
X196285800Y-81669389D01*
X196285800Y-81669389D02*
X196359007Y-81592068D01*
X196359007Y-81592068D02*
X196582744Y-81510635D01*
X196582744Y-81510635D02*
X196688525Y-81522809D01*
X196688525Y-81522809D02*
X196749559Y-81551269D01*
X196749559Y-81551269D02*
X196826880Y-81624477D01*
X196826880Y-81624477D02*
X196908313Y-81848214D01*
X196908313Y-81848214D02*
X196896139Y-81953995D01*
X196896139Y-81953995D02*
X196867678Y-82015029D01*
X196867678Y-82015029D02*
X196794471Y-82092349D01*
X196794471Y-82092349D02*
X196570734Y-82173783D01*
X196570734Y-82173783D02*
X196464953Y-82161609D01*
X196464953Y-82161609D02*
X196403919Y-82133148D01*
%TO.C,SW8*%
X182375169Y-51107827D02*
X182525697Y-51103714D01*
X182525697Y-51103714D02*
X182749434Y-51022280D01*
X182749434Y-51022280D02*
X182822642Y-50944960D01*
X182822642Y-50944960D02*
X182851102Y-50883926D01*
X182851102Y-50883926D02*
X182863276Y-50778145D01*
X182863276Y-50778145D02*
X182830703Y-50688650D01*
X182830703Y-50688650D02*
X182753382Y-50615442D01*
X182753382Y-50615442D02*
X182692348Y-50586982D01*
X182692348Y-50586982D02*
X182586567Y-50574808D01*
X182586567Y-50574808D02*
X182391291Y-50595207D01*
X182391291Y-50595207D02*
X182285510Y-50583033D01*
X182285510Y-50583033D02*
X182224476Y-50554573D01*
X182224476Y-50554573D02*
X182147155Y-50481365D01*
X182147155Y-50481365D02*
X182114582Y-50391870D01*
X182114582Y-50391870D02*
X182126756Y-50286089D01*
X182126756Y-50286089D02*
X182155217Y-50225055D01*
X182155217Y-50225055D02*
X182228424Y-50147735D01*
X182228424Y-50147735D02*
X182452161Y-50066301D01*
X182452161Y-50066301D02*
X182602689Y-50062188D01*
X182899634Y-49903434D02*
X183465390Y-50761694D01*
X183465390Y-50761694D02*
X183400079Y-50025338D01*
X183400079Y-50025338D02*
X183823368Y-50631400D01*
X183823368Y-50631400D02*
X183705084Y-49610274D01*
X184343884Y-49833846D02*
X184238103Y-49821672D01*
X184238103Y-49821672D02*
X184177069Y-49793212D01*
X184177069Y-49793212D02*
X184099748Y-49720004D01*
X184099748Y-49720004D02*
X184083462Y-49675257D01*
X184083462Y-49675257D02*
X184095636Y-49569476D01*
X184095636Y-49569476D02*
X184124096Y-49508442D01*
X184124096Y-49508442D02*
X184197304Y-49431121D01*
X184197304Y-49431121D02*
X184376293Y-49365974D01*
X184376293Y-49365974D02*
X184482074Y-49378148D01*
X184482074Y-49378148D02*
X184543108Y-49406609D01*
X184543108Y-49406609D02*
X184620429Y-49479817D01*
X184620429Y-49479817D02*
X184636716Y-49524564D01*
X184636716Y-49524564D02*
X184624542Y-49630345D01*
X184624542Y-49630345D02*
X184596081Y-49691379D01*
X184596081Y-49691379D02*
X184522873Y-49768700D01*
X184522873Y-49768700D02*
X184343884Y-49833846D01*
X184343884Y-49833846D02*
X184270676Y-49911167D01*
X184270676Y-49911167D02*
X184242216Y-49972201D01*
X184242216Y-49972201D02*
X184230042Y-50077982D01*
X184230042Y-50077982D02*
X184295189Y-50256971D01*
X184295189Y-50256971D02*
X184372509Y-50330179D01*
X184372509Y-50330179D02*
X184433543Y-50358640D01*
X184433543Y-50358640D02*
X184539324Y-50370814D01*
X184539324Y-50370814D02*
X184718313Y-50305667D01*
X184718313Y-50305667D02*
X184791521Y-50228346D01*
X184791521Y-50228346D02*
X184819982Y-50167312D01*
X184819982Y-50167312D02*
X184832156Y-50061531D01*
X184832156Y-50061531D02*
X184767009Y-49882542D01*
X184767009Y-49882542D02*
X184689688Y-49809334D01*
X184689688Y-49809334D02*
X184628654Y-49780874D01*
X184628654Y-49780874D02*
X184522873Y-49768700D01*
%TO.C,SW24*%
X178095499Y-93370299D02*
X178246027Y-93366186D01*
X178246027Y-93366186D02*
X178469764Y-93284752D01*
X178469764Y-93284752D02*
X178542971Y-93207432D01*
X178542971Y-93207432D02*
X178571432Y-93146398D01*
X178571432Y-93146398D02*
X178583606Y-93040617D01*
X178583606Y-93040617D02*
X178551033Y-92951122D01*
X178551033Y-92951122D02*
X178473712Y-92877914D01*
X178473712Y-92877914D02*
X178412678Y-92849454D01*
X178412678Y-92849454D02*
X178306897Y-92837280D01*
X178306897Y-92837280D02*
X178111621Y-92857679D01*
X178111621Y-92857679D02*
X178005840Y-92845505D01*
X178005840Y-92845505D02*
X177944806Y-92817045D01*
X177944806Y-92817045D02*
X177867485Y-92743837D01*
X177867485Y-92743837D02*
X177834912Y-92654342D01*
X177834912Y-92654342D02*
X177847086Y-92548561D01*
X177847086Y-92548561D02*
X177875546Y-92487527D01*
X177875546Y-92487527D02*
X177948754Y-92410206D01*
X177948754Y-92410206D02*
X178172491Y-92328773D01*
X178172491Y-92328773D02*
X178323019Y-92324660D01*
X178619963Y-92165906D02*
X179185720Y-93024166D01*
X179185720Y-93024166D02*
X179120409Y-92287810D01*
X179120409Y-92287810D02*
X179543698Y-92893872D01*
X179543698Y-92893872D02*
X179425414Y-91872746D01*
X179771218Y-91848234D02*
X179799679Y-91787200D01*
X179799679Y-91787200D02*
X179872887Y-91709880D01*
X179872887Y-91709880D02*
X180096623Y-91628446D01*
X180096623Y-91628446D02*
X180202404Y-91640620D01*
X180202404Y-91640620D02*
X180263438Y-91669081D01*
X180263438Y-91669081D02*
X180340759Y-91742289D01*
X180340759Y-91742289D02*
X180373332Y-91831783D01*
X180373332Y-91831783D02*
X180377445Y-91982312D01*
X180377445Y-91982312D02*
X180035918Y-92714719D01*
X180035918Y-92714719D02*
X180617632Y-92502992D01*
X181195070Y-91583370D02*
X181423083Y-92209832D01*
X180841040Y-91306825D02*
X180861604Y-92059468D01*
X180861604Y-92059468D02*
X181443318Y-91847741D01*
%TO.C,SW17*%
X172281157Y-77395524D02*
X172431685Y-77391411D01*
X172431685Y-77391411D02*
X172655422Y-77309977D01*
X172655422Y-77309977D02*
X172728629Y-77232657D01*
X172728629Y-77232657D02*
X172757090Y-77171623D01*
X172757090Y-77171623D02*
X172769264Y-77065842D01*
X172769264Y-77065842D02*
X172736691Y-76976347D01*
X172736691Y-76976347D02*
X172659370Y-76903139D01*
X172659370Y-76903139D02*
X172598336Y-76874679D01*
X172598336Y-76874679D02*
X172492555Y-76862505D01*
X172492555Y-76862505D02*
X172297279Y-76882904D01*
X172297279Y-76882904D02*
X172191498Y-76870730D01*
X172191498Y-76870730D02*
X172130464Y-76842270D01*
X172130464Y-76842270D02*
X172053143Y-76769062D01*
X172053143Y-76769062D02*
X172020570Y-76679567D01*
X172020570Y-76679567D02*
X172032744Y-76573786D01*
X172032744Y-76573786D02*
X172061204Y-76512752D01*
X172061204Y-76512752D02*
X172134412Y-76435431D01*
X172134412Y-76435431D02*
X172358149Y-76353998D01*
X172358149Y-76353998D02*
X172508677Y-76349885D01*
X172805621Y-76191131D02*
X173371378Y-77049391D01*
X173371378Y-77049391D02*
X173306067Y-76313035D01*
X173306067Y-76313035D02*
X173729356Y-76919097D01*
X173729356Y-76919097D02*
X173611072Y-75897971D01*
X174803290Y-76528217D02*
X174266323Y-76723657D01*
X174534807Y-76625937D02*
X174192787Y-75686245D01*
X174192787Y-75686245D02*
X174152152Y-75853060D01*
X174152152Y-75853060D02*
X174095231Y-75975128D01*
X174095231Y-75975128D02*
X174022023Y-76052448D01*
X174774501Y-75474518D02*
X175400963Y-75246504D01*
X175400963Y-75246504D02*
X175340258Y-76332777D01*
%TO.C,SW27*%
X99426712Y-123224934D02*
X99544667Y-123318542D01*
X99544667Y-123318542D02*
X99768403Y-123399975D01*
X99768403Y-123399975D02*
X99874185Y-123387801D01*
X99874185Y-123387801D02*
X99935219Y-123359340D01*
X99935219Y-123359340D02*
X100012539Y-123286133D01*
X100012539Y-123286133D02*
X100045113Y-123196638D01*
X100045113Y-123196638D02*
X100032939Y-123090857D01*
X100032939Y-123090857D02*
X100004478Y-123029823D01*
X100004478Y-123029823D02*
X99931270Y-122952502D01*
X99931270Y-122952502D02*
X99768568Y-122842608D01*
X99768568Y-122842608D02*
X99695360Y-122765288D01*
X99695360Y-122765288D02*
X99666899Y-122704254D01*
X99666899Y-122704254D02*
X99654725Y-122598473D01*
X99654725Y-122598473D02*
X99687299Y-122508978D01*
X99687299Y-122508978D02*
X99764619Y-122435770D01*
X99764619Y-122435770D02*
X99825653Y-122407310D01*
X99825653Y-122407310D02*
X99931435Y-122395136D01*
X99931435Y-122395136D02*
X100155171Y-122476569D01*
X100155171Y-122476569D02*
X100273126Y-122570176D01*
X100602644Y-122639436D02*
X100484360Y-123660562D01*
X100484360Y-123660562D02*
X100907649Y-123054499D01*
X100907649Y-123054499D02*
X100842338Y-123790855D01*
X100842338Y-123790855D02*
X101408094Y-122932596D01*
X101688752Y-123136097D02*
X101749786Y-123107637D01*
X101749786Y-123107637D02*
X101855567Y-123095463D01*
X101855567Y-123095463D02*
X102079303Y-123176896D01*
X102079303Y-123176896D02*
X102152511Y-123254217D01*
X102152511Y-123254217D02*
X102180972Y-123315251D01*
X102180972Y-123315251D02*
X102193146Y-123421032D01*
X102193146Y-123421032D02*
X102160572Y-123510526D01*
X102160572Y-123510526D02*
X102066965Y-123628481D01*
X102066965Y-123628481D02*
X101334558Y-123970009D01*
X101334558Y-123970009D02*
X101916272Y-124181735D01*
X102571523Y-123356049D02*
X103197985Y-123584063D01*
X103197985Y-123584063D02*
X102453239Y-124377175D01*
%TO.C,SW29*%
X168581100Y-133015301D02*
X168731628Y-133011188D01*
X168731628Y-133011188D02*
X168955365Y-132929754D01*
X168955365Y-132929754D02*
X169028572Y-132852434D01*
X169028572Y-132852434D02*
X169057033Y-132791400D01*
X169057033Y-132791400D02*
X169069207Y-132685619D01*
X169069207Y-132685619D02*
X169036634Y-132596124D01*
X169036634Y-132596124D02*
X168959313Y-132522916D01*
X168959313Y-132522916D02*
X168898279Y-132494456D01*
X168898279Y-132494456D02*
X168792498Y-132482282D01*
X168792498Y-132482282D02*
X168597222Y-132502681D01*
X168597222Y-132502681D02*
X168491441Y-132490507D01*
X168491441Y-132490507D02*
X168430407Y-132462047D01*
X168430407Y-132462047D02*
X168353086Y-132388839D01*
X168353086Y-132388839D02*
X168320513Y-132299344D01*
X168320513Y-132299344D02*
X168332687Y-132193563D01*
X168332687Y-132193563D02*
X168361147Y-132132529D01*
X168361147Y-132132529D02*
X168434355Y-132055208D01*
X168434355Y-132055208D02*
X168658092Y-131973775D01*
X168658092Y-131973775D02*
X168808620Y-131969662D01*
X169105564Y-131810908D02*
X169671321Y-132669168D01*
X169671321Y-132669168D02*
X169606010Y-131932812D01*
X169606010Y-131932812D02*
X170029299Y-132538874D01*
X170029299Y-132538874D02*
X169911015Y-131517748D01*
X170256819Y-131493236D02*
X170285280Y-131432202D01*
X170285280Y-131432202D02*
X170358488Y-131354882D01*
X170358488Y-131354882D02*
X170582224Y-131273448D01*
X170582224Y-131273448D02*
X170688005Y-131285622D01*
X170688005Y-131285622D02*
X170749039Y-131314083D01*
X170749039Y-131314083D02*
X170826360Y-131387291D01*
X170826360Y-131387291D02*
X170858933Y-131476785D01*
X170858933Y-131476785D02*
X170863046Y-131627314D01*
X170863046Y-131627314D02*
X170521519Y-132359721D01*
X170521519Y-132359721D02*
X171103233Y-132147994D01*
X171550706Y-131985127D02*
X171729695Y-131919981D01*
X171729695Y-131919981D02*
X171802903Y-131842660D01*
X171802903Y-131842660D02*
X171831364Y-131781626D01*
X171831364Y-131781626D02*
X171871998Y-131614811D01*
X171871998Y-131614811D02*
X171851599Y-131419535D01*
X171851599Y-131419535D02*
X171721305Y-131061557D01*
X171721305Y-131061557D02*
X171643985Y-130988349D01*
X171643985Y-130988349D02*
X171582951Y-130959889D01*
X171582951Y-130959889D02*
X171477169Y-130947715D01*
X171477169Y-130947715D02*
X171298180Y-131012861D01*
X171298180Y-131012861D02*
X171224973Y-131090182D01*
X171224973Y-131090182D02*
X171196512Y-131151216D01*
X171196512Y-131151216D02*
X171184338Y-131256997D01*
X171184338Y-131256997D02*
X171265771Y-131480733D01*
X171265771Y-131480733D02*
X171343092Y-131553941D01*
X171343092Y-131553941D02*
X171404126Y-131582402D01*
X171404126Y-131582402D02*
X171509907Y-131594576D01*
X171509907Y-131594576D02*
X171688896Y-131529429D01*
X171688896Y-131529429D02*
X171762104Y-131452109D01*
X171762104Y-131452109D02*
X171790565Y-131391075D01*
X171790565Y-131391075D02*
X171802739Y-131285293D01*
%TO.C,SW23*%
X105954629Y-92132511D02*
X106072584Y-92226119D01*
X106072584Y-92226119D02*
X106296320Y-92307552D01*
X106296320Y-92307552D02*
X106402102Y-92295378D01*
X106402102Y-92295378D02*
X106463136Y-92266917D01*
X106463136Y-92266917D02*
X106540456Y-92193710D01*
X106540456Y-92193710D02*
X106573030Y-92104215D01*
X106573030Y-92104215D02*
X106560856Y-91998434D01*
X106560856Y-91998434D02*
X106532395Y-91937400D01*
X106532395Y-91937400D02*
X106459187Y-91860079D01*
X106459187Y-91860079D02*
X106296485Y-91750185D01*
X106296485Y-91750185D02*
X106223277Y-91672865D01*
X106223277Y-91672865D02*
X106194816Y-91611831D01*
X106194816Y-91611831D02*
X106182642Y-91506050D01*
X106182642Y-91506050D02*
X106215216Y-91416555D01*
X106215216Y-91416555D02*
X106292536Y-91343347D01*
X106292536Y-91343347D02*
X106353570Y-91314887D01*
X106353570Y-91314887D02*
X106459352Y-91302713D01*
X106459352Y-91302713D02*
X106683088Y-91384146D01*
X106683088Y-91384146D02*
X106801043Y-91477753D01*
X107130561Y-91547013D02*
X107012277Y-92568139D01*
X107012277Y-92568139D02*
X107435566Y-91962076D01*
X107435566Y-91962076D02*
X107370255Y-92698432D01*
X107370255Y-92698432D02*
X107936011Y-91840173D01*
X108216669Y-92043674D02*
X108277703Y-92015214D01*
X108277703Y-92015214D02*
X108383484Y-92003040D01*
X108383484Y-92003040D02*
X108607220Y-92084473D01*
X108607220Y-92084473D02*
X108680428Y-92161794D01*
X108680428Y-92161794D02*
X108708889Y-92222828D01*
X108708889Y-92222828D02*
X108721063Y-92328609D01*
X108721063Y-92328609D02*
X108688489Y-92418103D01*
X108688489Y-92418103D02*
X108594882Y-92536058D01*
X108594882Y-92536058D02*
X107862475Y-92877586D01*
X107862475Y-92877586D02*
X108444189Y-93089312D01*
X109099440Y-92263626D02*
X109681155Y-92475353D01*
X109681155Y-92475353D02*
X109237630Y-92719325D01*
X109237630Y-92719325D02*
X109371872Y-92768185D01*
X109371872Y-92768185D02*
X109445080Y-92845505D01*
X109445080Y-92845505D02*
X109473541Y-92906539D01*
X109473541Y-92906539D02*
X109485715Y-93012320D01*
X109485715Y-93012320D02*
X109404281Y-93236057D01*
X109404281Y-93236057D02*
X109326961Y-93309265D01*
X109326961Y-93309265D02*
X109265927Y-93337725D01*
X109265927Y-93337725D02*
X109160146Y-93349899D01*
X109160146Y-93349899D02*
X108891662Y-93252179D01*
X108891662Y-93252179D02*
X108818454Y-93174858D01*
X108818454Y-93174858D02*
X108789993Y-93113824D01*
%TO.C,SW13*%
X96308090Y-66007680D02*
X96426045Y-66101288D01*
X96426045Y-66101288D02*
X96649781Y-66182721D01*
X96649781Y-66182721D02*
X96755563Y-66170547D01*
X96755563Y-66170547D02*
X96816597Y-66142086D01*
X96816597Y-66142086D02*
X96893917Y-66068879D01*
X96893917Y-66068879D02*
X96926491Y-65979384D01*
X96926491Y-65979384D02*
X96914317Y-65873603D01*
X96914317Y-65873603D02*
X96885856Y-65812569D01*
X96885856Y-65812569D02*
X96812648Y-65735248D01*
X96812648Y-65735248D02*
X96649946Y-65625354D01*
X96649946Y-65625354D02*
X96576738Y-65548034D01*
X96576738Y-65548034D02*
X96548277Y-65487000D01*
X96548277Y-65487000D02*
X96536103Y-65381219D01*
X96536103Y-65381219D02*
X96568677Y-65291724D01*
X96568677Y-65291724D02*
X96645997Y-65218516D01*
X96645997Y-65218516D02*
X96707031Y-65190056D01*
X96707031Y-65190056D02*
X96812813Y-65177882D01*
X96812813Y-65177882D02*
X97036549Y-65259315D01*
X97036549Y-65259315D02*
X97154504Y-65352922D01*
X97484022Y-65422182D02*
X97365738Y-66443308D01*
X97365738Y-66443308D02*
X97789027Y-65837245D01*
X97789027Y-65837245D02*
X97723716Y-66573601D01*
X97723716Y-66573601D02*
X98289472Y-65715342D01*
X98797650Y-66964481D02*
X98260683Y-66769041D01*
X98529167Y-66866761D02*
X98871187Y-65927069D01*
X98871187Y-65927069D02*
X98732832Y-66028737D01*
X98732832Y-66028737D02*
X98610764Y-66085658D01*
X98610764Y-66085658D02*
X98504983Y-66097832D01*
X99452901Y-66138795D02*
X100034616Y-66350522D01*
X100034616Y-66350522D02*
X99591091Y-66594494D01*
X99591091Y-66594494D02*
X99725333Y-66643354D01*
X99725333Y-66643354D02*
X99798541Y-66720674D01*
X99798541Y-66720674D02*
X99827002Y-66781708D01*
X99827002Y-66781708D02*
X99839176Y-66887489D01*
X99839176Y-66887489D02*
X99757742Y-67111226D01*
X99757742Y-67111226D02*
X99680422Y-67184434D01*
X99680422Y-67184434D02*
X99619388Y-67212894D01*
X99619388Y-67212894D02*
X99513607Y-67225068D01*
X99513607Y-67225068D02*
X99245123Y-67127348D01*
X99245123Y-67127348D02*
X99171915Y-67050027D01*
X99171915Y-67050027D02*
X99143454Y-66988993D01*
%TO.C,SW18*%
X187742038Y-67245468D02*
X187892566Y-67241355D01*
X187892566Y-67241355D02*
X188116303Y-67159921D01*
X188116303Y-67159921D02*
X188189510Y-67082601D01*
X188189510Y-67082601D02*
X188217971Y-67021567D01*
X188217971Y-67021567D02*
X188230145Y-66915786D01*
X188230145Y-66915786D02*
X188197572Y-66826291D01*
X188197572Y-66826291D02*
X188120251Y-66753083D01*
X188120251Y-66753083D02*
X188059217Y-66724623D01*
X188059217Y-66724623D02*
X187953436Y-66712449D01*
X187953436Y-66712449D02*
X187758160Y-66732848D01*
X187758160Y-66732848D02*
X187652379Y-66720674D01*
X187652379Y-66720674D02*
X187591345Y-66692214D01*
X187591345Y-66692214D02*
X187514024Y-66619006D01*
X187514024Y-66619006D02*
X187481451Y-66529511D01*
X187481451Y-66529511D02*
X187493625Y-66423730D01*
X187493625Y-66423730D02*
X187522085Y-66362696D01*
X187522085Y-66362696D02*
X187595293Y-66285375D01*
X187595293Y-66285375D02*
X187819030Y-66203942D01*
X187819030Y-66203942D02*
X187969558Y-66199829D01*
X188266502Y-66041075D02*
X188832259Y-66899335D01*
X188832259Y-66899335D02*
X188766948Y-66162979D01*
X188766948Y-66162979D02*
X189190237Y-66769041D01*
X189190237Y-66769041D02*
X189071953Y-65747915D01*
X190264171Y-66378161D02*
X189727204Y-66573601D01*
X189995688Y-66475881D02*
X189653668Y-65536189D01*
X189653668Y-65536189D02*
X189613033Y-65703004D01*
X189613033Y-65703004D02*
X189556112Y-65825072D01*
X189556112Y-65825072D02*
X189482904Y-65902392D01*
X190605698Y-65645754D02*
X190499917Y-65633580D01*
X190499917Y-65633580D02*
X190438883Y-65605119D01*
X190438883Y-65605119D02*
X190361563Y-65531911D01*
X190361563Y-65531911D02*
X190345276Y-65487164D01*
X190345276Y-65487164D02*
X190357450Y-65381383D01*
X190357450Y-65381383D02*
X190385911Y-65320349D01*
X190385911Y-65320349D02*
X190459118Y-65243028D01*
X190459118Y-65243028D02*
X190638107Y-65177882D01*
X190638107Y-65177882D02*
X190743889Y-65190056D01*
X190743889Y-65190056D02*
X190804923Y-65218516D01*
X190804923Y-65218516D02*
X190882243Y-65291724D01*
X190882243Y-65291724D02*
X190898530Y-65336471D01*
X190898530Y-65336471D02*
X190886356Y-65442253D01*
X190886356Y-65442253D02*
X190857895Y-65503286D01*
X190857895Y-65503286D02*
X190784688Y-65580607D01*
X190784688Y-65580607D02*
X190605698Y-65645754D01*
X190605698Y-65645754D02*
X190532491Y-65723074D01*
X190532491Y-65723074D02*
X190504030Y-65784108D01*
X190504030Y-65784108D02*
X190491856Y-65889890D01*
X190491856Y-65889890D02*
X190557003Y-66068879D01*
X190557003Y-66068879D02*
X190634323Y-66142087D01*
X190634323Y-66142087D02*
X190695357Y-66170547D01*
X190695357Y-66170547D02*
X190801139Y-66182721D01*
X190801139Y-66182721D02*
X190980128Y-66117574D01*
X190980128Y-66117574D02*
X191053335Y-66040254D01*
X191053335Y-66040254D02*
X191081796Y-65979220D01*
X191081796Y-65979220D02*
X191093970Y-65873439D01*
X191093970Y-65873439D02*
X191028823Y-65694449D01*
X191028823Y-65694449D02*
X190951503Y-65621242D01*
X190951503Y-65621242D02*
X190890469Y-65592781D01*
X190890469Y-65592781D02*
X190784688Y-65580607D01*
%TO.C,SW21*%
X72125694Y-79819786D02*
X72243649Y-79913394D01*
X72243649Y-79913394D02*
X72467385Y-79994827D01*
X72467385Y-79994827D02*
X72573167Y-79982653D01*
X72573167Y-79982653D02*
X72634201Y-79954192D01*
X72634201Y-79954192D02*
X72711521Y-79880985D01*
X72711521Y-79880985D02*
X72744095Y-79791490D01*
X72744095Y-79791490D02*
X72731921Y-79685709D01*
X72731921Y-79685709D02*
X72703460Y-79624675D01*
X72703460Y-79624675D02*
X72630252Y-79547354D01*
X72630252Y-79547354D02*
X72467550Y-79437460D01*
X72467550Y-79437460D02*
X72394342Y-79360140D01*
X72394342Y-79360140D02*
X72365881Y-79299106D01*
X72365881Y-79299106D02*
X72353707Y-79193325D01*
X72353707Y-79193325D02*
X72386281Y-79103830D01*
X72386281Y-79103830D02*
X72463601Y-79030622D01*
X72463601Y-79030622D02*
X72524635Y-79002162D01*
X72524635Y-79002162D02*
X72630417Y-78989988D01*
X72630417Y-78989988D02*
X72854153Y-79071421D01*
X72854153Y-79071421D02*
X72972108Y-79165028D01*
X73301626Y-79234288D02*
X73183342Y-80255414D01*
X73183342Y-80255414D02*
X73606631Y-79649351D01*
X73606631Y-79649351D02*
X73541320Y-80385707D01*
X73541320Y-80385707D02*
X74107076Y-79527448D01*
X74387734Y-79730949D02*
X74448768Y-79702489D01*
X74448768Y-79702489D02*
X74554549Y-79690315D01*
X74554549Y-79690315D02*
X74778285Y-79771748D01*
X74778285Y-79771748D02*
X74851493Y-79849069D01*
X74851493Y-79849069D02*
X74879954Y-79910103D01*
X74879954Y-79910103D02*
X74892128Y-80015884D01*
X74892128Y-80015884D02*
X74859554Y-80105378D01*
X74859554Y-80105378D02*
X74765947Y-80223333D01*
X74765947Y-80223333D02*
X74033540Y-80564861D01*
X74033540Y-80564861D02*
X74615254Y-80776587D01*
X75510200Y-81102321D02*
X74973232Y-80906881D01*
X75241716Y-81004601D02*
X75583736Y-80064908D01*
X75583736Y-80064908D02*
X75445382Y-80166577D01*
X75445382Y-80166577D02*
X75323314Y-80223498D01*
X75323314Y-80223498D02*
X75217532Y-80235672D01*
%TO.C,SW7*%
X166914287Y-61257883D02*
X167064815Y-61253770D01*
X167064815Y-61253770D02*
X167288552Y-61172336D01*
X167288552Y-61172336D02*
X167361760Y-61095016D01*
X167361760Y-61095016D02*
X167390220Y-61033982D01*
X167390220Y-61033982D02*
X167402394Y-60928201D01*
X167402394Y-60928201D02*
X167369821Y-60838706D01*
X167369821Y-60838706D02*
X167292500Y-60765498D01*
X167292500Y-60765498D02*
X167231466Y-60737038D01*
X167231466Y-60737038D02*
X167125685Y-60724864D01*
X167125685Y-60724864D02*
X166930409Y-60745263D01*
X166930409Y-60745263D02*
X166824628Y-60733089D01*
X166824628Y-60733089D02*
X166763594Y-60704629D01*
X166763594Y-60704629D02*
X166686273Y-60631421D01*
X166686273Y-60631421D02*
X166653700Y-60541926D01*
X166653700Y-60541926D02*
X166665874Y-60436145D01*
X166665874Y-60436145D02*
X166694335Y-60375111D01*
X166694335Y-60375111D02*
X166767542Y-60297791D01*
X166767542Y-60297791D02*
X166991279Y-60216357D01*
X166991279Y-60216357D02*
X167141807Y-60212244D01*
X167438752Y-60053490D02*
X168004508Y-60911750D01*
X168004508Y-60911750D02*
X167939197Y-60175394D01*
X167939197Y-60175394D02*
X168362486Y-60781456D01*
X168362486Y-60781456D02*
X168244202Y-59760330D01*
X168512686Y-59662610D02*
X169139148Y-59434597D01*
X169139148Y-59434597D02*
X169078442Y-60520870D01*
%TO.C,SW20*%
X227385315Y-70907518D02*
X227535843Y-70903405D01*
X227535843Y-70903405D02*
X227759580Y-70821971D01*
X227759580Y-70821971D02*
X227832787Y-70744651D01*
X227832787Y-70744651D02*
X227861248Y-70683617D01*
X227861248Y-70683617D02*
X227873422Y-70577836D01*
X227873422Y-70577836D02*
X227840849Y-70488341D01*
X227840849Y-70488341D02*
X227763528Y-70415133D01*
X227763528Y-70415133D02*
X227702494Y-70386673D01*
X227702494Y-70386673D02*
X227596713Y-70374499D01*
X227596713Y-70374499D02*
X227401437Y-70394898D01*
X227401437Y-70394898D02*
X227295656Y-70382724D01*
X227295656Y-70382724D02*
X227234622Y-70354264D01*
X227234622Y-70354264D02*
X227157301Y-70281056D01*
X227157301Y-70281056D02*
X227124728Y-70191561D01*
X227124728Y-70191561D02*
X227136902Y-70085780D01*
X227136902Y-70085780D02*
X227165362Y-70024746D01*
X227165362Y-70024746D02*
X227238570Y-69947425D01*
X227238570Y-69947425D02*
X227462307Y-69865992D01*
X227462307Y-69865992D02*
X227612835Y-69861879D01*
X227909779Y-69703125D02*
X228475536Y-70561385D01*
X228475536Y-70561385D02*
X228410225Y-69825029D01*
X228410225Y-69825029D02*
X228833514Y-70431091D01*
X228833514Y-70431091D02*
X228715230Y-69409965D01*
X229061034Y-69385453D02*
X229089495Y-69324419D01*
X229089495Y-69324419D02*
X229162703Y-69247099D01*
X229162703Y-69247099D02*
X229386439Y-69165665D01*
X229386439Y-69165665D02*
X229492220Y-69177839D01*
X229492220Y-69177839D02*
X229553254Y-69206300D01*
X229553254Y-69206300D02*
X229630575Y-69279508D01*
X229630575Y-69279508D02*
X229663148Y-69369002D01*
X229663148Y-69369002D02*
X229667261Y-69519531D01*
X229667261Y-69519531D02*
X229325734Y-70251938D01*
X229325734Y-70251938D02*
X229907448Y-70040211D01*
X230147143Y-68888792D02*
X230236637Y-68856218D01*
X230236637Y-68856218D02*
X230342418Y-68868392D01*
X230342418Y-68868392D02*
X230403452Y-68896853D01*
X230403452Y-68896853D02*
X230480773Y-68970061D01*
X230480773Y-68970061D02*
X230590667Y-69132763D01*
X230590667Y-69132763D02*
X230672100Y-69356499D01*
X230672100Y-69356499D02*
X230692500Y-69551775D01*
X230692500Y-69551775D02*
X230680326Y-69657556D01*
X230680326Y-69657556D02*
X230651865Y-69718590D01*
X230651865Y-69718590D02*
X230578657Y-69795911D01*
X230578657Y-69795911D02*
X230489163Y-69828484D01*
X230489163Y-69828484D02*
X230383382Y-69816310D01*
X230383382Y-69816310D02*
X230322348Y-69787850D01*
X230322348Y-69787850D02*
X230245027Y-69714642D01*
X230245027Y-69714642D02*
X230135133Y-69551940D01*
X230135133Y-69551940D02*
X230053700Y-69328203D01*
X230053700Y-69328203D02*
X230033300Y-69132927D01*
X230033300Y-69132927D02*
X230045474Y-69027146D01*
X230045474Y-69027146D02*
X230073935Y-68966112D01*
X230073935Y-68966112D02*
X230147143Y-68888792D01*
%TO.C,SW2*%
X84201852Y-48033104D02*
X84319807Y-48126712D01*
X84319807Y-48126712D02*
X84543544Y-48208145D01*
X84543544Y-48208145D02*
X84649325Y-48195971D01*
X84649325Y-48195971D02*
X84710359Y-48167510D01*
X84710359Y-48167510D02*
X84787679Y-48094303D01*
X84787679Y-48094303D02*
X84820253Y-48004808D01*
X84820253Y-48004808D02*
X84808079Y-47899027D01*
X84808079Y-47899027D02*
X84779618Y-47837993D01*
X84779618Y-47837993D02*
X84706410Y-47760672D01*
X84706410Y-47760672D02*
X84543708Y-47650778D01*
X84543708Y-47650778D02*
X84470500Y-47573458D01*
X84470500Y-47573458D02*
X84442039Y-47512424D01*
X84442039Y-47512424D02*
X84429866Y-47406643D01*
X84429866Y-47406643D02*
X84462439Y-47317148D01*
X84462439Y-47317148D02*
X84539760Y-47243940D01*
X84539760Y-47243940D02*
X84600793Y-47215480D01*
X84600793Y-47215480D02*
X84706575Y-47203306D01*
X84706575Y-47203306D02*
X84930311Y-47284739D01*
X84930311Y-47284739D02*
X85048266Y-47378346D01*
X85377784Y-47447606D02*
X85259500Y-48468732D01*
X85259500Y-48468732D02*
X85682789Y-47862669D01*
X85682789Y-47862669D02*
X85617478Y-48599025D01*
X85617478Y-48599025D02*
X86183235Y-47740766D01*
X86463892Y-47944267D02*
X86524926Y-47915806D01*
X86524926Y-47915806D02*
X86630707Y-47903633D01*
X86630707Y-47903633D02*
X86854443Y-47985066D01*
X86854443Y-47985066D02*
X86927651Y-48062387D01*
X86927651Y-48062387D02*
X86956112Y-48123420D01*
X86956112Y-48123420D02*
X86968286Y-48229202D01*
X86968286Y-48229202D02*
X86935712Y-48318696D01*
X86935712Y-48318696D02*
X86842105Y-48436651D01*
X86842105Y-48436651D02*
X86109698Y-48778178D01*
X86109698Y-48778178D02*
X86691412Y-48989905D01*
%TO.C,SW16*%
X159146012Y-93935490D02*
X159296540Y-93931377D01*
X159296540Y-93931377D02*
X159520277Y-93849943D01*
X159520277Y-93849943D02*
X159593484Y-93772623D01*
X159593484Y-93772623D02*
X159621945Y-93711589D01*
X159621945Y-93711589D02*
X159634119Y-93605808D01*
X159634119Y-93605808D02*
X159601546Y-93516313D01*
X159601546Y-93516313D02*
X159524225Y-93443105D01*
X159524225Y-93443105D02*
X159463191Y-93414645D01*
X159463191Y-93414645D02*
X159357410Y-93402471D01*
X159357410Y-93402471D02*
X159162134Y-93422870D01*
X159162134Y-93422870D02*
X159056353Y-93410696D01*
X159056353Y-93410696D02*
X158995319Y-93382236D01*
X158995319Y-93382236D02*
X158917998Y-93309028D01*
X158917998Y-93309028D02*
X158885425Y-93219533D01*
X158885425Y-93219533D02*
X158897599Y-93113752D01*
X158897599Y-93113752D02*
X158926059Y-93052718D01*
X158926059Y-93052718D02*
X158999267Y-92975397D01*
X158999267Y-92975397D02*
X159223004Y-92893964D01*
X159223004Y-92893964D02*
X159373532Y-92889851D01*
X159670476Y-92731097D02*
X160236233Y-93589357D01*
X160236233Y-93589357D02*
X160170922Y-92853001D01*
X160170922Y-92853001D02*
X160594211Y-93459063D01*
X160594211Y-93459063D02*
X160475927Y-92437937D01*
X161668145Y-93068183D02*
X161131178Y-93263623D01*
X161399662Y-93165903D02*
X161057642Y-92226211D01*
X161057642Y-92226211D02*
X161017007Y-92393026D01*
X161017007Y-92393026D02*
X160960086Y-92515094D01*
X160960086Y-92515094D02*
X160886878Y-92592414D01*
X162131576Y-91835330D02*
X161952587Y-91900477D01*
X161952587Y-91900477D02*
X161879379Y-91977798D01*
X161879379Y-91977798D02*
X161850918Y-92038832D01*
X161850918Y-92038832D02*
X161810284Y-92205647D01*
X161810284Y-92205647D02*
X161830683Y-92400922D01*
X161830683Y-92400922D02*
X161960977Y-92758901D01*
X161960977Y-92758901D02*
X162038297Y-92832109D01*
X162038297Y-92832109D02*
X162099331Y-92860569D01*
X162099331Y-92860569D02*
X162205113Y-92872743D01*
X162205113Y-92872743D02*
X162384102Y-92807596D01*
X162384102Y-92807596D02*
X162457309Y-92730276D01*
X162457309Y-92730276D02*
X162485770Y-92669242D01*
X162485770Y-92669242D02*
X162497944Y-92563461D01*
X162497944Y-92563461D02*
X162416511Y-92339724D01*
X162416511Y-92339724D02*
X162339190Y-92266516D01*
X162339190Y-92266516D02*
X162278156Y-92238056D01*
X162278156Y-92238056D02*
X162172375Y-92225882D01*
X162172375Y-92225882D02*
X161993386Y-92291029D01*
X161993386Y-92291029D02*
X161920178Y-92368349D01*
X161920178Y-92368349D02*
X161891717Y-92429383D01*
X161891717Y-92429383D02*
X161879543Y-92535164D01*
%TO.C,SW12*%
X77940037Y-63845011D02*
X78057992Y-63938619D01*
X78057992Y-63938619D02*
X78281728Y-64020052D01*
X78281728Y-64020052D02*
X78387510Y-64007878D01*
X78387510Y-64007878D02*
X78448544Y-63979417D01*
X78448544Y-63979417D02*
X78525864Y-63906210D01*
X78525864Y-63906210D02*
X78558438Y-63816715D01*
X78558438Y-63816715D02*
X78546264Y-63710934D01*
X78546264Y-63710934D02*
X78517803Y-63649900D01*
X78517803Y-63649900D02*
X78444595Y-63572579D01*
X78444595Y-63572579D02*
X78281893Y-63462685D01*
X78281893Y-63462685D02*
X78208685Y-63385365D01*
X78208685Y-63385365D02*
X78180224Y-63324331D01*
X78180224Y-63324331D02*
X78168050Y-63218550D01*
X78168050Y-63218550D02*
X78200624Y-63129055D01*
X78200624Y-63129055D02*
X78277944Y-63055847D01*
X78277944Y-63055847D02*
X78338978Y-63027387D01*
X78338978Y-63027387D02*
X78444760Y-63015213D01*
X78444760Y-63015213D02*
X78668496Y-63096646D01*
X78668496Y-63096646D02*
X78786451Y-63190253D01*
X79115969Y-63259513D02*
X78997685Y-64280639D01*
X78997685Y-64280639D02*
X79420974Y-63674576D01*
X79420974Y-63674576D02*
X79355663Y-64410932D01*
X79355663Y-64410932D02*
X79921419Y-63552673D01*
X80429597Y-64801812D02*
X79892630Y-64606372D01*
X80161114Y-64704092D02*
X80503134Y-63764400D01*
X80503134Y-63764400D02*
X80364779Y-63866068D01*
X80364779Y-63866068D02*
X80242711Y-63922989D01*
X80242711Y-63922989D02*
X80136930Y-63935163D01*
X81097022Y-64081908D02*
X81158056Y-64053447D01*
X81158056Y-64053447D02*
X81263837Y-64041273D01*
X81263837Y-64041273D02*
X81487574Y-64122706D01*
X81487574Y-64122706D02*
X81560782Y-64200027D01*
X81560782Y-64200027D02*
X81589242Y-64261061D01*
X81589242Y-64261061D02*
X81601416Y-64366842D01*
X81601416Y-64366842D02*
X81568843Y-64456337D01*
X81568843Y-64456337D02*
X81475235Y-64574292D01*
X81475235Y-64574292D02*
X80742828Y-64915819D01*
X80742828Y-64915819D02*
X81324543Y-65127546D01*
D11*
%TO.C,SW30*%
X179519038Y-127368779D02*
X184717744Y-141652107D01*
X184717744Y-141652107D02*
X199001072Y-136453401D01*
X193802366Y-122170073D02*
X179519038Y-127368779D01*
X199001072Y-136453401D02*
X193802366Y-122170073D01*
%TO.C,SW3*%
X96344275Y-48978045D02*
X91145569Y-63261373D01*
X91145569Y-63261373D02*
X105428897Y-68460079D01*
X110627603Y-54176751D02*
X96344275Y-48978045D01*
X105428897Y-68460079D02*
X110627603Y-54176751D01*
%TO.C,SW10*%
X216466595Y-57838800D02*
X221665301Y-72122128D01*
X221665301Y-72122128D02*
X235948629Y-66923422D01*
X230749923Y-52640094D02*
X216466595Y-57838800D01*
X235948629Y-66923422D02*
X230749923Y-52640094D01*
%TO.C,SW5*%
X124940301Y-75668067D02*
X119741595Y-89951395D01*
X119741595Y-89951395D02*
X134024923Y-95150101D01*
X139223629Y-80866773D02*
X124940301Y-75668067D01*
X134024923Y-95150101D02*
X139223629Y-80866773D01*
%TO.C,SW28*%
X109690871Y-130722652D02*
X104492165Y-145005980D01*
X104492165Y-145005980D02*
X118775493Y-150204686D01*
X123974199Y-135921358D02*
X109690871Y-130722652D01*
X118775493Y-150204686D02*
X123974199Y-135921358D01*
%TO.C,SW22*%
X84715590Y-80927594D02*
X79516884Y-95210922D01*
X79516884Y-95210922D02*
X93800212Y-100409628D01*
X98998918Y-86126300D02*
X84715590Y-80927594D01*
X93800212Y-100409628D02*
X98998918Y-86126300D01*
%TO.C,SW14*%
X105990814Y-75102875D02*
X100792108Y-89386203D01*
X100792108Y-89386203D02*
X115075436Y-94584909D01*
X120274142Y-80301581D02*
X105990814Y-75102875D01*
X115075436Y-94584909D02*
X120274142Y-80301581D01*
%TO.C,SW1*%
X56700998Y-52640094D02*
X51502292Y-66923422D01*
X51502292Y-66923422D02*
X65785620Y-72122128D01*
X70984326Y-57838800D02*
X56700998Y-52640094D01*
X65785620Y-72122128D02*
X70984326Y-57838800D01*
%TO.C,SW19*%
X201005713Y-67988856D02*
X206204419Y-82272184D01*
X206204419Y-82272184D02*
X220487747Y-77073478D01*
X215289041Y-62790150D02*
X201005713Y-67988856D01*
X220487747Y-77073478D02*
X215289041Y-62790150D01*
%TO.C,SW6*%
X148227292Y-80866773D02*
X153425998Y-95150101D01*
X153425998Y-95150101D02*
X167709326Y-89951395D01*
X162510620Y-75668067D02*
X148227292Y-80866773D01*
X167709326Y-89951395D02*
X162510620Y-75668067D01*
%TO.C,SW4*%
X111805157Y-59128101D02*
X106606451Y-73411429D01*
X106606451Y-73411429D02*
X120889779Y-78610135D01*
X126088485Y-64326807D02*
X111805157Y-59128101D01*
X120889779Y-78610135D02*
X126088485Y-64326807D01*
%TO.C,SW15*%
X119125959Y-91642841D02*
X113927253Y-105926169D01*
X113927253Y-105926169D02*
X128210581Y-111124875D01*
X133409287Y-96841547D02*
X119125959Y-91642841D01*
X128210581Y-111124875D02*
X133409287Y-96841547D01*
%TO.C,SW11*%
X50886656Y-68614869D02*
X45687950Y-82898197D01*
X45687950Y-82898197D02*
X59971278Y-88096903D01*
X65169984Y-73813575D02*
X50886656Y-68614869D01*
X59971278Y-88096903D02*
X65169984Y-73813575D01*
%TO.C,SW26*%
X206820056Y-83963631D02*
X212018762Y-98246959D01*
X212018762Y-98246959D02*
X226302090Y-93048253D01*
X221103384Y-78764925D02*
X206820056Y-83963631D01*
X226302090Y-93048253D02*
X221103384Y-78764925D01*
%TO.C,SW9*%
X195191371Y-52014082D02*
X200390077Y-66297410D01*
X200390077Y-66297410D02*
X214673405Y-61098704D01*
X209474699Y-46815376D02*
X195191371Y-52014082D01*
X214673405Y-61098704D02*
X209474699Y-46815376D01*
%TO.C,SW25*%
X188452003Y-86126300D02*
X193650709Y-100409628D01*
X193650709Y-100409628D02*
X207934037Y-95210922D01*
X202735331Y-80927594D02*
X188452003Y-86126300D01*
X207934037Y-95210922D02*
X202735331Y-80927594D01*
%TO.C,SW8*%
X176823318Y-54176751D02*
X182022024Y-68460079D01*
X182022024Y-68460079D02*
X196305352Y-63261373D01*
X191106646Y-48978045D02*
X176823318Y-54176751D01*
X196305352Y-63261373D02*
X191106646Y-48978045D01*
%TO.C,SW24*%
X172991121Y-96276356D02*
X178189827Y-110559684D01*
X178189827Y-110559684D02*
X192473155Y-105360978D01*
X187274449Y-91077650D02*
X172991121Y-96276356D01*
X192473155Y-105360978D02*
X187274449Y-91077650D01*
%TO.C,SW17*%
X167176779Y-80301581D02*
X172375485Y-94584909D01*
X172375485Y-94584909D02*
X186658813Y-89386203D01*
X181460107Y-75102875D02*
X167176779Y-80301581D01*
X186658813Y-89386203D02*
X181460107Y-75102875D01*
%TO.C,SW27*%
X93648555Y-122170073D02*
X88449849Y-136453401D01*
X88449849Y-136453401D02*
X102733177Y-141652107D01*
X107931883Y-127368779D02*
X93648555Y-122170073D01*
X102733177Y-141652107D02*
X107931883Y-127368779D01*
%TO.C,SW29*%
X163476722Y-135921358D02*
X168675428Y-150204686D01*
X168675428Y-150204686D02*
X182958756Y-145005980D01*
X177760050Y-130722652D02*
X163476722Y-135921358D01*
X182958756Y-145005980D02*
X177760050Y-130722652D01*
%TO.C,SW23*%
X100176472Y-91077650D02*
X94977766Y-105360978D01*
X94977766Y-105360978D02*
X109261094Y-110559684D01*
X114459800Y-96276356D02*
X100176472Y-91077650D01*
X109261094Y-110559684D02*
X114459800Y-96276356D01*
%TO.C,SW13*%
X90529933Y-64952819D02*
X85331227Y-79236147D01*
X85331227Y-79236147D02*
X99614555Y-84434853D01*
X104813261Y-70151525D02*
X90529933Y-64952819D01*
X99614555Y-84434853D02*
X104813261Y-70151525D01*
%TO.C,SW18*%
X182637660Y-70151525D02*
X187836366Y-84434853D01*
X187836366Y-84434853D02*
X202119694Y-79236147D01*
X196920988Y-64952819D02*
X182637660Y-70151525D01*
X202119694Y-79236147D02*
X196920988Y-64952819D01*
%TO.C,SW21*%
X66347537Y-78764925D02*
X61148831Y-93048253D01*
X61148831Y-93048253D02*
X75432159Y-98246959D01*
X80630865Y-83963631D02*
X66347537Y-78764925D01*
X75432159Y-98246959D02*
X80630865Y-83963631D01*
%TO.C,SW7*%
X161362436Y-64326807D02*
X166561142Y-78610135D01*
X166561142Y-78610135D02*
X180844470Y-73411429D01*
X175645764Y-59128101D02*
X161362436Y-64326807D01*
X180844470Y-73411429D02*
X175645764Y-59128101D01*
%TO.C,SW20*%
X222280937Y-73813575D02*
X227479643Y-88096903D01*
X227479643Y-88096903D02*
X241762971Y-82898197D01*
X236564265Y-68614869D02*
X222280937Y-73813575D01*
X241762971Y-82898197D02*
X236564265Y-68614869D01*
%TO.C,SW2*%
X77976222Y-46815376D02*
X72777516Y-61098704D01*
X72777516Y-61098704D02*
X87060844Y-66297410D01*
X92259550Y-52014082D02*
X77976222Y-46815376D01*
X87060844Y-66297410D02*
X92259550Y-52014082D01*
%TO.C,SW16*%
X154041634Y-96841547D02*
X159240340Y-111124875D01*
X159240340Y-111124875D02*
X173523668Y-105926169D01*
X168324962Y-91642841D02*
X154041634Y-96841547D01*
X173523668Y-105926169D02*
X168324962Y-91642841D01*
%TO.C,SW12*%
X72161880Y-62790150D02*
X66963174Y-77073478D01*
X66963174Y-77073478D02*
X81246502Y-82272184D01*
X86445208Y-67988856D02*
X72161880Y-62790150D01*
X81246502Y-82272184D02*
X86445208Y-67988856D01*
%TD*%
M02*
